<svg width="1838" height="1176" viewBox="0 0 1838 1176" fill="none" xmlns="http://www.w3.org/2000/svg">
<path d="M1507 695.62C1507 690.156 1500.32 687.393 1495.5 689.961C1489.25 693.287 1483.74 693.137 1477.49 689.747C1472.64 687.114 1466 689.949 1466 695.47V695.47C1466 698.968 1468.84 701.803 1472.33 701.803H1500.82C1504.23 701.803 1507 699.035 1507 695.62V695.62Z" fill="white"/>
<path d="M1473.13 689.101C1473.13 694.68 1477.39 699.203 1482.64 699.203C1487.89 699.203 1492.14 694.68 1492.14 689.101C1492.14 683.523 1487.89 679 1482.64 679C1477.39 679 1473.13 683.523 1473.13 689.101Z" fill="white"/>
<path d="M1487.69 689.028C1487.69 692.473 1490.35 695.267 1493.63 695.267C1496.91 695.267 1499.57 692.473 1499.57 689.028C1499.57 685.582 1496.91 682.789 1493.63 682.789C1490.35 682.789 1487.69 685.582 1487.69 689.028Z" fill="white"/>
<circle cx="1463" cy="509" r="10" fill="#D93D04"/>
<circle cx="1593" cy="350" r="10" fill="#3B82BF"/>
<ellipse rx="12.5676" ry="13.8738" transform="matrix(-1 0 0 1 199.432 530.295)" fill="#CEE2FF"/>
<ellipse rx="13.8624" ry="13.8738" transform="matrix(-1 0 0 1 180.619 525.874)" fill="#CEE2FF"/>
<ellipse rx="13.8624" ry="13.8738" transform="matrix(-1 0 0 1 180.619 535.326)" fill="#CEE2FF"/>
<ellipse rx="11.9582" ry="13.8738" transform="matrix(-1 0 0 1 161.958 531.667)" fill="#CEE2FF"/>
<path d="M149 701.645C149 690.584 162.518 684.991 172.282 690.189C184.93 696.922 196.093 696.618 208.742 689.755C218.566 684.426 232 690.164 232 701.341V701.341C232 708.422 226.26 714.163 219.178 714.163H161.518C154.605 714.163 149 708.558 149 701.645V701.645Z" fill="#5FABFC"/>
<path d="M217.565 688.449C217.565 699.743 208.948 708.899 198.319 708.899C187.689 708.899 179.072 699.743 179.072 688.449C179.072 677.155 187.689 668 198.319 668C208.948 668 217.565 677.155 217.565 688.449Z" fill="#5FABFC"/>
<path d="M188.094 688.3C188.094 695.276 182.709 700.931 176.065 700.931C169.422 700.931 164.036 695.276 164.036 688.3C164.036 681.325 169.422 675.67 176.065 675.67C182.709 675.67 188.094 681.325 188.094 688.3Z" fill="#5FABFC"/>
</svg>
