<svg width="1838" height="1176" viewBox="0 0 1838 1176" fill="none" xmlns="http://www.w3.org/2000/svg">
<path d="M1626 760.62C1626 755.156 1619.32 752.393 1614.5 754.961C1608.25 758.287 1602.74 758.137 1596.49 754.747C1591.64 752.114 1585 754.949 1585 760.47V760.47C1585 763.968 1587.84 766.803 1591.33 766.803H1619.82C1623.23 766.803 1626 764.035 1626 760.62V760.62Z" fill="#5FABFC"/>
<path d="M1592.13 754.101C1592.13 759.68 1596.39 764.203 1601.64 764.203C1606.89 764.203 1611.14 759.68 1611.14 754.101C1611.14 748.523 1606.89 744 1601.64 744C1596.39 744 1592.13 748.523 1592.13 754.101Z" fill="#5FABFC"/>
<path d="M1606.69 754.028C1606.69 757.473 1609.35 760.267 1612.63 760.267C1615.91 760.267 1618.57 757.473 1618.57 754.028C1618.57 750.582 1615.91 747.789 1612.63 747.789C1609.35 747.789 1606.69 750.582 1606.69 754.028Z" fill="#5FABFC"/>
<ellipse cx="290.273" cy="606.033" rx="19.2725" ry="21.2582" fill="white"/>
<circle cx="319.123" cy="599.258" r="21.2582" fill="white"/>
<circle cx="319.123" cy="613.742" r="21.2582" fill="white"/>
<ellipse cx="347.739" cy="608.135" rx="18.3381" ry="21.2582" fill="white"/>
<circle cx="234.5" cy="340.5" r="7.5" fill="#D93D04"/>
</svg>
