<svg width="1838" height="1176" viewBox="0 0 1838 1176" fill="none" xmlns="http://www.w3.org/2000/svg">
<path d="M1621 568.754C1621 558.626 1608.62 553.505 1599.68 558.264C1588.1 564.429 1577.88 564.151 1566.3 557.867C1557.3 552.987 1545 558.242 1545 568.476V568.476C1545 574.96 1550.26 580.216 1556.74 580.216H1609.54C1615.87 580.216 1621 575.084 1621 568.754V568.754Z" fill="#A0CEFF"/>
<path d="M1558.22 556.671C1558.22 567.013 1566.11 575.396 1575.84 575.396C1585.57 575.396 1593.46 567.013 1593.46 556.671C1593.46 546.33 1585.57 537.947 1575.84 537.947C1566.11 537.947 1558.22 546.33 1558.22 556.671Z" fill="#A0CEFF"/>
<path d="M1585.2 556.535C1585.2 562.922 1590.13 568.1 1596.22 568.1C1602.3 568.1 1607.23 562.922 1607.23 556.535C1607.23 550.148 1602.3 544.97 1596.22 544.97C1590.13 544.97 1585.2 550.148 1585.2 556.535Z" fill="#A0CEFF"/>
<circle cx="1646.5" cy="850.5" r="7.5" fill="#FDDF61"/>
<circle cx="217" cy="843" r="10" fill="#79C4F2"/>
<circle cx="346" cy="477" r="10" fill="#FDDF61"/>
</svg>
