<svg width="42" height="40" viewBox="0 0 42 40" fill="none" xmlns="http://www.w3.org/2000/svg">
<path d="M9.94617 8.03684C10.5363 5.43156 14.0081 4.88214 15.4257 7.16971V7.16971C16.4112 8.75998 15.7244 10.837 13.9903 11.5109V11.5109C11.7461 12.383 9.41526 10.3807 9.94617 8.03684V8.03684Z" fill="#3B82BF"/>
<path d="M11.6832 7.69787C11.8752 6.66074 13.2953 6.49867 13.7371 7.46348V7.46348C14.0038 8.04599 13.7112 8.72578 13.1063 8.92892V8.92892C12.3205 9.19279 11.5327 8.51127 11.6832 7.69787V7.69787Z" fill="#3B82BF"/>
<path d="M31.153 7.57544C30.5227 4.96043 27.0148 4.44521 25.4983 6.7449V6.7449C24.3982 8.41307 25.0978 10.6129 26.9428 11.2866V11.2866C29.2974 12.1465 31.7366 9.99645 31.153 7.57544V7.57544Z" fill="#3B82BF"/>
<path d="M29.3409 7.3742C29.1337 6.32216 27.683 6.17598 27.2041 7.15889V7.15889C26.9053 7.77212 27.2075 8.48948 27.8499 8.69222V8.69222C28.6776 8.95341 29.5075 8.21981 29.3409 7.3742V7.3742Z" fill="#3B82BF"/>
<path d="M14.6591 17.8686C11.5674 18.0122 9.75501 15.5216 9.63899 13.7098C9.52297 11.898 11.9352 10.3128 15.027 10.1692C18.1187 10.0256 20.7191 11.3779 20.8351 13.1897C20.9511 15.0015 17.7509 17.725 14.6591 17.8686Z" fill="#3B82BF"/>
<path d="M20.2797 16.1347C17.188 16.2788 15.3761 13.7884 15.2605 11.9766C15.1448 10.1648 17.5574 8.57922 20.6491 8.43516C23.7408 8.2911 26.3408 9.64309 26.4565 11.4549C26.5721 13.2667 23.3714 15.9907 20.2797 16.1347Z" fill="#3B82BF"/>
<path d="M26.3515 17.8686C23.2598 18.0122 21.4474 15.5216 21.3314 13.7098C21.2154 11.898 23.6276 10.3128 26.7193 10.1692C29.8111 10.0256 32.4114 11.3779 32.5275 13.1897C32.6435 15.0015 29.4432 17.725 26.3515 17.8686Z" fill="#3B82BF"/>
<path d="M27.2305 30.7507C29.9404 30.7365 31.4036 33.2998 31.4167 35.1142C31.4299 36.9287 29.2437 38.4112 26.5337 38.4254C23.8238 38.4396 21.6163 36.9803 21.6032 35.1658C21.59 33.3513 24.5206 30.7649 27.2305 30.7507Z" fill="#3B82BF"/>
<path d="M32.626 27.5288C35.3359 27.5145 36.7991 30.0778 36.8122 31.8923C36.8254 33.7068 34.6392 35.1892 31.9292 35.2035C29.2193 35.2177 27.0118 33.7583 26.9987 31.9439C26.9855 30.1294 29.9161 27.543 32.626 27.5288Z" fill="#3B82BF"/>
<path d="M29.9287 29.0908C32.6387 29.0765 34.1018 31.6399 34.115 33.4543C34.1281 35.2688 31.9419 36.7512 29.232 36.7655C26.522 36.7797 24.3145 35.3203 24.3014 33.5059C24.2883 31.6914 27.2188 29.105 29.9287 29.0908Z" fill="#3B82BF"/>
<path d="M34.3125 24.2089C37.0225 24.1947 38.4856 26.758 38.4988 28.5725C38.5119 30.3869 36.3257 31.8694 33.6158 31.8836C30.9058 31.8979 28.6983 30.4385 28.6852 28.624C28.672 26.8096 31.6026 24.2232 34.3125 24.2089Z" fill="#3B82BF"/>
<path d="M10.0507 33.6662C6.95903 33.8098 5.14662 31.3192 5.03059 29.5074C4.91457 27.6956 7.32684 26.1104 10.4186 25.9668C13.5103 25.8232 16.1107 27.1755 16.2267 28.9873C16.3427 30.7992 13.1425 33.5226 10.0507 33.6662Z" fill="#3B82BF"/>
<path d="M3.34213 24.8505C3.20632 22.1641 6.09117 20.6139 8.17831 20.5304C10.2654 20.4469 12.0675 22.5571 12.2033 25.2435C12.3391 27.9299 10.7573 30.1753 8.67013 30.2588C6.583 30.3422 3.47795 27.5369 3.34213 24.8505Z" fill="#3B82BF"/>
<path d="M4.46616 20.3588C4.33034 17.6724 7.2152 16.1222 9.30233 16.0387C11.3895 15.9552 13.1915 18.0654 13.3273 20.7518C13.4631 23.4382 11.8813 25.6836 9.79416 25.7671C7.70703 25.8506 4.60197 23.0452 4.46616 20.3588Z" fill="#3B82BF"/>
<path d="M6.26499 16.3559C6.12917 13.6695 9.01403 12.1192 11.1012 12.0358C13.1883 11.9523 14.9903 14.0624 15.1262 16.7488C15.262 19.4353 13.6801 21.6807 11.593 21.7642C9.50585 21.8476 6.4008 19.0423 6.26499 16.3559Z" fill="#3B82BF"/>
<path d="M28.0746 17.2346C27.9387 14.5481 30.8236 12.9979 32.9107 12.9144C34.9979 12.831 36.7999 14.9411 36.9357 17.6275C37.0715 20.3139 35.4897 22.5594 33.4026 22.6428C31.3154 22.7263 28.2104 19.921 28.0746 17.2346Z" fill="#3B82BF"/>
<path d="M29.1368 21.5852C28.6747 19.2648 31.6378 17.5397 33.9029 17.1951C36.168 16.8505 38.3789 18.4522 38.841 20.7727C39.3031 23.0931 37.8415 25.2535 35.5764 25.598C33.3112 25.9426 29.5989 23.9056 29.1368 21.5852Z" fill="#3B82BF"/>
<path d="M38.0141 22.6192C39.8767 24.7672 38.5087 27.4633 36.8424 28.5581C35.1762 29.6529 32.3154 28.7991 30.4528 26.6512C28.5901 24.5032 28.4308 21.8745 30.0971 20.7797C31.7634 19.6849 36.1514 20.4713 38.0141 22.6192Z" fill="#3B82BF"/>
<path d="M14.4324 37.6612C11.3407 37.8048 8.06936 35.5252 7.95334 33.7134C7.83732 31.9016 10.2496 30.3164 13.3413 30.1728C16.433 30.0292 20.3871 31.3815 20.5032 33.1933C20.6192 35.0051 17.5241 37.5176 14.4324 37.6612Z" fill="#3B82BF"/>
<path d="M18.7039 39.7118C15.6122 39.8554 12.3408 37.5757 12.2248 35.7639C12.1088 33.9521 14.5211 32.3669 17.6128 32.2233C20.7045 32.0797 24.6586 33.432 24.7746 35.2438C24.8907 37.0556 21.7956 39.5682 18.7039 39.7118Z" fill="#3B82BF"/>
<path d="M23.2009 39.4188C20.1092 39.5624 16.8379 37.2827 16.7219 35.4709C16.6059 33.6591 19.0181 32.074 22.1099 31.9304C25.2016 31.7868 29.1557 33.1391 29.2717 34.9509C29.3877 36.7627 26.2927 39.2752 23.2009 39.4188Z" fill="#3B82BF"/>
<ellipse cx="21.5713" cy="24.2709" rx="16.8633" ry="14.3617" fill="#3B82BF"/>
<path d="M23.2374 23.9844C23.2374 24.5296 22.3826 25.6131 21.3282 25.6131C20.2737 25.6131 19.4189 24.5296 19.4189 23.9844C19.4189 23.4393 20.2737 22.9973 21.3282 22.9973C22.3826 22.9973 23.2374 23.4393 23.2374 23.9844Z" fill="#3B82BF"/>
<path d="M0.999752 27.2467C5.51972 23.9318 8.30905 23.3597 13.6609 24.2402" stroke="#3B82BF" stroke-width="3"/>
<path d="M1.89394 30.6951C5.96318 27.334 8.63914 26.3496 14.0089 26.0277" stroke="#3B82BF" stroke-width="3"/>
<path d="M40.829 27.1042C37.0839 23.6369 34.2753 23.0216 27.8491 24.0331" stroke="#3B82BF" stroke-width="3"/>
<path d="M40.719 30.1206C35.7189 26.4191 33.224 25.5477 28.1037 25.8521" stroke="#3B82BF" stroke-width="3"/>
<ellipse rx="1.02438" ry="1.37006" transform="matrix(-1.06246 -0.00517193 -0.00636833 0.928103 24.7642 21.498)" fill="#3B82BF"/>
<path fill-rule="evenodd" clip-rule="evenodd" d="M24.4376 22.7041C24.8481 22.5214 25.1386 22.0562 25.1363 21.5121C25.134 20.9478 24.8173 20.4702 24.381 20.3053C24.5004 20.2522 24.6299 20.223 24.7652 20.2225C25.3663 20.2207 25.856 20.7886 25.859 21.4909C25.862 22.1931 25.3771 22.7639 24.776 22.7657C24.6579 22.766 24.5442 22.7444 24.4376 22.7041Z" fill="#3B82BF"/>
<ellipse rx="1.02438" ry="1.37006" transform="matrix(-1.06246 -0.00517193 -0.00636833 0.928103 17.69 21.4848)" fill="#3B82BF"/>
<path fill-rule="evenodd" clip-rule="evenodd" d="M17.3614 22.6907C17.7719 22.5079 18.0625 22.0428 18.0602 21.4987C18.0578 20.9343 17.7411 20.4568 17.3049 20.2919C17.4242 20.2388 17.5537 20.2095 17.6891 20.2091C18.2902 20.2073 18.7799 20.7752 18.7828 21.4774C18.7858 22.1797 18.3009 22.7505 17.6998 22.7523C17.5818 22.7526 17.468 22.731 17.3614 22.6907Z" fill="#3B82BF"/>
</svg>
