<svg width="1838" height="1176" viewBox="0 0 1838 1176" fill="none" xmlns="http://www.w3.org/2000/svg">
<circle cx="176" cy="817" r="10" fill="#79C4F2"/>
<circle cx="305" cy="451" r="10" fill="#FDDF61"/>
<circle cx="1715" cy="705" r="10" fill="#E78141"/>
<path d="M1720.86 437.457C1723.98 439.538 1721.86 454.382 1719.66 457.526C1717.46 460.669 1713.09 463.992 1709.97 461.911C1706.85 459.83 1706.17 453.134 1708.37 449.991C1710.57 446.847 1717.74 435.376 1720.86 437.457Z" fill="#7DD070"/>
<path d="M1685.27 449.961C1687.97 446.933 1703.38 450.565 1706.37 453.145C1709.35 455.726 1712.18 460.578 1709.48 463.606C1706.78 466.633 1699.57 466.69 1696.59 464.11C1693.6 461.529 1682.57 452.988 1685.27 449.961Z" fill="#7DD070"/>
<path d="M1708.85 460.01C1708.56 459.276 1708.82 458.437 1709.47 457.997V457.997C1710.39 457.382 1711.63 457.791 1712.02 458.822C1718.74 476.835 1724.97 486.086 1738.71 498.46C1739.52 499.195 1739.44 500.507 1738.53 501.121V501.121C1737.88 501.559 1737.01 501.485 1736.44 500.946C1722.52 487.727 1716.07 478.523 1708.85 460.01Z" fill="#7DD070"/>
</svg>
