<svg width="1838" height="1176" viewBox="0 0 1838 1176" fill="none" xmlns="http://www.w3.org/2000/svg">
<circle cx="174.5" cy="273.5" r="7.5" fill="#D93D04"/>
<circle cx="1720" cy="286" r="10" fill="#3B82BF"/>
<path d="M277.5 701.184C277.5 706.707 271.523 711.184 266 711.184C260.477 711.184 256 706.707 256 701.184C256 695.662 264 687.685 270.5 689.184C276.023 689.184 277.5 695.662 277.5 701.184Z" fill="#BEAED5"/>
<path d="M260 706.185C260 711.707 259.523 717.685 254 717.685C248.477 717.685 238 711.707 238 706.185C238 700.662 242.477 696.185 248 696.185C253.523 696.185 260 700.662 260 706.185Z" fill="#BEAED5"/>
<path d="M290 714.185C290 719.707 285.523 724.185 280 724.185C274.477 724.185 268.5 719.707 268.5 714.185C268.5 708.662 272.977 704.185 278.5 704.185C284.023 704.185 290 708.662 290 714.185Z" fill="#BEAED5"/>
<path d="M260 724.185C260 729.707 255.523 736.185 250 736.185C244.477 736.185 239 729.707 239 724.185C239 718.662 244.477 714.185 250 714.185C255.523 714.185 260 718.662 260 724.185Z" fill="#BEAED5"/>
<path d="M277.895 729.685C277.895 735.207 272.917 741.185 267.395 741.185C261.872 741.185 257.395 735.207 257.395 729.685C257.395 724.162 261.872 719.685 267.395 719.685C272.917 719.685 277.895 724.162 277.895 729.685Z" fill="#BEAED5"/>
<circle cx="264" cy="716.185" r="8" fill="#FDDF61"/>
<path d="M1630.5 547.184C1630.5 552.707 1624.52 557.184 1619 557.184C1613.48 557.184 1609 552.707 1609 547.184C1609 541.662 1617 533.685 1623.5 535.184C1629.02 535.184 1630.5 541.662 1630.5 547.184Z" fill="#79C4F2"/>
<path d="M1613 552.185C1613 557.707 1612.52 563.685 1607 563.685C1601.48 563.685 1591 557.707 1591 552.185C1591 546.662 1595.48 542.185 1601 542.185C1606.52 542.185 1613 546.662 1613 552.185Z" fill="#79C4F2"/>
<path d="M1643 560.185C1643 565.707 1638.52 570.185 1633 570.185C1627.48 570.185 1621.5 565.707 1621.5 560.185C1621.5 554.662 1625.98 550.185 1631.5 550.185C1637.02 550.185 1643 554.662 1643 560.185Z" fill="#79C4F2"/>
<path d="M1613 570.185C1613 575.707 1608.52 582.185 1603 582.185C1597.48 582.185 1592 575.707 1592 570.185C1592 564.662 1597.48 560.185 1603 560.185C1608.52 560.185 1613 564.662 1613 570.185Z" fill="#79C4F2"/>
<path d="M1630.89 575.685C1630.89 581.207 1625.92 587.185 1620.39 587.185C1614.87 587.185 1610.39 581.207 1610.39 575.685C1610.39 570.162 1614.87 565.685 1620.39 565.685C1625.92 565.685 1630.89 570.162 1630.89 575.685Z" fill="#79C4F2"/>
<circle cx="1617" cy="562.185" r="8" fill="#FFD5AE"/>
</svg>
