<svg width="1838" height="1176" viewBox="0 0 1838 1176" fill="none" xmlns="http://www.w3.org/2000/svg">
<circle cx="1593" cy="415" r="10" fill="#D93D04"/>
<path d="M205.5 481C205.5 486.523 199.523 491 194 491C188.477 491 184 486.523 184 481C184 475.477 192 467.5 198.5 469C204.023 469 205.5 475.477 205.5 481Z" fill="#FDDF61"/>
<path d="M188 486C188 491.523 187.523 497.5 182 497.5C176.477 497.5 166 491.523 166 486C166 480.477 170.477 476 176 476C181.523 476 188 480.477 188 486Z" fill="#FDDF61"/>
<path d="M218 494C218 499.523 213.523 504 208 504C202.477 504 196.5 499.523 196.5 494C196.5 488.477 200.977 484 206.5 484C212.023 484 218 488.477 218 494Z" fill="#FDDF61"/>
<path d="M188 504C188 509.523 183.523 516 178 516C172.477 516 167 509.523 167 504C167 498.477 172.477 494 178 494C183.523 494 188 498.477 188 504Z" fill="#FDDF61"/>
<path d="M205.895 509.5C205.895 515.023 200.917 521 195.395 521C189.872 521 185.395 515.023 185.395 509.5C185.395 503.977 189.872 499.5 195.395 499.5C200.917 499.5 205.895 503.977 205.895 509.5Z" fill="#FDDF61"/>
<circle cx="192" cy="496" r="8" fill="#FFA685"/>
<path d="M1659.5 730.184C1659.5 735.707 1653.52 740.184 1648 740.184C1642.48 740.184 1638 735.707 1638 730.184C1638 724.662 1646 716.685 1652.5 718.184C1658.02 718.184 1659.5 724.662 1659.5 730.184Z" fill="#FDDF61"/>
<path d="M1642 735.185C1642 740.707 1641.52 746.685 1636 746.685C1630.48 746.685 1620 740.707 1620 735.185C1620 729.662 1624.48 725.185 1630 725.185C1635.52 725.185 1642 729.662 1642 735.185Z" fill="#FDDF61"/>
<path d="M1672 743.185C1672 748.707 1667.52 753.185 1662 753.185C1656.48 753.185 1650.5 748.707 1650.5 743.185C1650.5 737.662 1654.98 733.185 1660.5 733.185C1666.02 733.185 1672 737.662 1672 743.185Z" fill="#FDDF61"/>
<path d="M1642 753.185C1642 758.707 1637.52 765.185 1632 765.185C1626.48 765.185 1621 758.707 1621 753.185C1621 747.662 1626.48 743.185 1632 743.185C1637.52 743.185 1642 747.662 1642 753.185Z" fill="#FDDF61"/>
<path d="M1659.89 758.685C1659.89 764.207 1654.92 770.185 1649.39 770.185C1643.87 770.185 1639.39 764.207 1639.39 758.685C1639.39 753.162 1643.87 748.685 1649.39 748.685C1654.92 748.685 1659.89 753.162 1659.89 758.685Z" fill="#FDDF61"/>
<circle cx="1646" cy="745.185" r="8" fill="#3B82BF"/>
<path d="M282.64 554.87C284.68 560.002 270.263 576.467 265.131 578.506C259.998 580.545 252.135 581.004 250.095 575.872C248.056 570.739 252.613 561.959 257.746 559.919C262.878 557.88 280.601 549.737 282.64 554.87Z" fill="#7DD070"/>
</svg>
