<svg xmlns="http://www.w3.org/2000/svg" viewBox="0 0 83.98 43.61"><defs><style>.cls-1{fill:#2c2321;}.cls-2{fill:#fbf4e8;}.cls-3{fill:#f8f2e6;}.cls-4{fill:#faf3e7;}.cls-5{fill:#efe9de;}</style></defs><g id="레이어_2" data-name="레이어 2"><g id="레이어_1-2" data-name="레이어 1"><path class="cls-1" d="M77.31.34c.92-.43,1.92-.15,2.86-.34a5,5,0,0,1,2.9,4.79,2.05,2.05,0,0,0,.24,1.68c.16.41-.4.71-.19,1.14-.7,1-1.76-.86-2-1.49a3.61,3.61,0,0,0-2.52-3.68C77.32,2,73.89.45,77.31.34Z"/><path class="cls-1" d="M3.59,41.8C4.3,40.56,8,35.32,9.32,37.12c.1,1.18,0,2.19-1.22,2.77.44.32,2,.65.94,1.25-1.07.38-.25,2-1.58,2-.65.56-1.41.35-2.15.31C4.73,42.89,4.33,42.16,3.59,41.8Z"/><path class="cls-1" d="M7.46,43.13c1.48-.74-.42-2,2-2.35l-2-.77c2.24-1.59,4.9-2.89,7.5-1.6.46.19.67.46.35.93-1.42,1.25-3.4,1.25-4.79,2.38C9.64,42.46,8.77,43.27,7.46,43.13Z"/><path class="cls-1" d="M38.55,35.76l-5,0c-1.52-.33-3.61.66-3.66-1.93,1.63-.63,2.05,1.68,3.78-.13a4.34,4.34,0,0,1,3-.2c1.28.22,2.16-.6,3,1.09.68.13,1.57-1,2.3-.1.14.47-.64.38-.52.85C40.51,36,39.38,35.17,38.55,35.76Z"/><path class="cls-1" d="M80.64,35.73c-1.13.63-4.79.42-4.68-1.26,1-1.74,4.79,0,5-2.47.09-1,1.63-2.85,2.06-1.08A5.46,5.46,0,0,1,80.64,35.73Z"/><path class="cls-1" d="M82.8,32.63c0-.58.22-3.06-.79-2-.25.52-1,.8-.69,1.62.16.47-.84.66-.58,1.32-2.82-.14,1.71-3.13.43-5.24-.5-1.92-.46-3.14,1.83-2.82.37.15.51.6.78.88C82.44,28.06,85,31.28,82.8,32.63Z"/><path class="cls-1" d="M29.25,35.8c-2.8.5-5.6,0-8.4,0,.2-.58.72-.63,1.21-.74.16-.23.55-.09.67-.41-.37,0-.46.28-.68.42-.63-.44-1.94-.5-2.2-1.2.73-.9,1.72-.29,2.57-.38,2.08-.13,4.47-.47,6.36.6.06.64-.68.39-.86.8C28.08,35.58,29.07,35.16,29.25,35.8Z"/><path class="cls-1" d="M41.4,35.26c-.32-.89,1.26,0,0-1.5,1.66-1.41,4,0,6-.53,2.25.27.21,1.91-1.17,1.32-2.43-1-2.81,2.31-5.26,1.35C40.64,35.36,41.3,35.52,41.4,35.26Z"/><path class="cls-1" d="M19.9,33.9l.23.2c.11.54.5,1,.25,1.62-.42-.53-.88.43-1.35,0-.13-.13-.23.21-.16.3.55.65-.29.77-.42,1.16-.63-.83-1.71-.77-2.45-1.43C16.59,34.5,18.74,32.67,19.9,33.9Z"/><path class="cls-1" d="M63.48,36.09a59,59,0,0,1-8.09,0c-1,0-3.21.61-3.73-.63.72-.71,1.88.6,2.63-.55a28.7,28.7,0,0,0,3.4.57C59.47,36.12,62.34,34.09,63.48,36.09Z"/><path class="cls-1" d="M83.54,21.39c.62,1.44-.32,2-1.48,1.17-.91,0-.66-.76-.66-1.31-.55-1.21.2-2,1.46-1.75.56.1.31.73.62,1C83.61,20.78,83.3,21.1,83.54,21.39Z"/><path class="cls-1" d="M72.7,36c-1.78-.28-3.92.56-5.49-.14,1.41-1.35,3.72-1,5.54-1.22C74.06,34.64,74.18,36.58,72.7,36Z"/><path class="cls-1" d="M83.26,10.84a3.12,3.12,0,0,1,.49,2.39c-.47-.6-1.34-.31-1.85-.83-.22-1-1.18-1.91-.41-3.06C82.59,9.23,82.54,10.49,83.26,10.84Z"/><path class="cls-1" d="M28.77,34.13l-.56-.07c.51-.76,1.11-.63,1.74-.17.62,2.32,2.19,1.29,3.57,1.9C32.06,35.92,27.81,36.69,28.77,34.13Z"/><path class="cls-1" d="M51.68,35.51l0,.29c-1.56.81-3.51,0-5.24.16a.26.26,0,0,1-.12-.28c.82-1,2,0,3-.46.84-.36.88-1.73,2.07-1.43C52,34.46,50.79,34.9,51.68,35.51Z"/><path class="cls-1" d="M83.56,13.92c.27.44-.22.85,0,1.28a.73.73,0,0,1-.06,1c-.72-.15-2.35-.56-2.18-1.47.4-.32,1-.58.49-1.24C82.09,12.58,83.46,12.94,83.56,13.92Z"/><path class="cls-1" d="M81.35,20.43c.13.18.42.41.38.53-.89,2.39,3.71,1.13,1.57,3.6a.8.8,0,0,1-.58-.24c-.19-.67-.86-.82-1.33-1.18C81.14,22.24,80.67,21.34,81.35,20.43Z"/><path class="cls-1" d="M17.73,37.68c-2.86,1.47-5.08-2.16-.69-1.32C17.47,36.69,18.07,36.94,17.73,37.68Z"/><path class="cls-1" d="M76.13,34.58c.18,1.74,1.71-.11,1.89,1.42-1,.82-2.21-.08-3.31-.17l-.1-.13C74.89,35.22,75.53,34.2,76.13,34.58Z"/><path class="cls-1" d="M14.87,37.21c.75.89,1.8.36,2.7.55l-2.23,1.58C15.53,38.33,13.5,38.43,14.87,37.21Z"/><path class="cls-1" d="M20.38,35.72c-.09-.54-.51-1-.25-1.62.78,0,1.53.12,1.92,1l-1.2.71Z"/><path class="cls-1" d="M82.86,19.5c-.42.36-1,.19-1.46.44-1.21-2,1.88-2.08,2.49-.48C83.52,19.74,83.19,19.44,82.86,19.5Z"/><path class="cls-1" d="M67.2,35.82l.59.23c-.42.77-1.14.21-1.57.17-.91-.09-1.83,0-2.74-.13-.25-.21-.25-.91,0-.84.86.25,1.78-.48,2.57.21C66.4,35.73,66.92,35.4,67.2,35.82Z"/><path class="cls-1" d="M83.26,10.84c-.49,0-1,.08-.89-.76,0-.39-.64-.34-.8-.71.28-.69.87-.14,1.32-.29.36,0,.5.29.63.56C84.14,10.19,83.47,10.47,83.26,10.84Z"/><path class="cls-1" d="M83.52,9.64a1.24,1.24,0,0,1,0-2.38C84.32,8,83.91,8.84,83.52,9.64Z"/><path class="cls-1" d="M83.27,18.75c-1.53.08-1.31-1.4-.9-2.26C83.64,15.77,83.91,18.13,83.27,18.75Z"/><path class="cls-1" d="M83.56,13.92c-.43-1-1.56-.33-2.07-1-1.09-1.63,1.94-.4,2.26.32Z"/><path class="cls-1" d="M46.46,35.72a1,1,0,0,1,0,.24c-1.12-.14-2.29.36-3.38-.22a.81.81,0,0,1,0-.22C44.23,35.35,45.41,34.61,46.46,35.72Z"/><path class="cls-1" d="M83.31,16.59h-1c-.55.47-1.1-.57-.42-.78a5,5,0,0,1,1.37.31c.35-.24.2-.6.23-.92A1.74,1.74,0,0,1,84,16.57.82.82,0,0,1,83.31,16.59Z"/><path class="cls-1" d="M10.55,41.72c-.49-1.1,1.36-1,1.94-.9A3.74,3.74,0,0,1,10.55,41.72Z"/><path class="cls-1" d="M17.73,37.68c0-.54-.5-.77-.74-1.17s-.92,0-1.2-.47c.4-.92,2.28.35,2.42,1.12C18.05,37.33,18.05,37.66,17.73,37.68Z"/><path class="cls-1" d="M83.52,28.82c-.52-1.25-1.07-1.58.26-2.39A7.44,7.44,0,0,1,83.52,28.82Z"/><path class="cls-1" d="M82.8,24.27c.57.24,1.16.95.45,1.45l-.19,0c-.44-.39-1.21-.6-.77-1.46A.4.4,0,0,1,82.8,24.27Z"/><path class="cls-1" d="M80.64,35.73a3.17,3.17,0,0,1,1.69-1.63C82.51,35.42,81.49,35.48,80.64,35.73Z"/><path class="cls-1" d="M41.4,35.26l-.48.64a7.87,7.87,0,0,0-2.37-.14C39.09,34.86,40.51,35.74,41.4,35.26Z"/><path class="cls-1" d="M83.5,7.26l-.42.23c-.9-.56.22-.67.23-1C83.76,6.64,83.42,7,83.5,7.26Z"/><path class="cls-1" d="M72.7,36c.77.19,1.47-1.16,2-.21C74.06,36.07,73.45,36.73,72.7,36Z"/><path class="cls-1" d="M18.21,37.16c-.22-.31-.79-.35-.71-.91.81-.23.71.51.95.89Z"/><path class="cls-1" d="M83.31,16.59a.63.63,0,0,1,.65,0c-.24.28-.07.76-.45,1C83.1,17.31,83.39,16.91,83.31,16.59Z"/><path class="cls-1" d="M83.54,21.39c-1.27-.23,0-.61-.06-.91A.55.55,0,0,1,83.54,21.39Z"/><path class="cls-2" d="M16.07,35.77l-.25.24c-.25.48-.83.2-1.16.5h0c-.49.87-1.41,1-2.23,1.38-1.17.5-2.2,1.39-3.59,1.24l.35-.69c.17-.51.33-1,.49-1.53,0-.75.5-1.5-.05-2.23a1,1,0,0,1-.14-.6c-.24-.63-.7-.15-1.05-.2-1.19.14-2.38,0-3.56,0-.47-.15-1,.14-1.42-.07-.61-.36-1.36-.48-1.82-1.08a.67.67,0,0,1,0-.48c.4-.37.22-.85.22-1.29a1.12,1.12,0,0,1,0-.32,10,10,0,0,0,.26-1.08c.07-.88-.18-1.75-.08-2.63a1.23,1.23,0,0,1,0-.33,4.2,4.2,0,0,0,.31-1.92,5.12,5.12,0,0,0-.18-1.51c-.1-.4.11-.79,0-1.2a4.91,4.91,0,0,0,.08-1.91,1.67,1.67,0,0,1,0-.32,4.12,4.12,0,0,1-.08-2.41A4,4,0,0,0,2,15.63c0-.88.42-1.71.28-2.6a1.67,1.67,0,0,1,0-.32,4.68,4.68,0,0,0,.11-1.12,2.36,2.36,0,0,1,0-1.29,2.81,2.81,0,0,1,.1-.31,5.56,5.56,0,0,0-.35-2.45c-.08-.51.73-.62.53-1.19A4.38,4.38,0,0,1,3,4.88c.46-.63.72-1.41,1.42-1.86a17.51,17.51,0,0,1,2.3-.92.75.75,0,0,1,.49,0c.49.35,1,0,1.5,0a10.17,10.17,0,0,0,3.21.07,6.83,6.83,0,0,0,1.43.08,4.3,4.3,0,0,0,1.71-.2c.31,0,.62.11.93.14A1.31,1.31,0,0,0,17,2c1.3.25,2.62,0,3.92.12.49,0,1,0,1.46,0a6.59,6.59,0,0,0,1.72.13c.12,0,.24.08.35,0a22.68,22.68,0,0,1,5.7-.22,4.88,4.88,0,0,0,2.46,0c.39-.19.76.38,1.14,0,.49,0,.9-.42,1.41-.25.4-.05.32.76.85.47a1.63,1.63,0,0,1,.79-.06,4.8,4.8,0,0,1,2.41,0A3.44,3.44,0,0,0,40,2a3.23,3.23,0,0,1,.62-.21c1.16.23,2.27.53,3.37-.4.4-.33,1.18.22,1.82.28a30.09,30.09,0,0,0,3.42.14c.24,0,.47.17.72,0,.54.09,1-.34,1.53-.29a4.54,4.54,0,0,0,1.8,0,10.46,10.46,0,0,0,1.77,0,5,5,0,0,1,.67,0,6,6,0,0,0,.85,0c.51,0,1-.55,1.52-.15h0c.53,0,1.07.21,1.58-.07.5.07.88.64,1.47.36.21-.05.43-.09.64-.12a3.46,3.46,0,0,1,1-.09,7.57,7.57,0,0,0,2.6,0,1.56,1.56,0,0,1,1,0,6.25,6.25,0,0,0,2.62-.05,12.37,12.37,0,0,0,3,0,2.27,2.27,0,0,0,2.1-.16,14.15,14.15,0,0,1,4.64.85c1.75,0,1.84,1.79,2.76,2.68.07.07-.43.63-.16,1.06-.34.59.61.91.33,1.49,0,.11-.05.21-.08.32-.13.52.27,1,0,1.56h0c-.42,1.08.24,2,.54,2.89-.2.51-.4-.16-.6,0l.31.92.07.26c.26.56-.3.8-.47,1.2l0,.46c.06.14.09-.07.07.08-.1,1.12.72,2.19.21,3.34-.49.38-.28.9-.27,1.38l-.05.49a6.46,6.46,0,0,0,.35,2.79,1.11,1.11,0,0,1,.17.83,2.1,2.1,0,0,1-.5,1.66,6.36,6.36,0,0,0,.18,2.87,3.7,3.7,0,0,1-1.11,3.57c-.36.3-.78.59-.53,1.17-.32.32-.76.24-1.14.35a2.61,2.61,0,0,1-1.24.07c-2,.45-4,.2-6,.46-1.68-.71-3.46-.25-5.19-.44-.55.09-1.08.24-1.62.37a2,2,0,0,1-.84,0c-.57-.56-1.22-.38-1.89-.25a6.64,6.64,0,0,1-1.41.18,4.53,4.53,0,0,0-3.32.08.91.91,0,0,1-.33,0,4.39,4.39,0,0,0-1.85-.42l-.29.12a1.49,1.49,0,0,1-.91.15c-.66-.13-1.35.27-2-.1-.89-.41-1.82,0-2.72-.14-.27,0-.55.09-.82,0-.54-.38-1.18.06-1.54,0a17.07,17.07,0,0,0-2.56-.15c-.92,0-2-.54-2.84.23s-1.89.1-2.83,0c-.53-.49-1.06.31-1.51.06-1.11-.62-2.19,0-3.28-.06-1.11.38-2.23-.06-3.35,0l-.48,0a2.81,2.81,0,0,0-1.74.17,24.93,24.93,0,0,0-8.31-.16,2.71,2.71,0,0,0-2.41.54A9.87,9.87,0,0,0,16.07,35.77Z"/><path class="cls-1" d="M30.21,2.25c-.73.2-1.39.57-2.19,0-1-.54-2.72,1-3.86.3-.35-1.13-2.27.47-3.3-.12C19.71,0,25.76.63,27.2.6,28.45.22,31.5.29,30.21,2.25Z"/><path class="cls-1" d="M49.33,2c-1.58.49-3.15-.1-4.73-.07-1.47.25-2.75.72-4.13.08C39.84.87,41.6.5,42.44.89c2.3.09,4.75-.51,7.1-.08C49.66,1.24,49.42,1.61,49.33,2Z"/><path class="cls-1" d="M1.73,32.2c-.25,1.47,1.77.83,1.78,2.18-.27.58-.72.28-1.13.25C1,34.59,1,33,0,32.42c.5-.88-.06-3,1.16-3,.84,0,.91.68.84,1.35H2C1.64,31.19,2,31.76,1.73,32.2Z"/><path class="cls-1" d="M22.05,1c-.65.24-1.67.15-1.19,1.37-1.34-.06-2.69.27-4-.12C15.19,1.52,18.53.16,19.43.8,20.31,1.28,21.39.3,22.05,1Z"/><path class="cls-1" d="M6.76,2.25c-.57.63-1.51.43-2.12,1C3.88,3,3.76,4.2,3,4a.93.93,0,0,1-.34-1.11C3.06,1.6,7.75-.17,6.76,2.25Z"/><path class="cls-1" d="M13.44,2.45c-1,.5-1.9-.48-2.94-.21-.4-.42-1-.72-1-1.43.33-.39.7.06,1-.06.64-.09,1.28-.5,1.9.05.78.17,4-.24,2.7,1.28A3.44,3.44,0,0,0,13.44,2.45Z"/><path class="cls-1" d="M2.44,17.31a12.53,12.53,0,0,0,0,2.45c-.63-.33-.63-.33-.67.06s-.73.46-1.07.66c-1.16-1,.4-6.43,1.28-3.86C1.82,17.09,2.21,17.14,2.44,17.31Z"/><path class="cls-1" d="M2.64,2.85c.23.32.18.78.54,1,.59.34.23.69,0,1C3,5.77,3,7.67,1.69,7,.93,5.37,1.54,4.05,2.64,2.85Z"/><path class="cls-1" d="M2.2,26.66v.24c-.72.51-2.46-.33-1.95-1.46.59-.74-.42-1.65.25-2.39C2.27,22.33,2.48,25.52,2.2,26.66Z"/><path class="cls-1" d="M1.48,16.11a3.19,3.19,0,0,0-.88.95c.26-1.33-.15-2.72.37-4,0-.93,1.27-.2.91.48.2-.19.29-.49.59-.57.56,1-.48,1.76-.27,2.69C2,15.91,1.63,15.82,1.48,16.11Z"/><path class="cls-1" d="M78.72,2.25c-1.22.09-2.34-.83-3.54-.3-.9.33-1.71-.8-1.44-1.62.7-.4,1.49.91,2.23-.13a1.76,1.76,0,0,1,1.34.14c-.12.69-.58,0-.85.21C75,1,78.3,1.78,78.72,2.25Z"/><path class="cls-1" d="M72,1.71c-.8.49-1.72.07-2.55.35-.4.13-.38-.28-.49-.5-1.15-1,1-1.22,1.6-.79C71.3,0,72.2.71,73,.48,73.21,1.12,72.4,1.37,72,1.71Z"/><path class="cls-1" d="M70.6.77c-.74.12-1.88-.39-1.6.79-.79,1-1.82.21-2.72.35-.23-.71.25-1,.74-1.35C67.45,0,68,.8,68.5.45c.38-.24,1,.16,1.55-.31C70.28-.07,70.65.33,70.6.77Z"/><path class="cls-1" d="M55.06,1.75A2.94,2.94,0,0,1,51.85,1c.79-1.16,2-.36,3-.62C55.8.74,55.8.77,55.06,1.75Z"/><path class="cls-1" d="M15.09,2c.48-.46.1-.91-.25-.75-1,.43-1.6-.22-2.37-.43.37-.23.58-.61,1.19-.24.84.6,3.93-.92,2.89,1.18h0c-.66-.17-.23.52-.5.65S14.77,2.56,15.09,2Z"/><path class="cls-1" d="M30.18.85c-.63-.23-1.44.22-1.93-.51a45.24,45.24,0,0,1,6.48.22C34.23,2.18,31.37,1.09,30.18.85Z"/><path class="cls-1" d="M1.72,24c.33-1.22-.91-.53-1.21-1,.44-.77-.43-1.64.18-2.41,1.2-.21.39,1.45,1.43,1.32,1.16.38,0,.72.28,1.17C2.48,23.51,2.2,24.31,1.72,24Z"/><path class="cls-1" d="M55.06,1.75c-.1-.46.67-1.07-.23-1.4C56,.53,58.31-.3,58.06,1.49c-.57,0-.92.69-1.54.44-.34-.52-.68-.36-1,0Z"/><path class="cls-1" d="M2.22,7.44a3.54,3.54,0,0,1,.5,2.76c-.55-.42-1.17.45-1.72-.08A3,3,0,0,1,2.22,7.44Z"/><path class="cls-1" d="M36.63,1c.24-1.6,2.71-.24,2.46,1-.86.31-1.81-.18-2.35.31C36.07,1.92,36,1.49,36.63,1Z"/><path class="cls-1" d="M2.19,22.11c-1.51.56-.38-1.06-1.5-1.47,0-.66.54-.74,1-.69C2.87,20.45,2.37,21.32,2.19,22.11Z"/><path class="cls-1" d="M61.78,1.93c-.8.19-2.22,0-1.45-1.11C60.85.69,62-.66,62.24.76A6.94,6.94,0,0,0,61.78,1.93Z"/><path class="cls-1" d="M34.17,1.11l.56-.55c.61-.46,1.62.52,1.07,1.24-.17.15-.35.28-.59.16-.51-.17-.91.57-1.44.18A.81.81,0,0,1,34.17,1.11Z"/><path class="cls-1" d="M67,.56c-.23.46-.66.81-.74,1.35-.84-.63-1.38.49-1.61-1.12C65.37-.16,66.26.86,67,.56Z"/><path class="cls-1" d="M65.1,1.21a.56.56,0,0,0,.28.54l-.12.33c-.84-.37-1.77,0-2.62-.3.44-.12.09-.56.31-.76A.83.83,0,0,1,64.38.77C64.3,1.44,65,.91,65.1,1.21Z"/><path class="cls-1" d="M2.22,7.44A4.47,4.47,0,0,1,1.05,9.17C.79,8.31.62,7.47,1.69,7c.51.11.84-.27,1.23-.47C3.18,7.21,2.58,7.23,2.22,7.44Z"/><path class="cls-1" d="M39,2c-.19-.69-.83-1-1.2-1.61C40.75-.06,40.47,3.84,39,2Z"/><path class="cls-1" d="M60.33.82c0,.4-.39.6-.73.64C58.42,3.19,57-.07,58.94.69,59.39.91,59.87.69,60.33.82Z"/><path class="cls-1" d="M51.47,1.73c-.59-.15-1,.84-1.67.25-.12-.8,1.47-2.89,1.44-1.08-.08.25.24.23.41.27C51.85,1.44,51.91,1.66,51.47,1.73Z"/><path class="cls-1" d="M6.76,2.25c.43-1.28-1-.93-1.75-1,1.23-.14,2.31-1,3.64-.68,0,.06,0,.11-.05.16A4,4,0,0,0,7.19,2.27Z"/><path class="cls-1" d="M16.55,1.74c-.27-.36.3-.89-.25-1.18,1,.1,2.13-.44,3.13.24a.31.31,0,0,1-.38.2A2.16,2.16,0,0,0,16.55,1.74Z"/><path class="cls-1" d="M72,1.71l.21-.43a.81.81,0,0,0,.94-.92l.55,0C74.72,1.77,73.16,2.6,72,1.71Z"/><path class="cls-1" d="M2,30.78c0-1-1.25-1.75-1.53-.43-.59-.53-.15-1,.05-1.52.87-.54,1.51.29,1.87,1Z"/><path class="cls-1" d="M2,29.29a3.29,3.29,0,0,0-1.46-.46c.47-.83,0-1.95,1-1.93h0C1.64,27.47,2.87,29,2,29.29Z"/><path class="cls-1" d="M44.82.75a10.24,10.24,0,0,1-4,.27C40.92-.24,43.75,1,44.82.75Z"/><path class="cls-1" d="M1.49,26.9c-.54.33-.49,1-.73,1.44-.19-1-1-1.81-.5-2.9C.21,26.31,1.06,26.42,1.49,26.9Z"/><path class="cls-1" d="M41.22.49C40.45.8,40.88,2.16,40,2.27L39.5.78Z"/><path class="cls-1" d="M1.41,12.73A.5.5,0,0,0,1,13C.3,11.83,1.4,9,2,11.83A1.13,1.13,0,0,1,1.41,12.73Z"/><path class="cls-1" d="M35.7,1.73c.33-.49-.34-.77-.26-1.2.58-.3.74.44,1.19.47-1,1,1.47,1.53-.69,1.49C35.73,2.28,35.75,2,35.7,1.73Z"/><path class="cls-1" d="M63,1c-.06.27.3.71-.31.76-.3-.05-.53.36-.86.15-.39-.61-.27-1,.46-1.17Z"/><path class="cls-1" d="M1.45,10.63,1,10.81c-.26-.22,0-.46,0-.69a1.49,1.49,0,0,0,1-.33C3.37,9.25,2.38,11.66,1.45,10.63Z"/><path class="cls-1" d="M51.47,1.73a.48.48,0,0,0,.18-.56c.33-.62,1.24.22,1.51.59C52.59,1.84,52,2.28,51.47,1.73Z"/><path class="cls-1" d="M50.26.74c.4.57-.45,1.58-.93,1.26-.29-.46,0-.82.21-1.19Z"/><path class="cls-1" d="M73.19.36c-.26.38.7.41.25.78s-.74.64-1.19.14c.15-.35.7-.34.72-.8Z"/><path class="cls-1" d="M65.1,1.21c-.7.48-2,.11-.72-.44l.29,0Z"/><path class="cls-1" d="M10.57.75c-.3.47-.65-.07-1,.05s-.73.3-1-.17l0-.09C9.28.69,10,.14,10.57.75Z"/><path class="cls-1" d="M9.81,34.13l-.17.36a1.67,1.67,0,0,1,0,2.11c-1.21.27-1.6-2.16-3-1-.41,0-.66-.63-1.14-.29H5.39C.14,33.66,8.8,32.82,9.81,34.13Z"/><path class="cls-1" d="M6.72,35.6c.12-2.7,3.29,2.59,2.86.2.56-.41-.09-.88.06-1.31,1.16-.1.42,3.21-.49,2.76-.68-1.43-2.32,1.68-3.38,1.64.41-1.19,1.61-1.9,2-3.16C7.37,35.61,7,35.88,6.72,35.6Z"/><path class="cls-1" d="M4.59,33.62c-1.27,1.15,0,.91.72,1.66a4.06,4.06,0,0,1-2.93-.65c1.82-.09.32-.74,1.2-1C3.92,33.83,4.25,33.1,4.59,33.62Z"/><path class="cls-1" d="M3.59,41.8c1.13-.3,1.46.48,1.48,1.39-.22.2-.64.73-.69.18C4.31,42.66,3.53,42.46,3.59,41.8Z"/><path class="cls-1" d="M5.48,35.33c.54-.72.54-.72,1,.25C6.09,35.84,5.8,35.5,5.48,35.33Z"/><path class="cls-1" d="M81.34,7.68c0-.37.53-.32.77-.45.24.25.43.58.86.48,0,.18,0,.38-.17.49C82.45,9,81.21,8.41,81.34,7.68Z"/><path class="cls-1" d="M82.11,7.23c0,.68-.43.26-.68.27.32-.53-.56-1-.11-1.51C81.35,6.55,82,6.71,82.11,7.23Z"/><path class="cls-1" d="M9.15,37.25l.7-.28a2.09,2.09,0,0,1-.67,1.48C9.19,38.05,8.8,37.66,9.15,37.25Z"/><path class="cls-1" d="M12.42,37.9l2.23-1.38c0,.25-.06.52.22.69,0,.47-.51,1,0,1.41C13.92,38.94,13.34,37.84,12.42,37.9Z"/><path class="cls-1" d="M30.43,33.86c.43-.71,1.13-.18,1.66-.25a2.33,2.33,0,0,1,1.69.21C32.59,35.46,31.72,34.73,30.43,33.86Z"/><path class="cls-1" d="M38.57,33.82c.77.32,3.86-.58,3.3.77-.8-.81-2.36,1.42-2.34-.25C39.54,34,38.76,34.26,38.57,33.82Z"/><path class="cls-1" d="M71.57,34.08c1.72-.77,3.6.28,5.31-.64,1.88.32-.46.46-.75,1.14h-.28c-.09-.08-.23-.21-.29-.17-1,.64-2,.15-3,.41h0c-.49-.18-1.14.15-1.5-.47A.42.42,0,0,1,71.57,34.08Z"/><path class="cls-1" d="M77.56,33.83c0-.07,0-.14,0-.21a2.24,2.24,0,0,1,1.23.05A.73.73,0,0,1,77.56,33.83Z"/><path class="cls-1" d="M81.37,25.71l.24-1.44a.49.49,0,0,1,.71,0c-.2.71.76.8.74,1.41C82.51,26.29,81.93,25.57,81.37,25.71Z"/><path class="cls-1" d="M24.67,34.31c1.26-.25,1.71,1.29.31,1.17-.34-.16-1.06.16-1-.6C24,34.45,24.13,34.07,24.67,34.31Z"/><path class="cls-1" d="M28.77,34.13c.13.52.25,1,.37,1.56-.64-.12-1.56,0-1.69-.78S28.44,34.6,28.77,34.13Z"/><path class="cls-1" d="M22.05,35.05c.5-2.61,2.08.43,0,0Z"/><path class="cls-1" d="M46.46,35.72c-1.08-.72-2.25,0-3.36-.2.67-2.54,3.79-.71,5.55-1.42.1.44.14.93.79.88.23.13.3.3.13.53C48.55,35.85,47.47,35.24,46.46,35.72Z"/><path class="cls-1" d="M48.57,34.14a.86.86,0,0,1-.21-.07l0-.3c1.08-.71,2.29.13,3.4-.3.15,0,.2.2.21.36a.19.19,0,0,1,0,.27c-.26.15-.38,0-.51-.2C50.55,34.06,49.21,35.42,48.57,34.14Z"/><path class="cls-1" d="M64,34.07c.21-.09.36-.47.67-.17,1.39,0,2.27,1,1.48,1.75-1.23-.9-1.13.48-2-.09-.4-.31-.43-.26-.68.37-1.11-.81-2.37-.34-3.48-.2-1.6.28-3-.36-4.58-.23-.46-1.42,1.51-.77,2.22-1.25.51-.1,1.1-.9,1.5.17.06.16.28.21.35,0,.24-.67.86-.17,1.23-.42C61.94,34.77,62.72,33,64,34.07Z"/><path class="cls-1" d="M51.94,34.08v-.25h1.92C56,35.63,51.52,36.83,51.94,34.08Z"/><path class="cls-1" d="M54.35,35c-.13-.57.24-1,.42-1.46l0,0c.82-.1,1.48,1,2.24.46l.14,0c.43-.1.56.11.52.5-.6-.13-1.06.62-1.76.22-.22-.12-.63.27-.62.71Z"/><path class="cls-1" d="M51.94,34.08a.84.84,0,0,1,.24,1.22c-.54.31-.93.14-1.62.08.38-.54.87-.89.93-1.48Z"/><path class="cls-1" d="M66.1,35.65c.4-1.33-.82-1.31-1.48-1.75l1.63-.45c1.34,1.26,3.4-.51,4.88.82.32.56,1.11-.12,1.39.54-.39.69-2.16-.51-1.77.6,0,.05-.1.16-.16.24-1.18-.91-2.26.16-3.39.17C66.85,35.6,66.38,36.25,66.1,35.65Z"/><path class="cls-1" d="M72.51,34.81c.36-.91,2.11,0,2.95-.72.49-.23.31.28.39.48a2,2,0,0,1-2.11,1.14C73.65,35,72.92,35.1,72.51,34.81Z"/><path class="cls-1" d="M49.1,34.55a1.51,1.51,0,0,1,1.17-.21,1.1,1.1,0,0,1-.7,1.17c-.07-.16-.15-.31-.22-.47C48.93,35.35,48.55,34.48,49.1,34.55Z"/><path class="cls-1" d="M81.67,18.56c0-1.15-.64-2.25-.28-3.42,1.91.49-.78,1.17.94,1.45.09.29.32.78.24.84-.85.61.23.87.2,1.31A1.38,1.38,0,0,0,81.67,18.56Z"/><path class="cls-1" d="M81.42,14.68c-.22-.55.27-.82.47-1.2C82.5,14.27,82.44,14.41,81.42,14.68Z"/><path class="cls-1" d="M82.07,15.85c0-.15,0-.29,0-.43.56,0,.89.38,1.26.7C82.92,15.85,82.28,16.8,82.07,15.85Z"/><path class="cls-1" d="M82.32,24.27h-.71l.09-1.05c1-.31.87.55,1.1,1.05Z"/><path class="cls-1" d="M14.66,36.51a1.7,1.7,0,0,1,2.33,0A5.09,5.09,0,0,1,14.66,36.51Z"/><path class="cls-1" d="M81.34,7.68a.91.91,0,0,0,.5.52c.1.34.58.49.44.93l-.73.23C81.59,8.79,81.05,8.29,81.34,7.68Z"/><path class="cls-1" d="M82.28,9.13a1.14,1.14,0,0,1-.44-.93.78.78,0,0,0,1,0v1C82.62,9.42,82.46,9.16,82.28,9.13Z"/><path class="cls-1" d="M16.09,16.13l-1.68,1.93c1,.07,1.22,1.29,2.06,1.4a2.44,2.44,0,0,1,1.67,3.15c-1,.7-2.2-.45-3-1.07a18,18,0,0,0-5.08-2.06c-.46-.17-1,.74-1.4-.11a2.06,2.06,0,0,1,.87-1.75c.34-.08.72,0,1-.36A6.73,6.73,0,0,1,13.61,14c.84.59.66-.66,1.18-.68-.36-.16-.94-.51-.91-1.06,1.59-.78,2-.62,2.72,1,1,.6-.05,1.1-.08,1.65C16.25,15.26,16.41,15.78,16.09,16.13Z"/><path class="cls-1" d="M55.52,12.49a2.3,2.3,0,0,1,.68-1.36c5.43,6.63,3.93.21,7.87-.56,1.41.87,1,3.27-.54,3.83-.37.13-.86,0-1.05.53a3.19,3.19,0,0,0-.8,1.62c-.1.33.32.86-.35,1-2.21.27-3-2.75-5.3-2.82-.35-.18-.86-.41-.22-.8.38-.23,0-.28,0-.37C55.62,13.24,55.32,12.93,55.52,12.49Z"/><path class="cls-1" d="M71.33,18.78c-.76-.09-2.09-.58-2,.72.07,1.84,0,1.85,1.77,2.23,1.83,0,1.85.75,2.3,2.17-.17.71-1.69.67-2.3.38.67-2.24-3.39-.82-2.64-3.85.39-.95-.15-1.07-.7-1.36-.22-.6.2-1-.7-1-.36-.5.1-.71.36-1,.73-.84.91-1.85,2.27-.71h0c.49.45,1,1,1.66.29a5.11,5.11,0,0,1,2.39.23C73.92,18.63,72.47,18.5,71.33,18.78Z"/><path class="cls-1" d="M21.56,15.88c.28.11.37.49.73.49a10.75,10.75,0,0,1-.68,3.85c-.26.36.2.88.34.85.58-.13.94.54,1.57.28,1.06-.43,2.34,1.28,1.62,2.18-.83.28-1.56-.34-2.36-.25-2.66-.69-2.89-1.48-2.91-4.28h0C19.64,17.89,19.71,15.29,21.56,15.88Z"/><path class="cls-1" d="M68.92,16.11H68.7c-.88-.61-.42-1.68-.83-2.44.16-.65.59-1.24.24-2,0-1.38,2.2-1.48,3.2-1.13.48.2,1,.94,1.44,0,3.2-1.64,4.18,4.25.57,2.18,0,0,.05-.24-.09-.07-.78,1-.77,1-1.42-.07-1.1-.59-1.51.61-1.87,1.4v0C69.42,14.61,69.37,15.46,68.92,16.11Z"/><path class="cls-1" d="M63.46,14.19c.68-.1.58-.84,1-1.18.14,1,1.13,1,1.29,2a22.18,22.18,0,0,0,.16,4.91h0c1.52,1.66-1.57,4.83-1.5,1.71,0-.29.14-.42-.38-.57s-.26-1.09-.34-1.68A9.65,9.65,0,0,1,63.46,14.19Z"/><path class="cls-1" d="M43.1,23.79c-.3,1.07-1.06.59-1.75.24-1.68-.38-2.45-.88-.49-2-.43-.48-1.39-1.08,0-1.55s1.75-1.94,2.89-2.61c.94-.11,1.73,1.11,2.49-.17.48-.1.71.19.89.57-.4,1.25-1.82,1.69-1.9,3-.49,1.34-2.3,1.22-2.1-.41C43,21.82,43.71,22.82,43.1,23.79Z"/><path class="cls-1" d="M24.68,10.1c.81.06.88,1.16,1.74,1.27,1,.75-.47,1.62-1.31,1.18-.2.36-.29.88-.91.61-.55.16-1.15-.68-1.67.09-1.07.65-2.38,1.85-2.45-.23l0,0c-.24-.43-.66-.86.16-1.19.54-.22-.27-.71.11-1C21.68,10.19,23.4,11.33,24.68,10.1Z"/><path class="cls-1" d="M29.47,19.48c0,.39-.33.63-.49.94-2.32.3-.84-3.16-.51-4.36.66-1.43,2.65-2.28,1.3-.08-.19.18-.26.57,0,.29,1.5-1.46.9.5,2.05.56s1.35,1.41.93,2.13c-.62-.41-1.19.44-1.82.08C30.43,19.06,29.75,18.59,29.47,19.48Z"/><path class="cls-1" d="M67.72,19c2.29-.16.39,1.54,1.12,3,.59-.09,1,.94,1.7.28.76-.45.41,1.44,1.38,1.53-.25.34-.7.11-.84.48-.49.43-.82-.07-1.2-.23a2.71,2.71,0,0,1-2.7-1.28,1.76,1.76,0,0,1-.31-2.2c.79-.79-.27-1.45-.07-2.28C67.37,18.17,67.54,18.59,67.72,19Z"/><path class="cls-1" d="M46.25,17.74c.36,1.15-1.53,1.12-2,.33.38-1.71,1.41-3.39.18-5.07,2.08-2.29,3.7,1.34,2.57,3.2C47.43,17.05,46.7,17.32,46.25,17.74Z"/><path class="cls-1" d="M55.52,12.49c.29.54.48,1.16,1.06,1.47-.16.56-.69-.16-.85.34.45.55,2.15.18,2,1-1.83.44-.18,1.52-1.19,2.23-.62-.39-.38-1-.38-1.44-.66.41-1.66.81-.71,1.88.43,0,.56-.74,1.1-.45-.39,1,.23,2.25-.72,3.13-1.08,0,0-1.12-.8-1.4-.2.36-.18,1.36-.93.4a11.91,11.91,0,0,1,1.22-5.93C55.49,13.35,54.65,12.76,55.52,12.49Z"/><path class="cls-1" d="M36,24a.16.16,0,0,1-.08-.17c-.91-1.58-.34-3.5-.74-5.11-.48-.56-.06-.81.35-1.07.8,0,1.21.58,1.71,1.05a3.21,3.21,0,0,0,1.44,1,1.09,1.09,0,0,1-.39,1.2C36.93,21.08,38,25.15,36,24Z"/><path class="cls-1" d="M38.15,20.91l.41-1.19c-.16-.25-.62-.29-.49-.72.3-.05.22-.3.27-.48a3.79,3.79,0,0,0,1.43-.82c1.09-.12,1.61,1.77.63,2.24-.3.24,0,.27.16.34s.38.21.38.46-1.11,0-.33.64c1.86.79,0,1.17-.86,1.68,0,.55-.23.7-.72.48-.37-.38.37-1.34-.7-1.35C38.25,21.76,37.67,21.41,38.15,20.91Z"/><path class="cls-1" d="M54.07,19.7c.88.54.36-.51.65-1.1.41.47,1.39.54.75,1.54a3.69,3.69,0,0,1,.48,3c-.93,2.29-4.1-2-1.92-2.72C54.43,20.25,53.82,19.92,54.07,19.7Z"/><path class="cls-1" d="M30.83,12.55a3.48,3.48,0,0,1,1.5-2.49,8,8,0,0,1,3.35,4.62c-.36.93-1,.29-1.53.28C32.89,14.7,34,13,33,12.47,32.41,13.56,31.48,13.79,30.83,12.55Z"/><path class="cls-1" d="M46.76,12.72a1.9,1.9,0,0,0-1.75,0c-.27,0-.56,0-.72-.28-.3-.46-.25.13-.39.13-.36.48-1.13,0-1.24.69-.71-.14-1.51.54-2.15-.25,0-.63-1.07-1-.5-1.8C42.26,11.28,45.74,9.94,46.76,12.72Z"/><path class="cls-1" d="M22.07,18.09a2.44,2.44,0,0,1,.22-1.72c1.29-.53,6.64-1,4.69,1.48-.24.13-.17-.36-.53-.2-1.2.5-2.43,1.32-3.69.1a2,2,0,0,1-.24.27Z"/><path class="cls-1" d="M40,11.26c-.11.8,1.08,1.14.71,2,.58.87-.43,1.66.05,2.5.67.81-.84,2.22-1.42,1.3a8,8,0,0,0-.62-4.1c-.73-1,.37-1.64.34-2.49C39.5,10.61,40.11,10.51,40,11.26Z"/><path class="cls-1" d="M10.57,17.32c.24.87-.45.47-.77.55s-1,1.31-.88,1.48c.42.79,1-.87,1.17.13-.3.29-.55.64-1,.72,1.12.35.47,2,.26,2.89-.87-.67-1.91,0-.83-1.47-.34-.1-.72-.13-.9-.49l.46-.35c-.7-.71.28-1.66-.36-2.44-.12-.16-.36-1,.38-1.14s-.49-.88.29-1a.58.58,0,0,1,.42.22C9,17.45,10,16.92,10.57,17.32Z"/><path class="cls-1" d="M69.94,14l.16-1.28c.81.38,2.1-1.44,2.2-.06-.14,1.24,1,.3.7-.55-.12-.63.77-.55.62,0-.08.35-.3.74.3.79,2.07.39,1.58-1.21,1-2.38.7-.8,1.31,1.67,1.12,2.07-.36.82-.92,1.3-1.8.75-.43-.27-.73,0-1,.15C72.19,14.08,71,13.26,69.94,14Z"/><path class="cls-1" d="M71.33,18.78c.29-.72,1.27,0,1.67-.81.14-.29.58-.66.71-1.12.64.13,1.45-.62,1.91.47.22.52.39,1.37.16,1.47C74.47,19.65,72.81,18.68,71.33,18.78Z"/><path class="cls-1" d="M67.05,20.68c-.75,1.07.19,1.74,1,2.19,0,1,.3,1.44,1.27.6.2-.18.53.21.56.58-1.37,1-2.64-1.21-3.81,0-.24.28-.47-.2-.74-.08a8.43,8.43,0,0,0,.51-4.08C66.26,20.19,67.1,20,67.05,20.68Z"/><path class="cls-1" d="M27.76,19c1,.76-.26,1.26,1.22,1.43,0,1-.92,2.93-2.21,2.12-.16-.23.38-.33.24-.63,0-.28.35-.55,0-.83C25.16,21.19,26.68,18.56,27.76,19Z"/><path class="cls-1" d="M65.84,22.35c.35,0,.49.19.27.52-1.43,3.7-3.47-2.05-2.49-3.49.07.34.57.51.26,1-.18.31-.18,1,.5.3C65.52,20.53,63.29,23.67,65.84,22.35Z"/><path class="cls-1" d="M13.94,12.3c.43,0,.4.92,1.1.57.28-.13.09.3.23.41-.65.1-.53,1.55-1.6.91,0-1.25,0-1.29-1.38-.86-2.15-1.07-2.24-3.24.54-1.93.31.14,0,.91.71.65A.56.56,0,0,1,13.94,12.3Z"/><path class="cls-1" d="M11,11.8l.46.65a1.62,1.62,0,0,0-.34,1.22c-.25.58-.46,1.44-1.31,1.22-1.54-.29-.67-1.07-.76-2.61C9.53,11.24,10.31,11.64,11,11.8Z"/><path class="cls-1" d="M8.62.63c.3.22.66.12,1,.17.12.58.88.71,1,1.33a2.34,2.34,0,0,1-2,.12C6.69,3.62,6.81.65,8.62.63Z"/><path class="cls-1" d="M34,14.7c.57-.2,1.16.57,1.73,0-.19.86,1.38,1.3.55,2.31C35,18,33.39,15.78,34,14.7Z"/><path class="cls-1" d="M7.65,21.13l1.25.33c-.12.44-.61.69-.63,1.34,2.33-1.59.37,3.1-.56.41C7.48,22.52,6.9,21.85,7.65,21.13Z"/><path class="cls-1" d="M35.44,17.78c-.88,1.11,1,.55-.21,1.93-.38-.3,0-1.34-1-1-.59.24-1.1.36-.82-.6.2-.69-.38-1.93.83-1.79C35,16.51,34.87,17.43,35.44,17.78Z"/><path class="cls-1" d="M43.1,23.79c.17-1.11-.75-3.11.13-3.78.51,0,.2.37.14.6a1,1,0,0,0,.53,1.28c.93.52.82-.61,1.31-.77C45.16,22,43.64,22.92,43.1,23.79Z"/><path class="cls-1" d="M20.61,14.19c.34-.3.65-.69,1.2-.48a3.94,3.94,0,0,1-.25,2.17l-1,.34a2.13,2.13,0,0,1-.75-.85C19.79,13.57,20.4,15,20.61,14.19Z"/><path class="cls-1" d="M71.13,34.27c-1.55-1-4,1-4.88-.82,1.7.41,3.85-.6,5.32.63Z"/><path class="cls-1" d="M19.87,19c.58,1.42.17,3.8,2.24,3.82.34,0,.63,0,.67.46C20.27,23.24,18.83,21.42,19.87,19Z"/><path class="cls-1" d="M9.16,12.76c.42.23,0,.48,0,.7a1,1,0,0,0,.62,1.25A2.3,2.3,0,0,0,9.9,16.4C7.91,17.87,8.19,13.67,9.16,12.76Z"/><path class="cls-1" d="M57.69,34.57l-.52-.5c.77-.63,3.13-.77,3.39,0-.15.53-1,.07-1.1.89,0,.42-.62-.14-.65-.26C58.57,33.44,58.08,34.46,57.69,34.57Z"/><path class="cls-1" d="M24.68,10.1c-.35,2-2,.11-3,1.09-.21.25-.4-.33-.57-.55A7.87,7.87,0,0,1,24.68,10.1Z"/><path class="cls-1" d="M13.94,12.3l-.5,0c-.71-.9.16-.86.63-1.06.38.09.77.37,1.12-.07.58,0,.92.37,1.31.69-.14.48.61.9.1,1.41C15.72,12.34,15.4,11.71,13.94,12.3Z"/><path class="cls-1" d="M25.11,12.55a.93.93,0,0,1,.78-.1c.74.16.95-1.17.07-1-.87,0-.68-.9-1.05-1.34,1-.48,1,.58,1.46.92C28.07,12,26.49,13.55,25.11,12.55Z"/><path class="cls-1" d="M22.52,18c.05-.26-.1-.55.15-.78,1.55,1.51,2.54.88,4-.25a.85.85,0,0,1-.33,1.28C25.06,18.37,23.75,18.88,22.52,18Z"/><path class="cls-1" d="M35.2,20c.91.89.23,2.64.69,3.89C34.63,22.82,34.87,21.3,35.2,20Z"/><path class="cls-1" d="M68,13.72c.55.7.37,1.63.72,2.4-1.45,0,.63.94-1.3.92-.22-1.15.73-2.16.38-3.32C67.84,13.61,67.91,13.6,68,13.72Z"/><path class="cls-1" d="M30.83,12.55c1.41.32.38,1.39.45,2.24-.3.59-1,.32-1.34-.09-.31-.23.45-.54-.06-.75C29.9,13.28,30.46,13,30.83,12.55Z"/><path class="cls-1" d="M36,24l1-.13-.31-.09c.5-.75.38-1.66,1-2.39C38.8,21.4,37.32,26.2,36,24Z"/><path class="cls-1" d="M39.51,17.07c.78.77-.25,1.94-1.17,1.45-.73-.33.42-.8-.09-1.14C38,16.25,39.2,15.91,39.51,17.07Z"/><path class="cls-1" d="M20.37,10.84c1.19,1.37-.68.69-.27,2.2-1-.32-.68-1.23-.73-1.87S20,10.84,20.37,10.84Z"/><path class="cls-1" d="M35.44,17.78c-.57,0-1.64-1.36-1-1.65.49.51.9,1.17,1.78.86h0c.12.82,1.48.76,1,1.71C36.47,18.68,36.13,17.9,35.44,17.78Z"/><path class="cls-1" d="M63.46,14.19c.14.41.43.84-.21,1.1.77.24.11.82.28,1.19s-.16.74-.34,1.07c-.76-.63.44-2.82-.71-2.62C62.53,14.31,62.88,14.1,63.46,14.19Z"/><path class="cls-1" d="M36.88,2.44a1.85,1.85,0,0,0,0-.23C38,0,37.66,1.88,39,2a.45.45,0,0,1,.25.44C38.55,2.57,37.71,2.13,36.88,2.44Z"/><path class="cls-1" d="M60.56,34.09a1.92,1.92,0,0,1,0-.24c1.07.1,3-1.12,3.39.22C61.13,33.28,63.13,35.64,60.56,34.09Z"/><path class="cls-1" d="M19.85,15.37c.35.19.76.34.75.85-1.77,1.6.32,1.27-.73,2.79C18.57,18,20.23,16.66,19.85,15.37Z"/><path class="cls-1" d="M67.05,20.68l-.54-.53c-.1-.5-.59-1.09.28-1.39C67.58,19.31,67.89,19.92,67.05,20.68Z"/><path class="cls-1" d="M39.51,17.07l-.76-.69c-.56.28-.51-.32-.25-.66-.39-.93.66-1.23,1-.34C40,15.94,39.5,16.51,39.51,17.07Z"/><path class="cls-1" d="M68,13.72h-.2c.65-1.11-1.31-3.27.91-2.91-.14.24-.45.61-.39.69C69,12.38,68.24,13,68,13.72Z"/><path class="cls-1" d="M2,29.29c.55-1.26-.9-.67-.5-2.4h.73a11.3,11.3,0,0,1,.18,2.9A.44.44,0,0,1,2,29.29Z"/><path class="cls-1" d="M46.25,17.74c-.09-.68,1-.84.68-1.63,1,.16.65,1.57.22,2.16C46.7,18.35,46.67,17.71,46.25,17.74Z"/><path class="cls-1" d="M26.35,18.27c-.15-.47.23-.42.49-.5a1,1,0,0,0,.47-1.18c.26,0,.54.46.78,0,.64.31.16.73,0,.93-.66.54-.15,2-1.24,1.76C27.05,18.73,27.31,18.18,26.35,18.27Z"/><path class="cls-1" d="M37.86,23.09c-.56-.5.25-1.19-.25-1.69-.37-.84.47-1.84.54-.49-.3.46.55.71.2,1.17A.67.67,0,0,1,37.86,23.09Z"/><path class="cls-1" d="M1.72,24C3,24,3,26,2.2,26.66l-.23,0C2.46,25.71,1.58,24.93,1.72,24Z"/><path class="cls-1" d="M33.77,1.93v.21c-.36.57-.81-.13-1.19.1C32.32,1.32,31,1.88,30.9,1,31.89.73,33.36.86,33.77,1.93Z"/><path class="cls-1" d="M41.39,24c.61-.43.82.25,1.2.45-.35.58-2.35,1-1.67-.18C40.88,23.88,41.09,23.88,41.39,24Z"/><path class="cls-1" d="M41.39,24a.46.46,0,0,0-.47.27A3.12,3.12,0,0,1,39,23.54a.72.72,0,0,0,.71-.48c.46.09.65.83,1.37.43C41.52,23.27,41.33,23.82,41.39,24Z"/><path class="cls-1" d="M11,11.8c-.63.25-1.46-.34-1.95.48C8.82,11,10.14,11.15,11,11.07,10.61,11.32,10.54,11.56,11,11.8Z"/><path class="cls-1" d="M14.22,11.33c-.35.24-1.13.12-.78.94-.75.26-.37-.58-.71-.72-.15-.92,1-1,1.68-.91C14.58,10.94,14.67,11.21,14.22,11.33Z"/><path class="cls-1" d="M1.48,16.11c-.1-.67.43-.39.72-.48.59.49.12,1.13.24,1.68C.62,17.53,2.58,16.31,1.48,16.11Z"/><path class="cls-1" d="M27.54,19c-1-1.07,1.05-1.42.55-2.44l.38-.49c.32,1.11-.43,2-.71,2.93Z"/><path class="cls-1" d="M72.75,10.58c.47,1.31-1.35,1-1.44,0A1.2,1.2,0,0,1,72.75,10.58Z"/><path class="cls-1" d="M8.59,2.25c1.13.22,2.61-.81,3.42.17C10.86,2.51,9.7,2.9,8.59,2.25Z"/><path class="cls-1" d="M38.73,13l.58.74c0,1.24,0,1.24-1,.71-.13-.29.24-.55,0-.89S38.39,13,38.73,13Z"/><path class="cls-1" d="M33.55,17.1c.76.51-.79,1.94.64,1.63-.4.49-.95.07-1.4.23.09-.25-.43-.48,0-.74C33,17.85,33.06,17.26,33.55,17.1Z"/><path class="cls-1" d="M57,34c-1,.84-1.56,0-2.24-.46A2.67,2.67,0,0,1,57,34Z"/><path class="cls-1" d="M68.92,16.11A2.11,2.11,0,0,1,70,14c0,.15.15.4.09.44-.68.53-.42,1.24-.37,1.9Z"/><path class="cls-1" d="M1.41,12.73c-.07-.45.32-.62.53-.91.05-.55.35-.44.68-.26.12.61-.14,1.65-.88,1.7A.57.57,0,0,0,1.41,12.73Z"/><path class="cls-1" d="M3.58,33.63l-.22.52c-.37-.25-.52-.81-1.25-.53-.33.13-.67-.5-.34-1Z"/><path class="cls-1" d="M22.52,2.39c.21-.16.54-.28.61-.49.22-.65.68-.17.91-.15s.13.48.12.75A2.43,2.43,0,0,1,22.52,2.39Z"/><path class="cls-1" d="M2.62,11.56c-.26,0-.53,0-.68.26-.7-.17-.33-.79-.49-1.19.48.23.81-.27,1.25-.26C2.29,10.74,2.73,11.17,2.62,11.56Z"/><path class="cls-1" d="M34,11.34c-.26-.07-1,.91-.75-.33-.15-.72-1.18.11-.89-.95C33.17,9.5,33.47,10.91,34,11.34Z"/><path class="cls-1" d="M2.19,22.11c-.11-.73.09-1.53-.47-2.16h0c.24-.27.51-.05.76-.05a3.17,3.17,0,0,1-.07,2.21Z"/><path class="cls-1" d="M20.61,14.19l.69.5a1.69,1.69,0,0,1-1.38-.26c.23-.45-.37-1,.16-1.41C20.56,13.28,20.26,13.88,20.61,14.19Z"/><path class="cls-1" d="M29.88,14l.72,0A6.11,6.11,0,0,1,29,15.4C29.06,14.78,29.09,14.13,29.88,14Z"/><path class="cls-1" d="M38.36,14.43c.89.53.87-.15.94-.71.6.49,0,1.12.21,1.66-.49-.32-1-.74-1,.34A1.37,1.37,0,0,1,38.36,14.43Z"/><path class="cls-1" d="M38.31,22.77l0-.69c1.7-.47.82.45.68,1.46C38.57,23.49,38.84,22.75,38.31,22.77Z"/><path class="cls-1" d="M65.1,14.2c-.38-.31-1-.46-.68-1.19.6-.11.22-.68.44-1C65.54,12.69,64.91,13.49,65.1,14.2Z"/><path class="cls-1" d="M30.21,2.25l-.05-.32c.73-.15,2-.58,2.42.31C31.79,2.39,31,2.87,30.21,2.25Z"/><path class="cls-1" d="M3.19,4.92a1.13,1.13,0,0,0,0-1c.46-.29.62-1.21,1.46-.69C4,3.61,3.67,4.34,3.19,4.92Z"/><path class="cls-1" d="M22.53,13.25c-.52-1.25,1.31-.54,1.67-.09C23.66,13.51,23.09,13.27,22.53,13.25Z"/><path class="cls-1" d="M25.14,23.53l0-1.38C26.31,22.75,26.31,22.75,25.14,23.53Z"/><path class="cls-1" d="M71.32,16.62c-.73,1-.78,1-1.66-.29C70.15,16.76,70.79,16.39,71.32,16.62Z"/><path class="cls-1" d="M2.47,19.9c-.23.3-.51,0-.76.05,0-.27-.7-.49-.05-.79S2.43,19.46,2.47,19.9Z"/><path class="cls-1" d="M9.58,20.43c-1.37.6-1.73-1,.05-.49C9.84,20.13,9.72,20.28,9.58,20.43Z"/><path class="cls-1" d="M55.51,1.93c0-1.11,1.53-1.25,1,0Z"/><path class="cls-1" d="M29.47,19.48c.24-1.18.37-1.22,1.5-.44C30.52,19.37,29.89,19.07,29.47,19.48Z"/><path class="cls-1" d="M38.07,19c0,.31.65.26.49.72-.91.34-1.09-.28-1.23-.95Z"/><path class="cls-1" d="M26.15,20.68c.78.31,1.38.06.69,1.15C25.94,21.85,26,21.26,26.15,20.68Z"/><path class="cls-1" d="M47.17,16.11h-.24a1.75,1.75,0,0,1,.45-1.45C47.48,15.17,48,15.73,47.17,16.11Z"/><path class="cls-1" d="M13,10.9c.32.36-.16.43-.23.65A.7.7,0,0,1,12,11C12.22,10.35,12.59,10.6,13,10.9Z"/><path class="cls-1" d="M16.5,11.83c-.39-.31-1.75-.32-1.41-1C16,10.58,16.24,11.2,16.5,11.83Z"/><path class="cls-1" d="M15.09,2l0,.3c-.55,0-1.05.45-1.62.17A1.25,1.25,0,0,1,15.09,2Z"/><path class="cls-1" d="M67.72,19l-.92-.69c0-.16,0-.3.24-.26C68,17.73,68.28,18.21,67.72,19Z"/><path class="cls-1" d="M45.24,21.38c0-.53-.65-1.14.24-1.42.22.11.46.18.49.48Z"/><path class="cls-1" d="M26.84,21.83c-.34-.41.14-.62.23-.93C27.9,20.5,27.6,22.32,26.84,21.83Z"/><path class="cls-1" d="M1.73,32.2c0-.5-.63-1.12.28-1.43C2.22,31.31,2.37,31.83,1.73,32.2Z"/><path class="cls-1" d="M59.6,1.46,60.32,1c-.08.56.29.79.72,1C60.36,2.38,60,1.94,59.6,1.46Z"/><path class="cls-1" d="M2.6,24.49A.65.65,0,0,1,2,24.05c.15-.3.29-.61.44-.92C2.77,23.54,2.64,24,2.6,24.49Z"/><path class="cls-1" d="M38.3,16.11l.45.27c-.16.34-.33.67-.5,1C37.5,16.92,38.06,16.52,38.3,16.11Z"/><path class="cls-1" d="M16.05,2.38c-.24-.86-.39-1.11.5-.65a.53.53,0,0,0,.29.53C16.69,3,16.34,2.54,16.05,2.38Z"/><path class="cls-1" d="M15.09,10.86c0,.15.09.3.13.45-.33.11-.66.6-1,0,.23-.18.12-.46.19-.69C14.7,10.5,14.87,10.77,15.09,10.86Z"/><path class="cls-1" d="M1.74,13.26c.21-.17.29-.5.63-.49C2.76,13.2,1.31,14.85,1.74,13.26Z"/><path class="cls-1" d="M16.09,16.13c.1-.43-.41-1.07.43-1.24C16.7,15.42,16.72,15.89,16.09,16.13Z"/><path class="cls-1" d="M65.87,19.91c-.86-.44-.29-.93-.05-1.4C66.34,19,66,19.44,65.87,19.91Z"/><path class="cls-1" d="M36.89,17.77c-.59.05-1.09,0-.66-.77C36.72,17,36.88,17.33,36.89,17.77Z"/><path class="cls-1" d="M35.7,1.73c.66.06.29.46.24.76-.5.18-.49-.34-.73-.53Z"/><path class="cls-1" d="M54.77,33.58a.73.73,0,0,1-.43,1,1.08,1.08,0,0,1-.47-.75Z"/><path class="cls-1" d="M9.81,34.13l-1.17-.5C9.28,33.22,9.73,33.25,9.81,34.13Z"/><path class="cls-1" d="M46,20.44,45.48,20a1.66,1.66,0,0,1,1-.48A1.39,1.39,0,0,1,46,20.44Z"/><path class="cls-1" d="M32.58,2.11c-.8-.2-1.63.1-2.42-.18-.33-.37.52-.71,0-1.08.26,0,.54-.18.72.15C31.35,1.57,32.86.94,32.58,2.11Z"/><path class="cls-1" d="M33.77,1.93c-.51,0-.47-.31-.46-.65a1,1,0,0,1,.86-.17C34,1.37,34.09,1.75,33.77,1.93Z"/><path class="cls-1" d="M49.1,34.55c-.31.36.06.38.25.49-.78.28-1,.08-.78-.9C48.86,34.13,49,34.34,49.1,34.55Z"/><path class="cls-1" d="M52.78,35.11c.37-.79,1.46-.9,1,.12C53.48,35.61,53.14,35.11,52.78,35.11Z"/><path class="cls-3" d="M10.55,14.67c.32-.26-.09-.86.47-1a1,1,0,0,1,1.22-.48c.4.14.65-.52.89-.31s.81-.42,1,.08-.41.8-.49,1.25C12.83,15,9.56,17.86,10.55,14.67Z"/><path class="cls-1" d="M10.55,14.67c.38.42-.58,1.51.73,1.44-.18.44.18,1.2-.71,1.21a2.83,2.83,0,0,1-.73-1c-1.05-.5-.62-1.06-.06-1.63Z"/><path class="cls-1" d="M71.56,12.29c-.23,1-.76,1-1.46.45C70.54,12.44,70.93,12,71.56,12.29Z"/><path class="cls-4" d="M40.23,17.07c1.71-.76-1.19-1.79.41-2.55.34-.18-.43-.84.08-1.24a2.5,2.5,0,0,1,1.88-.07c2.94-1.45,3.46,2.17,2.14,4.08-1.53.91-2,2.84-3.8,3.45-1-.47.18-.94-.21-1.58C40.8,18.35,39.89,17.79,40.23,17.07Z"/><path class="cls-1" d="M42.23,22.22c0-.54-.79-.68-.56-1.26C42.29,20.4,43,21.59,42.23,22.22Z"/><path class="cls-1" d="M43.79,18c.09-.54.51-.64,1-.72C45.1,18,44.33,18.15,43.79,18Z"/><path class="cls-5" d="M34.45,16.13l-.22.46-.69.08c-.46.73-1.19.15-1.75.36-1.37.44-.63-.72-.86-1.15.07-.19-.17-.31-.11-.51s.47-.37.35-.61c.46-.72,1.28-2.8,2.33-2,.8.48-.34,1.42.45,1.9C34.13,15.17,33.94,15.77,34.45,16.13Z"/><path class="cls-1" d="M31,15.41c0,.16.59.44-.09.47-.46,0-.61.44-.95.6-.68,1.22-1.55-.36-.28-.61C30.05,15.47,30.38,15,31,15.41Z"/><path class="cls-1" d="M31,15.41a3.92,3.92,0,0,0-1.32.46c-.06-.43.37-.61.48-1h1C31.27,15.13,31.34,15.33,31,15.41Z"/><path class="cls-1" d="M31.79,17c.51-.45,1.21,0,1.75-.36,0,.15,0,.3,0,.41C33.05,17.72,32.41,17.24,31.79,17Z"/><path class="cls-1" d="M32.57,17.32l1-.24a1.91,1.91,0,0,1-.78,1.14C32.7,17.92,32.63,17.62,32.57,17.32Z"/><path class="cls-1" d="M44.51,13c-1.12.43-.8-.78-.27-1.37.28.39.22,1,.77,1.14A.53.53,0,0,1,44.51,13Z"/><path class="cls-1" d="M56.52,17.57c-.53.14-.66.63-.89,1C54.34,18.07,55,17,54.81,16c1.06.83,1.15.08,1.34-.62l.36,2.24Z"/><path class="cls-1" d="M40.73,19.16c.74.55-.33.8-.21,1.24-.3.18-.59.23-.78-.13s.36-.24.44-.49S40.8,19.6,40.73,19.16Z"/><path class="cls-1" d="M40.23,17.07l.24,1C39.67,18,39.25,17.23,40.23,17.07Z"/><path class="cls-1" d="M32.13,13.26a1.53,1.53,0,0,1-1,1.5c-.39-.68.17-1.08.46-1.55Z"/><path class="cls-1" d="M33.5,12.8l-.93-.06C32.52,11.82,33.6,11.88,33.5,12.8Z"/><path class="cls-1" d="M43.8,12.55c0,.37.17.52.52.49-.53.5-1.15,0-1.72.17.44-.57-.64-.29-.27-.83S43.3,13,43.8,12.55Z"/><path class="cls-1" d="M9.84,16.34c.39.21.85.38.72,1-.8.11-1.76.53-1.87-.86C9.06,16.29,9.49,16.77,9.84,16.34Z"/><path class="cls-1" d="M12.24,13.17,11,13.65c0-.45-.79-1.25.48-1.2Z"/></g></g></svg>