<svg width="805" height="1075" viewBox="0 0 805 1075" fill="none" xmlns="http://www.w3.org/2000/svg">
<path d="M525.24 382.261C421.345 174.526 370.225 30.8015 199.378 127.705C28.53 224.609 -25.7453 471.568 78.1505 679.303C182.046 887.038 537.246 916.231 708.094 819.327C878.941 722.423 629.136 589.996 525.24 382.261Z" fill="#D9D9D9"/>
<path d="M352.791 245.28C352.125 287.22 314.616 335.823 275.183 335.197C235.75 334.57 204.323 300.063 204.989 258.123C205.655 216.184 238.162 182.692 277.596 183.319C317.029 183.945 353.457 203.34 352.791 245.28Z" fill="#E66161"/>
<path d="M254.373 446.271C253.707 488.211 221.2 521.702 181.767 521.076C142.333 520.449 101.668 468.072 102.334 426.132C103 384.192 144.746 368.571 184.179 369.198C223.613 369.824 255.04 404.331 254.373 446.271Z" fill="#FAB049"/>
<path d="M545.473 704.089C544.807 746.029 512.3 779.52 472.866 778.894C433.433 778.267 387.404 763.784 388.071 721.844C388.737 679.904 435.846 626.389 475.279 627.016C514.713 627.642 546.14 662.149 545.473 704.089Z" fill="#7DD070"/>
<path d="M361.2 615.076C360.534 657.016 328.027 690.507 288.593 689.881C249.16 689.254 217.733 654.747 218.399 612.808C219.065 570.868 270.371 552.867 309.805 553.493C349.238 554.12 361.866 573.136 361.2 615.076Z" fill="#FFCB43"/>
<path d="M361.2 615.076C360.534 657.016 328.027 690.507 288.593 689.881C249.16 689.254 217.733 654.747 218.399 612.808C219.065 570.868 270.371 552.867 309.805 553.493C349.238 554.12 361.866 573.136 361.2 615.076Z" fill="#FFCB43"/>
<path d="M361.2 615.076C360.534 657.016 328.027 690.507 288.593 689.881C249.16 689.254 217.733 654.747 218.399 612.808C219.065 570.868 270.371 552.867 309.805 553.493C349.238 554.12 361.866 573.136 361.2 615.076Z" fill="#FFCB43"/>
<path d="M361.2 615.076C360.534 657.016 328.027 690.507 288.593 689.881C249.16 689.254 217.733 654.747 218.399 612.808C219.065 570.868 270.371 552.867 309.805 553.493C349.238 554.12 361.866 573.136 361.2 615.076Z" fill="#FFCB43"/>
</svg>
