<svg width="919" height="633" viewBox="0 0 919 633" fill="none" xmlns="http://www.w3.org/2000/svg">
<path d="M201.651 193.704C201.651 261.814 146.436 317.029 78.3253 317.029C10.2147 317.029 -44.9999 261.814 -44.9999 193.704C-44.9999 125.593 10.2147 70.3784 78.3253 70.3784C146.436 70.3784 201.651 125.593 201.651 193.704Z" fill="#B8E5FF"/>
<circle cx="292.309" cy="247.057" r="101.415" fill="#B8E5FF"/>
<circle cx="394.35" cy="386.659" r="123.325" fill="#B8E5FF"/>
<circle cx="577.146" cy="458.024" r="123.325" transform="rotate(47.7437 577.146 458.024)" fill="#B8E5FF"/>
<path d="M483.173 541.226C456.737 565.245 392.844 567.663 368.825 541.226C344.806 514.789 369.756 469.509 396.193 445.49C422.63 421.471 463.533 423.431 487.552 449.868C511.57 476.305 509.61 517.207 483.173 541.226Z" fill="#B8E5FF"/>
<circle cx="497.017" cy="246.431" r="123.325" fill="#B8E5FF"/>
<circle cx="403.114" cy="123.732" r="123.325" fill="#B8E5FF"/>
<circle cx="677.309" cy="342.838" r="123.325" fill="#B8E5FF"/>
<circle cx="795" cy="493.082" r="123.325" fill="#B8E5FF"/>
<circle cx="247.861" cy="160.041" r="123.325" fill="#B8E5FF"/>
<rect x="1.83789" y="247.057" width="552.146" height="281.707" fill="#B8E5FF"/>
</svg>
