<?xml version="1.0" encoding="utf-8"?>
<svg version="1.1" id="레이어_1" xmlns="http://www.w3.org/2000/svg" xmlns:xlink="http://www.w3.org/1999/xlink" x="0px"
	 y="0px" viewBox="0 0 1066 568" style="enable-background:new 0 0 1066 568;" xml:space="preserve"  fill="none">
<path d="M716.1,378.8c0,68.1-102.3,123.3-228.5,123.3S259,446.9,259,378.8s102.3-123.3,228.5-123.3
	S716.1,310.7,716.1,378.8z" fill="#B8E5FF"/>
<ellipse cx="557.5" cy="265.9" rx="101.4" ry="101.2" fill="#B8E5FF"/>
<path d="M355.7,231.9c0,68-55.2,123.1-123.3,123.1C164.2,355,109,299.9,109,231.9c0-68,55.2-123.1,123.3-123.1
	C300.5,108.8,355.7,163.9,355.7,231.9z"  fill="#B8E5FF"/>
<path d="M299,418.8c0,82.4-66.9,149.2-149.5,149.2C66.9,568,0,501.2,0,418.8c0-82.4,66.9-149.2,149.5-149.2
	C232.1,269.5,299,336.3,299,418.8z"  fill="#B8E5FF"/>
<ellipse transform="matrix(0.7223 -0.6916 0.6916 0.7223 -116.606 637.3636)" class="st0" cx="735.4" cy="463.9" rx="98.8" ry="102.4"  fill="#B8E5FF"/>
<path  d="M857.8,543.3c-26.4,24-90.3,26.4-114.4,0c-24-26.4,0.9-71.6,27.4-95.6c26.4-24,67.4-22,91.4,4.4
	C886.2,478.5,884.2,519.3,857.8,543.3z" fill="#B8E5FF"/>
<ellipse  cx="651.1" cy="284.5" rx="123.3" ry="123.1" fill="#B8E5FF"/>
<ellipse  cx="557.2" cy="162" rx="123.3" ry="123.1" fill="#B8E5FF"/>
<ellipse  cx="831.4" cy="380.8" rx="123.3" ry="123.1" fill="#B8E5FF"/>
<ellipse  cx="942.5" cy="444.5" rx="123.3" ry="123.1" fill="#B8E5FF"/>
<ellipse  cx="401.9" cy="198.3" rx="123.3" ry="123.1" fill="#B8E5FF"/>
<rect x="156" y="380.3"  width="786.1" height="187.7" fill="#B8E5FF"/>
</svg>
