<svg width="850" height="457" viewBox="0 0 850 457" fill="none" xmlns="http://www.w3.org/2000/svg">
<path d="M622.894 149.187C622.894 200.07 673.806 241.319 736.61 241.319C799.413 241.319 865.825 218.883 865.825 168C865.825 117.117 799.413 57.056 736.61 57.056C673.806 57.056 622.894 98.3047 622.894 149.187Z" fill="white"/>
<ellipse rx="93.5122" ry="75.7629" transform="matrix(-1 0 0 1 575.561 184.263)" fill="white"/>
<ellipse rx="113.715" ry="92.1315" transform="matrix(-1 0 0 1 481.471 288.554)" fill="white"/>
<ellipse rx="102.456" ry="104.509" transform="matrix(-0.746346 0.665558 0.805345 0.592807 312.959 326.144)" fill="white"/>
<ellipse rx="113.715" ry="92.1315" transform="matrix(-1 0 0 1 386.805 183.795)" fill="white"/>
<ellipse rx="113.715" ry="92.1315" transform="matrix(-1 0 0 1 473.39 92.1315)" fill="white"/>
<ellipse rx="113.715" ry="92.1315" transform="matrix(-1 0 0 1 220.561 255.817)" fill="white"/>
<ellipse rx="113.715" ry="92.1315" transform="matrix(-1 0 0 1 114.04 359.131)" fill="white"/>
<ellipse rx="113.715" ry="92.1315" transform="matrix(-1 0 0 1 616.544 119.256)" fill="white"/>
<rect width="516" height="211" transform="matrix(-1 0 0 1 850.325 184)" fill="white"/>
</svg>
