<svg width="967" height="497" viewBox="0 0 967 497" fill="none" xmlns="http://www.w3.org/2000/svg">
<path d="M605.894 149.187C605.894 200.07 656.806 241.319 719.61 241.319C782.413 241.319 848.825 218.883 848.825 168C848.825 117.117 782.413 57.056 719.61 57.056C656.806 57.056 605.894 98.3047 605.894 149.187Z" fill="white"/>
<ellipse rx="93.5122" ry="75.7629" transform="matrix(-1 0 0 1 846.512 318.763)" fill="white"/>
<ellipse rx="113.715" ry="92.1315" transform="matrix(-1 0 0 1 852.715 267.131)" fill="white"/>
<ellipse rx="116.328" ry="104.509" transform="matrix(-0.746346 0.665558 0.805345 0.592807 286.28 335.377)" fill="white"/>
<ellipse rx="113.715" ry="92.1315" transform="matrix(-1 0 0 1 370.48 183.795)" fill="white"/>
<ellipse rx="113.715" ry="92.1315" transform="matrix(-1 0 0 1 457.065 92.1315)" fill="white"/>
<ellipse rx="113.715" ry="92.1315" transform="matrix(-1 0 0 1 204.236 255.817)" fill="white"/>
<ellipse rx="136" ry="112.5" transform="matrix(-1 0 0 1 136 384.5)" fill="white"/>
<ellipse rx="113.715" ry="92.1315" transform="matrix(-1 0 0 1 599.544 119.256)" fill="white"/>
<rect width="516" height="249" transform="matrix(-1 0 0 1 834 146)" fill="white"/>
</svg>
