<svg width="1044" height="632" viewBox="0 0 1044 632" fill="none" xmlns="http://www.w3.org/2000/svg">
<path d="M326.651 193.297C326.651 261.407 271.436 316.622 203.325 316.622C135.215 316.622 80.0001 261.407 80.0001 193.297C80.0001 125.186 135.215 69.9713 203.325 69.9713C271.436 69.9713 326.651 125.186 326.651 193.297Z" fill="#B8E5FF"/>
<path d="M299 380.093C299 462.659 232.067 529.593 149.5 529.593C66.9336 529.593 0.00013873 462.659 0.00013873 380.093C0.00013873 297.526 66.9336 230.593 149.5 230.593C232.067 230.593 299 297.526 299 380.093Z" fill="#B8E5FF"/>
<circle cx="702.146" cy="457.617" r="123.325" transform="rotate(47.7437 702.146 457.617)" fill="#B8E5FF"/>
<path d="M608.173 540.819C581.737 564.838 517.844 567.256 493.825 540.819C469.806 514.382 494.756 469.102 521.193 445.083C547.63 421.064 588.533 423.024 612.552 449.461C636.57 475.898 634.61 516.8 608.173 540.819Z" fill="#B8E5FF"/>
<circle cx="622.017" cy="246.024" r="123.325" fill="#B8E5FF"/>
<circle cx="528.114" cy="123.325" r="123.325" fill="#B8E5FF"/>
<circle cx="802.309" cy="342.431" r="123.325" fill="#B8E5FF"/>
<circle cx="920" cy="492.675" r="123.325" fill="#B8E5FF"/>
<circle cx="372.861" cy="159.634" r="123.325" fill="#B8E5FF"/>
<rect x="126.838" y="246.65" width="552.146" height="281.707" fill="#B8E5FF"/>
</svg>
