<?xml version="1.0" encoding="utf-8"?>
<svg version="1.1" id="레이어_1" xmlns="http://www.w3.org/2000/svg" xmlns:xlink="http://www.w3.org/1999/xlink" x="0px"
	 y="0px" viewBox="0 0 939 430" style="enable-background:new 0 0 939 430;" xml:space="preserve">
<style type="text/css">
	.st0{fill:#FFFFFF;}
</style>
<path class="st0" d="M562.1,161.5c0,55.1,53.2,99.7,118.9,99.7c65.7,0,135.1-24.3,135.1-79.4S746.6,61.8,681,61.8
	C615.3,61.8,562.1,106.4,562.1,161.5z"/>
<ellipse class="st0" cx="801.6" cy="347.5" rx="87.8" ry="82.3"/>
<ellipse class="st0" cx="820.1" cy="289.2" rx="118.9" ry="99.7"/>
<ellipse transform="matrix(0.2456 -0.9694 0.9694 0.2456 -255.8755 359.7322)" class="st0" cx="103.2" cy="344.3" rx="84.4" ry="104.3"/>
<ellipse class="st0" cx="305.8" cy="179.9" rx="118.9" ry="99.7"/>
<ellipse class="st0" cx="406.5" cy="99.7" rx="118.9" ry="99.7"/>
<ellipse class="st0" cx="144.8" cy="268.6" rx="118.9" ry="99.7"/>
<ellipse class="st0" cx="469.2" cy="214.9" rx="142.2" ry="121.8"/>
<ellipse class="st0" cx="555.5" cy="129.1" rx="118.9" ry="99.7"/>
<rect x="116.9" y="226.3" class="st0" width="683.7" height="203.5"/>
</svg>
