<svg width="149" height="112" viewBox="0 0 149 112" fill="none" xmlns="http://www.w3.org/2000/svg">
<path d="M78.9781 51.9828C89.7479 45.81 107.505 21.0213 101.358 10.2963C95.2109 -0.428616 72.6905 13.0518 61.9206 19.2247C51.1508 25.3975 50.6141 32.9177 56.7612 43.6426C62.9083 54.3676 68.2083 58.1557 78.9781 51.9828Z" fill="#FFD08F"/>
<path d="M132.934 69.4417C137.623 66.7541 145.354 55.9612 142.678 51.2916C140.001 46.622 130.196 52.4913 125.507 55.1789C120.818 57.8666 120.584 61.1408 123.26 65.8104C125.937 70.48 128.244 72.1294 132.934 69.4417Z" fill="#FFD08F"/>
<path d="M0.325775 48.9859C0.325775 69.1261 73.6866 95.7944 102.995 95.7944C132.304 95.7944 133.403 89.8089 133.403 69.6687C133.403 49.5285 79.9806 8.16455 50.6721 8.16455C21.3636 8.16455 0.325775 28.8457 0.325775 48.9859Z" fill="#79C4F2"/>
<path fill-rule="evenodd" clip-rule="evenodd" d="M3.08664 36.1989C5.02184 56.2349 76.8037 82.1872 105.716 82.1872C122.415 82.1872 129.956 80.2442 133.354 74.8473C132.966 90.8543 129.622 95.7947 102.995 95.7947C73.6862 95.7947 0.325302 69.1264 0.325302 48.9862C0.325302 44.6793 1.28737 40.3477 3.08664 36.1989Z" fill="#21658F"/>
<path d="M39.0544 72.3313C40.9636 84.597 57.7545 110.05 69.9692 108.149C82.1838 106.248 77.6568 80.3942 75.7476 68.1285C73.8384 55.8627 67.0085 52.67 54.7939 54.5712C42.5793 56.4725 37.1452 60.0655 39.0544 72.3313Z" fill="#FFDFAC"/>
<path d="M110.762 83.961C111.014 89.7133 116.517 101.489 122.245 101.237C127.973 100.986 128.145 89.6534 127.893 83.9011C127.64 78.1487 124.655 76.3274 118.927 76.5788C113.198 76.8303 110.509 78.2087 110.762 83.961Z" fill="#FFDFAC"/>
<path d="M27.9895 29.229C28.2419 29.5685 28.4979 29.9141 28.757 30.2639C31.2677 33.6539 34.0761 37.4458 36.9395 40.0465C38.5181 41.4803 40.0711 42.5113 41.5575 42.9289C43.0148 43.3383 44.4216 43.1641 45.7857 42.1497C48.5857 40.0674 49.9276 35.7168 49.8581 30.8681C49.7889 26.0439 48.3203 20.9029 45.7122 17.3957C43.0703 13.8432 40.7531 12.5543 38.4576 12.5757C36.1086 12.5976 33.621 13.9824 30.6252 16.2103C29.125 17.3259 27.8955 18.2704 26.9658 19.1749C26.0373 20.0781 25.4445 20.9071 25.1761 21.7786C24.648 23.4927 25.3076 25.6228 27.9895 29.229Z" fill="#B8E5FF" stroke="#D9D9D9"/>
<path d="M73.532 42.4542C73.532 44.4081 75.3881 46.5363 77.342 46.5363C79.2959 46.5363 81.6963 42.5031 81.6963 40.5492C81.6963 38.5953 79.8402 36.467 77.8863 36.467C75.9324 36.467 73.532 40.5003 73.532 42.4542Z" fill="#B8E5FF"/>
<path d="M84.9617 49.2584C84.9617 51.2123 86.8178 53.3405 88.7717 53.3405C90.7256 53.3405 93.126 50.1237 93.126 48.1698C93.126 46.2159 91.2699 44.0877 89.316 44.0877C87.3621 44.0877 84.9617 47.3045 84.9617 49.2584Z" fill="#B8E5FF"/>
<path d="M97.4803 57.6944C97.4803 59.6483 99.3364 61.7766 101.29 61.7766C103.244 61.7766 105.645 58.2876 105.645 56.3337C105.645 54.3798 103.788 52.2516 101.835 52.2516C99.8806 52.2516 97.4803 55.7405 97.4803 57.6944Z" fill="#B8E5FF"/>
</svg>
