<svg width="177" height="134" viewBox="0 0 177 134" fill="none" xmlns="http://www.w3.org/2000/svg">
<path d="M82.649 61.9123C69.8219 54.5604 48.6729 25.0366 55.9942 12.2631C63.3155 -0.510488 90.1376 15.5449 102.965 22.8968C115.792 30.2488 116.431 39.2054 109.11 51.979C101.788 64.7525 95.476 69.2643 82.649 61.9123Z" fill="#FFD08F"/>
<path d="M18.3871 82.706C12.8022 79.505 3.594 66.6505 6.78167 61.0889C9.96934 55.5273 21.6476 62.5178 27.2325 65.7188C32.8173 68.9198 33.0956 72.8195 29.908 78.3811C26.7203 83.9426 23.9719 85.907 18.3871 82.706Z" fill="#FFD08F"/>
<path d="M176.325 58.3429C176.325 82.3302 88.9515 114.092 54.0447 114.092C19.1379 114.092 17.8281 106.964 17.8281 82.9764C17.8281 58.9891 81.4554 9.72409 116.362 9.72409C151.269 9.72409 176.325 34.3556 176.325 58.3429Z" fill="#79C4F2"/>
<path fill-rule="evenodd" clip-rule="evenodd" d="M173.037 43.1131C170.732 66.9763 85.2385 97.8859 50.8035 97.8859C30.9152 97.8859 21.9332 95.5717 17.8857 89.1439C18.349 108.208 22.3312 114.093 54.0447 114.093C88.9516 114.093 176.325 82.3302 176.325 58.343C176.325 53.2134 175.18 48.0544 173.037 43.1131Z" fill="#21658F"/>
<path d="M130.198 86.1474C127.924 100.756 107.926 131.071 93.3784 128.807C78.8306 126.542 84.2222 95.7505 86.4961 81.1419C88.77 66.5332 96.9045 62.7306 111.452 64.995C126 67.2594 132.472 71.5388 130.198 86.1474Z" fill="#FFDFAC"/>
<path d="M44.7935 99.9988C44.4928 106.85 37.9396 120.874 31.1171 120.575C24.2945 120.275 24.0895 106.778 24.3903 99.9274C24.6911 93.0763 28.2466 90.907 35.0691 91.2065C41.8916 91.5061 45.0943 93.1477 44.7935 99.9988Z" fill="#FFDFAC"/>
<path d="M143.453 34.8691C143.152 35.2736 142.847 35.6853 142.539 36.1023C139.55 40.1382 136.199 44.6623 132.781 47.7666C130.897 49.4784 129.034 50.7177 127.243 51.2208C125.481 51.7158 123.774 51.5045 122.124 50.2774C118.752 47.7698 117.152 42.5484 117.235 36.7629C117.318 31.0019 119.071 24.8581 122.192 20.6614C125.347 16.4194 128.132 14.8563 130.91 14.8822C133.741 14.9086 136.726 16.5767 140.294 19.23C142.081 20.5583 143.55 21.6868 144.662 22.769C145.774 23.8501 146.492 24.8508 146.819 25.9104C147.463 28.001 146.648 30.5734 143.453 34.8691Z" fill="#B8E5FF" stroke="#D9D9D9"/>
<path d="M89.1359 50.5634C89.1359 52.8905 86.9252 55.4253 84.5981 55.4253C82.271 55.4253 79.4121 50.6216 79.4121 48.2945C79.4121 45.9674 81.6227 43.4326 83.9499 43.4326C86.277 43.4326 89.1359 48.2363 89.1359 50.5634Z" fill="#B8E5FF"/>
<path d="M75.5226 58.6669C75.5226 60.994 73.312 63.5288 70.9848 63.5288C68.6577 63.5288 65.7988 59.6975 65.7988 57.3704C65.7988 55.0433 68.0095 52.5085 70.3366 52.5085C72.6637 52.5085 75.5226 56.3398 75.5226 58.6669Z" fill="#B8E5FF"/>
<path d="M60.6124 68.7149C60.6124 71.0421 58.4018 73.5768 56.0747 73.5768C53.7476 73.5768 50.8887 69.4214 50.8887 67.0943C50.8887 64.7672 53.0993 62.2324 55.4264 62.2324C57.7535 62.2324 60.6124 66.3878 60.6124 68.7149Z" fill="#B8E5FF"/>
</svg>
