<svg width="270" height="291" viewBox="0 0 270 291" fill="none" xmlns="http://www.w3.org/2000/svg">
<path fill-rule="evenodd" clip-rule="evenodd" d="M28.0551 184.418C28.2791 169.517 39.4578 156.654 54.2597 154.464C135.087 142.505 172.605 142.879 209.208 150.073C222.416 152.669 231.274 164.573 231.07 178.118L230.949 186.193C230.74 200.074 221.136 211.906 208.283 215.535C206.903 200.769 195.435 189.479 181.313 189.709C166.869 189.943 154.841 202.143 153.445 217.441L125.704 217.891C124.767 202.631 113.1 190.816 98.656 191.051C84.2124 191.285 72.1841 203.485 70.7877 218.783L57.524 218.998C40.9576 219.267 27.7299 206.055 27.9789 189.489L28.0551 184.418Z" fill="#D93D04"/>
<path d="M45.7207 177.228C45.8268 185.198 38.7237 190.23 33.0749 190.509C27.4262 190.787 28.8027 185.076 28.7092 178.057C28.6158 171.038 28.2345 165.314 33.8832 165.036C39.532 164.758 45.6273 170.209 45.7207 177.228Z" fill="#FDDF61"/>
<path d="M45.7207 177.228C45.8268 185.198 38.7237 190.23 33.0749 190.509C27.4262 190.787 28.8027 185.076 28.7092 178.057C28.6158 171.038 28.2345 165.314 33.8832 165.036C39.532 164.758 45.6273 170.209 45.7207 177.228Z" fill="#FDDF61"/>
<path d="M207.293 220.502C207.074 235.109 193.677 249.329 180.157 249.548C166.636 249.768 154.551 235.962 154.771 221.355C154.99 206.748 167.515 191.341 181.035 191.121C194.556 190.902 207.513 205.895 207.293 220.502Z" fill="black"/>
<path d="M124.523 220.515C124.304 235.122 111.33 250.777 97.8099 250.997C84.2894 251.217 71.7554 237.659 71.975 223.052C72.1945 208.445 85.1677 192.79 98.6882 192.57C112.209 192.35 124.743 205.908 124.523 220.515Z" fill="black"/>
<path d="M78.1422 117.553C80.734 108.847 88.4064 102.665 97.2235 100.536C131.864 92.172 155.419 92.0507 186.059 98.0397C197.516 100.279 206.274 109.558 207.013 121.254C207.42 127.68 207.385 133.717 206.965 140.065C205.977 154.995 192.704 166.172 177.767 166.415L104.366 167.607C91.28 167.82 79.1911 159.679 76.7762 146.898C74.9522 137.244 74.928 128.351 78.1422 117.553Z" fill="#D93D04"/>
<path d="M111.862 219.086C111.728 227.983 104.212 233.393 96.9601 233.511C89.7082 233.629 83.9248 227.373 84.0426 219.538C84.1604 211.703 91.6926 205.231 98.9445 205.114C106.196 204.996 111.98 211.252 111.862 219.086Z" fill="#F2F2F2"/>
<path d="M111.862 219.086C111.728 227.983 104.212 233.393 96.9601 233.511C89.7082 233.629 83.9248 227.373 84.0426 219.538C84.1604 211.703 91.6926 205.231 98.9445 205.114C106.196 204.996 111.98 211.252 111.862 219.086Z" fill="#F2F2F2"/>
<path d="M167.6 221.627C165.94 212.973 171.451 204.244 178.555 202.426C185.659 200.607 193.39 207.029 194.852 214.651C196.314 222.272 190.214 230.316 183.11 232.134C176.006 233.953 169.062 229.249 167.6 221.627Z" fill="#F2F2F2"/>
<path d="M167.6 221.627C165.94 212.973 171.451 204.244 178.555 202.426C185.659 200.607 193.39 207.029 194.852 214.651C196.314 222.272 190.214 230.316 183.11 232.134C176.006 233.953 169.062 229.249 167.6 221.627Z" fill="#F2F2F2"/>
<path d="M86.7605 127.318C88.4119 117.693 95.8184 109.478 105.31 107.856L115.818 106.061C127.278 104.102 137.482 112.369 137.996 124.028L138.037 124.969C138.081 125.973 138.051 126.983 137.946 127.989L137.559 131.715C136.55 141.413 128.894 149.342 119.351 150.572L103.563 152.607C94.3229 153.798 85.1268 148.368 85.3602 138.967C85.4569 135.069 86.0601 131.4 86.7605 127.318Z" fill="#79C4F2"/>
<path d="M196.736 125.617C195.781 115.98 188.802 107.66 179.268 105.933L170.563 104.356C159.148 102.288 148.355 110.331 147.074 121.86L146.935 123.118C146.829 124.071 146.792 125.03 146.824 125.989L146.947 129.695C147.271 139.414 154.547 147.478 164.186 148.8L177.983 150.693C187.277 151.968 196.886 146.619 197.302 137.25C197.476 133.357 197.14 129.692 196.736 125.617Z" fill="#79C4F2"/>
<path d="M83.6459 101.71C76.5801 103.296 71.6064 96.8897 70.7543 91.7717C69.9022 86.6537 74.9393 81.2191 82.0051 79.6332C89.0709 78.0473 95.4896 80.9107 96.3417 86.0287C97.1938 91.1467 90.7116 100.124 83.6459 101.71Z" fill="#FFCB43"/>
<path d="M93.8783 96.6828C86.8125 98.2687 81.8388 91.8623 80.9867 86.7443C80.1346 81.6264 85.1718 76.1918 92.2375 74.6059C99.3033 73.02 105.722 75.8833 106.574 81.0013C107.426 86.1193 100.944 95.0969 93.8783 96.6828Z" fill="#FFCB43"/>
<path d="M110.541 97.2599C103.476 98.8458 98.5019 92.4395 97.6498 87.3215C96.7977 82.2035 101.835 76.7689 108.901 75.183C115.966 73.5971 122.385 76.4605 123.237 81.5785C124.089 86.6965 117.607 95.674 110.541 97.2599Z" fill="#FFCB43"/>
<path d="M117.37 134.989C123.599 133.917 127.793 140.663 128.409 145.828C129.026 150.993 124.475 156.048 118.246 157.12C112.017 158.192 106.467 154.875 105.851 149.71C105.235 144.545 111.141 136.061 117.37 134.989Z" fill="#FFCB43"/>
<path d="M127.771 124.173C134.001 123.101 138.194 129.847 138.811 135.012C139.427 140.177 134.877 145.233 128.647 146.305C122.418 147.377 116.869 144.059 116.252 138.894C115.636 133.729 121.542 125.245 127.771 124.173Z" fill="#FFCB43"/>
<path d="M133.424 111.288C139.653 110.216 143.847 116.962 144.463 122.127C145.079 127.291 140.529 132.347 134.3 133.419C128.07 134.491 122.521 131.174 121.905 126.009C121.288 120.844 127.194 112.36 133.424 111.288Z" fill="#FFCB43"/>
<path d="M78.1449 148.476C71.0791 150.062 66.1054 143.655 65.2533 138.537C64.4012 133.419 69.4384 127.985 76.5041 126.399C83.5699 124.813 89.9886 127.676 90.8407 132.794C91.6928 137.912 85.2107 146.89 78.1449 148.476Z" fill="#FFCB43"/>
<path d="M88.0394 159.067C80.9737 160.652 75.9999 154.246 75.1478 149.128C74.2957 144.01 79.3329 138.576 86.3987 136.99C93.4644 135.404 99.8832 138.267 100.735 143.385C101.587 148.503 95.1052 157.481 88.0394 159.067Z" fill="#FFCB43"/>
<path d="M104.66 161.636C97.5939 163.222 89.3323 157.972 88.4802 152.854C87.6281 147.736 92.6653 142.302 99.731 140.716C106.797 139.13 116.33 141.478 117.182 146.596C118.034 151.714 111.725 160.05 104.66 161.636Z" fill="#FFCB43"/>
<ellipse rx="39.3196" ry="41.1811" transform="matrix(0.986587 -0.163237 0.112643 0.993635 101.612 117.321)" fill="#FFCB43"/>
<ellipse rx="7.47073" ry="4.1996" transform="matrix(0.986587 -0.163237 0.112643 0.993635 99.9862 122.732)" fill="black"/>
<ellipse rx="2.46911" ry="3.36979" transform="matrix(-1.01564 0.162465 0.103222 0.964112 107.381 113.358)" fill="black"/>
<path fill-rule="evenodd" clip-rule="evenodd" d="M106.976 116.562C107.869 115.939 108.403 114.641 108.24 113.253C108.072 111.813 107.204 110.715 106.152 110.46C106.411 110.279 106.701 110.155 107.012 110.103C108.396 109.869 109.688 111.132 109.898 112.923C110.108 114.715 109.157 116.356 107.773 116.59C107.501 116.636 107.233 116.624 106.976 116.562Z" fill="white"/>
<ellipse rx="2.46911" ry="3.36979" transform="matrix(-1.01564 0.162465 0.103222 0.964112 91.0842 116.021)" fill="black"/>
<path fill-rule="evenodd" clip-rule="evenodd" d="M90.679 119.224C91.5718 118.601 92.1064 117.303 91.9436 115.915C91.7748 114.476 90.9073 113.377 89.8551 113.123C90.1144 112.942 90.404 112.818 90.7154 112.765C92.0991 112.532 93.391 113.795 93.6011 115.586C93.8111 117.377 92.8597 119.019 91.4761 119.252C91.2044 119.298 90.9362 119.286 90.679 119.224Z" fill="white"/>
<path d="M44.8398 123.704C44.3665 113.4 63.0457 93.2438 69.8001 92.6544C76.5545 92.065 68.8264 111.266 69.2997 121.569C69.7731 131.873 64.6813 140.703 57.9269 141.293C51.1725 141.882 45.3132 134.007 44.8398 123.704Z" fill="#231F20"/>
<path d="M154.313 107.943C153.84 97.639 132.651 80.9618 125.615 81.5758C118.579 82.1898 128.36 99.8625 128.833 110.166C129.307 120.47 135.394 128.325 142.43 127.711C149.467 127.097 154.787 118.246 154.313 107.943Z" fill="#231F20"/>
<path d="M160.287 110.077C152.376 109.74 148.541 102.227 148.811 97.0507C149.081 91.8745 155.713 87.9511 163.624 88.2877C171.535 88.6242 177.73 93.0931 177.46 98.2693C177.19 103.446 168.198 110.413 160.287 110.077Z" fill="white"/>
<path d="M175.126 106.503C167.215 106.168 163.381 98.6554 163.652 93.4792C163.923 88.303 170.555 84.3786 178.467 84.7139C186.378 85.0491 192.572 89.5169 192.301 94.6931C192.03 99.8693 183.037 106.839 175.126 106.503Z" fill="white"/>
<path d="M190.035 112.892C182.124 112.556 178.29 105.042 178.559 99.8661C178.829 94.6899 185.461 90.7666 193.372 91.1031C201.283 91.4396 207.478 95.9086 207.208 101.085C206.938 106.261 197.946 113.229 190.035 112.892Z" fill="white"/>
<path d="M188.253 149.709C195.152 150.321 198.076 157.957 197.544 163.116C197.011 168.275 190.987 171.961 184.087 171.349C177.188 170.737 172.026 166.059 172.559 160.9C173.091 155.741 181.354 149.097 188.253 149.709Z" fill="white"/>
<path d="M202.988 141.853C209.888 142.465 212.811 150.101 212.279 155.26C211.747 160.419 205.722 164.105 198.823 163.493C191.923 162.881 186.762 158.203 187.294 153.044C187.826 147.885 196.089 141.241 202.988 141.853Z" fill="white"/>
<path d="M195.636 145.642C202.535 146.254 205.459 153.89 204.926 159.049C204.394 164.208 198.369 167.894 191.47 167.282C184.571 166.67 179.409 161.991 179.941 156.832C180.474 151.673 188.736 145.03 195.636 145.642Z" fill="white"/>
<path d="M208.314 132.826C215.213 133.438 218.136 141.074 217.604 146.233C217.072 151.392 211.047 155.078 204.148 154.466C197.248 153.854 192.087 149.175 192.619 144.016C193.151 138.857 201.414 132.214 208.314 132.826Z" fill="white"/>
<path d="M143.634 153.856C135.723 153.52 131.888 146.006 132.158 140.83C132.428 135.654 139.06 131.73 146.971 132.067C154.882 132.403 161.076 136.872 160.806 142.049C160.537 147.225 151.545 154.193 143.634 153.856Z" fill="white"/>
<path d="M129.316 127.191C129.808 119.525 137.631 115.814 142.967 116.08C148.304 116.345 152.231 122.775 151.739 130.441C151.247 138.108 146.522 144.107 141.185 143.842C135.849 143.576 128.823 134.857 129.316 127.191Z" fill="white"/>
<path d="M133.575 114.698C134.067 107.032 141.891 103.322 147.227 103.587C152.564 103.853 156.491 110.282 155.998 117.949C155.506 125.615 150.781 131.614 145.445 131.349C140.109 131.083 133.083 122.364 133.575 114.698Z" fill="white"/>
<path d="M139.401 103.757C139.893 96.091 147.716 92.3807 153.052 92.6462C158.389 92.9117 162.316 99.3416 161.824 107.008C161.332 114.674 156.607 120.673 151.27 120.408C145.934 120.143 138.908 111.423 139.401 103.757Z" fill="white"/>
<path d="M194.617 111.506C195.109 103.84 202.933 100.13 208.269 100.395C213.606 100.661 217.533 107.091 217.04 114.757C216.548 122.423 211.823 128.422 206.487 128.157C201.151 127.892 194.125 119.172 194.617 111.506Z" fill="white"/>
<path d="M195.964 124.124C195.512 117.42 203.589 113.231 209.459 112.798C215.33 112.364 220.456 117.448 220.908 124.152C221.36 130.857 216.967 136.644 211.097 137.078C205.226 137.511 196.416 130.829 195.964 124.124Z" fill="white"/>
<path d="M218.225 129.2C222.295 135.752 217.973 143.084 213.393 145.793C208.812 148.503 201.799 145.388 197.73 138.836C193.66 132.284 194.075 124.776 198.656 122.067C203.237 119.357 214.156 122.648 218.225 129.2Z" fill="white"/>
<path d="M153.536 166.264C145.625 165.928 138.013 158.662 138.282 153.486C138.552 148.31 145.184 144.386 153.095 144.723C161.006 145.059 170.645 149.854 170.375 155.03C170.106 160.207 161.447 166.601 153.536 166.264Z" fill="white"/>
<path d="M163.767 173.118C155.856 172.782 148.243 165.516 148.513 160.34C148.783 155.164 155.414 151.24 163.326 151.577C171.237 151.913 180.876 156.708 180.606 161.884C180.336 167.061 171.678 173.455 163.767 173.118Z" fill="white"/>
<path d="M175.3 173.369C167.389 173.032 159.776 165.767 160.046 160.591C160.316 155.415 166.948 151.491 174.859 151.828C182.77 152.164 192.409 156.959 192.139 162.135C191.869 167.312 183.211 173.706 175.3 173.369Z" fill="white"/>
<ellipse rx="43.0974" ry="41.054" transform="matrix(0.99555 0.0942312 -0.109082 0.994033 175.876 129.934)" fill="white"/>
<path d="M180.204 129.521C180.034 131.07 177.521 133.943 174.838 133.689C172.155 133.435 170.318 130.15 170.488 128.601C170.658 127.052 172.971 126.002 175.654 126.256C178.336 126.51 180.373 127.972 180.204 129.521Z" fill="black"/>
<ellipse rx="2.71943" ry="3.72426" transform="matrix(-1.01767 -0.101918 -0.112424 0.969603 184.868 122.824)" fill="black"/>
<path fill-rule="evenodd" clip-rule="evenodd" d="M183.657 126.172C184.759 125.752 185.643 124.5 185.807 122.953C185.977 121.349 185.32 119.916 184.261 119.342C184.582 119.22 184.92 119.168 185.265 119.199C186.794 119.339 187.863 121.071 187.652 123.067C187.441 125.063 186.029 126.568 184.499 126.428C184.199 126.401 183.916 126.312 183.657 126.172Z" fill="#D9D9D9"/>
<ellipse rx="2.71943" ry="3.72426" transform="matrix(-1.01767 -0.101918 -0.112424 0.969603 166.869 121.082)" fill="black"/>
<path fill-rule="evenodd" clip-rule="evenodd" d="M165.659 124.43C166.761 124.01 167.645 122.758 167.809 121.211C167.979 119.607 167.322 118.174 166.263 117.6C166.584 117.478 166.922 117.426 167.267 117.458C168.796 117.597 169.865 119.329 169.654 121.325C169.442 123.321 168.031 124.826 166.501 124.687C166.2 124.659 165.918 124.571 165.659 124.43Z" fill="#D9D9D9"/>
<path d="M177.783 66.0636C176.672 90.0198 172.821 99.2646 166.217 99.0425C159.614 98.8205 157.463 92.7391 158.574 68.7828C163.864 64.2791 160.266 61.3666 166.87 61.5886C173.473 61.8107 168.887 62.8745 177.783 66.0636Z" fill="white"/>
<path d="M219.287 69.8072C208.23 90.9359 194.593 105.379 188.828 102.066C183.062 98.7541 187.352 78.9406 198.408 57.8119C209.465 36.6832 214.774 36.4282 220.539 39.7406C226.305 43.053 230.344 48.6785 219.287 69.8072Z" fill="white"/>
<path d="M215.052 66.7303C207.047 82.4731 198.518 92.1629 195.035 90.246C191.551 88.3291 193.507 78.2769 201.512 62.5341C209.517 46.7913 213.811 43.4753 217.294 45.3922C220.777 47.3092 223.058 50.9875 215.052 66.7303Z" fill="#FFA5A5"/>
<path d="M173.143 66.2507C172.666 83.9826 171.303 85.9178 167.117 85.9892C162.932 86.0607 162.406 83.8532 161.122 74.5005C160.555 70.3628 162.1 65.6731 166.285 65.6016C170.47 65.5301 169.857 65.9396 173.143 66.2507Z" fill="#FFA5A5"/>
<path d="M171.394 74.7493C154.623 90.9512 141.704 100.284 137.055 95.3568C132.406 90.4299 139.532 78.1118 155.122 60.5519C162.841 57.5294 170.929 57.5612 175.578 62.488C178.94 66.0516 178.282 68.0951 171.394 74.7493Z" fill="white"/>
</svg>
