<svg width="164" height="146" viewBox="0 0 164 146" fill="none" xmlns="http://www.w3.org/2000/svg">
<path d="M59.8217 11.7927C59.8217 18.11 49.4651 17.5557 54.2736 21.6736C57.849 23.5038 65 17.6962 65 11.3788C65 5.06144 59.5751 -0.21782 54.89 1.26922C50.6923 5.31138 59.8217 5.47531 59.8217 11.7927Z" fill="#3B82BF"/>
<path d="M36.3902 11.3059C36.3902 17.924 25.1706 17.3433 30.3797 21.6573C34.2531 23.5746 42 17.4905 42 10.8723C42 4.25408 36.1231 -1.27657 31.0475 0.281286C26.5 4.51593 36.3902 4.68766 36.3902 11.3059Z" fill="#3B82BF"/>
<path d="M84.3902 11.2795C84.3902 17.296 73.1706 16.7681 78.3797 20.6899C82.2531 22.4329 90 16.9019 90 10.8853C90 4.8688 84.1231 -0.15907 79.0475 1.25716C74.5 5.10684 84.3902 5.26296 84.3902 11.2795Z" fill="#3B82BF"/>
<path d="M110.39 10.7927C110.39 17.11 99.1706 16.5557 104.38 20.6736C108.253 22.5038 116 16.6962 116 10.3788C116 4.06144 110.123 -1.21782 105.048 0.269224C100.5 4.31138 110.39 4.47531 110.39 10.7927Z" fill="#3B82BF"/>
<path d="M135.822 12.2795C135.822 18.296 125.465 17.7681 130.274 21.6899C133.849 23.4329 141 17.9019 141 11.8853C141 5.8688 135.575 0.84093 130.89 2.25716C126.692 6.10684 135.822 6.26296 135.822 12.2795Z" fill="#3B82BF"/>
<path d="M3.34272 17.1048C3.60019 14.6459 5.64695 12.7205 8.11737 12.6221C67.8316 10.2426 101.789 10.7296 157.968 12.6318C160.66 12.723 162.807 14.9361 162.78 17.6303C162.559 39.882 160.936 53.1302 162.804 77.5237C164.409 98.4759 163.438 127.485 162.992 138.126C162.891 140.528 161.06 142.489 158.674 142.787C91.7058 151.146 44.6378 140.373 8.97783 141.928C6.14487 142.052 3.70113 139.881 3.55146 137.049C1.49162 98.0759 -3.17732 79.376 3.34272 17.1048Z" fill="#79C4F2"/>
<path d="M36.9525 22.2718C37.4089 25.2844 34.5007 27.2015 31.4763 27.2015C28.2818 28.0232 26 24.8431 26 22.2718C26 19.7004 27.3691 17.6159 31.4763 17.6159C36.0398 17.0682 36.9525 19.7004 36.9525 22.2718Z" fill="white"/>
<path d="M58.8908 26.9632C56.3381 29.0989 53.1845 27.542 51.7385 24.7849C49.4556 22.3417 51.2896 18.4464 53.6546 16.9787C56.0196 15.511 58.5913 15.5692 60.5549 19.3134C63.2404 23.161 61.2558 25.4955 58.8908 26.9632Z" fill="white"/>
<path d="M85.9482 22.2718C86.446 25.2844 83.2735 27.2015 79.9741 27.2015C76.4892 28.0232 74 24.8431 74 22.2718C74 19.7004 75.4935 17.6159 79.9741 17.6159C84.9525 17.0682 85.9482 19.7004 85.9482 22.2718Z" fill="white"/>
<path d="M100.686 25.8977C98.9287 23.0972 100.969 19.703 103.956 18.1786C106.755 15.742 110.388 17.7908 111.503 20.3774C112.619 22.964 112.171 25.7508 108.115 27.821C103.845 30.672 101.802 28.4843 100.686 25.8977Z" fill="white"/>
<path d="M130.999 16.6012C133.976 15.5964 136.359 18.7155 136.821 22.2694C138.139 25.8953 135.272 29.0711 132.671 29.471C130.071 29.8709 127.753 28.5863 127.126 23.7602C125.876 18.4829 128.398 17.0011 130.999 16.6012Z" fill="white"/>
<path d="M27.439 11.3597C27.5073 17.9776 37.8573 17.29 33.0937 21.6534C29.5382 23.6075 22.3248 17.5974 22.2566 10.9796C22.1883 4.36177 27.5558 -1.22457 32.2567 0.284864C34.999 5.51593 27.3707 4.74189 27.439 11.3597Z" fill="#3B82BF"/>
<path d="M51.0666 11.8388C51.132 18.1718 61.0366 17.5139 56.4779 21.6894C53.0755 23.5595 46.1725 17.8081 46.1072 11.475C46.0418 5.14202 51.1784 -0.203887 55.677 1.24058C58.3013 6.24651 51.0013 5.50579 51.0666 11.8388Z" fill="#3B82BF"/>
<path d="M75.3509 11.4698C75.42 17.5599 85.8803 16.9272 81.0659 20.9426C77.4725 22.7409 70.1822 17.2101 70.1132 11.12C70.0442 5.02992 75.4689 -0.110936 80.22 1.27813C82.9915 6.09205 75.2819 5.37974 75.3509 11.4698Z" fill="#3B82BF"/>
<path d="M101.295 10.8621C101.363 17.1808 111.713 16.5243 106.949 20.6904C103.394 22.5562 96.1803 16.8178 96.112 10.4991C96.0437 4.18046 101.411 -1.15336 106.112 0.287839C108.854 5.28245 101.226 4.5434 101.295 10.8621Z" fill="#3B82BF"/>
<path d="M127.8 12.3487C127.862 18.3683 137.246 17.7432 132.927 21.712C129.704 23.4893 123.164 18.0224 123.102 12.0028C123.04 5.98327 127.906 0.902144 132.168 2.27526C134.654 7.03349 127.738 6.32919 127.8 12.3487Z" fill="#3B82BF"/>
<path d="M50.5956 36.5394C51.6155 32.3817 57.2039 31.5781 59.6587 35.2361L67.8881 47.4992C69.6905 50.1851 68.5743 53.7374 65.5917 54.8077L53.2696 59.2295C49.4771 60.5904 45.5507 57.1059 46.5029 53.2242L50.5956 36.5394Z" fill="#3B82BF"/>
<path d="M53.719 45.0739C54.3345 42.0029 58.5781 41.5907 60.0026 44.4636V44.4636C60.8997 46.2729 60.0137 48.3912 58.1134 48.9805V48.9805C55.6706 49.7381 53.2207 47.5601 53.719 45.0739V45.0739Z" fill="#3B82BF"/>
<path d="M112.39 35.0969C111.344 31.0919 105.92 30.369 103.399 33.8988L94.2593 46.6974C92.3256 49.4052 93.4101 53.0281 96.4626 54.0574L110.148 58.6723C113.98 59.9645 117.942 56.3674 116.935 52.5104L112.39 35.0969Z" fill="#3B82BF"/>
<path d="M109.207 44.1195C108.545 41.0154 104.221 40.6497 102.682 43.5676V43.5676C101.679 45.4688 102.588 47.7032 104.603 48.2905V48.2905C107.175 49.04 109.758 46.7002 109.207 44.1195V44.1195Z" fill="#3B82BF"/>
<path d="M61.3049 70.285C51.5658 70.6892 45.8566 63.6792 45.4911 58.5797C45.1256 53.4802 52.7244 49.0186 62.4635 48.6145C72.2026 48.2103 80.3939 52.0166 80.7594 57.1161C81.1249 62.2156 71.0439 69.8809 61.3049 70.285Z" fill="#3B82BF"/>
<path d="M79.0071 65.4053C69.2682 65.8108 63.5606 58.8014 63.1963 53.7019C62.832 48.6023 70.4317 44.1396 80.1707 43.7342C89.9097 43.3287 98.1 47.134 98.4643 52.2335C98.8287 57.3331 88.7461 64.9999 79.0071 65.4053Z" fill="#3B82BF"/>
<path d="M98.1349 70.285C88.3959 70.6892 82.6867 63.6792 82.3212 58.5797C81.9557 53.4802 89.5545 49.0186 99.2936 48.6145C109.033 48.2103 117.224 52.0166 117.589 57.1161C117.955 62.2156 107.874 69.8809 98.1349 70.285Z" fill="#3B82BF"/>
<path d="M100.903 106.543C109.44 106.503 114.049 113.718 114.09 118.824C114.132 123.931 107.245 128.104 98.7086 128.144C90.1721 128.184 83.2184 124.077 83.177 118.97C83.1356 113.863 92.367 106.583 100.903 106.543Z" fill="#3B82BF"/>
<path d="M117.903 97.4744C126.44 97.4343 131.049 104.649 131.09 109.756C131.132 114.863 124.245 119.035 115.709 119.076C107.172 119.116 100.218 115.008 100.177 109.901C100.136 104.794 109.367 97.5145 117.903 97.4744Z" fill="#3B82BF"/>
<path d="M109.403 101.871C117.94 101.831 122.549 109.045 122.59 114.152C122.632 119.259 115.745 123.432 107.209 123.472C98.6721 123.512 91.7184 119.404 91.677 114.297C91.6356 109.19 100.867 101.911 109.403 101.871Z" fill="#3B82BF"/>
<path d="M123.214 88.1305C131.75 88.0904 136.359 95.3051 136.401 100.412C136.442 105.519 129.556 109.691 121.019 109.732C112.483 109.772 105.529 105.664 105.488 100.557C105.446 95.4502 114.677 88.1705 123.214 88.1305Z" fill="#3B82BF"/>
<path d="M46.7873 114.749C37.0482 115.153 31.339 108.143 30.9735 103.044C30.6081 97.9444 38.2069 93.4828 47.9459 93.0786C57.685 92.6745 65.8764 96.4808 66.2418 101.58C66.6073 106.68 56.5264 114.345 46.7873 114.749Z" fill="#3B82BF"/>
<path d="M25.6559 89.9364C25.2281 82.3752 34.3156 78.0119 40.8901 77.777C47.4647 77.5421 53.1413 83.4812 53.5691 91.0424C53.9969 98.6036 49.014 104.924 42.4394 105.158C35.8648 105.393 26.0838 97.4976 25.6559 89.9364Z" fill="#3B82BF"/>
<path d="M29.195 77.2943C28.7672 69.7331 37.8546 65.3699 44.4292 65.1349C51.0038 64.9 56.6803 70.8391 57.1082 78.4003C57.536 85.9615 52.5531 92.2814 45.9785 92.5163C39.4039 92.7513 29.6228 84.8555 29.195 77.2943Z" fill="#3B82BF"/>
<path d="M34.863 66.0276C34.4351 58.4665 43.5226 54.1032 50.0972 53.8683C56.6717 53.6334 62.3483 59.5725 62.7761 67.1336C63.204 74.6948 58.221 81.0148 51.6465 81.2497C45.0719 81.4846 35.2908 73.5888 34.863 66.0276Z" fill="#3B82BF"/>
<path d="M103.564 68.501C103.136 60.9398 112.224 56.5765 118.798 56.3416C125.373 56.1067 131.049 62.0458 131.477 69.607C131.905 77.1681 126.922 83.4881 120.348 83.723C113.773 83.9579 103.992 76.0621 103.564 68.501Z" fill="#3B82BF"/>
<path d="M106.911 80.7462C105.455 74.2152 114.789 69.3597 121.924 68.3898C129.06 67.42 136.024 71.9281 137.48 78.4591C138.935 84.9901 134.331 91.0708 127.196 92.0406C120.06 93.0105 108.366 87.2772 106.911 80.7462Z" fill="#3B82BF"/>
<path d="M134.872 83.6561C140.74 89.7017 136.431 97.2902 131.182 100.372C125.933 103.453 116.921 101.05 111.054 95.0044C105.186 88.9588 104.685 81.5599 109.933 78.4786C115.182 75.3972 129.005 77.6106 134.872 83.6561Z" fill="#3B82BF"/>
<path d="M60.5902 125.993C50.8511 126.398 40.5463 119.981 40.1808 114.882C39.8154 109.782 47.4142 105.321 57.1532 104.917C66.8923 104.512 79.348 108.319 79.7135 113.418C80.0789 118.518 70.3293 125.589 60.5902 125.993Z" fill="#3B82BF"/>
<path d="M74.0472 131.764C64.3081 132.169 54.0034 125.752 53.6379 120.653C53.2724 115.553 60.8712 111.092 70.6103 110.688C80.3493 110.283 92.805 114.09 93.1705 119.189C93.536 124.289 83.7863 131.36 74.0472 131.764Z" fill="#3B82BF"/>
<path d="M88.2132 130.94C78.4742 131.344 68.1694 124.928 67.8039 119.828C67.4384 114.729 75.0372 110.267 84.7763 109.863C94.5154 109.459 106.971 113.265 107.337 118.365C107.702 123.464 97.9523 130.536 88.2132 130.94Z" fill="#3B82BF"/>
<ellipse cx="83.0755" cy="88.3048" rx="53.1204" ry="40.4223" fill="#3B82BF"/>
<path d="M88.3253 87.4986C88.3253 89.033 85.6326 92.0828 82.3111 92.0828C78.9895 92.0828 76.2969 89.033 76.2969 87.4986C76.2969 85.9642 78.9895 84.7203 82.3111 84.7203C85.6326 84.7203 88.3253 85.9642 88.3253 87.4986Z" fill="#3B82BF"/>
<path d="M20.0008 98.9029C34.2389 89.2603 43.0255 87.5963 59.884 90.1575" stroke="#3B82BF" stroke-width="3"/>
<path d="M22.8146 108.934C35.6329 99.157 44.0623 96.2934 60.9772 95.3571" stroke="#3B82BF" stroke-width="3"/>
<path d="M145.462 98.4884C133.665 88.4024 124.818 86.6128 104.575 89.5549" stroke="#3B82BF" stroke-width="3"/>
<path d="M145.115 107.263C129.364 96.4958 121.505 93.961 105.376 94.8467" stroke="#3B82BF" stroke-width="3"/>
<ellipse rx="3.15121" ry="4.14623" transform="matrix(-1.08796 -0.00489057 -0.0066288 0.892084 94.8605 82.1801)" fill="#3B82BF"/>
<path fill-rule="evenodd" clip-rule="evenodd" d="M93.8249 85.6887C95.1185 85.1572 96.034 83.8039 96.0267 82.221C96.0192 80.5792 95.0214 79.1901 93.647 78.7106C94.0228 78.5562 94.4305 78.4712 94.8567 78.47C96.7502 78.4647 98.2927 80.1165 98.3021 82.1593C98.3115 84.2021 96.7841 85.8624 94.8906 85.8676C94.5189 85.8686 94.1607 85.8058 93.8249 85.6887Z" fill="#3B82BF"/>
<ellipse rx="3.15121" ry="4.14623" transform="matrix(-1.08796 -0.00489057 -0.0066288 0.892084 72.5734 82.1419)" fill="#3B82BF"/>
<path fill-rule="evenodd" clip-rule="evenodd" d="M71.5413 85.6502C72.8345 85.1185 73.7498 83.7654 73.7425 82.1827C73.735 80.5411 72.7374 79.1521 71.3633 78.6725C71.7392 78.5179 72.1471 78.4328 72.5735 78.4316C74.467 78.4264 76.0095 80.0781 76.0189 82.1209C76.0283 84.1637 74.5009 85.824 72.6074 85.8293C72.2355 85.8303 71.8771 85.7674 71.5413 85.6502Z" fill="#3B82BF"/>
<path d="M65.9349 65.392C64.4949 65.392 63.1029 66.16 63.1029 67.888V92.176C62.5269 90.016 61.7589 88.384 60.7989 86.656L51.7269 70.432C49.2789 66.112 48.3669 65.584 46.0149 65.584C42.9429 65.584 41.9349 66.544 41.9349 69.568V97.6C41.9349 99.328 43.3269 100.096 44.7669 100.096C46.2069 100.096 47.5989 99.328 47.5989 97.6V73.312C48.1749 75.472 48.9429 77.104 49.9029 78.832L58.9749 95.056C61.4229 99.424 62.3349 99.904 64.6869 99.904C67.7589 99.904 68.7669 98.944 68.7669 95.92V67.888C68.7669 66.16 67.3749 65.392 65.9349 65.392ZM80.6086 65.68C77.5366 65.68 76.5286 66.64 76.5286 69.664V97.456C76.5286 99.28 77.9686 100.096 79.6006 100.096C81.2326 100.096 82.6726 99.28 82.6726 97.456V85.696H95.9206C97.4086 85.696 98.0806 84.496 98.0806 83.104C98.0806 81.712 97.4086 80.512 95.9206 80.512H82.6726V70.864H96.9286C98.4166 70.864 99.0886 69.664 99.0886 68.272C99.0886 66.88 98.4166 65.68 96.9286 65.68H80.6086ZM102.883 65.68C101.395 65.68 100.723 66.88 100.723 68.272C100.723 69.664 101.395 70.864 102.883 70.864H111.187V97.456C111.187 99.28 112.627 100.096 114.259 100.096C115.891 100.096 117.331 99.28 117.331 97.456V70.864H125.587C127.075 70.864 127.747 69.664 127.747 68.272C127.747 66.88 127.075 65.68 125.587 65.68H102.883Z" fill="white"/>
</svg>
