<svg width="147" height="185" viewBox="0 0 147 185" fill="none" xmlns="http://www.w3.org/2000/svg">
<path fill-rule="evenodd" clip-rule="evenodd" d="M31.3098 173.989C41.1685 169.627 52.2662 159.428 55.3525 152.725C59.8747 142.902 57.6217 128.009 47.7991 123.487C37.9766 118.965 24.3041 126.526 19.782 136.349C17.8653 140.512 15.7195 147.34 14.6313 154.171L6.3812 184.581C9.27646 183.336 12.4398 182.083 15.598 180.831C21.4244 178.523 27.2334 176.221 31.3098 173.989Z" fill="#79C4F2"/>
<path fill-rule="evenodd" clip-rule="evenodd" d="M56.5228 152.411C53.3285 159.163 41.8788 169.451 31.7189 173.866C31.3 174.091 30.8633 174.317 30.4106 174.543C23.7991 172.236 21.935 166.144 20.3626 161.006C19.0933 156.859 18.0142 153.333 14.7812 152.92C15.9632 146.403 18.0645 140.008 19.9473 136.028C24.628 126.135 38.7226 118.493 48.8226 123.017C58.9227 127.541 61.2035 142.518 56.5228 152.411Z" fill="#91D5FF"/>
<path d="M93.7718 100.241C79.4219 120.406 59.5612 130.897 49.4118 123.674C39.2624 116.451 42.6676 94.2495 57.0176 74.0852C71.3675 53.9209 117.502 5.52386 127.652 12.7467C137.801 19.9695 108.122 80.0771 93.7718 100.241Z" fill="#21658F"/>
<path d="M37.8606 107.5C40.3768 101.957 47.2204 99.9287 52.3503 103.206L69.0436 113.872C74.3694 117.274 75.2425 124.703 70.8508 129.247L66.1514 134.111C62.8451 137.532 57.5858 138.15 53.5763 135.589L38.8147 126.157C34.6227 123.479 33.0367 118.127 35.0929 113.597L37.8606 107.5Z" fill="#E6E6E6"/>
<rect x="63.6211" y="26.5087" width="86.9333" height="41.1171" rx="20" transform="rotate(34.9949 63.6211 26.5087)" fill="#D93D04"/>
<path d="M72.2762 46.6229L75.5402 48.908L67.6769 60.14L73.5042 64.2195L71.6358 66.8883L62.5446 60.5238L72.2762 46.6229ZM76.6182 70.3764L73.3542 68.0913L83.0858 54.1905L86.3499 56.4755L76.6182 70.3764ZM87.4569 72.5284L87.5817 72.6158L97.9083 64.5673L101.576 67.1347L87.1302 77.7356L82.8006 74.7046L87.8283 57.5105L91.4859 60.0711L87.4569 72.5284ZM103.054 68.1696L112.683 74.9106L110.814 77.5794L104.45 73.1235L102.386 76.0707L108.252 80.1771L106.39 82.8363L100.525 78.7299L98.4546 81.6867L104.819 86.1426L102.951 88.8114L93.3223 82.0705L103.054 68.1696Z" fill="white"/>
</svg>
