<svg width="500" height="500" viewBox="0 0 500 500" fill="none" xmlns="http://www.w3.org/2000/svg">
<rect width="500" height="500" fill="#3B82BF"/>
<path d="M188.281 191.5C187.115 205.667 185.698 220.167 184.031 235C182.531 249.667 180.448 263.5 177.781 276.5C177.115 279.667 176.198 281.917 175.031 283.25C173.865 284.583 172.198 285.5 170.031 286C168.198 286.333 165.615 285.75 162.281 284.25C159.115 282.75 156.448 280.583 154.281 277.75C151.448 273.917 148.365 269.75 145.031 265.25C141.865 260.583 138.365 255.917 134.531 251.25C130.865 246.417 126.948 241.667 122.781 237C118.781 232.333 114.531 228 110.031 224C109.531 235 109.115 245.917 108.781 256.75C108.448 267.417 108.448 278.167 108.781 289C108.781 290.5 107.448 291.25 104.781 291.25C101.615 291.25 99.0313 289.667 97.0313 286.5C95.0313 283.167 93.8646 279.833 93.5313 276.5C93.0313 273.167 92.7813 268.417 92.7813 262.25C92.7813 255.917 92.8646 249.333 93.0313 242.5C93.3646 235.667 93.6979 229.083 94.0313 222.75C94.3646 216.417 94.6979 211.417 95.0313 207.75C95.3646 203.75 96.2813 200.833 97.7813 199C99.4479 197.167 101.031 196.333 102.531 196.5C105.865 196.833 108.031 197.833 109.031 199.5C110.198 201 110.865 202.917 111.031 205.25C117.031 209.583 122.531 214.25 127.531 219.25C132.698 224.25 137.365 229.333 141.531 234.5C145.865 239.667 149.781 244.833 153.281 250C156.948 255 160.365 259.583 163.531 263.75C165.531 253.75 167.115 242.583 168.281 230.25C169.615 217.917 170.948 205 172.281 191.5C172.115 189.833 173.115 188.25 175.281 186.75C177.448 185.083 179.448 184.333 181.281 184.5C185.948 184.833 188.281 187.167 188.281 191.5ZM285.266 186C284.932 187 283.766 188.167 281.766 189.5C279.766 190.833 278.099 191.5 276.766 191.5C269.599 190.833 262.432 190.25 255.266 189.75C248.266 189.25 241.099 188.917 233.766 188.75C234.766 194.583 235.682 200.417 236.516 206.25C237.516 212.083 238.432 217.917 239.266 223.75C253.432 223.25 267.432 222.5 281.266 221.5C283.599 221.5 285.932 222.25 288.266 223.75C290.599 225.25 291.766 226.667 291.766 228C291.766 229.833 291.016 231.5 289.516 233C288.016 234.333 286.182 235.167 284.016 235.5C277.016 236.667 269.932 237.583 262.766 238.25C255.766 238.75 248.599 239.167 241.266 239.5C242.099 245.333 242.766 251.167 243.266 257C243.932 262.667 244.516 268.333 245.016 274C245.349 276.333 245.099 278.833 244.266 281.5C243.599 284 242.432 285.25 240.766 285.25C239.266 285.25 237.849 284.833 236.516 284C235.182 283.167 233.932 282.25 232.766 281.25C231.766 280.083 230.932 278.833 230.266 277.5C229.599 276.167 229.182 275 229.016 274C227.349 259.667 225.516 245.417 223.516 231.25C221.682 217.083 219.599 202.833 217.266 188.5H209.016C206.682 188.5 204.516 188.25 202.516 187.75C200.516 187.25 199.016 186 198.016 184C197.682 183.5 197.432 182.667 197.266 181.5C197.266 180.333 197.349 179.167 197.516 178C197.849 176.833 198.349 175.75 199.016 174.75C199.682 173.75 200.599 173.083 201.766 172.75C208.266 171.75 215.182 171.333 222.516 171.5C230.016 171.667 237.266 172.167 244.266 173C251.432 173.667 258.099 174.667 264.266 176C270.599 177.333 276.016 178.75 280.516 180.25C283.349 181.917 284.932 183.833 285.266 186ZM407.678 194.25C390.511 193.417 374.011 194.75 358.178 198.25C342.344 201.75 326.678 206.5 311.178 212.5C307.178 214 304.094 213.833 301.928 212C299.928 210.167 298.928 208.333 298.928 206.5C300.094 203.333 302.178 200.75 305.178 198.75C339.344 182.083 373.511 175.917 407.678 180.25C409.344 180.75 410.678 182 411.678 184C412.844 185.833 413.261 187.417 412.928 188.75C412.594 190.417 412.094 191.833 411.428 193C410.761 194 409.511 194.417 407.678 194.25ZM372.178 281.5C372.178 283.333 371.511 285 370.178 286.5C369.011 287.833 367.511 288.667 365.678 289C362.344 289.5 360.178 288.917 359.178 287.25C358.178 285.583 357.594 283.667 357.428 281.5C357.261 269.833 357.011 258.25 356.678 246.75C356.511 235.083 356.011 223.417 355.178 211.75C355.178 211.083 355.094 210.333 354.928 209.5C354.761 208.5 354.761 207.583 354.928 206.75C355.094 205.75 355.428 204.917 355.928 204.25C356.594 203.583 357.594 203.083 358.928 202.75C362.761 202.083 365.511 202.75 367.178 204.75C368.844 206.583 369.678 208.417 369.678 210.25C371.011 222.25 371.844 234.167 372.178 246C372.511 257.833 372.511 269.667 372.178 281.5Z" fill="#FCF5E9"/>
</svg>
