<svg width="740" height="527" viewBox="0 0 740 527" fill="none" xmlns="http://www.w3.org/2000/svg">
<path d="M398.421 244.598C451.608 215.553 539.301 98.9127 508.944 48.448C478.586 -2.01674 367.37 61.4135 314.183 90.459C260.997 119.504 258.346 154.89 288.704 205.354C319.061 255.819 345.235 273.644 398.421 244.598Z" fill="#FFD08F"/>
<path d="M664.879 326.749C688.036 314.102 726.218 263.318 713 241.346C699.783 219.373 651.359 246.991 628.202 259.637C605.045 272.283 603.891 287.69 617.108 309.662C630.326 331.634 641.722 339.395 664.879 326.749Z" fill="#FFD08F"/>
<path d="M9.99974 230.495C9.99974 325.262 372.29 450.746 517.029 450.746C661.768 450.746 667.198 422.582 667.198 327.815C667.198 233.048 403.372 38.416 258.633 38.416C113.894 38.416 9.99974 135.728 9.99974 230.495Z" fill="#79C4F2"/>
<path fill-rule="evenodd" clip-rule="evenodd" d="M23.634 170.334C33.2048 264.61 387.685 386.72 530.465 386.72C612.937 386.72 650.179 377.576 666.96 352.177C665.04 427.5 648.53 450.748 517.029 450.748C372.29 450.748 10.0002 325.264 10.0002 230.497C10.0002 210.234 14.7502 189.854 23.634 170.334Z" fill="#21658F"/>
<path d="M201.259 340.345C210.688 398.06 293.61 517.826 353.931 508.88C414.252 499.934 391.896 378.284 382.468 320.569C373.039 262.855 339.31 247.832 278.988 256.778C218.667 265.724 191.831 282.63 201.259 340.345Z" fill="#FFDFAC"/>
<path d="M555.384 395.067C556.631 422.134 583.804 477.541 612.093 476.358C640.382 475.174 641.232 421.852 639.985 394.785C638.738 367.718 623.995 359.148 595.706 360.331C567.417 361.515 554.137 368 555.384 395.067Z" fill="#FFDFAC"/>
<path d="M145.043 138.646C146.291 140.245 147.558 141.876 148.843 143.528C161.215 159.448 175.203 177.444 189.495 189.813C197.383 196.638 205.319 201.71 213.085 203.789C220.821 205.859 228.407 204.967 235.668 199.821C250.262 189.48 256.918 168.231 256.572 145.211C256.226 122.213 248.889 97.6185 235.712 80.7362C222.501 63.8098 210.543 57.1987 198.301 57.3074C186.002 57.4167 173.258 64.2994 158.467 74.7798C151.069 80.0214 144.896 84.5349 140.197 88.8898C135.5 93.2437 132.314 97.4059 130.851 101.932C127.934 110.953 131.79 121.666 145.043 138.646Z" fill="#B8E5FF" stroke="#D9D9D9"/>
<path d="M371.527 199.762C371.527 208.956 380.693 218.97 390.342 218.97C399.992 218.97 411.846 199.992 411.846 190.798C411.846 181.604 402.679 171.59 393.03 171.59C383.381 171.59 371.527 190.568 371.527 199.762Z" fill="#B8E5FF"/>
<path d="M427.971 231.778C427.971 240.972 437.137 250.986 446.787 250.986C456.436 250.986 468.29 235.85 468.29 226.656C468.29 217.462 459.124 207.448 449.475 207.448C439.825 207.448 427.971 222.584 427.971 231.778Z" fill="#B8E5FF"/>
<path d="M489.793 271.473C489.793 280.667 498.96 290.681 508.609 290.681C518.258 290.681 530.112 274.265 530.112 265.071C530.112 255.877 520.946 245.863 511.297 245.863C501.648 245.863 489.793 262.28 489.793 271.473Z" fill="#B8E5FF"/>
<path d="M8.54492 390.84C8.54492 385.599 9.13737 380.586 10.3223 375.801C11.5527 370.97 13.2845 366.481 15.5176 362.334C17.7507 358.141 20.4395 354.359 23.584 350.986C26.7741 347.568 30.3288 344.652 34.248 342.236C38.1673 339.775 42.4056 337.884 46.9629 336.562C51.5658 335.241 56.3965 334.58 61.4551 334.58C65.4655 334.58 68.9746 334.854 71.9824 335.4C75.0358 335.902 77.679 336.562 79.9121 337.383C82.1908 338.158 84.082 339.023 85.5859 339.98C87.1354 340.938 88.4115 341.849 89.4141 342.715C89.3685 342.715 89.3457 342.874 89.3457 343.193C89.3457 343.877 89.3913 345.13 89.4824 346.953C89.6191 348.776 89.7559 350.804 89.8926 353.037C90.0749 355.27 90.2116 357.549 90.3027 359.873C90.4395 362.152 90.5078 364.134 90.5078 365.82C90.5078 366.094 90.4167 366.413 90.2344 366.777C90.0521 367.096 89.5964 367.256 88.8672 367.256C88.457 367.256 87.9557 367.188 87.3633 367.051C86.4062 366.777 85.1986 366.162 83.7402 365.205C82.2819 364.202 80.5729 363.177 78.6133 362.129C76.6992 361.035 74.5345 360.078 72.1191 359.258C69.7493 358.392 67.1517 357.959 64.3262 357.959C60.5892 357.959 57.194 358.757 54.1406 360.352C51.0872 361.901 48.4896 364.089 46.3477 366.914C44.2057 369.694 42.5423 373.021 41.3574 376.895C40.1725 380.723 39.5801 384.893 39.5801 389.404C39.5801 393.369 39.9447 397.083 40.6738 400.547C41.403 404.01 42.4967 407.018 43.9551 409.57C45.459 412.077 47.3047 414.059 49.4922 415.518C51.6797 416.976 54.2546 417.705 57.2168 417.705C60.0879 417.705 63.3464 417.09 66.9922 415.859L68.5645 406.221H55.5078C56.5104 400.706 57.3763 396.377 58.1055 393.232C58.8346 390.088 59.5182 387.718 60.1562 386.123C60.7943 384.528 61.4551 383.525 62.1387 383.115C62.8223 382.705 63.6198 382.5 64.5312 382.5H100.488C101.536 382.5 102.288 382.568 102.744 382.705C103.245 382.842 103.496 383.32 103.496 384.141C103.496 384.551 103.451 385.052 103.359 385.645C103.268 386.191 103.154 386.875 103.018 387.695L99.5996 399.18C99.1895 400.638 98.8477 401.777 98.5742 402.598C98.3008 403.372 97.959 403.965 97.5488 404.375C97.1387 404.74 96.569 404.967 95.8398 405.059C95.1562 405.104 94.1536 405.127 92.832 405.127C92.1029 405.127 91.6699 405.423 91.5332 406.016C91.3965 406.608 91.2826 407.223 91.1914 407.861C90.918 409.867 90.6445 411.872 90.3711 413.877C90.0977 415.837 89.8242 417.682 89.5508 419.414C89.3229 421.1 89.0723 422.604 88.7988 423.926C88.5254 425.202 88.252 426.136 87.9785 426.729C84.8796 428.688 82.054 430.42 79.502 431.924C76.9954 433.382 74.4889 434.59 71.9824 435.547C69.4759 436.549 66.8327 437.301 64.0527 437.803C61.2728 438.304 58.0827 438.555 54.4824 438.555C48.0566 438.555 42.041 437.393 36.4355 435.068C30.8301 432.744 25.9538 429.486 21.8066 425.293C17.7051 421.055 14.4694 416.019 12.0996 410.186C9.72982 404.352 8.54492 397.904 8.54492 390.84ZM104.658 430.01C105.251 428.825 105.866 427.503 106.504 426.045C107.142 424.541 107.734 422.923 108.281 421.191L110.127 416.68C109.307 415.449 108.464 414.128 107.598 412.715C106.777 411.257 106.025 409.775 105.342 408.271C104.658 406.768 104.089 405.264 103.633 403.76C103.223 402.256 103.018 400.798 103.018 399.385C103.018 399.294 103.359 399.225 104.043 399.18C104.772 399.089 105.661 399.02 106.709 398.975C107.803 398.929 108.965 398.906 110.195 398.906C111.471 398.861 112.633 398.838 113.682 398.838C114.775 398.792 115.664 398.77 116.348 398.77C117.077 398.724 117.441 398.701 117.441 398.701C118.49 395.967 119.515 393.369 120.518 390.908C121.52 388.447 122.523 385.964 123.525 383.457C124.528 380.951 125.531 378.398 126.533 375.801C127.536 373.158 128.538 370.332 129.541 367.324C131.455 361.673 133.324 356.706 135.146 352.422C136.969 348.138 138.678 344.15 140.273 340.459C140.456 340.003 140.752 339.593 141.162 339.229C141.618 338.818 142.096 338.477 142.598 338.203C143.099 337.93 143.577 337.702 144.033 337.52C144.535 337.337 144.922 337.201 145.195 337.109C145.378 337.064 146.061 336.859 147.246 336.494C148.477 336.13 149.867 335.742 151.416 335.332C152.965 334.922 154.492 334.557 155.996 334.238C157.546 333.919 158.776 333.76 159.688 333.76H160.918C161.647 333.76 162.331 333.942 162.969 334.307C163.652 334.626 164.108 335.286 164.336 336.289C166.523 341.895 168.848 348.024 171.309 354.678C173.815 361.286 176.253 368.577 178.623 376.553C179.899 380.837 181.152 384.893 182.383 388.721C183.613 392.549 184.844 396.286 186.074 399.932C187.305 403.577 188.535 407.223 189.766 410.869C191.042 414.515 192.34 418.275 193.662 422.148C194.072 423.789 194.482 425.088 194.893 426.045C195.348 427.002 195.758 427.754 196.123 428.301C196.488 428.848 196.784 429.258 197.012 429.531C197.24 429.759 197.354 430.01 197.354 430.283C197.354 430.557 196.921 430.83 196.055 431.104L181.357 435.889C180.264 436.299 179.147 436.709 178.008 437.119C176.868 437.529 175.798 437.894 174.795 438.213C173.792 438.532 172.904 438.783 172.129 438.965C171.4 439.193 170.876 439.307 170.557 439.307H170.146C169.508 439.307 169.053 439.102 168.779 438.691C168.506 438.327 168.324 437.962 168.232 437.598C167.777 436.094 167.321 434.749 166.865 433.564C166.41 432.334 165.954 431.126 165.498 429.941C165.088 428.711 164.655 427.412 164.199 426.045C163.789 424.678 163.379 423.06 162.969 421.191C162.878 420.964 162.627 420.781 162.217 420.645C161.807 420.462 161.305 420.326 160.713 420.234C160.166 420.143 159.574 420.098 158.936 420.098C158.298 420.052 157.705 420.029 157.158 420.029C155.426 420.029 154.014 420.052 152.92 420.098C151.872 420.098 150.938 420.12 150.117 420.166C149.297 420.166 148.499 420.189 147.725 420.234C146.995 420.234 146.084 420.234 144.99 420.234C143.669 420.234 142.301 420.234 140.889 420.234C139.521 420.189 138.268 420.143 137.129 420.098L133.232 419.961C132.048 423.242 130.863 426.318 129.678 429.189C128.493 432.061 127.217 435.023 125.85 438.076C125.758 438.441 125.531 438.737 125.166 438.965C124.847 439.193 124.505 439.307 124.141 439.307C123.867 439.307 123.708 439.284 123.662 439.238C119.242 437.643 115.527 436.071 112.52 434.521C109.512 432.972 106.891 431.468 104.658 430.01ZM150.732 368.555C149.639 372.611 148.545 376.302 147.451 379.629C146.403 382.91 145.423 385.827 144.512 388.379C143.646 390.931 142.894 393.096 142.256 394.873C141.618 396.605 141.162 397.949 140.889 398.906V399.521C140.889 399.795 140.866 399.977 140.82 400.068H157.227C156.725 397.835 156.178 395.579 155.586 393.301C155.039 391.022 154.492 388.63 153.945 386.123C153.398 383.617 152.852 380.928 152.305 378.057C151.758 375.186 151.234 372.018 150.732 368.555ZM293.057 334.375C293.285 334.329 293.49 334.307 293.672 334.307C293.9 334.261 294.105 334.238 294.287 334.238C295.107 334.238 295.768 334.512 296.27 335.059C296.771 335.56 297.113 336.471 297.295 337.793C297.386 338.613 297.523 339.775 297.705 341.279C297.933 342.738 298.161 344.378 298.389 346.201C298.662 347.979 298.936 349.824 299.209 351.738C299.528 353.652 299.801 355.43 300.029 357.07C300.257 358.665 300.462 360.055 300.645 361.24C300.827 362.38 300.941 363.109 300.986 363.428C301.989 371.494 302.878 377.965 303.652 382.842C304.427 387.718 304.974 391.318 305.293 393.643L309.873 430.625L309.189 432.744C309.098 433.063 308.506 433.451 307.412 433.906C306.318 434.362 304.997 434.84 303.447 435.342C301.898 435.889 300.212 436.413 298.389 436.914C296.566 437.415 294.88 437.871 293.33 438.281C291.781 438.691 290.459 439.01 289.365 439.238C288.317 439.512 287.77 439.648 287.725 439.648C286.631 439.648 285.765 438.851 285.127 437.256C284.489 435.661 283.965 433.633 283.555 431.172C283.145 428.711 282.803 426.022 282.529 423.105C282.301 420.189 282.028 417.386 281.709 414.697C281.436 412.464 281.185 410.208 280.957 407.93C280.729 405.651 280.479 403.327 280.205 400.957L277.539 380.996L252.178 427.412C251.403 428.506 250.628 429.303 249.854 429.805C249.079 430.26 248.35 430.488 247.666 430.488C246.663 430.488 245.866 430.192 245.273 429.6C244.727 429.007 244.339 428.278 244.111 427.412C243.245 424.541 242.493 422.126 241.855 420.166C241.263 418.161 240.693 416.338 240.146 414.697C239.645 413.057 239.167 411.462 238.711 409.912C238.255 408.363 237.731 406.585 237.139 404.58C236.592 402.529 235.954 400.137 235.225 397.402C234.541 394.622 233.698 391.227 232.695 387.217L230.576 397.061L220.732 438.828C220.596 439.375 220.026 439.648 219.023 439.648C218.066 439.648 216.745 439.466 215.059 439.102C213.418 438.737 211.686 438.281 209.863 437.734C208.086 437.233 206.331 436.686 204.6 436.094C202.913 435.547 201.569 435.046 200.566 434.59C200.339 434.499 200.042 434.294 199.678 433.975C199.359 433.61 199.199 433.063 199.199 432.334C199.199 432.152 199.268 431.764 199.404 431.172C199.541 430.579 199.701 429.896 199.883 429.121C200.111 428.301 200.339 427.48 200.566 426.66C200.84 425.84 201.09 425.111 201.318 424.473C201.911 422.923 202.435 421.1 202.891 419.004C203.392 416.908 203.848 414.788 204.258 412.646C204.668 410.505 205.033 408.454 205.352 406.494C205.716 404.535 206.058 402.894 206.377 401.572L214.785 362.334L217.314 351.26C217.633 349.847 217.93 348.48 218.203 347.158C218.522 345.791 218.796 344.561 219.023 343.467C219.251 342.373 219.434 341.484 219.57 340.801C219.707 340.117 219.775 339.73 219.775 339.639L236.865 334.375C237.503 334.375 238.05 334.443 238.506 334.58C239.007 334.671 239.326 335.036 239.463 335.674L253.066 379.424L271.729 340.117L293.057 334.375ZM381.514 378.262C381.331 378.9 380.99 379.811 380.488 380.996C379.987 382.135 379.395 383.434 378.711 384.893C378.073 386.351 377.367 387.923 376.592 389.609C375.863 391.25 375.133 392.913 374.404 394.6C374.131 395.238 373.88 395.716 373.652 396.035C373.424 396.309 373.06 396.514 372.559 396.65C372.057 396.787 371.351 396.878 370.439 396.924C369.574 396.924 368.343 396.947 366.748 396.992L357.246 397.197L355.332 418.115H390.4V420.781C390.309 420.872 389.922 421.488 389.238 422.627C388.555 423.721 387.757 425.042 386.846 426.592C385.934 428.141 384.977 429.714 383.975 431.309C382.972 432.858 382.129 434.111 381.445 435.068C380.99 435.889 380.465 436.527 379.873 436.982C379.281 437.484 378.62 437.848 377.891 438.076C377.207 438.304 376.432 438.441 375.566 438.486C374.746 438.532 373.835 438.555 372.832 438.555C368.73 438.555 364.447 438.464 359.98 438.281C355.56 438.099 351.139 437.871 346.719 437.598C342.298 437.324 337.969 437.005 333.73 436.641C329.538 436.322 325.641 435.98 322.041 435.615C321.722 435.57 321.426 435.387 321.152 435.068C320.924 434.749 320.811 434.385 320.811 433.975C320.628 433.975 320.742 433.587 321.152 432.812C321.608 432.038 322.223 431.035 322.998 429.805C323.773 428.574 324.616 427.184 325.527 425.635C326.484 424.04 327.396 422.445 328.262 420.85L329.355 405.469C329.538 402.871 329.674 400.934 329.766 399.658C329.902 398.382 329.971 397.699 329.971 397.607C327.236 397.562 325.186 397.425 323.818 397.197C322.497 396.969 321.836 396.468 321.836 395.693C321.836 395.329 322.155 394.645 322.793 393.643C323.477 392.64 324.297 391.501 325.254 390.225C326.211 388.903 327.214 387.536 328.262 386.123C329.355 384.71 330.312 383.411 331.133 382.227L332.842 358.984H332.637C331.634 359.03 330.723 359.076 329.902 359.121C329.082 359.121 328.33 359.121 327.646 359.121C325.459 359.121 323.887 359.007 322.93 358.779C322.018 358.506 321.562 358.027 321.562 357.344C321.562 357.025 321.836 356.364 322.383 355.361C322.93 354.359 323.613 353.219 324.434 351.943C325.254 350.622 326.12 349.255 327.031 347.842C327.943 346.383 328.763 345.039 329.492 343.809L333.594 336.836H362.168L395.869 334.375C395.915 334.375 396.029 334.398 396.211 334.443C396.439 334.443 396.667 334.512 396.895 334.648C397.122 334.74 397.327 334.922 397.51 335.195C397.738 335.469 397.852 335.856 397.852 336.357L396.826 339.912C396.507 340.915 396.12 341.986 395.664 343.125C395.208 344.219 394.707 345.358 394.16 346.543L391.152 354.473C390.833 355.247 390.469 355.84 390.059 356.25C389.648 356.66 388.783 356.888 387.461 356.934C383.997 357.025 380.124 357.184 375.84 357.412C371.602 357.594 366.725 357.777 361.211 357.959C361.029 358.597 360.938 359.121 360.938 359.531C360.938 359.896 360.892 360.625 360.801 361.719L360.459 364.863C360.368 366.322 360.231 367.894 360.049 369.58C359.867 371.266 359.639 373.34 359.365 375.801C361.689 375.71 363.945 375.618 366.133 375.527C368.366 375.436 370.394 375.368 372.217 375.322C374.04 375.231 375.612 375.163 376.934 375.117C378.301 375.072 379.258 375.049 379.805 375.049C380.169 375.049 380.579 375.186 381.035 375.459C381.491 375.732 381.719 376.257 381.719 377.031C381.719 377.396 381.65 377.806 381.514 378.262Z" fill="black"/>
</svg>
