<svg width="610" height="644" viewBox="0 0 610 644" fill="none" xmlns="http://www.w3.org/2000/svg">
<path d="M217.003 359.511C211.635 448.107 202.737 488.571 188.369 552.694" stroke="#8F5E3F" stroke-width="3"/>
<path d="M400.16 348.924C397.074 443.711 403.218 486.554 413.267 554.426" stroke="#8F5E3F" stroke-width="3"/>
<path d="M320.582 370.772C301.874 466.553 301.835 509.355 302.126 577.141" stroke="#8F5E3F" stroke-width="3"/>
<path d="M170.589 554.459C174.475 548.839 181.256 546.072 188.071 546.556C277.298 552.888 331.08 552.508 415.33 546.833C424.471 546.217 433.097 551.542 436.092 560.201C446.961 591.625 446.734 609.874 436.059 630.214C432.972 636.098 426.781 639.588 420.151 640.007C333.472 645.474 279.11 645.188 188.766 640.002C181.571 639.589 175.032 635.515 171.683 629.133C156.906 600.968 151.653 581.845 170.589 554.459Z" fill="#E7BE84"/>
<path d="M609.5 221.5C616.625 394 457.205 470.485 307.633 472.562C146.764 474.795 -13.1431 356 1.49996 202.5C16.143 49 164 3 307.633 3C472 3 602.375 49 609.5 221.5Z" fill="#FF6464"/>
<path d="M528.5 237.5C528.5 343 435.171 472.562 307.634 472.562C180.096 472.562 87 342.803 87 226C87 109.197 162.943 0.87793 290.48 0.87793C418.018 0.87793 528.5 49 528.5 237.5Z" fill="#FFA2A2"/>
<path d="M418.5 222.407C425.712 339.313 372.84 473 311.499 473C250.157 473 195.5 339.535 195.5 222.407C195.5 105.278 250.157 0 311.499 0C372.84 0 410.239 88.5 418.5 222.407Z" fill="#FF6969"/>
<path d="M376.468 611.155C386.33 611.656 391.531 611.524 400.253 610.518" stroke="#A38B69" stroke-linecap="round"/>
<path d="M384.714 608.628C385.393 612.412 386.121 614.361 388.077 617.539" stroke="#A38B69" stroke-linecap="round"/>
<path d="M390.469 608.328C391.58 612.07 392.53 613.98 394.846 617.059" stroke="#A38B69" stroke-linecap="round"/>
<path d="M378.025 614.331C387.149 614.628 391.949 614.291 400.155 613.113" stroke="#A38B69" stroke-linecap="round"/>
<path d="M249.702 590.458C236.705 591.118 229.851 590.944 218.356 589.618" stroke="#A38B69" stroke-linecap="round"/>
<path d="M238.836 587.127C237.941 592.114 236.981 594.683 234.403 598.871" stroke="#A38B69" stroke-linecap="round"/>
<path d="M231.251 586.732C229.787 591.663 228.534 594.181 225.483 598.238" stroke="#A38B69" stroke-linecap="round"/>
<path d="M247.649 594.643C235.624 595.034 229.3 594.59 218.484 593.037" stroke="#A38B69" stroke-linecap="round"/>
<g filter="url(#filter0_d_837_344)">
<path d="M120.232 187.375C120.46 187.329 120.665 187.307 120.848 187.307C121.076 187.261 121.281 187.238 121.463 187.238C122.283 187.238 122.944 187.512 123.445 188.059C123.947 188.56 124.288 189.471 124.471 190.793C124.562 191.613 124.699 192.775 124.881 194.279C125.109 195.738 125.337 197.378 125.564 199.201C125.838 200.979 126.111 202.824 126.385 204.738C126.704 206.652 126.977 208.43 127.205 210.07C127.433 211.665 127.638 213.055 127.82 214.24C128.003 215.38 128.117 216.109 128.162 216.428C129.165 224.494 130.053 230.965 130.828 235.842C131.603 240.718 132.15 244.318 132.469 246.643L137.049 283.625L136.365 285.744C136.274 286.063 135.682 286.451 134.588 286.906C133.494 287.362 132.173 287.84 130.623 288.342C129.074 288.889 127.387 289.413 125.564 289.914C123.742 290.415 122.055 290.871 120.506 291.281C118.956 291.691 117.635 292.01 116.541 292.238C115.493 292.512 114.946 292.648 114.9 292.648C113.807 292.648 112.941 291.851 112.303 290.256C111.665 288.661 111.141 286.633 110.73 284.172C110.32 281.711 109.979 279.022 109.705 276.105C109.477 273.189 109.204 270.386 108.885 267.697C108.611 265.464 108.361 263.208 108.133 260.93C107.905 258.651 107.654 256.327 107.381 253.957L104.715 233.996L79.3535 280.412C78.5788 281.506 77.804 282.303 77.0293 282.805C76.2546 283.26 75.5254 283.488 74.8418 283.488C73.8392 283.488 73.0417 283.192 72.4492 282.6C71.9023 282.007 71.515 281.278 71.2871 280.412C70.4212 277.541 69.6693 275.126 69.0312 273.166C68.4388 271.161 67.8691 269.338 67.3223 267.697C66.821 266.057 66.3424 264.462 65.8867 262.912C65.431 261.363 64.9069 259.585 64.3145 257.58C63.7676 255.529 63.1296 253.137 62.4004 250.402C61.7168 247.622 60.8737 244.227 59.8711 240.217L57.752 250.061L47.9082 291.828C47.7715 292.375 47.2018 292.648 46.1992 292.648C45.2422 292.648 43.9206 292.466 42.2344 292.102C40.5938 291.737 38.862 291.281 37.0391 290.734C35.2617 290.233 33.5072 289.686 31.7754 289.094C30.0892 288.547 28.7448 288.046 27.7422 287.59C27.5143 287.499 27.2181 287.294 26.8535 286.975C26.5345 286.61 26.375 286.063 26.375 285.334C26.375 285.152 26.4434 284.764 26.5801 284.172C26.7168 283.579 26.8763 282.896 27.0586 282.121C27.2865 281.301 27.5143 280.48 27.7422 279.66C28.0156 278.84 28.2663 278.111 28.4941 277.473C29.0866 275.923 29.6107 274.1 30.0664 272.004C30.5677 269.908 31.0234 267.788 31.4336 265.646C31.8438 263.505 32.2083 261.454 32.5273 259.494C32.8919 257.535 33.2337 255.894 33.5527 254.572L41.9609 215.334L44.4902 204.26C44.8092 202.847 45.1055 201.48 45.3789 200.158C45.6979 198.791 45.9714 197.561 46.1992 196.467C46.4271 195.373 46.6094 194.484 46.7461 193.801C46.8828 193.117 46.9512 192.73 46.9512 192.639L64.041 187.375C64.679 187.375 65.2259 187.443 65.6816 187.58C66.1829 187.671 66.502 188.036 66.6387 188.674L80.2422 232.424L98.9043 193.117L120.232 187.375ZM144.842 283.01C145.434 281.825 146.049 280.503 146.688 279.045C147.326 277.541 147.918 275.923 148.465 274.191L150.311 269.68C149.49 268.449 148.647 267.128 147.781 265.715C146.961 264.257 146.209 262.775 145.525 261.271C144.842 259.768 144.272 258.264 143.816 256.76C143.406 255.256 143.201 253.798 143.201 252.385C143.201 252.294 143.543 252.225 144.227 252.18C144.956 252.089 145.844 252.02 146.893 251.975C147.986 251.929 149.148 251.906 150.379 251.906C151.655 251.861 152.817 251.838 153.865 251.838C154.959 251.792 155.848 251.77 156.531 251.77C157.26 251.724 157.625 251.701 157.625 251.701C158.673 248.967 159.699 246.369 160.701 243.908C161.704 241.447 162.706 238.964 163.709 236.457C164.712 233.951 165.714 231.398 166.717 228.801C167.719 226.158 168.722 223.332 169.725 220.324C171.639 214.673 173.507 209.706 175.33 205.422C177.153 201.138 178.862 197.15 180.457 193.459C180.639 193.003 180.936 192.593 181.346 192.229C181.801 191.818 182.28 191.477 182.781 191.203C183.283 190.93 183.761 190.702 184.217 190.52C184.718 190.337 185.105 190.201 185.379 190.109C185.561 190.064 186.245 189.859 187.43 189.494C188.66 189.13 190.05 188.742 191.6 188.332C193.149 187.922 194.676 187.557 196.18 187.238C197.729 186.919 198.96 186.76 199.871 186.76H201.102C201.831 186.76 202.514 186.942 203.152 187.307C203.836 187.626 204.292 188.286 204.52 189.289C206.707 194.895 209.031 201.024 211.492 207.678C213.999 214.286 216.437 221.577 218.807 229.553C220.083 233.837 221.336 237.893 222.566 241.721C223.797 245.549 225.027 249.286 226.258 252.932C227.488 256.577 228.719 260.223 229.949 263.869C231.225 267.515 232.524 271.275 233.846 275.148C234.256 276.789 234.666 278.088 235.076 279.045C235.532 280.002 235.942 280.754 236.307 281.301C236.671 281.848 236.967 282.258 237.195 282.531C237.423 282.759 237.537 283.01 237.537 283.283C237.537 283.557 237.104 283.83 236.238 284.104L221.541 288.889C220.447 289.299 219.331 289.709 218.191 290.119C217.052 290.529 215.981 290.894 214.979 291.213C213.976 291.532 213.087 291.783 212.312 291.965C211.583 292.193 211.059 292.307 210.74 292.307H210.33C209.692 292.307 209.236 292.102 208.963 291.691C208.689 291.327 208.507 290.962 208.416 290.598C207.96 289.094 207.505 287.749 207.049 286.564C206.593 285.334 206.137 284.126 205.682 282.941C205.271 281.711 204.839 280.412 204.383 279.045C203.973 277.678 203.562 276.06 203.152 274.191C203.061 273.964 202.811 273.781 202.4 273.645C201.99 273.462 201.489 273.326 200.896 273.234C200.35 273.143 199.757 273.098 199.119 273.098C198.481 273.052 197.889 273.029 197.342 273.029C195.61 273.029 194.197 273.052 193.104 273.098C192.055 273.098 191.121 273.12 190.301 273.166C189.48 273.166 188.683 273.189 187.908 273.234C187.179 273.234 186.268 273.234 185.174 273.234C183.852 273.234 182.485 273.234 181.072 273.234C179.705 273.189 178.452 273.143 177.312 273.098L173.416 272.961C172.231 276.242 171.046 279.318 169.861 282.189C168.676 285.061 167.4 288.023 166.033 291.076C165.942 291.441 165.714 291.737 165.35 291.965C165.031 292.193 164.689 292.307 164.324 292.307C164.051 292.307 163.891 292.284 163.846 292.238C159.425 290.643 155.711 289.071 152.703 287.521C149.695 285.972 147.075 284.468 144.842 283.01ZM190.916 221.555C189.822 225.611 188.729 229.302 187.635 232.629C186.587 235.91 185.607 238.827 184.695 241.379C183.829 243.931 183.077 246.096 182.439 247.873C181.801 249.605 181.346 250.949 181.072 251.906V252.521C181.072 252.795 181.049 252.977 181.004 253.068H197.41C196.909 250.835 196.362 248.579 195.77 246.301C195.223 244.022 194.676 241.63 194.129 239.123C193.582 236.617 193.035 233.928 192.488 231.057C191.941 228.186 191.417 225.018 190.916 221.555ZM275.75 282.531C275.704 282.941 275.613 283.352 275.477 283.762C275.385 284.126 275.089 284.423 274.588 284.65C274.406 284.742 273.494 285.083 271.854 285.676C270.258 286.223 268.39 286.883 266.248 287.658C264.152 288.387 262.055 289.117 259.959 289.846C257.908 290.62 256.336 291.213 255.242 291.623C254.695 291.851 254.012 292.079 253.191 292.307C252.417 292.58 251.642 292.717 250.867 292.717C250.229 292.717 249.66 292.557 249.158 292.238C248.702 291.919 248.475 291.327 248.475 290.461C248.475 288.456 248.52 286.633 248.611 284.992C248.748 283.306 248.908 281.551 249.09 279.729C249.272 277.906 249.454 275.9 249.637 273.713C249.865 271.48 250.07 268.837 250.252 265.783C250.48 261.773 250.73 257.922 251.004 254.23C251.277 250.493 251.551 246.62 251.824 242.609L252.781 230.92C252.918 229.006 253.055 227.069 253.191 225.109C253.328 223.104 253.465 221.053 253.602 218.957L254.354 210.617C254.354 210.526 254.217 210.48 253.943 210.48C253.579 210.48 252.964 210.572 252.098 210.754C251.232 210.891 250.206 211.073 249.021 211.301C247.837 211.529 246.515 211.779 245.057 212.053C243.644 212.281 242.186 212.508 240.682 212.736C240.317 212.736 239.952 212.668 239.588 212.531C239.269 212.349 239.109 212.144 239.109 211.916C239.109 211.734 239.155 211.597 239.246 211.506L250.32 192.16C252.827 191.613 255.516 191.066 258.387 190.52C261.303 189.927 264.425 189.403 267.752 188.947C271.079 188.492 274.611 188.127 278.348 187.854C282.085 187.535 286.049 187.375 290.242 187.375C294.982 187.466 299.585 187.945 304.051 188.811C308.562 189.631 312.55 191.044 316.014 193.049C319.523 195.008 322.326 197.697 324.422 201.115C326.564 204.488 327.635 208.771 327.635 213.967C327.635 216.838 327.133 219.481 326.131 221.896C325.174 224.312 323.921 226.499 322.371 228.459C320.867 230.373 319.204 232.082 317.381 233.586C315.558 235.044 313.803 236.298 312.117 237.346C310.477 238.394 309.018 239.237 307.742 239.875C306.466 240.467 305.6 240.855 305.145 241.037C305.145 241.128 305.167 241.242 305.213 241.379C305.304 241.516 305.464 241.789 305.691 242.199C305.919 242.564 306.238 243.111 306.648 243.84C307.104 244.523 307.674 245.48 308.357 246.711C309.087 247.805 309.952 249.263 310.955 251.086C311.958 252.909 313.143 255.074 314.51 257.58C315.923 260.041 317.54 262.798 319.363 265.852C321.186 268.905 323.283 272.186 325.652 275.695C326.427 276.379 327.316 276.812 328.318 276.994C329.321 277.131 330.255 277.222 331.121 277.268C331.987 277.268 332.716 277.313 333.309 277.404C333.901 277.45 334.197 277.723 334.197 278.225C334.197 278.589 333.81 279.022 333.035 279.523C332.306 279.979 331.44 280.458 330.438 280.959C329.435 281.46 328.41 281.939 327.361 282.395C326.359 282.85 325.584 283.215 325.037 283.488C323.943 284.035 322.804 284.559 321.619 285.061C320.434 285.562 319.158 286.132 317.791 286.77C316.424 287.362 314.897 288.068 313.211 288.889C311.57 289.709 309.702 290.689 307.605 291.828C307.059 292.147 306.535 292.352 306.033 292.443C305.577 292.58 305.145 292.648 304.734 292.648C303.914 292.648 303.208 292.443 302.615 292.033C302.023 291.669 301.521 291.213 301.111 290.666C300.701 290.119 300.359 289.549 300.086 288.957C299.858 288.41 299.653 287.954 299.471 287.59L279.1 244.66L275.75 282.531ZM279.92 236.252C282.244 236.252 284.66 235.66 287.166 234.475C289.673 233.29 291.951 231.763 294.002 229.895C296.053 228.026 297.739 225.907 299.061 223.537C300.382 221.167 301.043 218.775 301.043 216.359C301.043 209.751 297.078 206.447 289.148 206.447C287.645 206.447 286.391 206.561 285.389 206.789C284.386 206.971 283.475 207.108 282.654 207.199L279.92 236.252ZM376.648 190.178C376.557 190.861 376.466 191.955 376.375 193.459C376.284 194.917 376.147 196.604 375.965 198.518C375.828 200.432 375.691 202.482 375.555 204.67C375.418 206.812 375.258 208.908 375.076 210.959C374.939 212.964 374.78 214.81 374.598 216.496C374.461 218.182 374.347 219.527 374.256 220.529L377.742 216.975L387.449 204.943C388.634 203.439 389.819 201.981 391.004 200.568C392.189 199.11 393.237 197.811 394.148 196.672C395.105 195.487 395.88 194.507 396.473 193.732C397.065 192.958 397.407 192.525 397.498 192.434L427.85 189.904C427.941 189.859 428.146 189.836 428.465 189.836H429.012C430.06 189.836 430.584 190.109 430.584 190.656C430.584 190.975 430.424 191.363 430.105 191.818C429.832 192.229 429.399 192.775 428.807 193.459C428.077 194.325 427.007 195.578 425.594 197.219C424.227 198.814 422.723 200.591 421.082 202.551C419.441 204.465 417.732 206.47 415.955 208.566C414.223 210.617 412.605 212.531 411.102 214.309C409.598 216.04 408.299 217.544 407.205 218.82C406.157 220.096 405.496 220.917 405.223 221.281L400.916 225.383C397.999 228.163 394.262 231.626 389.705 235.773C391.118 237.232 392.622 238.827 394.217 240.559C395.857 242.245 397.407 243.885 398.865 245.48C400.369 247.03 401.714 248.443 402.898 249.719C404.129 250.995 405.04 251.952 405.633 252.59L426.756 277.062C426.984 277.336 427.28 277.564 427.645 277.746C428.009 277.928 428.374 278.088 428.738 278.225C429.103 278.361 429.399 278.521 429.627 278.703C429.9 278.84 430.037 279.022 430.037 279.25C430.037 279.523 429.741 279.956 429.148 280.549C428.784 280.913 428.1 281.46 427.098 282.189C426.095 282.873 424.91 283.625 423.543 284.445C422.221 285.266 420.786 286.109 419.236 286.975C417.687 287.84 416.183 288.615 414.725 289.299C413.312 290.028 411.99 290.62 410.76 291.076C409.575 291.532 408.663 291.76 408.025 291.76C407.068 291.76 406.066 291.327 405.018 290.461C403.969 289.641 402.716 288.387 401.258 286.701C399.799 284.969 398.068 282.782 396.062 280.139C394.057 277.495 391.642 274.396 388.816 270.842C387.176 268.791 385.581 266.786 384.031 264.826C382.482 262.821 381.023 260.952 379.656 259.221C378.289 257.443 377.036 255.871 375.896 254.504C374.803 253.091 373.891 251.952 373.162 251.086C372.798 251.451 372.41 251.815 372 252.18C371.59 252.499 371.202 252.84 370.838 253.205L368.445 282.531C368.4 282.941 368.309 283.352 368.172 283.762C368.081 284.172 367.785 284.468 367.283 284.65L347.938 291.623C347.436 291.805 346.775 292.033 345.955 292.307C345.135 292.58 344.337 292.717 343.562 292.717C342.879 292.717 342.309 292.535 341.854 292.17C341.398 291.805 341.17 291.145 341.17 290.188C341.398 287.499 341.671 284.012 341.99 279.729C342.355 275.445 342.719 270.568 343.084 265.1C343.494 259.585 343.904 253.592 344.314 247.121C344.77 240.604 345.249 233.768 345.75 226.613L347.664 197.834C347.71 197.014 347.755 196.33 347.801 195.783C347.846 195.236 347.915 194.781 348.006 194.416C348.097 194.051 348.257 193.778 348.484 193.596C348.712 193.413 349.054 193.277 349.51 193.186L373.162 187.512C373.755 187.329 374.37 187.238 375.008 187.238C375.646 187.238 376.079 187.443 376.307 187.854C376.535 188.218 376.648 188.993 376.648 190.178ZM497.986 231.262C497.804 231.9 497.462 232.811 496.961 233.996C496.46 235.135 495.867 236.434 495.184 237.893C494.546 239.351 493.839 240.923 493.064 242.609C492.335 244.25 491.606 245.913 490.877 247.6C490.604 248.238 490.353 248.716 490.125 249.035C489.897 249.309 489.533 249.514 489.031 249.65C488.53 249.787 487.824 249.878 486.912 249.924C486.046 249.924 484.816 249.947 483.221 249.992L473.719 250.197L471.805 271.115H506.873V273.781C506.782 273.872 506.395 274.488 505.711 275.627C505.027 276.721 504.23 278.042 503.318 279.592C502.407 281.141 501.45 282.714 500.447 284.309C499.445 285.858 498.602 287.111 497.918 288.068C497.462 288.889 496.938 289.527 496.346 289.982C495.753 290.484 495.092 290.848 494.363 291.076C493.68 291.304 492.905 291.441 492.039 291.486C491.219 291.532 490.307 291.555 489.305 291.555C485.203 291.555 480.919 291.464 476.453 291.281C472.033 291.099 467.612 290.871 463.191 290.598C458.771 290.324 454.441 290.005 450.203 289.641C446.01 289.322 442.114 288.98 438.514 288.615C438.195 288.57 437.898 288.387 437.625 288.068C437.397 287.749 437.283 287.385 437.283 286.975C437.101 286.975 437.215 286.587 437.625 285.812C438.081 285.038 438.696 284.035 439.471 282.805C440.245 281.574 441.089 280.184 442 278.635C442.957 277.04 443.868 275.445 444.734 273.85L445.828 258.469C446.01 255.871 446.147 253.934 446.238 252.658C446.375 251.382 446.443 250.699 446.443 250.607C443.709 250.562 441.658 250.425 440.291 250.197C438.969 249.969 438.309 249.468 438.309 248.693C438.309 248.329 438.628 247.645 439.266 246.643C439.949 245.64 440.77 244.501 441.727 243.225C442.684 241.903 443.686 240.536 444.734 239.123C445.828 237.71 446.785 236.411 447.605 235.227L449.314 211.984H449.109C448.107 212.03 447.195 212.076 446.375 212.121C445.555 212.121 444.803 212.121 444.119 212.121C441.932 212.121 440.359 212.007 439.402 211.779C438.491 211.506 438.035 211.027 438.035 210.344C438.035 210.025 438.309 209.364 438.855 208.361C439.402 207.359 440.086 206.219 440.906 204.943C441.727 203.622 442.592 202.255 443.504 200.842C444.415 199.383 445.236 198.039 445.965 196.809L450.066 189.836H478.641L512.342 187.375C512.387 187.375 512.501 187.398 512.684 187.443C512.911 187.443 513.139 187.512 513.367 187.648C513.595 187.74 513.8 187.922 513.982 188.195C514.21 188.469 514.324 188.856 514.324 189.357L513.299 192.912C512.98 193.915 512.592 194.986 512.137 196.125C511.681 197.219 511.18 198.358 510.633 199.543L507.625 207.473C507.306 208.247 506.941 208.84 506.531 209.25C506.121 209.66 505.255 209.888 503.934 209.934C500.47 210.025 496.596 210.184 492.312 210.412C488.074 210.594 483.198 210.777 477.684 210.959C477.501 211.597 477.41 212.121 477.41 212.531C477.41 212.896 477.365 213.625 477.273 214.719L476.932 217.863C476.84 219.322 476.704 220.894 476.521 222.58C476.339 224.266 476.111 226.34 475.838 228.801C478.162 228.71 480.418 228.618 482.605 228.527C484.839 228.436 486.867 228.368 488.689 228.322C490.512 228.231 492.085 228.163 493.406 228.117C494.773 228.072 495.73 228.049 496.277 228.049C496.642 228.049 497.052 228.186 497.508 228.459C497.964 228.732 498.191 229.257 498.191 230.031C498.191 230.396 498.123 230.806 497.986 231.262ZM533.055 290.188C533.283 286.861 533.51 283.648 533.738 280.549C533.966 277.45 534.171 274.442 534.354 271.525L536.814 239.26C537.088 236.799 537.316 234.566 537.498 232.561C537.68 230.51 537.817 228.527 537.908 226.613C538.045 224.654 538.159 222.694 538.25 220.734C538.387 218.729 538.523 216.519 538.66 214.104C537.156 214.058 535.561 214.035 533.875 214.035C532.234 214.035 530.503 214.035 528.68 214.035H515.486C514.985 214.035 514.666 213.853 514.529 213.488C514.438 213.078 514.393 212.714 514.393 212.395V211.916L521.912 192.16L521.844 191.887C521.844 191.659 521.98 191.477 522.254 191.34C522.573 191.158 523.257 191.021 524.305 190.93C530.594 190.565 536.678 190.223 542.557 189.904C548.481 189.54 554.314 189.221 560.057 188.947C565.844 188.674 571.609 188.4 577.352 188.127C583.139 187.854 589.087 187.603 595.193 187.375C595.74 187.375 596.31 187.443 596.902 187.58C597.54 187.717 597.859 188.218 597.859 189.084C597.859 189.175 597.837 189.266 597.791 189.357C597.745 189.449 597.723 189.54 597.723 189.631C596.993 191.499 596.31 193.277 595.672 194.963C595.079 196.649 594.487 198.312 593.895 199.953C593.302 201.594 592.687 203.257 592.049 204.943C591.456 206.63 590.796 208.407 590.066 210.275C590.021 210.321 589.93 210.549 589.793 210.959C589.656 211.324 589.451 211.757 589.178 212.258C588.904 212.714 588.54 213.146 588.084 213.557C587.628 213.967 587.059 214.195 586.375 214.24C586.147 214.195 585.919 214.172 585.691 214.172C585.464 214.172 585.213 214.172 584.939 214.172H566.688C566.46 216.496 566.232 218.957 566.004 221.555C565.822 224.152 565.594 226.682 565.32 229.143L560.33 282.531C560.285 282.941 560.193 283.352 560.057 283.762C559.965 284.172 559.669 284.468 559.168 284.65L539.822 291.623C539.321 291.805 538.66 292.033 537.84 292.307C537.02 292.58 536.222 292.717 535.447 292.717C534.809 292.717 534.24 292.557 533.738 292.238C533.283 291.919 533.055 291.327 533.055 290.461V290.188Z" fill="black"/>
</g>
<defs>
<filter id="filter0_d_837_344" x="22.375" y="186.76" width="579.484" height="113.957" filterUnits="userSpaceOnUse" color-interpolation-filters="sRGB">
<feFlood flood-opacity="0" result="BackgroundImageFix"/>
<feColorMatrix in="SourceAlpha" type="matrix" values="0 0 0 0 0 0 0 0 0 0 0 0 0 0 0 0 0 0 127 0" result="hardAlpha"/>
<feOffset dy="4"/>
<feGaussianBlur stdDeviation="2"/>
<feComposite in2="hardAlpha" operator="out"/>
<feColorMatrix type="matrix" values="0 0 0 0 0 0 0 0 0 0 0 0 0 0 0 0 0 0 0.25 0"/>
<feBlend mode="normal" in2="BackgroundImageFix" result="effect1_dropShadow_837_344"/>
<feBlend mode="normal" in="SourceGraphic" in2="effect1_dropShadow_837_344" result="shape"/>
</filter>
</defs>
</svg>
