<svg width="81" height="95" viewBox="0 0 81 95" fill="none" xmlns="http://www.w3.org/2000/svg">
<path d="M56.0389 18.8252C60.0311 15.1605 66.5493 16.427 70.3079 20.331C73.9708 24.1355 73.8671 29.8477 69.9765 33.4191L34.2302 66.2331C32.6863 67.6504 30.919 68.8278 29.004 69.6793C8.66855 78.7222 3.33919 77.8828 16.8372 55.798C17.7691 54.2734 18.9229 52.8965 20.2392 51.6882L56.0389 18.8252Z" fill="#FF0000"/>
<path d="M18.6428 53.1671C20.0253 52.0945 21.7853 51.5828 23.5007 51.9283C30.5152 53.3408 33.0761 56.421 34.0917 63.1626C34.39 65.1429 33.4934 67.0944 31.9111 68.322C31.5495 68.6025 31.1455 68.8457 30.7288 69.0353C8.13755 79.3121 2.09659 79.0449 17.0936 54.8887C17.4999 54.2342 18.0342 53.6393 18.6428 53.1671Z" fill="#FFE9C2"/>
<path fill-rule="evenodd" clip-rule="evenodd" d="M18.3331 73.787C9.64023 76.6138 6.92228 74.8299 11.0698 65.7872C11.935 65.6736 12.8372 65.7314 13.7297 65.9863C17.1126 66.9528 19.1164 70.3978 18.3331 73.787Z" fill="#FF0000"/>
<line x1="28.6626" y1="50.631" x2="63.6626" y2="18.631" stroke="white"/>
<line x1="35.6626" y1="57.631" x2="70.6626" y2="25.631" stroke="white"/>
</svg>
