<svg width="150" height="73" viewBox="0 0 150 73" fill="none" xmlns="http://www.w3.org/2000/svg">
<path d="M128.829 35.6952C128.829 57.3548 156.5 54.2461 146.861 69.5727C140.333 79.9523 112 55.9358 112 34.2762C112 12.6167 139.354 -7.48542 146.861 2.74626C157 16.5646 128.829 14.0357 128.829 35.6952Z" fill="#886464"/>
<path d="M72.8294 35.6952C72.8294 57.3548 100.5 54.2461 90.8609 69.5727C84.3331 79.9523 56 55.9358 56 34.2762C56 12.6167 83.3536 -7.48542 90.8609 2.74626C101 16.5646 72.8294 14.0357 72.8294 35.6952Z" fill="#886464"/>
<path d="M16.8294 35.6952C16.8294 57.3548 44.5 54.2461 34.8609 69.5727C28.3331 79.9523 0 55.9358 0 34.2762C0 12.6167 27.3536 -7.48542 34.8609 2.74626C45 16.5646 16.8294 14.0357 16.8294 35.6952Z" fill="#886464"/>
</svg>
