<svg width="88" height="83" viewBox="0 0 88 83" fill="none" xmlns="http://www.w3.org/2000/svg">
<rect x="7.45508" y="49.9905" width="25.8575" height="37.4203" rx="2" transform="rotate(-42.3246 7.45508 49.9905)" fill="#D9D9D9"/>
<rect x="8.0293" y="43.2506" width="56.9334" height="46.0593" rx="3" transform="rotate(-42.3246 8.0293 43.2506)" fill="#3B82BF"/>
<path d="M30.3057 41.1135C30.7727 40.9902 31.1522 41.0399 31.4441 41.2626C31.754 41.4694 32.0167 41.7498 32.2322 42.1036C32.4023 42.3695 32.5216 42.6322 32.5901 42.8916C32.6586 43.1511 32.7508 43.4376 32.8669 43.751C33.024 44.2202 33.1689 44.7481 33.3016 45.3347C33.4364 45.8875 33.5215 46.4201 33.5568 46.9325C33.5958 47.9212 33.5184 48.8686 33.3246 49.7745C33.1308 50.6804 32.791 51.475 32.3053 52.1582C32.118 52.1633 31.9508 52.1186 31.8037 52.0242C31.6747 51.914 31.5028 51.8095 31.2881 51.7108C31.0913 51.5962 30.8924 51.5155 30.6913 51.4687C30.4744 51.4038 30.2856 51.2982 30.1248 51.152C29.8848 50.9156 29.6708 50.6724 29.4827 50.4223C29.3126 50.1564 29.198 49.9535 29.1389 49.8137C28.8188 49.2321 28.5255 48.4992 28.2587 47.615C27.9942 46.6968 27.8075 45.7582 27.6986 44.7989C27.5738 43.8217 27.5327 42.8668 27.5751 41.9342C27.6176 41.0016 27.788 40.1963 28.0863 39.5181C28.1403 39.4705 28.1774 39.4219 28.1976 39.3721C28.3057 39.277 28.3598 39.2294 28.3598 39.2294C28.4275 39.2337 28.4661 39.2957 28.4754 39.4154C28.5028 39.5191 28.5504 39.5732 28.6182 39.5775C28.7875 39.5883 28.9039 39.6297 28.9673 39.7018C29.0106 39.8236 29.0834 40.0153 29.1857 40.2769C29.2903 40.5046 29.3577 40.781 29.388 41.106L29.4301 41.6444C29.6644 41.4382 29.9562 41.2613 30.3057 41.1135ZM40.9349 47.6324C40.8304 48.204 40.5717 48.9272 40.1588 49.8021C39.7301 50.659 39.2484 51.5466 38.7137 52.4648C38.1812 53.3491 37.6418 54.2075 37.0956 55.0399C36.5335 55.8543 36.0669 56.5048 35.6958 56.9913C35.6014 57.1383 35.3874 57.2947 35.0537 57.4605C34.738 57.6104 34.471 57.7974 34.2527 58.0216C34.1266 58.1326 33.9597 58.2155 33.7522 58.2703C33.5627 58.3092 33.3537 58.2534 33.1252 58.1027C32.9623 57.9903 32.8672 57.8822 32.8398 57.7785C32.8124 57.6747 32.7623 57.5269 32.6895 57.3352C32.6441 57.2473 32.5907 57.1504 32.5295 57.0445C32.4682 56.9385 32.4318 56.8427 32.4203 56.7569C32.4015 56.5177 32.4282 56.3663 32.5002 56.3029C33.0155 55.6895 33.5721 54.9598 34.1703 54.1137C34.7864 53.2517 35.3856 52.3886 35.9678 51.5245C36.5522 50.6265 37.0995 49.7771 37.6097 48.9764C38.1041 48.1577 38.495 47.4939 38.7825 46.9851C38.8769 46.838 38.9825 46.6492 39.0992 46.4186C39.2339 46.1721 39.3766 45.9346 39.5272 45.7062C39.662 45.4597 39.7866 45.238 39.9012 45.0413C40.0158 44.8445 40.1181 44.7065 40.2082 44.6272C40.2983 44.548 40.3592 44.5263 40.3909 44.5624C40.4068 44.5804 40.4204 44.6323 40.432 44.718C40.4457 44.7699 40.4504 44.8297 40.4461 44.8975C40.4417 44.9652 40.4565 45.0002 40.4904 45.0023C40.5516 45.1083 40.588 45.2041 40.5996 45.2899C40.6133 45.3418 40.6169 45.4185 40.6104 45.5201C40.6061 45.5879 40.6086 45.6816 40.618 45.8012C40.6115 45.9028 40.6277 46.0484 40.6667 46.2379C40.7078 46.3936 40.7615 46.6181 40.8278 46.9114C40.9121 47.1889 40.9478 47.4292 40.9349 47.6324ZM40.3201 52.8733C40.896 53.7093 41.5252 54.6421 42.2078 55.672C42.9084 56.6859 43.6868 57.6793 44.543 58.6522C44.6223 58.7423 44.7005 58.8493 44.7776 58.9732C44.8548 59.0972 44.8584 59.1739 44.7885 59.2035C44.7207 59.1992 44.6112 59.1837 44.4598 59.157C44.3265 59.1145 44.217 59.099 44.1312 59.1106C43.8761 59.1113 43.6909 59.0825 43.5755 59.0241C42.9557 58.6105 42.3863 58.0725 41.8674 57.4103C41.3823 56.7502 40.9492 56.0763 40.5679 55.3888C40.2046 54.6855 39.9058 54.0372 39.6716 53.4441C39.4373 52.851 39.278 52.4157 39.1937 52.1383C39.4459 51.9163 39.6502 51.9123 39.8066 52.1264C39.963 52.3404 40.1342 52.5894 40.3201 52.8733ZM31.2598 48.9541C31.3988 48.6399 31.5206 48.197 31.6251 47.6255C31.7475 47.0382 31.8282 46.4396 31.8671 45.8299C31.9081 45.1864 31.8951 44.5904 31.828 44.0419C31.761 43.4935 31.6164 43.0931 31.3945 42.8409C31.2316 42.7285 30.9844 42.7383 30.6529 42.8702C30.3235 42.9682 30.0079 43.1181 29.7059 43.3199C29.8646 44.2993 30.0898 45.3 30.3818 46.3219C30.6579 47.3258 30.9505 48.2032 31.2598 48.9541ZM52.9565 23.384C52.8837 23.1923 52.8062 22.9408 52.7241 22.6295C52.6419 22.3181 52.6152 22.0699 52.644 21.8846C52.6527 21.7492 52.7417 21.6868 52.911 21.6976C53.0645 21.6904 53.1773 21.6551 53.2494 21.5916C53.4865 21.6068 53.7193 21.6896 53.9477 21.8402C54.1784 21.957 54.4104 22.1843 54.644 22.5223C56.0019 24.4284 57.3191 26.3064 58.5955 28.1563C59.8561 29.9882 61.2756 31.7282 62.8541 33.3763C62.9492 33.4844 63.0634 33.5597 63.1968 33.6022C63.3301 33.6447 63.4014 33.7258 63.4108 33.8455C63.4361 33.9831 63.4793 34.1049 63.5406 34.2108C63.6198 34.3009 63.6573 34.3798 63.653 34.4476C63.4476 34.4685 63.2433 34.4725 63.0401 34.4595C62.8527 34.4646 62.5511 34.3943 62.1352 34.2488C62.0379 34.1745 61.8808 34.105 61.6639 34.0402C61.465 33.9595 61.3089 33.873 61.1958 33.7807C60.261 32.9729 59.3565 32.0905 58.4822 31.1335C57.5921 30.1585 56.7708 29.1708 56.0183 28.1706C55.9831 28.4574 55.9308 28.7432 55.8617 29.0278C55.7925 29.3125 55.7006 29.5532 55.5861 29.75C55.1659 30.4714 54.7505 31.2527 54.3398 32.0937C53.9291 32.9348 53.5724 33.7283 53.2697 34.4742C53.9717 35.1992 54.6273 35.8532 55.2363 36.4362C55.8633 37.0033 56.4471 37.4486 56.9876 37.7722C57.0669 37.8623 57.1361 37.9772 57.1952 38.117C57.2543 38.2568 57.2976 38.3786 57.325 38.4824C57.2327 38.5956 57.1077 38.6896 56.9499 38.7646C56.792 38.8395 56.6306 38.8378 56.4656 38.7592C56.3005 38.6807 56.1265 38.6101 55.9434 38.5474C55.7445 38.4667 55.5524 38.4119 55.3672 38.3831C55.182 38.3543 54.9719 38.3154 54.737 38.2664C54.502 38.2174 54.3031 38.1367 54.1402 38.0243C53.7013 37.7072 53.1842 37.2831 52.5889 36.752C51.9957 36.187 51.3798 35.5781 50.7413 34.9252C50.1048 34.2384 49.4785 33.5268 48.8623 32.7903C48.2641 32.038 47.7246 31.2979 47.2438 30.57C46.7472 29.8241 46.3501 29.1186 46.0524 28.4534C45.7388 27.7702 45.5903 27.1656 45.6069 26.6395C45.6177 26.4701 45.6793 26.304 45.7917 26.1411C45.9063 25.9444 46.0281 25.9011 46.1571 26.0114C46.2702 26.1036 46.4453 26.1573 46.6825 26.1724C46.9037 26.1695 47.0381 26.1951 47.0857 26.2491C47.5873 27.1824 48.244 28.2191 49.0555 29.3591C49.8851 30.4833 50.7666 31.5938 51.7 32.6907C51.7576 32.3202 51.8379 31.9938 51.941 31.7112C52.3899 30.8046 52.8547 29.9159 53.3353 29.0453C53.8001 28.1567 54.2717 27.294 54.7502 26.4572C53.9566 25.3013 53.3587 24.2769 52.9565 23.384ZM45.8486 36.4498C46.1975 36.8462 46.5658 37.3373 46.9535 37.9232C47.3435 38.4752 47.7302 39.078 48.1136 39.7316L49.291 41.6688C49.5087 41.9887 49.7015 42.2986 49.8694 42.5984C50.0554 42.8823 50.2413 43.1663 50.4273 43.4502C50.4568 43.5201 50.5001 43.6419 50.557 43.8156C50.5981 43.9713 50.6302 44.1349 50.6533 44.3064C50.6944 44.462 50.7185 44.6166 50.7257 44.7701C50.751 44.9078 50.7456 44.9925 50.7095 45.0242C50.5654 45.151 50.4876 45.1716 50.476 45.0858C50.4667 44.9662 50.3748 44.8073 50.2003 44.6091C49.2965 43.5822 48.4288 42.5236 47.597 41.4332C46.7494 40.3249 45.8041 39.0147 44.7612 37.5028C44.5407 37.7608 44.3068 38.0945 44.0597 38.5039C43.8305 38.8974 43.5992 39.3248 43.3657 39.786C43.1323 40.2473 42.9248 40.7017 42.7432 41.1493C42.5616 41.5968 42.4261 41.9878 42.3368 42.3222C42.3325 42.3899 42.2943 42.4555 42.2222 42.519C42.1682 42.5665 42.113 42.631 42.0568 42.7125C41.7952 42.8148 41.5225 42.959 41.2385 43.1449C40.9726 43.315 40.8 43.3551 40.7207 43.265C40.4036 42.9047 40.2454 42.4524 40.2461 41.9083C40.2604 41.4161 40.3447 40.8943 40.4989 40.343C40.6531 39.7916 40.857 39.2605 41.1106 38.7495C41.3823 38.2227 41.6857 37.7318 42.0208 37.2771C42.358 36.7884 42.7068 36.3855 43.0671 36.0684C43.3352 35.8644 43.582 35.7271 43.8076 35.6565C43.8775 35.6269 43.9961 35.6345 44.1633 35.6792L44.4649 35.7494C44.6162 35.7761 44.7596 35.7937 44.8951 35.8023C45.0328 35.7771 45.1592 35.7937 45.2746 35.852C45.3899 35.9104 45.4861 36.0016 45.5632 36.1255C45.6403 36.2495 45.7355 36.3576 45.8486 36.4498Z" fill="white"/>
</svg>
