<svg width="26" height="25" viewBox="0 0 26 25" fill="none" xmlns="http://www.w3.org/2000/svg">
<path fill-rule="evenodd" clip-rule="evenodd" d="M17.3337 7.37341C17.3337 9.57941 15.3902 11.3734 13.0003 11.3734C10.6105 11.3734 8.66699 9.57941 8.66699 7.37341C8.66699 5.16741 10.6105 3.37341 13.0003 3.37341C15.3902 3.37341 17.3337 5.16741 17.3337 7.37341ZM20.5837 20.3734C20.5837 20.9254 20.0994 21.3734 19.5003 21.3734H6.50033C5.90124 21.3734 5.41699 20.9254 5.41699 20.3734C5.41699 16.5134 8.81974 13.3734 13.0003 13.3734C17.1809 13.3734 20.5837 16.5134 20.5837 20.3734Z" fill="#231F20"/>
<mask id="mask0_379_236" style="mask-type:alpha" maskUnits="userSpaceOnUse" x="5" y="3" width="16" height="19">
<path fill-rule="evenodd" clip-rule="evenodd" d="M17.3337 7.37341C17.3337 9.57941 15.3902 11.3734 13.0003 11.3734C10.6105 11.3734 8.66699 9.57941 8.66699 7.37341C8.66699 5.16741 10.6105 3.37341 13.0003 3.37341C15.3902 3.37341 17.3337 5.16741 17.3337 7.37341ZM20.5837 20.3734C20.5837 20.9254 20.0994 21.3734 19.5003 21.3734H6.50033C5.90124 21.3734 5.41699 20.9254 5.41699 20.3734C5.41699 16.5134 8.81974 13.3734 13.0003 13.3734C17.1809 13.3734 20.5837 16.5134 20.5837 20.3734Z" fill="white"/>
</mask>
<g mask="url(#mask0_379_236)">
<rect y="0.373413" width="26" height="24" fill="#D93D04"/>
</g>
</svg>
