<svg width="148" height="112" viewBox="0 0 148 112" fill="none" xmlns="http://www.w3.org/2000/svg">
<path d="M69.1205 51.9829C58.3507 45.8101 40.5935 21.0214 46.7406 10.2964C52.8877 -0.428534 75.4082 13.0519 86.178 19.2247C96.9479 25.3976 97.4846 32.9178 91.3375 43.6427C85.1904 54.3676 79.8904 58.1558 69.1205 51.9829Z" fill="#FFD08F"/>
<path d="M15.1651 69.4416C10.4759 66.754 2.74452 55.961 5.42095 51.2914C8.09738 46.6218 17.9027 52.4912 22.5919 55.1788C27.281 57.8664 27.5147 61.1407 24.8383 65.8103C22.1618 70.4799 19.8542 72.1292 15.1651 69.4416Z" fill="#FFD08F"/>
<path d="M147.773 48.9859C147.773 69.1261 74.412 95.7944 45.1035 95.7944C15.795 95.7944 14.6953 89.8089 14.6953 69.6687C14.6953 49.5285 68.118 8.16455 97.4266 8.16455C126.735 8.16455 147.773 28.8457 147.773 48.9859Z" fill="#F9BE99"/>
<path fill-rule="evenodd" clip-rule="evenodd" d="M145.012 36.1987C143.077 56.2348 71.2949 82.187 42.3825 82.187C25.6839 82.187 18.1424 80.244 14.7441 74.8471C15.133 90.8542 18.4766 95.7946 45.104 95.7946C74.4125 95.7946 147.773 69.1263 147.773 48.9861C147.773 44.6792 146.811 40.3476 145.012 36.1987Z" fill="#FF9776"/>
<path d="M109.044 72.3312C107.135 84.5969 90.3441 110.05 78.1295 108.149C65.9149 106.248 70.4418 80.3941 72.351 68.1284C74.2602 55.8626 81.0901 52.6699 93.3047 54.5711C105.519 56.4724 110.953 60.0654 109.044 72.3312Z" fill="#FFDFAC"/>
<path d="M37.3368 83.9611C37.0843 89.7135 31.5821 101.489 25.8538 101.237C20.1254 100.986 19.9533 89.6535 20.2059 83.9012C20.4584 78.1489 23.4437 76.3275 29.172 76.579C34.9003 76.8305 37.5894 78.2088 37.3368 83.9611Z" fill="#FFDFAC"/>
<path d="M120.109 29.2289C119.857 29.5684 119.601 29.914 119.342 30.2638C116.831 33.6538 114.023 37.4457 111.159 40.0464C109.581 41.4802 108.028 42.5112 106.541 42.9288C105.084 43.3382 103.677 43.164 102.313 42.1495C99.5129 40.0673 98.1711 35.7167 98.2406 30.868C98.3097 26.0438 99.7783 20.9028 102.386 17.3956C105.028 13.8431 107.346 12.5542 109.641 12.5756C111.99 12.5975 114.478 13.9823 117.473 16.2102C118.974 17.3258 120.203 18.2703 121.133 19.1748C122.061 20.078 122.654 20.907 122.923 21.7785C123.451 23.4926 122.791 25.6226 120.109 29.2289Z" fill="#B8E5FF" stroke="#D9D9D9"/>
<path d="M74.5666 42.4539C74.5666 44.4078 72.7105 46.5361 70.7566 46.5361C68.8027 46.5361 66.4023 42.5028 66.4023 40.5489C66.4023 38.595 68.2584 36.4668 70.2123 36.4668C72.1662 36.4668 74.5666 40.5 74.5666 42.4539Z" fill="#B8E5FF"/>
<path d="M63.1369 49.2586C63.1369 51.2125 61.2808 53.3407 59.3269 53.3407C57.373 53.3407 54.9727 50.1239 54.9727 48.17C54.9727 46.2161 56.8287 44.0879 58.7826 44.0879C60.7365 44.0879 63.1369 47.3047 63.1369 49.2586Z" fill="#B8E5FF"/>
<path d="M50.6184 57.6943C50.6184 59.6482 48.7623 61.7764 46.8084 61.7764C44.8545 61.7764 42.4541 58.2875 42.4541 56.3336C42.4541 54.3797 44.3102 52.2515 46.2641 52.2515C48.218 52.2515 50.6184 55.7404 50.6184 57.6943Z" fill="#B8E5FF"/>
</svg>
