<svg width="25" height="25" viewBox="0 0 25 25" fill="none" xmlns="http://www.w3.org/2000/svg">
<path d="M14.837 17.198H14.084V11.188C14.084 10.9228 13.9786 10.6684 13.7911 10.4809C13.6036 10.2934 13.3492 10.188 13.084 10.188H10.164C9.89878 10.188 9.64443 10.2934 9.45689 10.4809C9.26936 10.6684 9.164 10.9228 9.164 11.188C9.164 11.4532 9.26936 11.7076 9.45689 11.8951C9.64443 12.0826 9.89878 12.188 10.164 12.188H12.084V17.198H10.164C9.89878 17.198 9.64443 17.3034 9.45689 17.4909C9.26936 17.6784 9.164 17.9328 9.164 18.198C9.164 18.4632 9.26936 18.7176 9.45689 18.9051C9.64443 19.0926 9.89878 19.198 10.164 19.198H14.837C15.1022 19.198 15.3566 19.0926 15.5441 18.9051C15.7316 18.7176 15.837 18.4632 15.837 18.198C15.837 17.9328 15.7316 17.6784 15.5441 17.4909C15.3566 17.3034 15.1022 17.198 14.837 17.198ZM12.5 8.013C12.7967 8.013 13.0867 7.92503 13.3334 7.7602C13.58 7.59538 13.7723 7.36111 13.8858 7.08702C13.9994 6.81294 14.0291 6.51134 13.9712 6.22036C13.9133 5.92939 13.7704 5.66212 13.5607 5.45234C13.3509 5.24256 13.0836 5.0997 12.7926 5.04182C12.5017 4.98394 12.2001 5.01365 11.926 5.12718C11.6519 5.24071 11.4176 5.43297 11.2528 5.67964C11.088 5.92632 11 6.21633 11 6.513C11 6.91082 11.158 7.29236 11.4393 7.57366C11.7206 7.85496 12.1022 8.013 12.5 8.013V8.013ZM12.5 0C9.18593 0.00370554 6.00866 1.32186 3.66526 3.66526C1.32186 6.00866 0.00370554 9.18593 0 12.5C0.0055527 15.8135 1.3243 18.9897 3.6673 21.3327C6.0103 23.6757 9.1865 24.9944 12.5 25C15.8152 25 18.9946 23.683 21.3388 21.3388C23.683 18.9946 25 15.8152 25 12.5C25 9.18479 23.683 6.00537 21.3388 3.66117C18.9946 1.31696 15.8152 0 12.5 0V0ZM19.83 20.006C18.0955 21.6959 15.8298 22.7337 13.4172 22.9434C11.0047 23.153 8.59388 22.5216 6.59387 21.1562C4.59386 19.7908 3.12779 17.7755 2.44441 15.4523C1.76102 13.1291 1.90239 10.641 2.84454 8.41016C3.78669 6.17931 5.4716 4.3431 7.6134 3.21305C9.7552 2.083 12.222 1.7287 14.5953 2.21027C16.9685 2.69184 19.1021 3.97962 20.6341 5.85513C22.166 7.73064 23.0019 10.0784 23 12.5C23.0034 13.9 22.7245 15.2863 22.1798 16.576C21.6351 17.8657 20.8359 19.0323 19.83 20.006V20.006Z" fill="black"/>
</svg>
