<svg width="1076" height="652" viewBox="0 0 1076 652" fill="none" xmlns="http://www.w3.org/2000/svg">
<path d="M358.651 193.297C358.651 261.407 303.436 316.622 235.325 316.622C167.215 316.622 112 261.407 112 193.297C112 125.186 167.215 69.9714 235.325 69.9714C303.436 69.9714 358.651 125.186 358.651 193.297Z" fill="#FFCCDB"/>
<circle cx="449.309" cy="246.65" r="101.415" fill="#FFCCDB"/>
<circle cx="551.35" cy="386.252" r="123.325" fill="#FFCCDB"/>
<circle cx="734.145" cy="457.617" r="123.325" transform="rotate(47.7437 734.145 457.617)" fill="#FFCCDB"/>
<circle cx="174.208" cy="477.208" r="123.325" transform="rotate(47.7437 174.208 477.208)" fill="#FFCCDB"/>
<path d="M640.172 540.819C613.736 564.838 549.843 567.256 525.824 540.819C501.805 514.382 526.755 469.102 553.192 445.083C579.629 421.064 620.532 423.024 644.551 449.461C668.57 475.898 666.609 516.8 640.172 540.819Z" fill="#FFCCDB"/>
<circle cx="654.016" cy="246.024" r="123.325" fill="#FFCCDB"/>
<circle cx="560.114" cy="123.325" r="123.325" fill="#FFCCDB"/>
<circle cx="834.308" cy="342.431" r="123.325" fill="#FFCCDB"/>
<circle cx="951.998" cy="492.675" r="123.325" fill="#FFCCDB"/>
<circle cx="392.325" cy="468.325" r="123.325" fill="#FFCCDB"/>
<circle cx="404.862" cy="159.634" r="123.325" fill="#FFCCDB"/>
<rect x="158.838" y="246.65" width="552.146" height="281.707" fill="#FFCCDB"/>
</svg>
