<svg width="866" height="452" viewBox="0 0 866 452" fill="none" xmlns="http://www.w3.org/2000/svg">
<path d="M242.931 149.187C242.931 200.07 192.019 241.319 129.215 241.319C66.4121 241.319 0 218.883 0 168C0 117.117 66.4121 57.056 129.215 57.056C192.019 57.056 242.931 98.3047 242.931 149.187Z" fill="#FBEEFF"/>
<ellipse cx="290.264" cy="184.263" rx="93.5122" ry="75.7629" fill="#FBEEFF"/>
<ellipse cx="384.354" cy="288.554" rx="113.715" ry="92.1315" fill="#FBEEFF"/>
<ellipse rx="102.456" ry="104.509" transform="matrix(0.746346 0.665558 -0.805345 0.592807 552.866 326.144)" fill="#FBEEFF"/>
<ellipse cx="479.02" cy="183.795" rx="113.715" ry="92.1315" fill="#FBEEFF"/>
<ellipse cx="392.435" cy="92.1315" rx="113.715" ry="92.1315" fill="#FBEEFF"/>
<ellipse cx="645.264" cy="255.817" rx="113.715" ry="92.1315" fill="#FBEEFF"/>
<ellipse cx="751.785" cy="359.131" rx="113.715" ry="92.1315" fill="#FBEEFF"/>
<ellipse cx="249.281" cy="119.256" rx="113.715" ry="92.1315" fill="#FBEEFF"/>
<rect x="15.5" y="184" width="516" height="211" fill="#FBEEFF"/>
</svg>
