<svg width="406" height="349" viewBox="0 0 406 349" fill="none" xmlns="http://www.w3.org/2000/svg">
<path d="M289.3 161.445C278.784 186.334 288.728 214.313 311.509 223.938C334.291 233.563 363.018 232.768 373.534 207.879C384.049 182.991 372.371 143.435 349.59 133.809C326.808 124.184 299.816 136.557 289.3 161.445Z" fill="white"/>
<ellipse rx="46.8044" ry="81.118" transform="matrix(-0.921154 -0.389199 -0.389199 0.921154 257.428 158.225)" fill="white"/>
<ellipse rx="44.7803" ry="48.9217" transform="matrix(-0.921154 -0.389199 -0.389199 0.921154 209.198 207.939)" fill="white"/>
<ellipse rx="47.0941" ry="46.6985" transform="matrix(-0.888236 0.459386 0.379605 0.925148 140.303 200.499)" fill="white"/>
<ellipse rx="44.7803" ry="48.9217" transform="matrix(-0.921154 -0.389199 -0.389199 0.921154 196.508 142.189)" fill="white"/>
<ellipse rx="44.7803" ry="48.9217" transform="matrix(-0.921154 -0.389199 -0.389199 0.921154 121.32 151.938)" fill="white"/>
<ellipse rx="44.7803" ry="48.9217" transform="matrix(-0.921154 -0.389199 -0.389199 0.921154 61.3284 186.147)" fill="white"/>
<ellipse rx="44.7803" ry="48.9217" transform="matrix(-0.921154 -0.389199 -0.389199 0.921154 268.015 236.724)" fill="white"/>
</svg>
