<svg width="33" height="33" viewBox="0 0 33 33" fill="none" xmlns="http://www.w3.org/2000/svg">
<path d="M20.1104 1.59724C22.1452 -0.0159283 25.1294 1.5424 24.9684 4.13408L24.5904 10.2192C24.522 11.3208 25.0639 12.371 26.0014 12.9534L31.1551 16.1554C33.4702 17.5938 32.8226 21.1246 30.1478 21.6478L24.7499 22.7038C23.5928 22.9302 22.6755 23.8133 22.4055 24.961L21.1431 30.3276C20.5368 32.9053 17.1316 33.4905 15.6994 31.2631L12.2157 25.8449C11.6424 24.9533 10.6411 24.4304 9.5817 24.4694L3.14456 24.7069C0.498247 24.8045 -0.967459 21.6758 0.801392 19.705L4.48389 15.6023C5.27146 14.7249 5.47203 13.4675 4.99654 12.3885L2.77833 7.35538C1.67916 4.86134 4.20659 2.31224 6.70993 3.39006L12.2827 5.78946C13.2965 6.22593 14.468 6.07052 15.3328 5.38487L20.1104 1.59724Z" fill="#FDDF61"/>
</svg>
