<svg width="746" height="395" viewBox="0 0 746 395" fill="none" xmlns="http://www.w3.org/2000/svg">
<path d="M218.941 237.707C218.941 292.715 169.929 337.308 109.47 337.308C49.0116 337.308 0.000101584 292.715 0.000101584 237.707C0.000101584 182.698 49.0116 138.105 109.47 138.105C169.929 138.105 218.941 182.698 218.941 237.707Z" fill="#FFCCDB"/>
<ellipse cx="245.361" cy="275.738" rx="90.0212" ry="81.9058" fill="#FFCCDB"/>
<ellipse cx="357.127" cy="274.05" rx="109.47" ry="99.6016" fill="#FFCCDB"/>
<ellipse rx="104.18" ry="105.123" transform="matrix(0.706596 0.707617 -0.770755 0.637131 591.363 140.696)" fill="#FFCCDB"/>
<ellipse cx="466.033" cy="224.542" rx="109.47" ry="99.6016" fill="#FFCCDB"/>
<ellipse cx="382.68" cy="125.446" rx="109.47" ry="99.6016" fill="#FFCCDB"/>
<ellipse cx="489.386" cy="295.049" rx="109.47" ry="99.6016" fill="#FFCCDB"/>
<ellipse cx="626.973" cy="268.397" rx="109.47" ry="99.6016" fill="#FFCCDB"/>
<ellipse cx="244.871" cy="154.77" rx="109.47" ry="99.6016" fill="#FFCCDB"/>
</svg>
