<svg width="415" height="272" viewBox="0 0 415 272" fill="none" xmlns="http://www.w3.org/2000/svg">
<ellipse rx="42.7687" ry="41.6217" transform="matrix(-0.950078 -0.312013 -0.312013 0.950078 215.14 190.742)" fill="#F2F2F2"/>
<ellipse rx="52.0089" ry="50.614" transform="matrix(-0.950078 -0.312013 -0.312013 0.950078 279.45 182.522)" fill="#F2F2F2"/>
<ellipse rx="51.2494" ry="51.3828" transform="matrix(-0.876416 0.481554 0.505089 0.863067 159.007 193.488)" fill="#F2F2F2"/>
<ellipse rx="52.0089" ry="50.614" transform="matrix(-0.950078 -0.312013 -0.312013 0.950078 218.208 121.527)" fill="#F2F2F2"/>
<ellipse rx="52.0089" ry="50.614" transform="matrix(-0.950078 -0.312013 -0.312013 0.950078 290.204 125.227)" fill="#F2F2F2"/>
<ellipse rx="52.0089" ry="50.614" transform="matrix(-0.950078 -0.312013 -0.312013 0.950078 133.625 135.394)" fill="#F2F2F2"/>
<ellipse rx="52.0089" ry="50.614" transform="matrix(-0.950078 -0.312013 -0.312013 0.950078 67.2318 178.492)" fill="#F2F2F2"/>
<ellipse rx="52.0089" ry="50.614" transform="matrix(-0.950078 -0.312013 -0.312013 0.950078 346.467 154.076)" fill="#F2F2F2"/>
<path d="M182.994 115.32C185.714 115.32 188.634 116.6 188.634 119.72C188.634 122.12 185.754 124.12 183.994 125.36C181.194 127.4 176.634 130.4 175.074 133.48C173.954 135.72 173.674 138.4 173.674 140.84C173.674 142.08 173.634 143.76 175.314 143.76L192.114 143.76C193.154 143.76 194.234 142.92 194.234 141.84C194.234 140.08 192.234 140.28 191.074 140.28C189.914 140.28 188.794 140.32 187.674 140.32L177.354 140.32C177.354 138.6 177.514 136.2 178.354 134.64C179.114 133.2 180.834 131.8 182.154 130.8C183.274 129.92 184.434 129.08 185.634 128.24C186.754 127.44 187.914 126.64 188.954 125.68C190.634 124.12 192.314 121.72 192.314 119.32C192.314 114.36 188.034 111.88 183.514 111.88C178.234 111.88 174.154 115.16 174.154 120.6C174.154 121.52 174.874 122.12 175.714 122.12C176.674 122.12 177.594 121.48 177.794 120.52C177.914 120.04 177.834 119.52 177.954 119C178.394 116.32 180.474 115.32 182.994 115.32ZM203.506 112.28C202.506 112.28 201.546 113.04 201.426 114.04C201.266 115.16 201.266 116.32 201.186 117.48C201.026 120 200.906 122.48 200.666 125C200.626 125.6 200.546 126.2 200.466 126.8C200.386 127.2 200.226 127.68 200.226 128.12C200.226 129 200.946 129.6 201.826 129.6C202.746 129.6 204.386 128.64 205.306 128.28C206.786 127.68 208.386 127.28 209.986 127.28C214.106 127.28 217.466 129.04 217.466 133.56C217.466 138.76 214.506 141.08 209.506 141.08C207.026 141.08 204.226 140.36 203.026 138C202.506 137.04 202.506 135.92 201.106 135.92C200.106 135.92 198.986 136.72 198.986 137.8C198.986 138.44 199.506 139.52 199.826 140.04C201.746 143.32 205.346 144.48 208.986 144.48C216.066 144.48 221.146 140.56 221.146 133.16C221.146 126.88 216.386 123.88 210.546 123.88C208.226 123.88 206.466 124.32 204.306 125.12C204.586 122.04 204.746 118.88 204.946 115.76C207.906 115.92 210.866 115.88 213.826 116.04C214.826 116.08 215.786 116.12 216.786 116.24C217.386 116.32 217.986 116.44 218.586 116.44C219.586 116.44 220.666 115.64 220.666 114.56C220.666 113.88 220.346 113.48 219.786 113.16C218.706 112.6 208.866 112.48 206.866 112.4C205.746 112.36 204.626 112.28 203.506 112.28ZM227.498 143.12C227.498 144.08 228.258 144.72 229.178 144.72C229.818 144.72 230.418 144.36 230.818 143.88C231.258 143.36 231.498 142.72 231.818 142.16C232.258 141.4 232.738 140.6 233.218 139.84C237.858 132.16 242.418 124.48 246.538 116.52C246.938 115.76 248.178 113.52 248.178 112.8C248.178 111.84 247.418 111.2 246.498 111.2C245.258 111.2 244.818 112.08 244.338 113.08C243.458 114.84 242.578 116.56 241.658 118.28C238.738 123.8 235.578 129.12 232.378 134.48C230.818 137.08 229.018 139.64 227.698 142.32C227.578 142.56 227.498 142.84 227.498 143.12ZM225.018 119.08C225.018 122.04 227.378 124.52 230.378 124.52C233.578 124.52 235.898 122.16 235.898 118.92C235.898 115.4 233.818 112.76 230.138 112.76C226.498 112.76 225.018 115.88 225.018 119.08ZM230.298 116.28C231.538 116.28 232.138 117.72 232.138 119.24C232.138 120.24 231.498 120.96 230.618 120.96C229.458 120.96 228.778 119.72 228.778 118.64C228.778 117.6 228.898 116.28 230.298 116.28ZM239.978 138C239.978 141 242.338 143.4 245.298 143.4C248.378 143.4 250.978 140.6 250.978 137.56C250.978 134.2 248.978 131.6 245.458 131.6C242.258 131.6 239.978 135.04 239.978 138ZM247.178 137.88C247.178 138.76 246.618 139.88 245.618 139.88C244.338 139.88 243.738 138.76 243.738 137.68C243.738 136.36 244.138 135.08 245.258 135.08C246.938 135.08 247.178 136.56 247.178 137.88Z" fill="black"/>
<path d="M151.454 182.26C152.204 182.26 152.954 181.6 152.954 180.82C152.954 179.17 152.624 165.22 152.504 164.95C152.294 164.44 151.874 164.14 151.304 164.14C150.554 164.14 149.804 164.8 149.804 165.58C149.804 166.09 149.834 167.71 149.894 169.75C149.684 169.78 149.474 169.81 149.264 169.84L147.644 169.93C147.284 169.96 146.954 169.93 146.594 169.99C145.964 170.14 145.394 170.71 145.394 171.4C145.394 172.12 145.964 172.6 146.654 172.6C147.584 172.6 148.364 172.51 149.084 172.48L149.954 172.42C150.044 176.65 150.194 181.3 150.254 181.45C150.464 181.96 150.884 182.26 151.454 182.26ZM154.784 174.67C154.784 175.96 154.784 177.25 154.754 178.54C154.724 179.53 154.634 180.52 154.634 181.51C154.634 182.23 155.204 182.71 155.894 182.71C156.494 182.71 157.034 182.32 157.304 181.78C157.574 181.15 157.574 174.94 157.574 173.89C157.574 172.39 157.604 165.4 157.274 164.8C157.034 164.38 156.644 164.14 156.134 164.14C155.384 164.14 154.634 164.8 154.634 165.58C154.634 166.18 154.694 166.75 154.724 167.35C154.784 169.81 154.784 172.24 154.784 174.67ZM146.474 165.94C146.474 165.22 145.904 164.74 145.244 164.74C144.194 164.74 143.204 164.89 142.184 164.95C141.344 165.01 140.504 165.04 139.664 165.07L137.144 165.16C136.424 165.16 135.704 165.16 134.984 165.22C134.864 165.25 134.714 165.28 134.564 165.31C134.024 165.55 133.604 166.06 133.604 166.66C133.604 167.35 134.174 167.83 134.864 167.83C135.104 167.83 135.494 167.8 136.034 167.8C136.094 168.52 136.184 169.27 136.214 169.99C136.364 172.06 136.514 174.1 136.544 176.14C136.244 176.14 135.974 176.14 135.674 176.14C134.744 176.14 133.604 176.47 133.604 177.61C133.604 178.33 134.174 178.81 134.864 178.81C136.544 178.81 146.144 178.51 147.044 178.12C147.554 177.91 147.974 177.4 147.974 176.83C147.974 176.11 147.404 175.63 146.714 175.63C146.234 175.63 145.784 175.72 145.334 175.78C145.184 175.78 145.034 175.81 144.854 175.81L144.584 175.81C144.554 174.07 144.464 172.36 144.374 170.62C144.344 169.57 144.344 168.46 144.284 167.41C144.944 167.35 145.424 167.29 145.574 167.23C146.084 167.02 146.474 166.51 146.474 165.94ZM139.334 176.08C139.274 174.25 139.064 169.96 138.884 167.71C139.724 167.68 140.624 167.65 141.464 167.62C141.614 170.41 141.764 173.17 141.794 175.96C141.584 175.96 141.404 175.99 141.194 175.99L139.934 176.05C139.724 176.05 139.544 176.08 139.334 176.08ZM142.004 191.32C142.694 191.32 143.414 191.29 144.104 191.26C145.004 191.23 145.904 191.23 146.804 191.23C147.614 191.23 148.424 191.23 149.204 191.23L153.974 191.32C154.784 191.32 155.564 191.32 156.344 191.32C157.094 191.32 157.844 190.66 157.844 189.88C157.844 188.53 156.314 188.65 155.384 188.65C155.264 188.65 155.144 188.65 154.994 188.65L154.184 188.68C154.064 188.68 153.914 188.68 153.764 188.68C151.754 188.68 149.744 188.62 147.704 188.62C146.594 188.62 145.454 188.62 144.344 188.65C144.164 188.65 144.014 188.65 143.834 188.65L142.814 188.71C142.634 188.71 142.484 188.71 142.304 188.71C142.184 188.71 141.974 188.71 141.854 188.62C141.434 188.32 141.254 184.72 141.254 184.03C141.194 182.98 141.404 181.39 139.904 181.39C139.154 181.39 138.404 182.05 138.404 182.83C138.404 183.97 138.494 185.08 138.584 186.22C138.734 188.59 138.914 191.32 142.004 191.32ZM185.397 177.19L185.337 178.06C185.337 178.21 185.337 178.36 185.337 178.51C185.337 179.23 185.907 179.71 186.597 179.71C186.867 179.71 187.137 179.62 187.377 179.47C188.337 178.9 188.187 177.46 188.187 176.5C188.187 176.05 188.127 174.73 188.067 173.11C188.217 173.11 188.337 173.08 188.487 173.08L189.357 173.08C189.507 173.08 189.627 173.05 189.777 173.05L190.647 173.05C190.647 174.31 190.647 175.54 190.587 176.8C190.587 176.95 190.587 177.13 190.587 177.31L190.527 178.3C190.527 178.48 190.527 178.63 190.527 178.81C190.527 179.53 191.097 180.01 191.787 180.01C192.447 180.01 193.107 179.5 193.257 178.84C193.347 178.51 193.317 178.12 193.347 177.76C193.407 176.17 193.407 174.55 193.407 172.93C193.407 172.36 193.407 171.82 193.407 171.28L193.377 167.95C193.377 167.41 193.377 166.84 193.377 166.3C193.377 165.34 193.377 164.23 192.087 164.23C191.337 164.23 190.587 164.89 190.587 165.67C190.587 166.24 190.587 166.78 190.587 167.35L190.647 170.44C190.107 170.44 189.567 170.44 189.027 170.47L187.977 170.47C187.857 167.77 187.677 165.13 187.527 164.86C187.287 164.38 186.867 164.14 186.357 164.14C185.607 164.14 184.857 164.8 184.857 165.58C184.857 166.69 185.007 167.83 185.067 168.94C185.247 171.7 185.397 174.43 185.397 177.19ZM169.617 178.09C169.617 178.81 170.187 179.29 170.877 179.29C171.237 179.29 171.567 179.14 171.837 178.93C172.227 178.63 174.477 175.96 175.977 174.1C177.537 175.75 178.767 176.74 180.867 177.85C181.287 178.09 181.737 178.39 182.247 178.39C182.997 178.39 183.747 177.73 183.747 176.95C183.747 175.99 182.787 175.75 182.097 175.39C180.717 174.67 179.487 173.71 178.407 172.57C178.227 172.36 177.927 172 177.627 171.67C178.227 170.14 178.497 168.43 178.797 166.84C178.857 166.48 178.977 166.12 178.977 165.76C178.977 165.04 178.407 164.56 177.717 164.56C177.117 164.56 176.517 164.98 176.307 165.55C176.187 165.85 176.157 166.21 176.097 166.54C175.827 167.89 175.437 170.23 174.837 171.4C174.567 171.91 174.087 172.36 173.727 172.81C172.827 173.83 171.957 174.88 171.087 175.9C170.637 176.41 170.127 176.86 169.797 177.43C169.677 177.64 169.617 177.85 169.617 178.09ZM175.527 184.15C178.797 184.15 182.097 183.97 185.367 183.82C186.567 183.76 187.767 183.64 188.997 183.64C189.237 183.64 190.017 183.67 190.137 183.97C190.167 184.06 190.167 184.27 190.167 184.36C190.167 185.26 190.077 186.13 190.047 187C190.047 187.18 190.047 187.36 190.047 187.51L190.017 188.5C190.017 188.68 190.017 188.83 190.017 188.98C189.987 189.49 189.927 189.97 189.927 190.48C189.927 191.2 190.497 191.68 191.187 191.68C191.457 191.68 191.727 191.59 191.967 191.44C192.777 190.96 192.747 190.09 192.777 189.25C192.807 188.62 192.807 187.96 192.807 187.3C192.837 186.31 192.927 185.32 192.927 184.33C192.927 183.91 192.927 183.46 192.807 183.04C192.387 181.51 190.707 181 189.267 181C188.127 181 186.957 181.12 185.817 181.18C183.267 181.3 180.747 181.42 178.197 181.48C177.597 181.51 175.767 181.45 175.287 181.6C174.717 181.81 174.267 182.35 174.267 182.95C174.267 183.67 174.837 184.15 175.527 184.15ZM217.278 179.56C218.058 179.56 218.778 178.9 218.778 178.12C218.778 177.55 218.718 176.98 218.688 176.41C218.658 175.9 218.628 174.58 218.568 172.99L219.588 172.96C219.828 172.96 220.068 172.96 220.308 172.96L221.748 172.99C221.988 172.99 222.228 172.99 222.468 172.99C223.248 172.99 223.968 172.33 223.968 171.55C223.968 170.95 223.548 170.47 222.948 170.38C222.678 170.32 222.378 170.35 222.108 170.35L220.188 170.35L218.748 170.32C218.658 170.32 218.568 170.32 218.478 170.32C218.358 167.71 218.238 165.25 218.088 164.95C217.848 164.5 217.428 164.23 216.918 164.23C216.138 164.23 215.418 164.89 215.418 165.67C215.418 166.18 215.478 166.69 215.508 167.2C215.568 168.1 215.628 169.03 215.658 169.93C215.718 171.13 215.868 178.36 216.078 178.81C216.318 179.29 216.738 179.56 217.278 179.56ZM197.208 178.09C197.208 178.81 197.778 179.29 198.468 179.29C198.828 179.29 199.158 179.14 199.428 178.93C199.818 178.63 202.068 175.96 203.568 174.1C205.128 175.75 206.358 176.74 208.458 177.85C208.878 178.09 209.328 178.39 209.838 178.39C210.588 178.39 211.338 177.73 211.338 176.95C211.338 175.99 210.378 175.75 209.688 175.39C208.308 174.67 207.078 173.71 205.998 172.57C205.818 172.36 205.518 172 205.218 171.67C205.818 170.14 206.088 168.43 206.388 166.84C206.448 166.48 206.568 166.12 206.568 165.76C206.568 165.04 205.998 164.56 205.308 164.56C204.708 164.56 204.108 164.98 203.898 165.55C203.778 165.85 203.748 166.21 203.688 166.54C203.418 167.89 203.028 170.23 202.428 171.4C202.158 171.91 201.678 172.36 201.318 172.81C200.418 173.83 199.548 174.88 198.678 175.9C198.228 176.41 197.718 176.86 197.388 177.43C197.268 177.64 197.208 177.85 197.208 178.09ZM200.388 186.37C200.388 187.18 200.628 188.02 201.048 188.71C202.638 191.35 206.478 191.95 209.298 191.95C211.728 191.95 215.808 191.2 217.638 189.58C218.298 189.01 218.748 188.29 219.078 187.51C219.348 186.88 219.528 186.16 219.528 185.47C219.528 183.13 217.518 181.54 215.448 180.91C214.068 180.49 212.598 180.34 211.158 180.34C207.738 180.34 203.688 180.58 201.408 183.55C200.778 184.36 200.388 185.32 200.388 186.37ZM210.858 182.95C212.538 182.95 214.938 183.19 216.168 184.45C216.528 184.81 216.738 185.14 216.738 185.68C216.738 186.37 216.378 187.27 215.868 187.72C214.608 188.8 211.218 189.34 209.568 189.34C207.738 189.34 204.558 188.98 203.508 187.24C203.298 186.88 203.148 186.55 203.148 186.13C203.148 185.62 203.418 185.14 203.748 184.75C205.338 182.95 208.638 182.95 210.858 182.95ZM250.232 168.88C247.472 170.74 244.472 172.18 241.412 173.47C240.482 173.83 239.582 174.22 238.622 174.55C238.142 174.73 237.422 174.91 237.002 175.18C236.612 175.45 236.312 175.87 236.312 176.38C236.312 177.1 236.882 177.58 237.572 177.58C238.472 177.58 245.042 174.61 245.912 174.19C247.682 175 252.662 177.25 253.142 177.4C253.292 177.46 253.442 177.49 253.622 177.49C254.372 177.49 255.122 176.83 255.122 176.05C255.122 175.66 254.972 175.36 254.672 175.12C254.582 175.03 251.372 173.59 249.062 172.57C251.912 171.01 254.312 169.27 254.312 167.89C254.312 166.42 252.662 166.27 251.582 166.27C250.982 166.27 249.032 166.33 246.782 166.39C246.752 166.12 246.722 165.52 246.722 165.25C246.692 164.26 246.722 163.24 245.432 163.24C244.682 163.24 243.932 163.9 243.932 164.68C243.932 165.19 243.932 165.97 243.962 166.48C240.782 166.6 237.782 166.75 237.482 166.87C236.942 167.11 236.522 167.56 236.522 168.19C236.522 168.91 237.092 169.39 237.782 169.39C239.012 169.39 240.272 169.27 241.502 169.21C244.412 169.06 247.322 168.94 250.232 168.88ZM244.952 182.32C244.952 183.43 244.922 190.21 245.192 190.72C245.402 191.17 245.852 191.41 246.362 191.41C247.112 191.41 247.862 190.78 247.862 190.03C247.862 189.58 247.832 189.16 247.802 188.71C247.742 186.82 247.742 184.96 247.742 182.98L247.742 181.99L247.742 181.96C250.802 181.96 253.892 182.02 256.952 182.02C257.702 182.02 258.452 181.36 258.452 180.58C258.452 180.04 258.152 179.68 257.672 179.47C257.312 179.32 251.372 179.32 250.652 179.32C249.632 179.32 248.612 179.32 247.562 179.32L241.352 179.35C240.332 179.35 239.282 179.35 238.232 179.35C236.942 179.35 235.622 179.29 234.332 179.35C234.212 179.38 234.062 179.38 233.912 179.44C233.342 179.65 232.892 180.16 232.892 180.79C232.892 182.14 234.362 181.99 235.262 181.99C238.472 181.99 241.712 181.96 244.952 181.96L244.952 182.32ZM278.936 189.07C278.936 189.13 278.936 189.19 278.936 189.25L278.906 189.61C278.906 189.67 278.906 189.73 278.906 189.79C278.906 190.54 279.416 191.08 280.196 191.08C280.946 191.08 281.696 190.45 281.696 189.67L281.696 182.08C281.696 180.1 281.666 178.09 281.636 176.11C281.786 176.11 281.966 176.08 282.116 176.08L283.016 176.08C283.166 176.08 283.346 176.05 283.496 176.05L284.816 175.99C285.176 175.99 285.566 176.02 285.926 175.93C286.556 175.81 287.126 175.24 287.126 174.55C287.126 173.83 286.556 173.35 285.866 173.35C284.846 173.35 283.856 173.41 282.836 173.44L281.576 173.5C281.516 171.37 281.396 169.24 281.216 167.11C281.186 166.69 281.186 165.79 281.006 165.43C280.796 164.98 280.346 164.74 279.836 164.74C279.086 164.74 278.336 165.37 278.336 166.15C278.336 166.93 278.456 167.68 278.516 168.43C278.636 170.14 278.726 171.85 278.816 173.59C278.996 178.75 278.906 183.91 278.936 189.07ZM262.046 168.64C263.936 168.64 265.826 168.61 267.746 168.52C268.646 168.49 269.576 168.43 270.506 168.43C270.836 168.43 271.196 168.43 271.556 168.43C271.586 168.61 271.616 168.76 271.616 168.91C271.616 169.78 271.406 170.62 271.196 171.43C270.206 175.54 268.286 179.53 265.556 182.74C264.896 183.52 264.176 184.27 263.426 184.9C263.096 185.17 262.706 185.41 262.436 185.71C262.226 185.98 262.076 186.28 262.076 186.64C262.076 187.33 262.646 187.81 263.336 187.81C264.176 187.81 265.106 186.82 265.706 186.28C269.636 182.65 272.186 177.82 273.656 172.72C274.046 171.4 274.376 170.02 274.376 168.64C274.376 167.38 273.866 166.18 272.516 165.88C272.126 165.82 271.706 165.79 271.316 165.79C269.006 165.79 266.696 165.97 264.386 165.97C263.816 165.97 262.196 165.94 261.746 166.12C261.206 166.33 260.786 166.84 260.786 167.44C260.786 168.16 261.356 168.64 262.046 168.64Z" fill="black"/>
</svg>
