<svg width="33" height="32" viewBox="0 0 33 32" fill="none" xmlns="http://www.w3.org/2000/svg">
<path d="M22.4347 1.15095C24.6376 -0.223724 27.4281 1.65959 26.9773 4.21684L25.919 10.2211C25.7274 11.3081 26.1481 12.4124 27.0143 13.0964L31.7761 16.8564C33.9152 18.5455 32.8756 21.9813 30.159 22.2011L24.6766 22.6448C23.5014 22.7399 22.4909 23.5146 22.0938 24.6247L20.2373 29.8157C19.3455 32.3092 15.8962 32.5086 14.723 30.1346L11.8692 24.3597C11.3995 23.4094 10.4632 22.7774 9.40613 22.6974L2.98299 22.2111C0.342429 22.0112 -0.762969 18.7377 1.21583 16.9779L5.33541 13.3143C6.21645 12.5307 6.55684 11.3038 6.2054 10.1783L4.56593 4.92804C3.75354 2.32642 6.55102 0.0769992 8.91762 1.4289L14.186 4.43842C15.1444 4.98587 16.3259 4.9629 17.2623 4.37861L22.4347 1.15095Z" fill="#FFEAB6"/>
</svg>
