<svg width="415" height="330" viewBox="0 0 415 330" fill="none" xmlns="http://www.w3.org/2000/svg">
<ellipse rx="42.7687" ry="41.6217" transform="matrix(-0.950078 -0.312013 -0.312013 0.950078 215.14 190.742)" fill="#F2F2F2"/>
<ellipse rx="52.0089" ry="50.614" transform="matrix(-0.950078 -0.312013 -0.312013 0.950078 279.45 182.522)" fill="#F2F2F2"/>
<ellipse rx="51.2494" ry="51.3828" transform="matrix(-0.876416 0.481554 0.505089 0.863067 159.007 193.488)" fill="#F2F2F2"/>
<ellipse rx="52.0089" ry="50.614" transform="matrix(-0.950078 -0.312013 -0.312013 0.950078 218.208 121.527)" fill="#F2F2F2"/>
<ellipse rx="52.0089" ry="50.614" transform="matrix(-0.950078 -0.312013 -0.312013 0.950078 290.204 125.227)" fill="#F2F2F2"/>
<ellipse rx="52.0089" ry="50.614" transform="matrix(-0.950078 -0.312013 -0.312013 0.950078 133.625 135.394)" fill="#F2F2F2"/>
<ellipse rx="52.0089" ry="50.614" transform="matrix(-0.950078 -0.312013 -0.312013 0.950078 67.2318 178.492)" fill="#F2F2F2"/>
<ellipse rx="52.0089" ry="50.614" transform="matrix(-0.950078 -0.312013 -0.312013 0.950078 346.467 154.076)" fill="#F2F2F2"/>
<path d="M182.514 116.28C181.514 116.28 180.554 117.04 180.434 118.04C180.274 119.16 180.274 120.32 180.194 121.48C180.034 124 179.914 126.48 179.674 129C179.634 129.6 179.554 130.2 179.474 130.8C179.394 131.2 179.234 131.68 179.234 132.12C179.234 133 179.954 133.6 180.834 133.6C181.754 133.6 183.394 132.64 184.314 132.28C185.794 131.68 187.394 131.28 188.994 131.28C193.114 131.28 196.474 133.04 196.474 137.56C196.474 142.76 193.514 145.08 188.514 145.08C186.034 145.08 183.234 144.36 182.034 142C181.514 141.04 181.514 139.92 180.114 139.92C179.114 139.92 177.994 140.72 177.994 141.8C177.994 142.44 178.514 143.52 178.834 144.04C180.754 147.32 184.354 148.48 187.994 148.48C195.074 148.48 200.154 144.56 200.154 137.16C200.154 130.88 195.394 127.88 189.554 127.88C187.234 127.88 185.474 128.32 183.314 129.12C183.594 126.04 183.754 122.88 183.954 119.76C186.914 119.92 189.874 119.88 192.834 120.04C193.834 120.08 194.794 120.12 195.794 120.24C196.394 120.32 196.994 120.44 197.594 120.44C198.594 120.44 199.674 119.64 199.674 118.56C199.674 117.88 199.354 117.48 198.794 117.16C197.714 116.6 187.874 116.48 185.874 116.4C184.754 116.36 183.634 116.28 182.514 116.28ZM215.546 148.36C225.066 148.36 226.306 138.72 226.306 131.32C226.306 124.4 225.106 115.72 216.306 115.72C207.946 115.72 205.866 124.8 205.866 131.52C205.866 138.2 206.626 148.36 215.546 148.36ZM222.626 131.32C222.626 134.76 222.506 141.72 219.466 143.96C218.426 144.72 217.306 144.96 216.066 144.96C209.626 144.96 209.546 135.6 209.546 131.08C209.546 127.08 210.306 119.12 215.786 119.12C222.106 119.12 222.626 126.64 222.626 131.32ZM233.498 147.12C233.498 148.08 234.258 148.72 235.178 148.72C235.818 148.72 236.418 148.36 236.818 147.88C237.258 147.36 237.498 146.72 237.818 146.16C238.258 145.4 238.738 144.6 239.218 143.84C243.858 136.16 248.418 128.48 252.538 120.52C252.938 119.76 254.178 117.52 254.178 116.8C254.178 115.84 253.418 115.2 252.498 115.2C251.258 115.2 250.818 116.08 250.338 117.08C249.458 118.84 248.578 120.56 247.658 122.28C244.738 127.8 241.578 133.12 238.378 138.48C236.818 141.08 235.018 143.64 233.698 146.32C233.578 146.56 233.498 146.84 233.498 147.12ZM231.018 123.08C231.018 126.04 233.378 128.52 236.378 128.52C239.578 128.52 241.898 126.16 241.898 122.92C241.898 119.4 239.818 116.76 236.138 116.76C232.498 116.76 231.018 119.88 231.018 123.08ZM236.298 120.28C237.538 120.28 238.138 121.72 238.138 123.24C238.138 124.24 237.498 124.96 236.618 124.96C235.458 124.96 234.778 123.72 234.778 122.64C234.778 121.6 234.898 120.28 236.298 120.28ZM245.978 142C245.978 145 248.338 147.4 251.298 147.4C254.378 147.4 256.978 144.6 256.978 141.56C256.978 138.2 254.978 135.6 251.458 135.6C248.258 135.6 245.978 139.04 245.978 142ZM253.178 141.88C253.178 142.76 252.618 143.88 251.618 143.88C250.338 143.88 249.738 142.76 249.738 141.68C249.738 140.36 250.138 139.08 251.258 139.08C252.938 139.08 253.178 140.56 253.178 141.88Z" fill="black"/>
<path d="M116.601 186.85C116.601 187.6 116.601 188.35 116.571 189.1L116.511 190.6C116.481 191.35 116.481 192.1 116.481 192.85C116.481 193.57 117.051 194.02 117.741 194.02C118.461 194.02 119.091 193.51 119.241 192.82C119.271 192.67 119.271 192.52 119.271 192.37L119.271 191.92C119.271 191.47 119.271 191.05 119.271 190.6L119.361 187.93C119.361 187.48 119.361 187.06 119.361 186.61C119.361 184.66 119.211 169.03 118.911 168.31C118.731 167.83 118.281 167.59 117.741 167.59C116.991 167.59 116.241 168.22 116.241 169C116.241 170.98 116.361 172.96 116.421 174.94C116.541 178.9 116.601 182.89 116.601 186.85ZM107.361 173.08C107.361 173.89 107.331 174.7 107.301 175.51L107.211 177.94C106.071 177.97 104.931 178.03 103.791 178.03C102.771 178.03 101.781 178 100.791 177.97C100.251 177.94 99.711 177.85 99.171 177.85C98.481 177.85 97.821 178.39 97.671 179.05C97.551 179.65 97.641 180.64 97.641 181.27C97.641 182.95 97.641 184.63 97.791 186.28C98.061 189.16 98.361 190.06 101.481 190.06C102.501 190.06 110.061 189.58 110.601 189.34C111.111 189.13 111.501 188.62 111.501 188.05C111.501 187.33 110.931 186.85 110.241 186.85C109.911 186.85 109.581 186.88 109.251 186.91L108.261 187C106.881 187.12 105.531 187.21 104.151 187.3C103.281 187.36 102.441 187.45 101.571 187.45C101.331 187.45 101.061 187.42 100.791 187.39C100.431 186.16 100.401 183.07 100.401 181.69L100.401 180.58C101.121 180.64 101.871 180.64 102.591 180.64C104.121 180.64 105.681 180.58 107.211 180.55C108.291 180.52 109.641 180.64 109.911 179.29C110.031 178.81 109.971 178.3 110.001 177.79C110.031 176.14 110.151 174.49 110.151 172.81C110.151 169.09 108.261 169.12 105.171 168.85C103.281 168.67 101.361 168.58 99.471 168.58C98.691 168.58 97.941 169.24 97.941 170.02C97.941 171.4 99.501 171.22 100.431 171.22C101.271 171.22 106.821 171.49 107.181 171.79C107.361 171.94 107.361 172.81 107.361 173.08ZM144.372 168.55C143.832 168.55 143.262 168.55 142.722 168.55L139.422 168.61L135.402 168.61L130.722 168.55C129.942 168.55 129.132 168.55 128.352 168.55C127.152 168.55 126.792 169.6 126.792 170.62C126.792 173.41 126.852 178.78 127.692 181.27C127.902 181.9 128.232 182.5 128.742 182.89C129.582 183.55 130.692 183.61 131.712 183.61C134.382 183.61 137.022 183.52 139.692 183.46L142.422 183.43C142.842 183.4 143.292 183.43 143.742 183.37C143.862 183.37 144.012 183.34 144.162 183.28C144.702 183.07 145.122 182.56 145.122 181.96C145.122 181.24 144.552 180.76 143.862 180.76C139.902 180.76 135.972 180.97 132.012 180.97C131.712 180.97 130.902 181 130.662 180.82C129.732 180.13 129.612 172.69 129.582 171.19C131.442 171.22 133.272 171.22 135.132 171.22C137.982 171.22 140.832 171.19 143.712 171.19C144.612 171.19 145.632 170.83 145.632 169.75C145.632 169.03 145.062 168.55 144.372 168.55ZM147.972 193.09C148.722 193.09 149.472 192.43 149.472 191.65C149.472 191.08 149.172 190.75 148.692 190.54C148.182 190.33 137.022 190.33 135.462 190.33C132.012 190.33 128.562 190.06 125.112 190.06C124.362 190.06 123.612 190.72 123.612 191.5C123.612 192.16 124.122 192.64 124.752 192.7C126.012 192.79 127.302 192.76 128.592 192.79C131.472 192.88 134.352 192.94 137.232 192.94C140.802 192.94 144.402 193.09 147.972 193.09ZM175.026 186.61C175.026 181.54 174.906 176.5 174.756 171.46C174.756 170.95 174.726 168.7 174.606 168.37C174.426 167.86 173.946 167.59 173.406 167.59C172.656 167.59 171.906 168.22 171.906 169C171.906 170.98 172.026 172.96 172.086 174.94C172.236 179.41 172.236 183.88 172.236 188.35L172.146 191.35C172.146 191.86 172.146 192.34 172.146 192.85C172.146 193.57 172.716 194.02 173.406 194.02C174.126 194.02 174.726 193.51 174.906 192.82C174.966 192.52 174.936 192.19 174.936 191.89C174.936 190.12 175.026 188.35 175.026 186.61ZM165.906 174.55C165.906 173.08 165.936 170.38 164.736 169.39C164.466 169.15 164.166 169 163.806 168.88C162.996 168.64 161.046 168.64 160.146 168.64C159.666 168.64 159.156 168.64 158.676 168.64L155.706 168.73C155.226 168.73 154.746 168.73 154.236 168.73C153.486 168.73 152.736 169.39 152.736 170.17C152.736 172.27 153.036 187.81 153.306 188.44C153.516 188.95 153.966 189.19 154.506 189.19C156.996 189.19 159.486 189.01 161.976 189.01C162.186 189.01 162.396 189.01 162.606 189.01L163.866 189.07C164.076 189.07 164.286 189.07 164.496 189.07C165.156 189.07 165.816 188.59 165.966 187.93C166.116 187.27 166.056 186.43 166.056 185.74C166.056 182.02 165.906 178.27 165.906 174.55ZM163.266 186.4C161.886 186.4 160.476 186.43 159.096 186.46L155.946 186.55C155.736 181.48 155.616 176.41 155.526 171.37C156.966 171.34 158.436 171.28 159.876 171.28C160.836 171.28 161.796 171.31 162.756 171.4L162.756 171.43C163.236 172.51 163.146 175.36 163.146 176.62C163.146 179.59 163.266 182.53 163.266 185.5L163.266 186.4ZM206.209 192.1C206.209 192.31 206.179 192.55 206.179 192.79C206.179 193.57 206.689 194.11 207.469 194.11C208.219 194.11 208.969 193.45 208.969 192.67L208.969 185.08C208.969 183.1 208.939 181.09 208.909 179.11C210.259 179.08 210.709 178.99 212.089 178.99C212.989 178.99 214.009 178.63 214.009 177.55C214.009 176.83 213.439 176.35 212.749 176.35C211.159 176.35 210.469 176.47 208.849 176.5C208.789 174.37 208.669 172.24 208.519 170.11C208.489 169.69 208.489 168.79 208.309 168.43C208.099 167.95 207.649 167.71 207.139 167.71C206.389 167.71 205.639 168.37 205.639 169.15C205.639 169.9 205.759 170.65 205.819 171.43C205.939 173.14 206.029 174.88 206.089 176.62C206.269 181.78 206.179 186.94 206.209 192.1ZM197.209 171.79C197.359 172.09 197.359 172.75 197.359 173.08C197.359 174.73 197.299 176.35 197.209 177.97C196.159 178 195.079 178.06 193.999 178.06C193.039 178.06 192.109 178.03 191.179 178C190.639 177.97 190.129 177.88 189.619 177.88C188.929 177.88 188.269 178.42 188.119 179.11C188.029 179.68 188.089 180.67 188.089 181.3C188.089 182.95 188.089 184.6 188.239 186.25C188.479 189.04 188.719 190.09 191.809 190.09C192.739 190.09 193.699 190.03 194.629 189.94L195.739 189.85C195.919 189.82 196.129 189.79 196.309 189.79C197.539 189.7 198.829 189.7 200.089 189.49C200.239 189.46 200.389 189.43 200.539 189.37C201.049 189.13 201.409 188.62 201.409 188.08C201.409 187.36 200.839 186.88 200.149 186.88C199.849 186.88 199.549 186.91 199.219 186.94L198.259 187.03C196.099 187.24 193.909 187.45 191.749 187.45C191.569 187.45 191.389 187.45 191.239 187.42C190.879 186.34 190.849 182.98 190.849 181.72L190.849 180.61C191.809 180.64 192.769 180.67 193.729 180.67C194.899 180.67 196.099 180.61 197.269 180.58C198.319 180.55 199.669 180.67 199.939 179.32C200.029 178.87 199.969 178.36 199.999 177.88L200.089 175.36C200.119 174.52 200.149 173.68 200.149 172.84C200.149 171.4 199.969 169.96 198.469 169.36C196.969 168.76 191.719 168.61 189.889 168.61C189.139 168.61 188.389 169.27 188.389 170.05C188.389 171.49 190.099 171.25 191.029 171.25C192.349 171.25 196.069 171.43 197.209 171.79ZM216.25 178.81C216.25 183.64 218.47 189.73 224.2 189.73C229.21 189.73 231.61 183.7 231.61 179.47C231.61 174.55 229.9 168.19 223.87 168.19C221.2 168.19 219.04 170.11 217.84 172.36C216.91 174.1 216.25 176.83 216.25 178.81ZM223.63 170.8C227.89 170.8 228.85 176.44 228.85 179.71C228.85 180.73 228.7 181.75 228.43 182.74C228.01 184.18 226.9 186.43 225.4 186.97C225.1 187.09 224.8 187.09 224.47 187.09C221.14 187.09 219.58 183.46 219.16 180.67C219.07 179.98 219.04 179.29 219.04 178.6C219.04 176.29 219.85 173.23 221.62 171.67C222.25 171.13 222.76 170.8 223.63 170.8ZM238.6 186.61C238.6 181.54 238.48 176.5 238.33 171.46C238.33 170.95 238.3 168.7 238.18 168.37C238 167.86 237.52 167.59 236.98 167.59C236.23 167.59 235.48 168.22 235.48 169C235.48 170.98 235.6 172.96 235.66 174.94C235.81 179.41 235.81 183.88 235.81 188.35L235.72 191.35C235.72 191.86 235.72 192.34 235.72 192.85C235.72 193.57 236.29 194.02 236.98 194.02C237.7 194.02 238.3 193.51 238.48 192.82C238.54 192.52 238.51 192.19 238.51 191.89C238.51 190.12 238.6 188.35 238.6 186.61ZM264.751 177.04C264.751 176.02 264.751 169.42 264.541 169C264.301 168.52 263.881 168.28 263.371 168.28C262.621 168.28 261.871 168.94 261.871 169.72C261.871 171.34 261.901 172.93 261.931 174.52C259.771 174.52 257.611 174.55 255.481 174.55C253.321 174.55 251.131 174.49 248.971 174.31L248.851 172.96C248.821 172.45 248.791 171.97 248.731 171.46C248.701 170.98 248.581 169.33 248.431 169C248.191 168.52 247.771 168.28 247.261 168.28C246.511 168.28 245.761 168.94 245.761 169.72C245.761 170.08 245.821 170.41 245.851 170.74C245.941 171.43 246.001 172.12 246.061 172.81C246.211 174.73 246.601 182.65 247.621 183.73C248.281 184.45 249.631 184.48 250.531 184.48C251.911 184.48 262.591 184.36 263.131 184.18C263.611 184 263.941 183.67 264.181 183.19C264.751 182.02 264.751 178.45 264.751 177.04ZM261.991 177.19C261.991 177.49 261.991 177.76 261.991 178.06C261.991 179.26 261.961 180.46 261.781 181.66C258.181 181.75 254.581 181.84 250.981 181.84C250.591 181.84 250.231 181.84 249.841 181.81C249.421 180.43 249.361 178.93 249.241 177.49C249.241 177.34 249.211 177.16 249.211 177.01C252.751 177.22 260.131 177.19 261.991 177.19ZM267.181 193.09C267.931 193.09 268.681 192.43 268.681 191.65C268.681 191.08 268.381 190.75 267.901 190.54C267.391 190.33 256.231 190.33 254.671 190.33C251.221 190.33 247.771 190.06 244.321 190.06C243.571 190.06 242.821 190.72 242.821 191.5C242.821 192.16 243.331 192.64 243.961 192.7C245.221 192.79 246.511 192.76 247.801 192.79C250.681 192.88 253.561 192.94 256.441 192.94C260.011 192.94 263.611 193.09 267.181 193.09ZM294.348 169.36L294.348 192.04C294.348 192.76 294.948 193.24 295.608 193.24C296.388 193.24 297.138 192.58 297.138 191.8L297.138 180.31C297.288 180.31 297.438 180.28 297.588 180.28L298.458 180.22C298.608 180.22 298.758 180.19 298.908 180.19L299.838 180.13C299.838 180.46 299.838 180.82 299.838 181.15L299.868 183.13C299.868 183.46 299.868 183.82 299.868 184.15C299.868 184.87 299.868 185.62 299.868 186.34L299.808 190.72C299.808 191.44 299.808 192.19 299.808 192.91C299.808 193.63 300.378 194.08 301.068 194.08C301.698 194.08 302.208 193.72 302.478 193.18C302.688 192.7 302.598 190.9 302.598 190.3C302.598 187.84 302.658 185.38 302.658 182.89C302.658 181.33 302.658 168.91 302.478 168.46C302.268 167.95 301.848 167.68 301.308 167.68C300.528 167.68 299.778 168.31 299.778 169.09C299.778 171.91 299.808 174.73 299.838 177.52C299.808 177.52 299.808 177.52 299.778 177.52L297.258 177.7C297.228 177.7 297.168 177.7 297.138 177.7L297.138 169.09C297.138 168.4 296.568 167.92 295.878 167.92C295.098 167.92 294.348 168.55 294.348 169.36ZM283.398 186.73C283.098 186.73 282.828 186.1 282.768 185.86C282.318 184.48 282.408 182.83 282.348 181.39C282.318 179.62 282.258 177.85 282.258 176.11C282.258 175.54 282.288 174.97 282.288 174.43C282.288 174.16 282.288 173.92 282.288 173.68L282.258 172.15C282.258 171.91 282.258 171.64 282.258 171.4C284.238 171.46 286.218 171.55 288.198 171.64C288.738 171.67 289.278 171.7 289.788 171.73C290.088 171.76 290.358 171.82 290.628 171.82C291.408 171.82 292.158 171.16 292.158 170.38C292.158 169.9 291.888 169.54 291.468 169.33C290.868 169 282.318 168.73 280.968 168.73C280.218 168.73 279.468 169.39 279.468 170.17C279.468 170.53 279.468 170.89 279.468 171.28L279.498 173.53L279.498 175.09L279.468 175.93C279.468 177.82 279.528 179.71 279.588 181.6C279.648 184.18 279.408 189.34 283.128 189.34C284.538 189.34 292.278 188.44 292.848 188.14C293.298 187.87 293.658 187.42 293.658 186.88C293.658 186.16 293.058 185.68 292.398 185.68C291.618 185.68 290.868 185.89 290.118 185.98C288.708 186.19 287.268 186.37 285.858 186.52C285.048 186.61 284.208 186.73 283.398 186.73ZM313.778 167.89L313.778 170.74C313.478 170.74 313.178 170.74 312.878 170.74C311.498 170.74 310.118 170.65 308.738 170.74C308.588 170.74 308.468 170.77 308.318 170.83C307.748 171.01 307.298 171.55 307.298 172.18C307.298 172.87 307.868 173.35 308.558 173.35C313.148 173.35 317.768 173.32 322.388 173.32C323.138 173.32 323.888 172.69 323.888 171.88C323.888 171.04 323.198 170.71 322.448 170.71C321.668 170.71 320.858 170.71 320.048 170.71L316.538 170.74L316.538 167.65C316.538 166.93 315.968 166.45 315.278 166.45C314.528 166.45 313.778 167.11 313.778 167.89ZM309.248 180.31C309.248 183.34 311.528 184.84 314.138 185.17L314.138 188.32C313.178 188.35 312.188 188.38 311.228 188.41C310.538 188.44 307.688 188.44 307.238 188.59C306.668 188.83 306.218 189.31 306.218 189.94C306.218 190.66 306.788 191.14 307.478 191.14C308.288 191.14 309.098 191.08 309.878 191.05C311.708 190.99 313.538 190.93 315.368 190.9C318.938 190.78 322.508 190.75 326.078 190.75C326.078 191.47 326.078 192.22 326.078 192.94C326.078 193.66 326.648 194.14 327.338 194.14C327.998 194.14 328.538 193.69 328.778 193.09C328.898 192.76 328.868 191.29 328.868 190.84C328.868 185.68 329.018 180.49 329.018 175.3C329.018 174.31 329.018 168.31 328.808 167.89C328.568 167.41 328.178 167.17 327.638 167.17C326.888 167.17 326.138 167.83 326.138 168.61C326.138 170.92 326.258 173.26 326.258 175.57C326.258 177.28 326.198 179.02 326.168 180.73C326.138 183.19 326.078 185.62 326.078 188.08C323.018 188.08 319.988 188.14 316.928 188.23L316.928 185.08C319.838 184.51 322.298 182.47 322.298 179.23C322.298 175.51 319.508 174.43 316.268 174.43C315.368 174.43 314.468 174.64 313.598 174.94C311.738 175.63 310.268 176.65 309.578 178.57C309.368 179.11 309.248 179.71 309.248 180.31ZM315.938 177.04C317.768 177.04 319.538 177.25 319.538 179.5C319.538 179.92 319.478 180.31 319.328 180.7C318.728 182.05 316.898 182.62 315.578 182.62C313.928 182.62 312.008 182.05 312.008 180.1C312.008 178.57 313.058 177.85 314.348 177.4C314.858 177.19 315.398 177.04 315.938 177.04Z" fill="black"/>
</svg>
