<svg width="1200" height="439" viewBox="0 0 1200 439" fill="none" xmlns="http://www.w3.org/2000/svg">
<path d="M265.898 237.707C265.898 292.715 206.375 337.308 132.949 337.308C59.5235 337.308 0.000123372 292.715 0.000123372 237.707C0.000123372 182.698 59.5235 138.105 132.949 138.105C206.375 138.105 265.898 182.698 265.898 237.707Z" fill="#FFCCDB"/>
<ellipse cx="297.985" cy="275.738" rx="109.329" ry="81.9058" fill="#FFCCDB"/>
<ellipse cx="1075" cy="266.5" rx="125" ry="101.5" fill="#FFCCDB"/>
<ellipse cx="938.329" cy="306.906" rx="109.329" ry="81.9058" fill="#FFCCDB"/>
<ellipse cx="433.722" cy="274.05" rx="132.949" ry="99.6016" fill="#FFCCDB"/>
<ellipse rx="115.876" ry="119.033" transform="matrix(0.771528 0.636195 -0.826677 0.562677 718.196 140.696)" fill="#FFCCDB"/>
<ellipse rx="115.876" ry="119.033" transform="matrix(0.771528 0.636195 -0.826677 0.562677 937.803 140.696)" fill="#FFCCDB"/>
<ellipse rx="128.766" ry="122.447" transform="matrix(0.49631 0.868145 -0.972346 0.233546 763.969 298.384)" fill="#FFCCDB"/>
<ellipse cx="565.986" cy="224.542" rx="132.949" ry="99.6016" fill="#FFCCDB"/>
<ellipse cx="464.757" cy="125.446" rx="132.949" ry="99.6016" fill="#FFCCDB"/>
<ellipse cx="594.349" cy="295.049" rx="132.949" ry="99.6016" fill="#FFCCDB"/>
<ellipse cx="761.444" cy="268.397" rx="132.949" ry="99.6016" fill="#FFCCDB"/>
<ellipse cx="297.39" cy="154.77" rx="132.949" ry="99.6016" fill="#FFCCDB"/>
</svg>
