<svg width="34" height="33" viewBox="0 0 34 33" fill="none" xmlns="http://www.w3.org/2000/svg">
<path d="M8.38949 3.98362C8.2484 1.39078 11.2444 -0.144606 13.2668 1.48413L18.0152 5.30831C18.8748 6.00059 20.045 6.16498 21.0621 5.73631L26.6531 3.37975C29.1647 2.32117 31.6725 4.8896 30.5542 7.37513L28.2974 12.3911C27.8136 13.4663 28.0046 14.7252 28.7854 15.6087L32.4363 19.7396C34.19 21.7238 32.7003 24.8413 30.0548 24.7233L23.6197 24.4365C22.5606 24.3892 21.5553 24.9044 20.9752 25.7917L17.45 31.183C16.0007 33.3993 12.6002 32.788 12.0136 30.2057L10.7924 24.8296C10.5313 23.6799 9.62084 22.7897 8.46549 22.5545L3.07579 21.4571C0.405075 20.9133 -0.215326 17.3777 2.11071 15.9571L7.28881 12.7948C8.23073 12.2195 8.78073 11.1735 8.72076 10.0715L8.38949 3.98362Z" fill="#FC65FF"/>
</svg>
