<svg width="792" height="611" viewBox="0 0 792 611" fill="none" xmlns="http://www.w3.org/2000/svg">
<ellipse rx="82.465" ry="68.51" transform="matrix(-0.950078 -0.312013 -0.312013 0.950078 406.758 367.609)" fill="white"/>
<ellipse rx="100.281" ry="83.3115" transform="matrix(-0.950078 -0.312013 -0.312013 0.950078 528.304 359.231)" fill="white"/>
<ellipse rx="91.3763" ry="92.9922" transform="matrix(-0.911693 0.410872 0.570344 0.821406 300.297 367.509)" fill="white"/>
<ellipse rx="100.281" ry="83.3115" transform="matrix(-0.950078 -0.312013 -0.312013 0.950078 406.801 252.034)" fill="white"/>
<ellipse rx="100.281" ry="83.3115" transform="matrix(-0.950078 -0.312013 -0.312013 0.950078 514.304 214.231)" fill="white"/>
<ellipse rx="100.281" ry="83.3115" transform="matrix(-0.950078 -0.312013 -0.312013 0.950078 247.195 268.167)" fill="white"/>
<ellipse rx="100.281" ry="83.3115" transform="matrix(-0.950078 -0.312013 -0.312013 0.950078 124.605 334.737)" fill="white"/>
<ellipse rx="100.281" ry="83.3115" transform="matrix(-0.950078 -0.312013 -0.312013 0.950078 653.304 317.231)" fill="white"/>
</svg>
