<svg width="35" height="31" viewBox="0 0 35 31" fill="none" xmlns="http://www.w3.org/2000/svg">
<path d="M14.7598 2.14908C15.8167 -0.222745 19.1833 -0.222749 20.2402 2.14907L22.7219 7.71799C23.1712 8.72611 24.1377 9.40615 25.2383 9.4885L31.2888 9.94123C34.0067 10.1446 35.0671 13.5741 32.9383 15.276L28.6423 18.7107C27.7213 19.447 27.3171 20.6544 27.609 21.7968L28.9742 27.1381C29.6299 29.7037 26.8824 31.7987 24.5818 30.4872L18.9858 27.297C18.0648 26.772 16.9352 26.772 16.0142 27.297L10.4182 30.4872C8.11763 31.7987 5.37013 29.7037 6.02585 27.1381L7.39096 21.7968C7.68291 20.6544 7.27866 19.447 6.35775 18.7107L2.0617 15.276C-0.0670819 13.5741 0.993316 10.1446 3.71123 9.94123L9.76171 9.4885C10.8623 9.40615 11.8288 8.72612 12.2781 7.718L14.7598 2.14908Z" fill="#FFA5A5"/>
</svg>
