<svg width="33" height="32" viewBox="0 0 33 32" fill="none" xmlns="http://www.w3.org/2000/svg">
<path d="M20.2789 0.706802C22.3257 -0.891063 25.2981 0.689594 25.1177 3.27999L24.6941 9.36212C24.6174 10.4631 25.1515 11.5174 26.0846 12.1068L31.2141 15.3474C33.5183 16.8031 32.8444 20.3289 30.1657 20.8321L24.76 21.8476C23.6012 22.0652 22.6774 22.9415 22.3988 24.0872L21.0962 29.4441C20.4705 32.0172 17.0611 32.5769 15.6456 30.3388L12.2026 24.8946C11.636 23.9987 10.6386 23.4683 9.57899 23.4994L3.14026 23.6886C0.49328 23.7664 -0.948928 20.6267 0.834647 18.6693L4.54781 14.5943C5.34193 13.7228 5.55192 12.4669 5.08453 11.3845L2.90412 6.33484C1.82368 3.83263 4.37015 1.30255 6.86533 2.39911L12.42 4.84023C13.4304 5.28428 14.6031 5.13766 15.473 4.45851L20.2789 0.706802Z" fill="#F2F2F2"/>
</svg>
