<svg width="779" height="499" viewBox="0 0 779 499" fill="none" xmlns="http://www.w3.org/2000/svg">
<ellipse rx="82.465" ry="68.51" transform="matrix(-0.950078 -0.312013 -0.312013 0.950078 406.758 255.61)" fill="#FFE9C2"/>
<ellipse rx="100.281" ry="83.3115" transform="matrix(-0.950078 -0.312013 -0.312013 0.950078 528.304 247.231)" fill="#FFE9C2"/>
<ellipse rx="91.3763" ry="92.9922" transform="matrix(-0.911693 0.410872 0.570344 0.821406 300.297 255.508)" fill="#FFE9C2"/>
<ellipse rx="100.281" ry="83.3115" transform="matrix(-0.950078 -0.312013 -0.312013 0.950078 406.801 140.034)" fill="#FFE9C2"/>
<ellipse rx="100.281" ry="83.3115" transform="matrix(-0.950078 -0.312013 -0.312013 0.950078 514.304 102.231)" fill="#FFE9C2"/>
<ellipse rx="100.281" ry="83.3115" transform="matrix(-0.950078 -0.312013 -0.312013 0.950078 247.195 156.167)" fill="#FFE9C2"/>
<ellipse rx="100.281" ry="83.3115" transform="matrix(-0.950078 -0.312013 -0.312013 0.950078 124.605 222.737)" fill="#FFE9C2"/>
<ellipse rx="100.281" ry="83.3115" transform="matrix(-0.950078 -0.312013 -0.312013 0.950078 653.304 205.231)" fill="#FFE9C2"/>
</svg>
