<svg width="415" height="330" viewBox="0 0 415 330" fill="none" xmlns="http://www.w3.org/2000/svg">
<ellipse rx="42.7687" ry="41.6217" transform="matrix(-0.950078 -0.312013 -0.312013 0.950078 215.14 190.742)" fill="#F2F2F2"/>
<ellipse rx="52.0089" ry="50.614" transform="matrix(-0.950078 -0.312013 -0.312013 0.950078 279.45 182.522)" fill="#F2F2F2"/>
<ellipse rx="51.2494" ry="51.3828" transform="matrix(-0.876416 0.481554 0.505089 0.863067 159.007 193.488)" fill="#F2F2F2"/>
<ellipse rx="52.0089" ry="50.614" transform="matrix(-0.950078 -0.312013 -0.312013 0.950078 218.208 121.527)" fill="#F2F2F2"/>
<ellipse rx="52.0089" ry="50.614" transform="matrix(-0.950078 -0.312013 -0.312013 0.950078 290.204 125.226)" fill="#F2F2F2"/>
<ellipse rx="52.0089" ry="50.614" transform="matrix(-0.950078 -0.312013 -0.312013 0.950078 133.625 135.394)" fill="#F2F2F2"/>
<ellipse rx="52.0089" ry="50.614" transform="matrix(-0.950078 -0.312013 -0.312013 0.950078 67.2318 178.492)" fill="#F2F2F2"/>
<ellipse rx="52.0089" ry="50.614" transform="matrix(-0.950078 -0.312013 -0.312013 0.950078 346.467 154.075)" fill="#F2F2F2"/>
<path d="M124.136 183.85C124.136 184.6 124.136 185.35 124.106 186.1L124.046 187.6C124.016 188.35 124.016 189.1 124.016 189.85C124.016 190.57 124.586 191.02 125.276 191.02C125.996 191.02 126.626 190.51 126.776 189.82C126.806 189.67 126.806 189.52 126.806 189.37L126.806 188.92C126.806 188.47 126.806 188.05 126.806 187.6L126.896 184.93C126.896 184.48 126.896 184.06 126.896 183.61C126.896 181.66 126.746 166.03 126.446 165.31C126.266 164.83 125.816 164.59 125.276 164.59C124.526 164.59 123.776 165.22 123.776 166C123.776 167.98 123.896 169.96 123.956 171.94C124.076 175.9 124.136 179.89 124.136 183.85ZM114.896 170.08C114.896 170.89 114.866 171.7 114.836 172.51L114.746 174.94C113.606 174.97 112.466 175.03 111.326 175.03C110.306 175.03 109.316 175 108.326 174.97C107.786 174.94 107.246 174.85 106.706 174.85C106.016 174.85 105.356 175.39 105.206 176.05C105.086 176.65 105.176 177.64 105.176 178.27C105.176 179.95 105.176 181.63 105.326 183.28C105.596 186.16 105.896 187.06 109.016 187.06C110.036 187.06 117.596 186.58 118.136 186.34C118.646 186.13 119.036 185.62 119.036 185.05C119.036 184.33 118.466 183.85 117.776 183.85C117.446 183.85 117.116 183.88 116.786 183.91L115.796 184C114.416 184.12 113.066 184.21 111.686 184.3C110.816 184.36 109.976 184.45 109.106 184.45C108.866 184.45 108.596 184.42 108.326 184.39C107.966 183.16 107.936 180.07 107.936 178.69L107.936 177.58C108.656 177.64 109.406 177.64 110.126 177.64C111.656 177.64 113.216 177.58 114.746 177.55C115.826 177.52 117.176 177.64 117.446 176.29C117.566 175.81 117.506 175.3 117.536 174.79C117.566 173.14 117.686 171.49 117.686 169.81C117.686 166.09 115.796 166.12 112.706 165.85C110.816 165.67 108.896 165.58 107.006 165.58C106.226 165.58 105.476 166.24 105.476 167.02C105.476 168.4 107.036 168.22 107.966 168.22C108.806 168.22 114.356 168.49 114.716 168.79C114.896 168.94 114.896 169.81 114.896 170.08ZM151.907 165.55C151.367 165.55 150.797 165.55 150.257 165.55L146.957 165.61L142.937 165.61L138.257 165.55C137.477 165.55 136.667 165.55 135.887 165.55C134.687 165.55 134.327 166.6 134.327 167.62C134.327 170.41 134.387 175.78 135.227 178.27C135.437 178.9 135.767 179.5 136.277 179.89C137.117 180.55 138.227 180.61 139.247 180.61C141.917 180.61 144.557 180.52 147.227 180.46L149.957 180.43C150.377 180.4 150.827 180.43 151.277 180.37C151.397 180.37 151.547 180.34 151.697 180.28C152.237 180.07 152.657 179.56 152.657 178.96C152.657 178.24 152.087 177.76 151.397 177.76C147.437 177.76 143.507 177.97 139.547 177.97C139.247 177.97 138.437 178 138.197 177.82C137.267 177.13 137.147 169.69 137.117 168.19C138.977 168.22 140.807 168.22 142.667 168.22C145.517 168.22 148.367 168.19 151.247 168.19C152.147 168.19 153.167 167.83 153.167 166.75C153.167 166.03 152.597 165.55 151.907 165.55ZM155.507 190.09C156.257 190.09 157.007 189.43 157.007 188.65C157.007 188.08 156.707 187.75 156.227 187.54C155.717 187.33 144.557 187.33 142.997 187.33C139.547 187.33 136.097 187.06 132.647 187.06C131.897 187.06 131.147 187.72 131.147 188.5C131.147 189.16 131.657 189.64 132.287 189.7C133.547 189.79 134.837 189.76 136.127 189.79C139.007 189.88 141.887 189.94 144.767 189.94C148.337 189.94 151.937 190.09 155.507 190.09ZM182.561 183.61C182.561 178.54 182.441 173.5 182.291 168.46C182.291 167.95 182.261 165.7 182.141 165.37C181.961 164.86 181.481 164.59 180.941 164.59C180.191 164.59 179.441 165.22 179.441 166C179.441 167.98 179.561 169.96 179.621 171.94C179.771 176.41 179.771 180.88 179.771 185.35L179.681 188.35C179.681 188.86 179.681 189.34 179.681 189.85C179.681 190.57 180.251 191.02 180.941 191.02C181.661 191.02 182.261 190.51 182.441 189.82C182.501 189.52 182.471 189.19 182.471 188.89C182.471 187.12 182.561 185.35 182.561 183.61ZM173.441 171.55C173.441 170.08 173.471 167.38 172.271 166.39C172.001 166.15 171.701 166 171.341 165.88C170.531 165.64 168.581 165.64 167.681 165.64C167.201 165.64 166.691 165.64 166.211 165.64L163.241 165.73C162.761 165.73 162.281 165.73 161.771 165.73C161.021 165.73 160.271 166.39 160.271 167.17C160.271 169.27 160.571 184.81 160.841 185.44C161.051 185.95 161.501 186.19 162.041 186.19C164.531 186.19 167.021 186.01 169.511 186.01C169.721 186.01 169.931 186.01 170.141 186.01L171.401 186.07C171.611 186.07 171.821 186.07 172.031 186.07C172.691 186.07 173.351 185.59 173.501 184.93C173.651 184.27 173.591 183.43 173.591 182.74C173.591 179.02 173.441 175.27 173.441 171.55ZM170.801 183.4C169.421 183.4 168.011 183.43 166.631 183.46L163.481 183.55C163.271 178.48 163.151 173.41 163.061 168.37C164.501 168.34 165.971 168.28 167.411 168.28C168.371 168.28 169.331 168.31 170.291 168.4L170.291 168.43C170.771 169.51 170.681 172.36 170.681 173.62C170.681 176.59 170.801 179.53 170.801 182.5L170.801 183.4ZM198.445 187.96C198.445 182.47 198.385 176.95 198.265 171.46C200.725 175.54 203.275 179.59 205.885 183.61C206.635 184.75 207.415 185.86 208.165 187.03C208.615 187.72 209.005 188.47 209.575 189.07C209.905 189.4 210.325 189.61 210.805 189.61C211.495 189.61 212.155 189.13 212.425 188.5C212.605 188.11 212.665 187.69 212.695 187.24C212.875 185.62 212.845 184 212.845 182.38C212.875 177.73 212.845 173.11 212.845 168.46C212.845 167.8 212.875 167.14 212.875 166.51C212.875 165.49 212.875 164.38 211.585 164.38C210.955 164.38 210.445 164.77 210.175 165.34C210.025 165.67 210.055 166.33 210.055 166.72C210.055 170.29 210.085 173.92 210.085 177.52C210.085 179.89 210.055 182.29 210.025 184.66C207.325 180.58 204.655 176.38 202.075 172.21C201.325 170.98 200.605 169.78 199.885 168.52C199.525 167.89 199.195 167.17 198.715 166.6C198.355 166.15 197.935 165.85 197.365 165.85C195.625 165.85 195.445 167.92 195.445 169.27C195.445 171.13 195.505 172.99 195.535 174.82C195.565 176.47 195.565 188.17 195.745 188.62C195.955 189.16 196.375 189.46 196.945 189.46C197.725 189.46 198.445 188.77 198.445 187.96ZM224.459 165.43C223.079 165.43 221.699 165.49 220.349 165.67C219.089 165.82 216.539 166.06 216.539 167.83C216.539 168.76 216.599 169.63 216.629 170.53L216.839 175.36C216.959 178.18 217.049 180.94 217.139 183.76C217.169 185.08 217.199 186.4 217.259 187.75C217.319 188.62 217.559 189.31 218.549 189.31C219.329 189.31 220.049 188.62 220.049 187.81C220.049 186.13 219.959 184.42 219.899 182.71C219.869 181.6 219.809 180.49 219.779 179.38C220.169 179.38 220.559 179.38 220.949 179.38L225.839 179.35C226.649 179.35 227.489 179.35 228.299 179.35C228.779 179.35 229.949 179.38 230.369 179.23C230.939 179.02 231.389 178.48 231.389 177.82C231.389 177.07 230.819 176.59 230.129 176.59C229.319 176.59 228.479 176.59 227.669 176.59L222.779 176.62C221.969 176.62 221.129 176.62 220.319 176.62C220.169 176.62 219.929 176.62 219.659 176.62C219.539 173.92 219.419 171.22 219.329 168.52C220.919 168.22 222.569 168.16 224.189 168.16C225.329 168.16 226.499 168.16 227.639 168.22C228.299 168.25 228.989 168.34 229.649 168.34C230.429 168.34 231.149 167.65 231.149 166.84C231.149 166.33 230.909 166 230.519 165.76C230.009 165.43 225.389 165.43 224.459 165.43ZM242.71 168.04L248.56 168.04C249.34 168.04 250.06 167.35 250.06 166.54C250.06 165.97 249.73 165.52 249.22 165.34C248.74 165.19 244.42 165.28 243.52 165.28C242.68 165.28 241.84 165.28 241 165.28L235.93 165.19C235.09 165.19 234.25 165.19 233.41 165.19C232.63 165.19 231.91 165.88 231.91 166.69C231.91 168.22 233.83 167.98 234.82 167.98L235.93 167.98C236.5 167.98 237.04 167.98 237.61 167.98L239.74 168.01C239.77 168.31 239.8 168.64 239.8 168.94C239.89 170.65 239.98 172.33 240.07 174.04C240.25 177.13 240.43 180.22 240.58 183.31C240.61 183.67 240.61 184.06 240.64 184.42L240.73 186.61C240.76 186.97 240.76 187.36 240.79 187.72C240.85 188.59 241.12 189.25 242.08 189.25C242.86 189.25 243.58 188.56 243.58 187.75C243.58 187.03 243.52 186.31 243.49 185.59C243.4 183.91 243.31 182.23 243.22 180.55C243.04 177.46 242.86 174.34 242.71 171.25C242.68 170.89 242.68 170.5 242.65 170.14L242.56 168.04C242.62 168.04 242.65 168.04 242.71 168.04ZM279.159 178.51C279.909 178.51 280.659 177.85 280.659 177.07C280.659 176.56 280.569 176.02 280.539 175.51C280.509 174.97 280.449 173.41 280.359 171.67C281.019 171.64 281.679 171.61 282.339 171.58L283.689 171.52C284.049 171.49 284.409 171.52 284.769 171.46C285.399 171.31 285.969 170.74 285.969 170.05C285.969 169.33 285.399 168.85 284.709 168.85C283.749 168.85 282.759 168.94 281.799 168.97L280.449 169.03C280.359 169.03 280.299 169.03 280.209 169.03C280.089 166.96 279.969 165.19 279.849 164.95C279.609 164.47 279.189 164.23 278.679 164.23C277.929 164.23 277.179 164.89 277.179 165.67C277.179 166.15 277.239 166.6 277.269 167.08C277.329 167.98 277.389 168.88 277.449 169.78C277.569 172.12 277.659 174.49 277.839 176.86C277.869 177.16 277.869 177.52 277.989 177.79C278.199 178.27 278.649 178.51 279.159 178.51ZM273.069 175.66C273.069 174.43 272.469 165.88 272.169 165.34C271.929 164.92 271.539 164.68 271.029 164.68C270.279 164.68 269.529 165.34 269.529 166.12C269.529 166.45 269.589 166.78 269.619 167.11C269.679 167.62 269.739 168.1 269.769 168.58C269.769 168.64 269.799 168.7 269.799 168.76L269.799 169.09C269.799 169.15 269.829 169.21 269.829 169.27C267.519 169.6 265.179 169.6 262.869 169.6C262.809 167.89 262.719 165.64 262.599 165.4C262.359 164.92 261.969 164.68 261.429 164.68C260.679 164.68 259.929 165.34 259.929 166.12C259.929 166.93 259.989 167.77 260.019 168.58C260.109 170.26 260.319 176.89 261.429 177.88C261.879 178.27 262.719 178.27 263.319 178.27C265.749 178.27 268.149 178.15 270.549 177.58C271.059 177.43 271.749 177.28 272.229 176.98C272.679 176.68 273.069 176.23 273.069 175.66ZM263.529 175.66C263.199 174.61 263.049 173.38 262.989 172.24C264.909 172.21 268.149 172.12 270.069 171.91C270.159 172.93 270.219 173.98 270.279 175C268.209 175.48 266.109 175.66 264.009 175.66C263.859 175.66 263.679 175.66 263.529 175.66ZM278.349 182.11C278.409 182.29 278.409 182.5 278.409 182.71C278.409 183.1 278.379 183.49 278.349 183.88C274.719 183.97 271.089 184.03 267.429 184.03C267.129 184.03 266.829 184.03 266.529 184.06C264.909 184.21 263.829 185.35 263.829 186.94C263.829 187.42 263.949 187.84 264.009 188.29C264.099 188.83 264.189 189.4 264.489 189.88C265.359 191.38 267.939 191.41 269.469 191.41C273.069 191.41 276.699 191.35 280.329 191.35C281.079 191.35 281.829 190.69 281.829 189.91C281.829 188.8 280.869 188.71 279.999 188.71L275.499 188.71L271.659 188.77C271.029 188.77 270.369 188.77 269.739 188.77C269.079 188.77 267.489 188.74 266.949 188.44C266.739 187.9 266.649 187.27 266.619 186.67C267.639 186.61 268.689 186.64 269.739 186.64C272.829 186.64 275.919 186.46 279.039 186.46C280.869 186.46 280.989 185.56 281.109 184.03C281.139 183.64 281.169 183.25 281.169 182.83C281.169 181 280.839 179.47 278.649 179.47C277.209 179.47 275.769 179.47 274.329 179.47C273.189 179.47 265.629 179.44 264.969 179.71C264.429 179.92 264.009 180.43 264.009 181.03C264.009 181.75 264.579 182.23 265.269 182.23C266.919 182.23 268.599 182.14 270.279 182.11C272.979 182.08 275.649 182.11 278.349 182.11ZM297.99 178.12C300.69 178.12 303.42 178.09 306.12 178.03C307.77 177.97 309.39 177.94 311.04 177.94C311.79 177.94 312.54 177.28 312.54 176.5C312.54 175.57 311.76 175.3 310.98 175.3C310.14 175.3 309.27 175.3 308.43 175.33C308.43 174.88 308.43 174.4 308.43 173.95L308.34 170.29C308.34 169.63 308.34 168.97 308.34 168.34C308.34 167.8 308.34 167.23 308.25 166.69C308.04 165.04 306.9 164.8 305.46 164.71C304.77 164.65 304.05 164.65 303.36 164.65C300.18 164.65 297.03 164.8 293.85 164.8C293.34 164.8 292.26 164.77 291.81 164.95C291.27 165.16 290.85 165.67 290.85 166.27C290.85 166.99 291.42 167.47 292.11 167.47C295.77 167.47 299.43 167.29 303.09 167.29C303.9 167.29 304.71 167.29 305.52 167.35C305.61 167.89 305.55 168.4 305.55 168.94C305.55 169.48 305.55 170.05 305.55 170.59L305.64 173.68C305.64 174.19 305.64 174.7 305.64 175.21C305.64 175.27 305.64 175.36 305.64 175.42C303.15 175.48 300.72 175.51 298.23 175.51C296.16 175.51 294.09 175.48 292.02 175.42C290.85 175.39 289.68 175.27 288.51 175.27C287.76 175.27 287.01 175.93 287.01 176.71C287.01 177.25 287.28 177.58 287.73 177.79C288.27 178.06 296.67 178.12 297.99 178.12ZM294.24 183.91C294.18 182.47 294.12 181.18 293.97 180.91C293.76 180.49 293.31 180.25 292.83 180.25C292.08 180.25 291.33 180.91 291.33 181.69C291.33 182.29 291.39 182.86 291.42 183.43C291.48 184.6 291.54 185.77 291.6 186.97C291.66 187.81 291.69 188.77 291.96 189.61C292.65 191.59 295.2 191.41 296.91 191.41C299.55 191.41 302.19 191.41 304.8 191.26C305.67 191.23 306.84 191.29 307.68 191.05C308.7 190.78 308.88 189.94 308.88 189.01C308.88 187.21 308.82 185.41 308.79 183.61C308.76 182.86 308.82 182.08 308.73 181.33C308.73 181.21 308.7 181.06 308.64 180.97C308.43 180.49 307.98 180.25 307.47 180.25C306.72 180.25 305.97 180.91 305.97 181.69C305.97 182.32 306 182.92 306 183.55C302.4 183.58 298.77 183.73 295.2 183.88C294.96 183.88 294.6 183.91 294.24 183.91ZM306.09 188.32L306.06 188.59C303 188.83 299.91 188.8 296.85 188.8C296.31 188.8 295.14 188.8 294.66 188.62C294.51 188.5 294.42 187.66 294.36 186.58C298.26 186.25 302.16 186.22 306.06 186.22C306.09 186.94 306.09 187.63 306.09 188.32Z" fill="black"/>
<path d="M182.274 117.92C184.594 117.92 186.954 118.12 189.274 118.32C186.234 125.8 183.434 133.44 179.754 140.68C179.354 141.44 177.834 144 177.834 144.72C177.834 145.6 178.554 146.2 179.394 146.2C180.114 146.2 180.674 145.92 181.114 145.4C181.794 144.56 182.314 143.16 182.834 142.16C186.314 135.32 189.034 128.2 191.874 121.08C192.194 120.32 193.594 117.16 193.594 116.6C193.594 115.96 193.314 115.56 192.794 115.24C192.194 114.92 184.074 114.48 182.834 114.48C181.114 114.48 179.354 114.52 177.634 114.6C176.754 114.64 174.994 114.64 174.194 114.84C173.354 115.04 172.554 115.76 172.554 116.68C172.554 117.56 173.234 118.2 174.114 118.2C175.034 118.2 175.954 118.08 176.834 118.04C178.674 117.92 180.474 117.92 182.274 117.92ZM203.506 114.28C202.506 114.28 201.546 115.04 201.426 116.04C201.266 117.16 201.266 118.32 201.186 119.48C201.026 122 200.906 124.48 200.666 127C200.626 127.6 200.546 128.2 200.466 128.8C200.386 129.2 200.226 129.68 200.226 130.12C200.226 131 200.946 131.6 201.826 131.6C202.746 131.6 204.386 130.64 205.306 130.28C206.786 129.68 208.386 129.28 209.986 129.28C214.106 129.28 217.466 131.04 217.466 135.56C217.466 140.76 214.506 143.08 209.506 143.08C207.026 143.08 204.226 142.36 203.026 140C202.506 139.04 202.506 137.92 201.106 137.92C200.106 137.92 198.986 138.72 198.986 139.8C198.986 140.44 199.506 141.52 199.826 142.04C201.746 145.32 205.346 146.48 208.986 146.48C216.066 146.48 221.146 142.56 221.146 135.16C221.146 128.88 216.386 125.88 210.546 125.88C208.226 125.88 206.466 126.32 204.306 127.12C204.586 124.04 204.746 120.88 204.946 117.76C207.906 117.92 210.866 117.88 213.826 118.04C214.826 118.08 215.786 118.12 216.786 118.24C217.386 118.32 217.986 118.44 218.586 118.44C219.586 118.44 220.666 117.64 220.666 116.56C220.666 115.88 220.346 115.48 219.786 115.16C218.706 114.6 208.866 114.48 206.866 114.4C205.746 114.36 204.626 114.28 203.506 114.28ZM227.498 145.12C227.498 146.08 228.258 146.72 229.178 146.72C229.818 146.72 230.418 146.36 230.818 145.88C231.258 145.36 231.498 144.72 231.818 144.16C232.258 143.4 232.738 142.6 233.218 141.84C237.858 134.16 242.418 126.48 246.538 118.52C246.938 117.76 248.178 115.52 248.178 114.8C248.178 113.84 247.418 113.2 246.498 113.2C245.258 113.2 244.818 114.08 244.338 115.08C243.458 116.84 242.578 118.56 241.658 120.28C238.738 125.8 235.578 131.12 232.378 136.48C230.818 139.08 229.018 141.64 227.698 144.32C227.578 144.56 227.498 144.84 227.498 145.12ZM225.018 121.08C225.018 124.04 227.378 126.52 230.378 126.52C233.578 126.52 235.898 124.16 235.898 120.92C235.898 117.4 233.818 114.76 230.138 114.76C226.498 114.76 225.018 117.88 225.018 121.08ZM230.298 118.28C231.538 118.28 232.138 119.72 232.138 121.24C232.138 122.24 231.498 122.96 230.618 122.96C229.458 122.96 228.778 121.72 228.778 120.64C228.778 119.6 228.898 118.28 230.298 118.28ZM239.978 140C239.978 143 242.338 145.4 245.298 145.4C248.378 145.4 250.978 142.6 250.978 139.56C250.978 136.2 248.978 133.6 245.458 133.6C242.258 133.6 239.978 137.04 239.978 140ZM247.178 139.88C247.178 140.76 246.618 141.88 245.618 141.88C244.338 141.88 243.738 140.76 243.738 139.68C243.738 138.36 244.138 137.08 245.258 137.08C246.938 137.08 247.178 138.56 247.178 139.88Z" fill="black"/>
</svg>
