<svg width="415" height="330" viewBox="0 0 415 330" fill="none" xmlns="http://www.w3.org/2000/svg">
<ellipse rx="42.7687" ry="41.6217" transform="matrix(-0.950078 -0.312013 -0.312013 0.950078 215.14 190.742)" fill="#F2F2F2"/>
<ellipse rx="52.0089" ry="50.614" transform="matrix(-0.950078 -0.312013 -0.312013 0.950078 279.45 182.522)" fill="#F2F2F2"/>
<ellipse rx="51.2494" ry="51.3828" transform="matrix(-0.876416 0.481554 0.505089 0.863067 159.007 193.488)" fill="#F2F2F2"/>
<ellipse rx="52.0089" ry="50.614" transform="matrix(-0.950078 -0.312013 -0.312013 0.950078 218.208 121.527)" fill="#F2F2F2"/>
<ellipse rx="52.0089" ry="50.614" transform="matrix(-0.950078 -0.312013 -0.312013 0.950078 290.204 125.226)" fill="#F2F2F2"/>
<ellipse rx="52.0089" ry="50.614" transform="matrix(-0.950078 -0.312013 -0.312013 0.950078 133.625 135.394)" fill="#F2F2F2"/>
<ellipse rx="52.0089" ry="50.614" transform="matrix(-0.950078 -0.312013 -0.312013 0.950078 67.2318 178.492)" fill="#F2F2F2"/>
<ellipse rx="52.0089" ry="50.614" transform="matrix(-0.950078 -0.312013 -0.312013 0.950078 346.467 154.075)" fill="#F2F2F2"/>
<path d="M174.438 120.76C174.318 125.88 174.278 130.96 174.198 136.08C174.118 139.36 174.038 142.64 174.038 145.92C174.038 146.8 174.718 147.44 175.598 147.44C176.518 147.44 177.278 146.88 177.638 146.04C177.878 145.4 177.958 128.68 177.998 126.48C178.038 124.16 178.078 121.84 178.118 119.52C178.118 118.4 178.198 117.28 178.198 116.16C178.198 115.28 177.518 114.64 176.638 114.64C175.878 114.64 175.198 115.04 174.798 115.68C174.358 116.36 174.438 116.44 173.718 117.12C173.278 117.52 172.798 117.88 172.318 118.24C171.518 118.8 170.358 119.28 170.358 120.44C170.358 121.36 171.038 121.96 171.918 121.96C172.838 121.96 173.718 121.28 174.438 120.76ZM201.55 147.36C211.07 147.36 212.31 137.72 212.31 130.32C212.31 123.4 211.11 114.72 202.31 114.72C193.95 114.72 191.87 123.8 191.87 130.52C191.87 137.2 192.63 147.36 201.55 147.36ZM208.63 130.32C208.63 133.76 208.51 140.72 205.47 142.96C204.43 143.72 203.31 143.96 202.07 143.96C195.63 143.96 195.55 134.6 195.55 130.08C195.55 126.08 196.31 118.12 201.79 118.12C208.11 118.12 208.63 125.64 208.63 130.32ZM228.542 147.36C238.062 147.36 239.302 137.72 239.302 130.32C239.302 123.4 238.102 114.72 229.302 114.72C220.942 114.72 218.862 123.8 218.862 130.52C218.862 137.2 219.622 147.36 228.542 147.36ZM235.622 130.32C235.622 133.76 235.502 140.72 232.462 142.96C231.422 143.72 230.302 143.96 229.062 143.96C222.622 143.96 222.542 134.6 222.542 130.08C222.542 126.08 223.302 118.12 228.782 118.12C235.102 118.12 235.622 125.64 235.622 130.32ZM246.494 146.12C246.494 147.08 247.254 147.72 248.174 147.72C248.814 147.72 249.414 147.36 249.814 146.88C250.254 146.36 250.494 145.72 250.814 145.16C251.254 144.4 251.734 143.6 252.214 142.84C256.854 135.16 261.414 127.48 265.534 119.52C265.934 118.76 267.174 116.52 267.174 115.8C267.174 114.84 266.414 114.2 265.494 114.2C264.254 114.2 263.814 115.08 263.334 116.08C262.454 117.84 261.574 119.56 260.654 121.28C257.734 126.8 254.574 132.12 251.374 137.48C249.814 140.08 248.014 142.64 246.694 145.32C246.574 145.56 246.494 145.84 246.494 146.12ZM244.014 122.08C244.014 125.04 246.374 127.52 249.374 127.52C252.574 127.52 254.894 125.16 254.894 121.92C254.894 118.4 252.814 115.76 249.134 115.76C245.494 115.76 244.014 118.88 244.014 122.08ZM249.294 119.28C250.534 119.28 251.134 120.72 251.134 122.24C251.134 123.24 250.494 123.96 249.614 123.96C248.454 123.96 247.774 122.72 247.774 121.64C247.774 120.6 247.894 119.28 249.294 119.28ZM258.974 141C258.974 144 261.334 146.4 264.294 146.4C267.374 146.4 269.974 143.6 269.974 140.56C269.974 137.2 267.974 134.6 264.454 134.6C261.254 134.6 258.974 138.04 258.974 141ZM266.174 140.88C266.174 141.76 265.614 142.88 264.614 142.88C263.334 142.88 262.734 141.76 262.734 140.68C262.734 139.36 263.134 138.08 264.254 138.08C265.934 138.08 266.174 139.56 266.174 140.88Z" fill="black"/>
<path d="M138.175 169.88C135.415 171.74 132.415 173.18 129.355 174.47C128.425 174.83 127.525 175.22 126.565 175.55C126.085 175.73 125.365 175.91 124.945 176.18C124.555 176.45 124.255 176.87 124.255 177.38C124.255 178.1 124.825 178.58 125.515 178.58C126.415 178.58 132.985 175.61 133.855 175.19C135.625 176 140.605 178.25 141.085 178.4C141.235 178.46 141.385 178.49 141.565 178.49C142.315 178.49 143.065 177.83 143.065 177.05C143.065 176.66 142.915 176.36 142.615 176.12C142.525 176.03 139.315 174.59 137.005 173.57C139.855 172.01 142.255 170.27 142.255 168.89C142.255 167.42 140.605 167.27 139.525 167.27C138.925 167.27 136.975 167.33 134.725 167.39C134.695 167.12 134.665 166.52 134.665 166.25C134.635 165.26 134.665 164.24 133.375 164.24C132.625 164.24 131.875 164.9 131.875 165.68C131.875 166.19 131.875 166.97 131.905 167.48C128.725 167.6 125.725 167.75 125.425 167.87C124.885 168.11 124.465 168.56 124.465 169.19C124.465 169.91 125.035 170.39 125.725 170.39C126.955 170.39 128.215 170.27 129.445 170.21C132.355 170.06 135.265 169.94 138.175 169.88ZM132.895 183.32C132.895 184.43 132.865 191.21 133.135 191.72C133.345 192.17 133.795 192.41 134.305 192.41C135.055 192.41 135.805 191.78 135.805 191.03C135.805 190.58 135.775 190.16 135.745 189.71C135.685 187.82 135.685 185.96 135.685 183.98L135.685 182.99L135.685 182.96C138.745 182.96 141.835 183.02 144.895 183.02C145.645 183.02 146.395 182.36 146.395 181.58C146.395 181.04 146.095 180.68 145.615 180.47C145.255 180.32 139.315 180.32 138.595 180.32C137.575 180.32 136.555 180.32 135.505 180.32L129.295 180.35C128.275 180.35 127.225 180.35 126.175 180.35C124.885 180.35 123.565 180.29 122.275 180.35C122.155 180.38 122.005 180.38 121.855 180.44C121.285 180.65 120.835 181.16 120.835 181.79C120.835 183.14 122.305 182.99 123.205 182.99C126.415 182.99 129.655 182.96 132.895 182.96L132.895 183.32ZM166.879 190.07C166.879 190.13 166.879 190.19 166.879 190.25L166.849 190.61C166.849 190.67 166.849 190.73 166.849 190.79C166.849 191.54 167.359 192.08 168.139 192.08C168.889 192.08 169.639 191.45 169.639 190.67L169.639 183.08C169.639 181.1 169.609 179.09 169.579 177.11C169.729 177.11 169.909 177.08 170.059 177.08L170.959 177.08C171.109 177.08 171.289 177.05 171.439 177.05L172.759 176.99C173.119 176.99 173.509 177.02 173.869 176.93C174.499 176.81 175.069 176.24 175.069 175.55C175.069 174.83 174.499 174.35 173.809 174.35C172.789 174.35 171.799 174.41 170.779 174.44L169.519 174.5C169.459 172.37 169.339 170.24 169.159 168.11C169.129 167.69 169.129 166.79 168.949 166.43C168.739 165.98 168.289 165.74 167.779 165.74C167.029 165.74 166.279 166.37 166.279 167.15C166.279 167.93 166.399 168.68 166.459 169.43C166.579 171.14 166.669 172.85 166.759 174.59C166.939 179.75 166.849 184.91 166.879 190.07ZM149.989 169.64C151.879 169.64 153.769 169.61 155.689 169.52C156.589 169.49 157.519 169.43 158.449 169.43C158.779 169.43 159.139 169.43 159.499 169.43C159.529 169.61 159.559 169.76 159.559 169.91C159.559 170.78 159.349 171.62 159.139 172.43C158.149 176.54 156.229 180.53 153.499 183.74C152.839 184.52 152.119 185.27 151.369 185.9C151.039 186.17 150.649 186.41 150.379 186.71C150.169 186.98 150.019 187.28 150.019 187.64C150.019 188.33 150.589 188.81 151.279 188.81C152.119 188.81 153.049 187.82 153.649 187.28C157.579 183.65 160.129 178.82 161.599 173.72C161.989 172.4 162.319 171.02 162.319 169.64C162.319 168.38 161.809 167.18 160.459 166.88C160.069 166.82 159.649 166.79 159.259 166.79C156.949 166.79 154.639 166.97 152.329 166.97C151.759 166.97 150.139 166.94 149.689 167.12C149.149 167.33 148.729 167.84 148.729 168.44C148.729 169.16 149.299 169.64 149.989 169.64ZM204.813 186.35L204.723 189.35C204.723 189.86 204.723 190.34 204.723 190.85C204.723 191.57 205.293 192.05 205.983 192.05C206.703 192.05 207.303 191.54 207.483 190.82C207.543 190.55 207.513 190.19 207.513 189.89C207.513 188.15 207.603 186.38 207.603 184.61C207.603 179.57 207.483 174.5 207.333 169.46C207.333 168.92 207.303 166.7 207.183 166.37C207.003 165.86 206.523 165.56 205.983 165.56C205.233 165.56 204.483 166.22 204.483 167C204.483 168.98 204.603 170.96 204.663 172.94C204.813 177.41 204.813 181.88 204.813 186.35ZM186.303 169.67C188.223 169.67 190.173 169.64 192.093 169.55C192.963 169.52 193.833 169.46 194.703 169.46L195.243 169.46C195.423 169.46 195.603 169.46 195.783 169.49C195.813 169.64 195.843 169.79 195.843 169.97C195.843 171.08 195.543 172.19 195.243 173.27C194.163 177.11 192.453 180.71 189.843 183.77C189.183 184.52 188.463 185.27 187.713 185.93C187.383 186.2 186.993 186.41 186.723 186.74C186.513 186.98 186.363 187.31 186.363 187.64C186.363 188.36 186.933 188.84 187.623 188.84C188.463 188.84 189.393 187.82 189.993 187.28C193.893 183.68 196.503 178.88 197.913 173.81C198.303 172.46 198.633 171.08 198.633 169.67C198.633 169.19 198.513 168.71 198.333 168.26C197.763 166.82 196.293 166.82 194.973 166.82C193.563 166.82 192.153 166.94 190.773 167C190.083 167 189.423 167 188.733 167C188.163 167 186.483 166.97 186.003 167.15C185.463 167.36 185.043 167.87 185.043 168.47C185.043 169.19 185.613 169.67 186.303 169.67ZM216.593 166.55C216.593 167.87 216.533 173.03 216.863 173.99C217.463 175.67 220.103 175.7 221.573 175.7L231.383 175.73C231.833 175.73 232.733 175.73 233.123 175.61C233.693 175.4 234.143 174.89 234.143 174.26C234.143 172.97 232.793 173.03 231.893 173.03C228.533 173.03 225.203 173.09 221.873 173.09C221.153 173.09 220.193 173.09 219.503 172.85C219.413 171.74 219.473 166.28 219.263 165.83C219.023 165.35 218.603 165.11 218.093 165.11C217.343 165.11 216.593 165.77 216.593 166.55ZM212.033 179.27C212.033 180.71 213.803 180.47 214.763 180.47C216.143 180.47 217.553 180.47 218.933 180.47L227.213 180.44L232.613 180.44L235.073 180.5C235.493 180.5 235.883 180.5 236.303 180.5C237.053 180.5 237.803 179.84 237.803 179.06C237.803 178.58 237.563 178.22 237.113 177.98C236.723 177.77 233.033 177.8 232.403 177.8C230.873 177.8 229.373 177.8 227.843 177.8L218.693 177.83C217.163 177.83 215.663 177.83 214.133 177.83C213.773 177.83 213.383 177.8 213.053 177.92C212.483 178.13 212.033 178.64 212.033 179.27ZM216.353 187.73C216.353 191.99 221.573 192.95 224.873 192.95C226.343 192.95 227.813 192.74 229.253 192.35C231.353 191.84 233.273 191.09 234.173 188.99C234.473 188.3 234.653 187.58 234.653 186.83C234.653 186.11 234.353 185.45 233.933 184.88C232.313 182.63 228.773 182.33 226.253 182.33C223.073 182.33 219.413 182.57 217.313 185.27C216.743 185.99 216.353 186.83 216.353 187.73ZM225.983 184.94C227.603 184.94 230.363 185.06 231.503 186.38C231.683 186.59 231.863 186.86 231.863 187.13C231.863 187.7 231.623 188.45 231.203 188.87C230.933 189.08 230.543 189.26 230.213 189.38C228.623 190.01 226.823 190.31 225.143 190.31C223.373 190.31 219.113 189.92 219.113 187.52C219.113 187.1 219.413 186.74 219.653 186.47C221.153 184.94 223.973 184.94 225.983 184.94ZM263.08 168.17C264.1 168.17 265.27 168.11 266.26 168.35C266.29 168.5 266.29 168.65 266.29 168.8C266.29 169.25 266.26 169.7 266.23 170.15L266.14 171.5C266.05 172.91 265.99 174.32 265.81 175.73L265.39 179C264.37 179 263.38 179 262.36 179L256.15 179.03C255.13 179.03 254.08 179.03 253.03 179.03C251.74 179.03 250.45 178.94 249.16 179.03C249.01 179.03 248.86 179.06 248.74 179.12C248.17 179.33 247.69 179.84 247.69 180.47C247.69 181.82 249.16 181.67 250.06 181.67C250.93 181.67 251.77 181.67 252.64 181.67L257.86 181.64C258.34 181.64 258.79 181.64 259.27 181.64L259.27 185.9C259.27 186.98 259.27 188.09 259.3 189.17C259.3 189.77 259.27 190.97 259.39 191.48C259.51 192.05 260.05 192.41 260.62 192.41C261.37 192.41 262.12 191.75 262.12 190.97C262.12 190.1 262.06 189.23 262.06 188.39C262.03 185.96 262.06 184.01 262.06 181.67C262.45 181.64 262.87 181.64 263.26 181.64L268.93 181.67C269.86 181.67 270.82 181.67 271.75 181.67C272.53 181.67 273.25 181.04 273.25 180.26C273.25 179.72 272.95 179.33 272.47 179.15C272.26 179.06 270.07 179 268.18 179C268.6 176.45 269.08 169.73 269.08 168.53C269.08 165.53 266.83 165.62 264.52 165.59C263.23 165.56 261.97 165.56 260.68 165.56C259.39 165.56 253.21 165.74 252.46 166.13C251.98 166.37 251.59 166.85 251.59 167.39C251.59 168.11 252.16 168.59 252.85 168.59C253.69 168.59 254.5 168.44 255.34 168.38C257.92 168.17 260.5 168.17 263.08 168.17ZM282.424 165.17L282.424 167.21C281.914 167.24 281.374 167.27 280.864 167.3C279.814 167.36 278.704 167.33 277.654 167.48C277.504 167.48 277.384 167.54 277.234 167.6C276.724 167.81 276.334 168.32 276.334 168.89C276.334 169.61 276.904 170.09 277.594 170.09C278.254 170.09 278.914 170.03 279.574 169.97C281.434 169.88 283.264 169.76 285.094 169.7C286.744 169.64 288.424 169.7 290.074 169.7C290.824 169.7 291.574 169.04 291.574 168.26C291.574 167.15 290.614 167.06 289.744 167.06C288.904 167.06 288.064 167.03 287.194 167.03C286.534 167.03 285.844 167.03 285.184 167.06L285.184 164.93C285.184 164.21 284.614 163.73 283.924 163.73C283.174 163.73 282.424 164.39 282.424 165.17ZM295.624 182.45C295.624 183.17 296.194 183.65 296.884 183.65C297.874 183.65 298.414 182.84 298.414 181.94C298.414 180.62 298.384 179.3 298.354 178.01L298.264 174.11C298.234 172.91 298.264 166.58 298.024 166.01C297.814 165.53 297.364 165.26 296.824 165.26C296.074 165.26 295.324 165.92 295.324 166.7C295.324 167.6 295.384 168.5 295.414 169.4C295.444 169.82 295.444 170.24 295.444 170.66L295.444 170.99C294.844 171.02 294.244 171.05 293.644 171.08L292.174 171.17C291.814 171.2 291.424 171.17 291.064 171.23C290.434 171.38 289.864 171.95 289.864 172.64C289.864 173.36 290.434 173.84 291.124 173.84C292.144 173.84 293.134 173.72 294.154 173.69L295.474 173.6C295.474 173.66 295.474 173.75 295.474 173.81L295.504 174.23C295.504 174.29 295.504 174.38 295.504 174.44C295.504 174.68 295.534 174.92 295.534 175.19L295.564 175.76C294.934 175.79 294.274 175.82 293.644 175.85L292.174 175.91C291.814 175.94 291.424 175.91 291.064 175.97C290.434 176.12 289.864 176.69 289.864 177.38C289.864 178.1 290.434 178.58 291.124 178.58C292.174 178.58 293.254 178.52 294.304 178.46L295.624 178.4C295.624 179.75 295.624 181.1 295.624 182.45ZM278.344 175.79C278.344 177.98 279.724 179.9 281.854 180.53C282.484 180.71 283.174 180.74 283.834 180.74C286.534 180.74 289.534 178.76 289.534 175.85C289.534 173 286.984 170.66 284.194 170.66C281.254 170.66 278.344 172.64 278.344 175.79ZM283.954 173.3C285.364 173.3 286.774 174.65 286.774 176.09C286.774 177.44 285.214 178.13 284.044 178.13C283.684 178.13 283.294 178.13 282.904 178.01C281.824 177.71 281.134 176.66 281.134 175.55C281.134 173.99 282.574 173.3 283.954 173.3ZM283.114 192.32C283.804 192.32 284.524 192.29 285.214 192.26C286.114 192.23 287.014 192.23 287.914 192.23C288.724 192.23 289.534 192.23 290.314 192.23L295.084 192.32C295.894 192.32 296.674 192.32 297.454 192.32C298.204 192.32 298.954 191.66 298.954 190.88C298.954 189.53 297.424 189.65 296.494 189.65C296.374 189.65 296.254 189.65 296.104 189.65L295.294 189.68C295.174 189.68 295.024 189.68 294.874 189.68C292.864 189.68 290.854 189.62 288.814 189.62C287.704 189.62 286.564 189.62 285.454 189.65C285.274 189.65 285.124 189.65 284.944 189.65L283.924 189.71C283.744 189.71 283.594 189.71 283.414 189.71C283.294 189.71 283.114 189.71 282.994 189.65C282.544 189.38 282.364 185.54 282.364 184.85C282.304 183.8 282.544 182.15 281.014 182.15C280.264 182.15 279.514 182.81 279.514 183.59C279.514 184.76 279.604 185.9 279.694 187.07C279.844 189.47 279.994 192.32 283.114 192.32Z" fill="black"/>
</svg>
