<svg width="415" height="272" viewBox="0 0 415 272" fill="none" xmlns="http://www.w3.org/2000/svg">
<ellipse rx="42.7687" ry="41.6217" transform="matrix(-0.950078 -0.312013 -0.312013 0.950078 215.14 190.742)" fill="#F2F2F2"/>
<ellipse rx="52.0089" ry="50.614" transform="matrix(-0.950078 -0.312013 -0.312013 0.950078 279.45 182.522)" fill="#F2F2F2"/>
<ellipse rx="51.2494" ry="51.3828" transform="matrix(-0.876416 0.481554 0.505089 0.863067 159.007 193.488)" fill="#F2F2F2"/>
<ellipse rx="52.0089" ry="50.614" transform="matrix(-0.950078 -0.312013 -0.312013 0.950078 218.208 121.527)" fill="#F2F2F2"/>
<ellipse rx="52.0089" ry="50.614" transform="matrix(-0.950078 -0.312013 -0.312013 0.950078 290.204 125.227)" fill="#F2F2F2"/>
<ellipse rx="52.0089" ry="50.614" transform="matrix(-0.950078 -0.312013 -0.312013 0.950078 133.625 135.394)" fill="#F2F2F2"/>
<ellipse rx="52.0089" ry="50.614" transform="matrix(-0.950078 -0.312013 -0.312013 0.950078 67.2318 178.492)" fill="#F2F2F2"/>
<ellipse rx="52.0089" ry="50.614" transform="matrix(-0.950078 -0.312013 -0.312013 0.950078 346.467 154.076)" fill="#F2F2F2"/>
<path d="M182.994 115.32C185.714 115.32 188.634 116.6 188.634 119.72C188.634 122.12 185.754 124.12 183.994 125.36C181.194 127.4 176.634 130.4 175.074 133.48C173.954 135.72 173.674 138.4 173.674 140.84C173.674 142.08 173.634 143.76 175.314 143.76L192.114 143.76C193.154 143.76 194.234 142.92 194.234 141.84C194.234 140.08 192.234 140.28 191.074 140.28C189.914 140.28 188.794 140.32 187.674 140.32L177.354 140.32C177.354 138.6 177.514 136.2 178.354 134.64C179.114 133.2 180.834 131.8 182.154 130.8C183.274 129.92 184.434 129.08 185.634 128.24C186.754 127.44 187.914 126.64 188.954 125.68C190.634 124.12 192.314 121.72 192.314 119.32C192.314 114.36 188.034 111.88 183.514 111.88C178.234 111.88 174.154 115.16 174.154 120.6C174.154 121.52 174.874 122.12 175.714 122.12C176.674 122.12 177.594 121.48 177.794 120.52C177.914 120.04 177.834 119.52 177.954 119C178.394 116.32 180.474 115.32 182.994 115.32ZM203.506 112.28C202.506 112.28 201.546 113.04 201.426 114.04C201.266 115.16 201.266 116.32 201.186 117.48C201.026 120 200.906 122.48 200.666 125C200.626 125.6 200.546 126.2 200.466 126.8C200.386 127.2 200.226 127.68 200.226 128.12C200.226 129 200.946 129.6 201.826 129.6C202.746 129.6 204.386 128.64 205.306 128.28C206.786 127.68 208.386 127.28 209.986 127.28C214.106 127.28 217.466 129.04 217.466 133.56C217.466 138.76 214.506 141.08 209.506 141.08C207.026 141.08 204.226 140.36 203.026 138C202.506 137.04 202.506 135.92 201.106 135.92C200.106 135.92 198.986 136.72 198.986 137.8C198.986 138.44 199.506 139.52 199.826 140.04C201.746 143.32 205.346 144.48 208.986 144.48C216.066 144.48 221.146 140.56 221.146 133.16C221.146 126.88 216.386 123.88 210.546 123.88C208.226 123.88 206.466 124.32 204.306 125.12C204.586 122.04 204.746 118.88 204.946 115.76C207.906 115.92 210.866 115.88 213.826 116.04C214.826 116.08 215.786 116.12 216.786 116.24C217.386 116.32 217.986 116.44 218.586 116.44C219.586 116.44 220.666 115.64 220.666 114.56C220.666 113.88 220.346 113.48 219.786 113.16C218.706 112.6 208.866 112.48 206.866 112.4C205.746 112.36 204.626 112.28 203.506 112.28ZM227.498 143.12C227.498 144.08 228.258 144.72 229.178 144.72C229.818 144.72 230.418 144.36 230.818 143.88C231.258 143.36 231.498 142.72 231.818 142.16C232.258 141.4 232.738 140.6 233.218 139.84C237.858 132.16 242.418 124.48 246.538 116.52C246.938 115.76 248.178 113.52 248.178 112.8C248.178 111.84 247.418 111.2 246.498 111.2C245.258 111.2 244.818 112.08 244.338 113.08C243.458 114.84 242.578 116.56 241.658 118.28C238.738 123.8 235.578 129.12 232.378 134.48C230.818 137.08 229.018 139.64 227.698 142.32C227.578 142.56 227.498 142.84 227.498 143.12ZM225.018 119.08C225.018 122.04 227.378 124.52 230.378 124.52C233.578 124.52 235.898 122.16 235.898 118.92C235.898 115.4 233.818 112.76 230.138 112.76C226.498 112.76 225.018 115.88 225.018 119.08ZM230.298 116.28C231.538 116.28 232.138 117.72 232.138 119.24C232.138 120.24 231.498 120.96 230.618 120.96C229.458 120.96 228.778 119.72 228.778 118.64C228.778 117.6 228.898 116.28 230.298 116.28ZM239.978 138C239.978 141 242.338 143.4 245.298 143.4C248.378 143.4 250.978 140.6 250.978 137.56C250.978 134.2 248.978 131.6 245.458 131.6C242.258 131.6 239.978 135.04 239.978 138ZM247.178 137.88C247.178 138.76 246.618 139.88 245.618 139.88C244.338 139.88 243.738 138.76 243.738 137.68C243.738 136.36 244.138 135.08 245.258 135.08C246.938 135.08 247.178 136.56 247.178 137.88Z" fill="black"/>
<path d="M89.6822 165.46C88.9322 165.46 88.2122 166.03 88.1222 166.78C88.0022 167.62 88.0022 168.49 87.9422 169.36C87.8222 171.25 87.7322 173.11 87.5522 175C87.5222 175.45 87.4622 175.9 87.4022 176.35C87.3422 176.65 87.2222 177.01 87.2222 177.34C87.2222 178 87.7622 178.45 88.4222 178.45C89.1122 178.45 90.3422 177.73 91.0322 177.46C92.1422 177.01 93.3422 176.71 94.5422 176.71C97.6322 176.71 100.152 178.03 100.152 181.42C100.152 185.32 97.9322 187.06 94.1822 187.06C92.3222 187.06 90.2222 186.52 89.3222 184.75C88.9322 184.03 88.9322 183.19 87.8822 183.19C87.1322 183.19 86.2922 183.79 86.2922 184.6C86.2922 185.08 86.6822 185.89 86.9222 186.28C88.3622 188.74 91.0622 189.61 93.7922 189.61C99.1022 189.61 102.912 186.67 102.912 181.12C102.912 176.41 99.3422 174.16 94.9622 174.16C93.2222 174.16 91.9022 174.49 90.2822 175.09C90.4922 172.78 90.6122 170.41 90.7622 168.07C92.9822 168.19 95.2022 168.16 97.4222 168.28C98.1722 168.31 98.8922 168.34 99.6422 168.43C100.092 168.49 100.542 168.58 100.992 168.58C101.742 168.58 102.552 167.98 102.552 167.17C102.552 166.66 102.312 166.36 101.892 166.12C101.082 165.7 93.7022 165.61 92.2022 165.55C91.3622 165.52 90.5222 165.46 89.6822 165.46ZM114.456 189.52C121.596 189.52 122.526 182.29 122.526 176.74C122.526 171.55 121.626 165.04 115.026 165.04C108.756 165.04 107.196 171.85 107.196 176.89C107.196 181.9 107.766 189.52 114.456 189.52ZM119.766 176.74C119.766 179.32 119.676 184.54 117.396 186.22C116.616 186.79 115.776 186.97 114.846 186.97C110.016 186.97 109.956 179.95 109.956 176.56C109.956 173.56 110.526 167.59 114.636 167.59C119.376 167.59 119.766 173.23 119.766 176.74ZM147.51 180.16C148.53 180.16 149.04 179.32 149.04 178.39C149.04 176.71 148.95 175.03 148.89 173.32C148.86 172.18 148.89 165.94 148.65 165.37C148.44 164.89 147.99 164.62 147.45 164.62C146.7 164.62 145.95 165.28 145.95 166.06C145.95 166.45 145.95 166.87 145.98 167.26C145.74 167.26 145.47 167.29 145.23 167.29L143.7 167.35C143.46 167.35 143.22 167.38 142.95 167.38C142.74 167.38 142.5 167.41 142.23 167.41L140.52 167.41C140.25 167.41 140.01 167.44 139.8 167.44C139.74 167.08 139.65 166.81 139.56 166.6C139.32 166.12 138.96 165.7 138.48 165.46C137.67 165.04 136.5 165.13 135.6 165.13C133.68 165.13 131.79 165.01 129.87 165.01C128.16 165.01 127.23 165.97 127.23 167.68C127.23 168.46 127.32 169.21 127.35 169.96C127.5 172.3 127.62 174.64 127.86 176.98C128.01 178.57 128.58 178.48 129.99 178.54C131.46 178.6 132.93 178.63 134.4 178.63C137.79 178.63 139.65 178.57 140.07 175.6C141.24 175.57 143.01 175.51 144.18 175.45C144.84 175.45 145.5 175.48 146.16 175.45C146.19 176.62 146.25 177.79 146.25 178.96C146.25 179.68 146.82 180.16 147.51 180.16ZM136.98 167.8C137.07 168.52 137.22 169.24 137.28 169.96C137.37 171.13 137.37 172.3 137.37 173.47C137.37 174.19 137.46 175.18 137.25 175.9C136.71 176.05 136.05 176.02 135.45 176.02C133.83 176.02 132.21 175.99 130.56 175.93C130.35 173.17 130.14 170.41 130.02 167.65C131.97 167.68 133.89 167.74 135.84 167.74C136.23 167.74 136.59 167.74 136.98 167.8ZM140.16 172.93C140.16 172.15 140.13 171.1 140.07 170.11L143.67 169.99C144.45 169.96 145.26 169.96 146.07 169.96L146.1 172.45C146.1 172.57 146.1 172.66 146.1 172.78C145.86 172.78 145.59 172.81 145.35 172.81L143.82 172.87C143.58 172.87 143.34 172.9 143.07 172.9C142.29 172.9 140.94 172.9 140.16 172.93ZM130.56 186.37C130.56 190.93 135.9 191.95 139.47 191.95C141.84 191.95 145.98 191.23 147.81 189.64C148.41 189.07 148.89 188.38 149.22 187.63C149.52 186.97 149.7 186.28 149.7 185.56C149.7 183.25 147.69 181.69 145.62 181.09C144.27 180.67 142.77 180.55 141.33 180.55C137.91 180.55 133.92 180.73 131.61 183.67C131.01 184.42 130.56 185.38 130.56 186.37ZM141.06 183.16C142.71 183.16 145.11 183.37 146.34 184.6C146.7 184.96 146.91 185.26 146.91 185.8C146.91 186.46 146.55 187.33 146.04 187.78C144.87 188.8 141.3 189.31 139.74 189.31C137.73 189.31 133.35 188.92 133.35 186.13C133.35 185.65 133.65 185.23 133.98 184.87C135.6 183.13 138.84 183.16 141.06 183.16ZM184.424 181.78C184.454 181.66 184.514 181.51 184.514 181.39C184.694 179.8 184.634 178.15 184.694 176.56C184.724 174.76 184.814 172.93 184.814 171.1C184.814 170.02 184.754 168.91 184.724 167.83C184.694 167.29 184.724 165.79 184.634 165.28C184.484 164.68 183.974 164.32 183.374 164.32C182.624 164.32 181.874 164.98 181.874 165.76C181.874 167.08 181.964 168.43 182.024 169.75L176.744 169.78C176.384 169.78 175.994 169.75 175.634 169.78C174.884 169.84 174.194 170.44 174.194 171.22C174.194 171.94 174.764 172.42 175.454 172.42L182.024 172.42C182.024 173.26 181.994 174.07 181.964 174.88C181.904 176.44 181.874 178.03 181.844 179.59C181.814 180.22 181.754 180.88 181.754 181.51C181.754 182.23 182.324 182.71 183.014 182.71C183.614 182.71 184.184 182.32 184.424 181.78ZM162.944 178.09C162.944 178.81 163.514 179.29 164.204 179.29C164.564 179.29 164.894 179.14 165.164 178.93C165.554 178.63 167.804 175.96 169.304 174.1C170.864 175.75 172.094 176.74 174.194 177.85C174.614 178.09 175.064 178.39 175.574 178.39C176.324 178.39 177.074 177.73 177.074 176.95C177.074 175.99 176.114 175.75 175.424 175.39C174.044 174.67 172.814 173.71 171.734 172.57C171.554 172.36 171.254 172 170.954 171.67C171.554 170.14 171.824 168.43 172.124 166.84C172.184 166.48 172.304 166.12 172.304 165.76C172.304 165.04 171.734 164.56 171.044 164.56C170.444 164.56 169.844 164.98 169.634 165.55C169.514 165.85 169.484 166.21 169.424 166.54C169.154 167.89 168.764 170.23 168.164 171.4C167.894 171.91 167.414 172.36 167.054 172.81C166.154 173.83 165.284 174.88 164.414 175.9C163.964 176.41 163.454 176.86 163.124 177.43C163.004 177.64 162.944 177.85 162.944 178.09ZM169.334 191.32C170.024 191.32 170.744 191.29 171.434 191.26C172.334 191.23 173.234 191.23 174.134 191.23C174.944 191.23 175.754 191.23 176.534 191.23L181.304 191.32C182.114 191.32 182.894 191.32 183.674 191.32C184.424 191.32 185.174 190.66 185.174 189.88C185.174 188.53 183.644 188.65 182.714 188.65C182.594 188.65 182.474 188.65 182.324 188.65L181.514 188.68C181.394 188.68 181.244 188.68 181.094 188.68C179.084 188.68 177.074 188.62 175.034 188.62C173.924 188.62 172.784 188.62 171.674 188.65C171.494 188.65 171.344 188.65 171.164 188.65L170.144 188.71C169.964 188.71 169.814 188.71 169.634 188.71C169.514 188.71 169.304 188.71 169.184 188.62C168.764 188.32 168.584 184.72 168.584 184.03C168.524 182.98 168.734 181.39 167.234 181.39C166.484 181.39 165.734 182.05 165.734 182.83C165.734 183.97 165.824 185.08 165.914 186.22C166.064 188.59 166.244 191.32 169.334 191.32ZM199.535 169.3C197.615 171.7 195.125 173.65 192.695 175.57C192.215 175.93 191.705 176.32 191.165 176.68C190.895 176.86 190.565 177.04 190.295 177.28C190.055 177.55 189.905 177.88 189.905 178.24C189.905 178.96 190.475 179.44 191.165 179.44C191.375 179.44 191.615 179.38 191.795 179.29C192.425 179.02 192.965 178.51 193.505 178.12C194.525 177.37 195.515 176.56 196.505 175.75C198.095 176.74 201.575 178.75 201.995 178.93C202.175 178.99 202.355 179.05 202.565 179.05C203.315 179.05 204.065 178.39 204.065 177.61C204.065 177.25 203.945 177.01 203.705 176.77C203.705 176.74 200.555 174.88 198.725 173.8C199.835 172.87 200.885 171.79 201.755 170.65C202.205 170.05 202.685 169.21 202.685 168.43C202.685 166.99 201.305 166.66 200.105 166.66C199.115 166.66 198.155 166.72 197.165 166.81C197.195 166.6 197.195 166.39 197.225 166.21C197.315 165.52 197.495 164.83 197.495 164.14C197.495 163.42 196.925 162.94 196.235 162.94C194.615 162.94 194.675 164.74 194.525 165.91C194.465 166.3 194.405 166.66 194.345 167.05L192.065 167.26C191.675 167.29 191.285 167.29 190.895 167.35C190.775 167.38 190.625 167.41 190.505 167.47C189.995 167.74 189.635 168.19 189.635 168.76C189.635 169.48 190.205 169.96 190.895 169.96C191.795 169.96 192.665 169.81 193.565 169.72C195.545 169.54 197.555 169.36 199.535 169.3ZM209.735 179.56C210.485 179.56 211.235 178.9 211.235 178.12C211.235 177.55 211.175 176.98 211.145 176.41C211.115 175.9 211.085 174.58 211.025 172.99L212.045 172.96C212.285 172.96 212.525 172.96 212.765 172.96L214.205 172.99C214.445 172.99 214.685 172.99 214.925 172.99C215.675 172.99 216.425 172.33 216.425 171.55C216.425 170.95 216.005 170.47 215.405 170.38C215.135 170.32 214.835 170.35 214.565 170.35L212.645 170.35L211.205 170.32C211.115 170.32 211.025 170.32 210.935 170.32C210.815 167.71 210.695 165.25 210.545 164.95C210.305 164.47 209.885 164.23 209.375 164.23C208.625 164.23 207.875 164.89 207.875 165.67C207.875 166.18 207.935 166.69 207.965 167.2C208.025 168.1 208.085 169.03 208.115 169.93C208.175 171.13 208.325 178.36 208.535 178.81C208.775 179.29 209.195 179.56 209.735 179.56ZM193.595 184.15C196.865 184.15 200.165 183.97 203.435 183.82C204.635 183.76 205.835 183.64 207.065 183.64C207.305 183.64 208.085 183.67 208.205 183.97C208.235 184.06 208.235 184.27 208.235 184.36C208.235 185.26 208.145 186.13 208.115 187C208.115 187.18 208.115 187.36 208.115 187.51L208.085 188.5C208.085 188.68 208.085 188.83 208.085 188.98C208.055 189.49 207.995 189.97 207.995 190.48C207.995 191.2 208.565 191.68 209.255 191.68C209.525 191.68 209.795 191.59 210.035 191.44C210.845 190.96 210.815 190.09 210.845 189.25C210.875 188.62 210.875 187.96 210.875 187.3C210.905 186.31 210.995 185.32 210.995 184.33C210.995 183.91 210.995 183.46 210.875 183.04C210.455 181.51 208.775 181 207.335 181C206.195 181 205.025 181.12 203.885 181.18C201.335 181.3 198.815 181.42 196.265 181.48C195.665 181.51 193.835 181.45 193.355 181.6C192.785 181.81 192.335 182.35 192.335 182.95C192.335 183.67 192.905 184.15 193.595 184.15ZM220.975 174.34C220.975 175.06 221.545 175.54 222.235 175.54C222.955 175.54 223.735 174.79 224.275 174.37C225.985 172.96 227.515 171.4 228.655 169.54C231.205 170.77 236.575 173.32 237.055 173.47C237.235 173.53 237.415 173.59 237.595 173.59C238.345 173.59 239.095 172.93 239.095 172.15C239.095 171.79 238.945 171.46 238.645 171.22C238.375 171.01 238.015 170.89 237.685 170.77C237.025 170.47 236.365 170.14 235.705 169.81C234.115 169.06 232.525 168.31 230.935 167.56C230.575 167.38 230.215 167.2 229.855 167.02C229.885 166.9 229.945 166.78 229.975 166.66C230.095 166.27 230.335 165.46 230.335 165.07C230.335 164.35 229.765 163.87 229.075 163.87C227.605 163.87 227.605 165.34 227.245 166.39C227.005 167.14 226.615 167.83 226.195 168.49C225.205 170.14 223.645 171.7 222.115 172.81C221.575 173.23 220.975 173.56 220.975 174.34ZM229.885 184.72C229.885 185.5 230.455 186.01 231.145 186.01C231.835 186.01 232.525 185.44 232.645 184.69C232.675 184.51 232.675 184.33 232.675 184.15L232.675 183.61C232.705 182.41 232.705 181.24 232.705 180.13C232.825 180.13 232.975 180.13 233.095 180.13L238.765 180.19C239.695 180.19 240.655 180.19 241.585 180.19C242.365 180.19 243.085 179.53 243.085 178.75C243.085 178.21 242.785 177.85 242.305 177.64C241.945 177.49 236.035 177.49 235.285 177.49C234.265 177.49 233.245 177.49 232.195 177.49L225.985 177.52C224.965 177.52 223.915 177.52 222.865 177.52C221.575 177.52 220.255 177.43 218.965 177.52C218.815 177.52 218.665 177.55 218.545 177.61C217.975 177.82 217.525 178.33 217.525 178.96C217.525 180.31 218.995 180.16 219.895 180.16C220.765 180.16 221.605 180.16 222.475 180.16L227.695 180.13C228.445 180.13 229.165 180.13 229.915 180.13C229.885 181.6 229.885 183.16 229.885 184.72ZM221.995 186.88C221.995 187.51 221.995 188.14 222.145 188.77C222.625 190.69 224.335 191.32 226.255 191.32C230.185 191.32 234.145 191.17 238.075 191.17C238.435 191.17 238.795 191.17 239.125 191.05C239.665 190.84 240.085 190.33 240.085 189.73C240.085 189.01 239.515 188.53 238.825 188.53C234.715 188.53 230.605 188.71 226.495 188.71C226.165 188.71 225.745 188.71 225.445 188.59C225.205 188.47 224.995 188.29 224.905 188.05C224.665 187.48 224.785 185.08 224.785 184.24C224.785 183.28 224.695 182.35 223.495 182.35C222.565 182.35 221.965 183.1 221.965 183.97L221.995 186.88ZM254.232 175.81C254.232 180.64 256.452 186.73 262.182 186.73C267.192 186.73 269.592 180.7 269.592 176.47C269.592 171.55 267.882 165.19 261.852 165.19C259.182 165.19 257.022 167.11 255.822 169.36C254.892 171.1 254.232 173.83 254.232 175.81ZM261.612 167.8C265.872 167.8 266.832 173.44 266.832 176.71C266.832 177.73 266.682 178.75 266.412 179.74C265.992 181.18 264.882 183.43 263.382 183.97C263.082 184.09 262.782 184.09 262.452 184.09C259.122 184.09 257.562 180.46 257.142 177.67C257.052 176.98 257.022 176.29 257.022 175.6C257.022 173.29 257.832 170.23 259.602 168.67C260.232 168.13 260.742 167.8 261.612 167.8ZM276.582 183.61C276.582 178.54 276.462 173.5 276.312 168.46C276.312 167.95 276.282 165.7 276.162 165.37C275.982 164.86 275.502 164.59 274.962 164.59C274.212 164.59 273.462 165.22 273.462 166C273.462 167.98 273.582 169.96 273.642 171.94C273.792 176.41 273.792 180.88 273.792 185.35L273.702 188.35C273.702 188.86 273.702 189.34 273.702 189.85C273.702 190.57 274.272 191.02 274.962 191.02C275.682 191.02 276.282 190.51 276.462 189.82C276.522 189.52 276.492 189.19 276.492 188.89C276.492 187.12 276.582 185.35 276.582 183.61ZM294.393 176.23C294.393 175.78 294.333 174.31 294.213 172.6C294.393 172.6 294.543 172.57 294.723 172.57L295.803 172.51C295.983 172.51 296.133 172.48 296.313 172.48L297.393 172.42C297.483 176.65 297.633 181.3 297.693 181.45C297.903 181.96 298.323 182.26 298.893 182.26C299.643 182.26 300.393 181.6 300.393 180.82C300.393 179.17 300.063 165.22 299.943 164.95C299.733 164.44 299.313 164.14 298.743 164.14C297.993 164.14 297.243 164.8 297.243 165.58C297.243 166.09 297.273 167.71 297.333 169.75C296.793 169.84 296.253 169.84 295.743 169.87L294.483 169.93C294.453 169.93 294.393 169.93 294.363 169.93L294.123 169.96C294.093 169.96 294.033 169.96 294.003 169.96C293.823 167.68 293.643 165.58 293.493 165.34C293.253 164.92 292.863 164.68 292.353 164.68C291.603 164.68 290.853 165.34 290.853 166.12C290.853 166.48 290.913 166.81 290.943 167.17C291.003 167.74 291.063 168.28 291.093 168.85C291.093 168.91 291.123 169 291.123 169.06L291.123 169.45C291.123 169.51 291.153 169.6 291.153 169.66C291.123 169.66 291.123 169.66 291.093 169.66C290.253 169.78 289.383 169.84 288.513 169.87C287.253 169.96 286.233 169.96 284.943 169.96C284.883 168.13 284.793 165.64 284.673 165.4C284.433 164.92 284.043 164.68 283.503 164.68C282.753 164.68 282.003 165.34 282.003 166.12C282.003 167.02 282.063 167.89 282.093 168.76C282.183 170.53 282.393 177.7 283.503 178.66C283.953 179.08 284.853 179.08 285.423 179.08C286.863 179.08 288.003 179.05 289.443 178.87C290.553 178.72 293.133 178.21 293.913 177.46C294.273 177.1 294.393 176.71 294.393 176.23ZM302.343 174.67C302.343 175.96 302.343 177.25 302.313 178.54C302.283 179.53 302.193 180.52 302.193 181.51C302.193 182.23 302.763 182.71 303.453 182.71C304.053 182.71 304.593 182.32 304.863 181.78C305.133 181.15 305.133 174.94 305.133 173.89C305.133 172.39 305.163 165.4 304.833 164.8C304.593 164.38 304.203 164.14 303.693 164.14C302.943 164.14 302.193 164.8 302.193 165.58C302.193 166.18 302.253 166.75 302.283 167.35C302.343 169.81 302.343 172.24 302.343 174.67ZM285.633 176.47C285.273 175.21 285.153 173.89 285.063 172.6C286.893 172.57 289.563 172.48 291.363 172.27C291.453 173.44 291.543 174.61 291.603 175.78C289.713 176.32 288.033 176.47 286.053 176.47C285.903 176.47 285.783 176.47 285.633 176.47ZM289.563 191.32C290.253 191.32 290.973 191.29 291.663 191.26C292.563 191.23 293.463 191.23 294.363 191.23C295.173 191.23 295.983 191.23 296.763 191.23L301.533 191.32C302.343 191.32 303.123 191.32 303.903 191.32C304.653 191.32 305.403 190.66 305.403 189.88C305.403 188.53 303.873 188.65 302.943 188.65C302.823 188.65 302.703 188.65 302.553 188.65L301.743 188.68C301.623 188.68 301.473 188.68 301.323 188.68C299.313 188.68 297.303 188.62 295.263 188.62C294.153 188.62 293.013 188.62 291.903 188.65C291.723 188.65 291.573 188.65 291.393 188.65L290.373 188.71C290.193 188.71 290.043 188.71 289.863 188.71C289.743 188.71 289.533 188.71 289.413 188.62C288.993 188.32 288.813 184.72 288.813 184.03C288.753 182.98 288.963 181.39 287.463 181.39C286.713 181.39 285.963 182.05 285.963 182.83C285.963 183.97 286.053 185.08 286.143 186.22C286.293 188.59 286.473 191.32 289.563 191.32ZM311.964 169.06C311.964 171.19 312.054 173.38 312.144 175.54C312.204 176.68 312.144 178.48 312.444 179.5C313.014 181.33 315.234 181.72 316.884 181.72C318.744 181.72 329.184 181.6 330.144 181.18C330.684 180.94 331.104 180.49 331.104 179.86C331.104 179.14 330.534 178.66 329.844 178.66C329.484 178.66 329.124 178.72 328.764 178.75C327.774 178.84 326.754 178.84 325.764 178.9C322.914 179.02 320.034 179.11 317.184 179.11C316.584 179.11 315.654 179.05 315.174 178.66C315.084 178.57 314.994 177.07 314.904 175.15C315.354 175.12 315.804 175.09 316.254 175.06C316.374 175.06 327.624 174.64 328.314 174.37C328.854 174.16 329.274 173.65 329.274 173.05C329.274 172.33 328.704 171.85 328.014 171.85C327.444 171.85 326.844 171.94 326.274 171.97C325.194 172.03 324.084 172.09 323.004 172.15C320.274 172.3 317.544 172.3 314.814 172.48C314.754 170.77 314.724 169.21 314.724 168.76L314.724 168.43C316.674 168.37 327.714 168.13 328.614 167.74C329.154 167.5 329.574 167.05 329.574 166.42C329.574 165.7 329.004 165.22 328.314 165.22C328.014 165.22 327.714 165.28 327.414 165.31C326.844 165.37 326.274 165.37 325.704 165.4C323.904 165.49 322.104 165.58 320.304 165.64C318.714 165.7 317.154 165.76 315.564 165.79C314.814 165.82 314.004 165.73 313.284 165.88C312.984 165.94 312.744 166.03 312.504 166.21C311.724 166.87 311.964 168.1 311.964 169.06ZM333.054 190.09C333.834 190.09 334.554 189.43 334.554 188.65C334.554 188.11 334.254 187.75 333.774 187.54C333.264 187.33 322.134 187.33 320.544 187.33C317.094 187.33 313.644 187.06 310.194 187.06C309.414 187.06 308.694 187.72 308.694 188.5C308.694 189.16 309.204 189.64 309.834 189.7C311.124 189.82 312.384 189.76 313.674 189.79C316.554 189.88 319.434 189.94 322.314 189.94C325.884 189.94 329.484 190.09 333.054 190.09Z" fill="black"/>
</svg>
