<svg width="778" height="632" viewBox="0 0 778 632" fill="none" xmlns="http://www.w3.org/2000/svg">
<path d="M716.675 193.297C716.675 261.407 771.889 316.622 840 316.622C908.111 316.622 963.325 261.407 963.325 193.297C963.325 125.186 908.111 69.9714 840 69.9714C771.889 69.9714 716.675 125.186 716.675 193.297Z" fill="#DFD1F2"/>
<circle r="101.415" transform="matrix(-1 0 0 1 626.016 246.65)" fill="#DFD1F2"/>
<circle r="123.325" transform="matrix(-1 0 0 1 523.976 386.252)" fill="#DFD1F2"/>
<circle r="123.325" transform="matrix(-0.672448 0.740144 0.740144 0.672448 341.179 457.617)" fill="#DFD1F2"/>
<path d="M435.152 540.819C461.589 564.838 525.481 567.256 549.5 540.819C573.519 514.382 548.569 469.102 522.132 445.083C495.695 421.064 454.793 423.024 430.774 449.461C406.755 475.898 408.715 516.8 435.152 540.819Z" fill="#DFD1F2"/>
<circle r="123.325" transform="matrix(-1 0 0 1 421.309 246.024)" fill="#DFD1F2"/>
<circle r="123.325" transform="matrix(-1 0 0 1 515.211 123.325)" fill="#DFD1F2"/>
<circle r="123.325" transform="matrix(-1 0 0 1 241.017 342.431)" fill="#DFD1F2"/>
<circle r="123.325" transform="matrix(-1 0 0 1 123.325 492.675)" fill="#DFD1F2"/>
<circle r="123.325" transform="matrix(-1 0 0 1 670.464 159.634)" fill="#DFD1F2"/>
<rect width="552.146" height="281.707" transform="matrix(-1 0 0 1 916.487 246.65)" fill="#DFD1F2"/>
</svg>
