<svg width="33" height="33" viewBox="0 0 33 33" fill="none" xmlns="http://www.w3.org/2000/svg">
<path d="M23.5286 1.9275C25.8131 0.6931 28.4805 2.74702 27.8709 5.27112L26.4396 11.1976C26.1805 12.2704 26.5314 13.3989 27.3532 14.1356L31.871 18.1858C33.9004 20.0051 32.6482 23.3693 29.9232 23.419L24.4238 23.5194C23.2449 23.5409 22.188 24.251 21.7224 25.3342L19.5452 30.3991C18.4995 32.832 15.0444 32.8156 14.0218 30.3729L11.5342 24.4311C11.1249 23.4532 10.2298 22.7641 9.17983 22.6182L2.7996 21.7317C0.176679 21.3672 -0.722115 18.0311 1.36273 16.3983L5.70308 12.9991C6.63134 12.2721 7.0477 11.0688 6.76724 9.92363L5.45887 4.58122C4.81055 1.93394 7.74306 -0.136371 10.0206 1.36069L15.0908 4.69339C16.013 5.29962 17.1937 5.35048 18.1647 4.82581L23.5286 1.9275Z" fill="#CEE2FF"/>
</svg>
