<svg width="438" height="793" viewBox="0 0 438 793" fill="none" xmlns="http://www.w3.org/2000/svg">
<path d="M130.65 692.106C133.96 684.05 142.517 679.69 151.177 680.613C210.441 686.929 248.642 686.607 304.541 680.956C314.997 679.899 324.781 686.597 327.009 696.867C334.575 731.759 334.474 752.501 327.138 775.218C324.762 782.578 317.992 787.516 310.293 788.253C250.991 793.931 211.944 793.639 150.206 788.222C142.031 787.505 135.01 782.04 132.43 774.25C122.189 743.331 118.451 721.789 130.65 692.106Z" fill="#E7BE84"/>
<path d="M166.008 464C157.495 515.562 151.6 539.428 142.175 577.261" stroke="#8F5E3F" stroke-width="3"/>
<path d="M300.384 451.779C312.856 519.022 321.183 550.101 334.487 599.366" stroke="#8F5E3F" stroke-width="3"/>
<path d="M438 256.5C438 389.601 317.07 538.5 223.5 538.5C129.93 538.5 0 355.56 0 222.459C0 89.3588 117.345 1 210.915 1C304.485 1 438 14.6351 438 256.5Z" fill="#FF6464"/>
<path d="M378.5 257.5C378.5 390.601 317.07 538.5 223.5 538.5C129.93 538.5 65.5 365.601 65.5 232.5C65.5 99.3994 117.345 1 210.915 1C304.485 1 378.5 15.6351 378.5 257.5Z" fill="#FFA2A2"/>
<path d="M310 253.44C310 386.912 271.34 539 226.336 539C181.331 539 155 377.879 155 244.407C155 110.935 175.278 0 220.283 0C265.287 0 310 10.9006 310 253.44Z" fill="#FF6969"/>
<path d="M137.02 604.213C124.059 607.133 114.936 595.34 113.373 585.918C111.81 576.497 121.05 566.493 134.01 563.573C146.971 560.654 158.745 565.925 160.308 575.346C161.871 584.768 149.98 601.294 137.02 604.213Z" fill="#FFCB43"/>
<path d="M155.788 594.959C142.828 597.878 133.705 586.085 132.142 576.663C130.579 567.242 139.818 557.238 152.779 554.318C165.739 551.399 177.513 556.67 179.076 566.091C180.639 575.513 168.749 592.039 155.788 594.959Z" fill="#FFCB43"/>
<path d="M186.354 596.021C173.393 598.94 164.27 587.147 162.707 577.726C161.144 568.304 170.384 558.3 183.344 555.381C196.305 552.461 208.079 557.732 209.642 567.154C211.205 576.575 199.314 593.102 186.354 596.021Z" fill="#FFCB43"/>
<path d="M198.878 665.475C210.304 663.501 217.997 675.92 219.127 685.428C220.258 694.935 211.911 704.242 200.485 706.216C189.059 708.189 178.879 702.082 177.749 692.574C176.619 683.067 187.452 667.448 198.878 665.475Z" fill="#FFCB43"/>
<path d="M217.957 645.564C229.384 643.591 237.076 656.01 238.207 665.518C239.337 675.025 230.991 684.332 219.564 686.306C208.138 688.279 197.959 682.172 196.828 672.664C195.698 663.157 206.531 647.538 217.957 645.564Z" fill="#FFCB43"/>
<path d="M228.325 621.844C239.752 619.87 247.444 632.29 248.575 641.797C249.705 651.304 241.359 660.612 229.932 662.585C218.506 664.558 208.327 658.451 207.196 648.943C206.066 639.436 216.899 623.817 228.325 621.844Z" fill="#FFCB43"/>
<path d="M126.929 690.301C113.968 693.221 104.845 681.428 103.282 672.006C101.719 662.585 110.959 652.58 123.919 649.661C136.88 646.742 148.654 652.013 150.217 661.434C151.78 670.856 139.89 687.382 126.929 690.301Z" fill="#FFCB43"/>
<path d="M145.078 709.798C132.117 712.718 122.994 700.925 121.431 691.503C119.868 682.082 129.107 672.078 142.068 669.158C155.029 666.239 166.802 671.51 168.365 680.931C169.928 690.353 158.038 706.879 145.078 709.798Z" fill="#FFCB43"/>
<path d="M175.564 714.528C162.603 717.448 147.449 707.783 145.886 698.362C144.323 688.94 153.563 678.936 166.523 676.017C179.484 673.097 196.97 677.419 198.533 686.841C200.096 696.262 188.524 711.609 175.564 714.528Z" fill="#FFCB43"/>
<ellipse rx="72.13" ry="75.805" transform="matrix(0.986493 -0.163806 0.112246 0.99368 169.973 632.951)" fill="#FFCB43"/>
<ellipse rx="13.7047" ry="7.73049" transform="matrix(0.986493 -0.163806 0.112246 0.99368 166.993 642.912)" fill="black"/>
<ellipse rx="4.53505" ry="6.19388" transform="matrix(-1.0143 0.162831 0.10301 0.965577 180.555 625.655)" fill="black"/>
<path fill-rule="evenodd" clip-rule="evenodd" d="M179.812 631.553C181.45 630.407 182.43 628.017 182.132 625.462C181.822 622.811 180.231 620.79 178.301 620.321C178.776 619.988 179.308 619.76 179.879 619.663C182.417 619.233 184.787 621.558 185.172 624.855C185.557 628.153 183.812 631.175 181.274 631.605C180.776 631.689 180.284 631.668 179.812 631.553Z" fill="white"/>
<ellipse rx="4.53505" ry="6.19388" transform="matrix(-1.0143 0.162831 0.10301 0.965577 150.662 630.556)" fill="black"/>
<path fill-rule="evenodd" clip-rule="evenodd" d="M149.92 636.453C151.557 635.307 152.538 632.917 152.239 630.362C151.93 627.712 150.338 625.69 148.408 625.222C148.884 624.889 149.415 624.66 149.986 624.564C152.524 624.134 154.894 626.458 155.279 629.756C155.665 633.053 153.92 636.075 151.382 636.505C150.883 636.59 150.391 636.568 149.92 636.453Z" fill="white"/>
<path d="M65.8402 644.701C64.9719 625.734 99.2348 588.629 111.624 587.544C124.014 586.459 109.838 621.805 110.706 640.772C111.575 659.739 102.235 675.995 89.8455 677.08C77.456 678.165 66.7085 663.668 65.8402 644.701Z" fill="#231F20"/>
<path d="M266.645 615.686C265.776 596.719 226.909 566.018 214.003 567.149C201.097 568.279 219.039 600.812 219.907 619.779C220.775 638.747 231.942 653.206 244.848 652.076C257.754 650.946 267.513 634.653 266.645 615.686Z" fill="#231F20"/>
<path d="M274.068 606.906C260.766 606.339 254.317 593.659 254.771 584.924C255.224 576.189 266.376 569.568 279.679 570.136C292.982 570.704 303.398 578.245 302.944 586.98C302.491 595.716 287.371 607.474 274.068 606.906Z" fill="white"/>
<path d="M299.019 600.876C285.716 600.31 279.27 587.632 279.726 578.897C280.181 570.162 291.334 563.539 304.637 564.105C317.94 564.67 328.355 572.21 327.899 580.945C327.444 589.68 312.322 601.441 299.019 600.876Z" fill="white"/>
<path d="M324.091 611.657C310.788 611.09 304.34 598.41 304.793 589.675C305.247 580.94 316.399 574.319 329.701 574.887C343.004 575.455 353.42 582.996 352.967 591.731C352.513 600.467 337.393 612.225 324.091 611.657Z" fill="white"/>
<path d="M321.094 673.787C332.695 674.82 337.611 687.707 336.716 696.413C335.821 705.119 325.69 711.339 314.088 710.306C302.487 709.273 293.808 701.378 294.703 692.672C295.598 683.966 309.492 672.754 321.094 673.787Z" fill="white"/>
<path d="M345.872 660.531C357.473 661.564 362.389 674.45 361.494 683.156C360.599 691.862 350.468 698.082 338.867 697.049C327.265 696.016 318.586 688.121 319.481 679.415C320.376 670.709 334.27 659.497 345.872 660.531Z" fill="white"/>
<path d="M333.508 666.924C345.109 667.957 350.025 680.843 349.13 689.55C348.235 698.256 338.104 704.476 326.503 703.443C314.901 702.41 306.222 694.515 307.117 685.809C308.012 677.102 321.906 665.891 333.508 666.924Z" fill="white"/>
<path d="M354.826 645.296C366.428 646.329 371.343 659.216 370.448 667.922C369.553 676.628 359.422 682.848 347.821 681.815C336.219 680.782 327.54 672.887 328.435 664.181C329.33 655.474 343.224 644.263 354.826 645.296Z" fill="white"/>
<path d="M246.064 680.786C232.762 680.218 226.313 667.539 226.767 658.804C227.221 650.069 238.372 643.448 251.675 644.016C264.978 644.584 275.394 652.125 274.94 660.86C274.487 669.595 259.367 681.354 246.064 680.786Z" fill="white"/>
<path d="M221.989 635.787C222.816 622.85 235.971 616.588 244.945 617.036C253.918 617.484 260.521 628.335 259.694 641.272C258.866 654.21 250.921 664.334 241.948 663.886C232.975 663.438 221.161 648.724 221.989 635.787Z" fill="white"/>
<path d="M229.151 614.705C229.978 601.768 243.133 595.506 252.107 595.954C261.08 596.402 267.683 607.253 266.856 620.19C266.028 633.128 258.083 643.252 249.11 642.804C240.137 642.356 228.323 627.642 229.151 614.705Z" fill="white"/>
<path d="M238.946 596.241C239.773 583.304 252.928 577.043 261.902 577.491C270.875 577.939 277.478 588.789 276.651 601.727C275.823 614.664 267.878 624.788 258.905 624.34C249.932 623.892 238.118 609.178 238.946 596.241Z" fill="white"/>
<path d="M331.795 609.318C332.623 596.381 345.778 590.12 354.751 590.568C363.724 591.016 370.328 601.867 369.5 614.804C368.673 627.741 360.728 637.865 351.754 637.417C342.781 636.969 330.968 622.255 331.795 609.318Z" fill="white"/>
<path d="M334.059 630.612C333.299 619.297 346.88 612.229 356.752 611.497C366.624 610.766 375.243 619.345 376.003 630.659C376.763 641.974 369.377 651.74 359.506 652.472C349.634 653.203 334.819 641.927 334.059 630.612Z" fill="white"/>
<path d="M371.493 639.178C378.336 650.235 371.069 662.608 363.366 667.18C355.664 671.753 343.872 666.496 337.029 655.439C330.186 644.382 330.883 631.712 338.586 627.14C346.289 622.567 364.65 628.121 371.493 639.178Z" fill="white"/>
<path d="M262.716 701.725C249.413 701.157 236.612 688.897 237.066 680.161C237.52 671.426 248.671 664.805 261.974 665.373C275.277 665.941 291.485 674.033 291.031 682.768C290.578 691.503 276.018 702.293 262.716 701.725Z" fill="white"/>
<path d="M279.919 713.292C266.616 712.724 253.816 700.463 254.269 691.728C254.723 682.993 265.874 676.372 279.177 676.94C292.48 677.508 308.688 685.599 308.234 694.334C307.781 703.069 293.221 713.86 279.919 713.292Z" fill="white"/>
<path d="M299.311 713.716C286.009 713.148 273.208 700.887 273.662 692.152C274.115 683.416 285.267 676.796 298.57 677.363C311.872 677.931 328.08 686.023 327.627 694.758C327.173 703.493 312.614 714.283 299.311 713.716Z" fill="white"/>
<ellipse rx="72.4719" ry="69.278" transform="matrix(0.995519 0.094566 -0.108697 0.994075 300.28 640.415)" fill="white"/>
<path d="M307.557 639.72C307.272 642.334 303.046 647.182 298.535 646.754C294.024 646.325 290.935 640.782 291.221 638.168C291.507 635.554 295.395 633.782 299.907 634.21C304.418 634.639 307.843 637.106 307.557 639.72Z" fill="black"/>
<ellipse rx="4.57881" ry="6.27538" transform="matrix(-1.01634 -0.102149 -0.112192 0.971075 315.402 628.418)" fill="black"/>
<path fill-rule="evenodd" clip-rule="evenodd" d="M313.367 634.069C315.219 633.36 316.707 631.247 316.982 628.637C317.268 625.93 316.163 623.511 314.383 622.543C314.921 622.337 315.49 622.249 316.07 622.302C318.642 622.538 320.44 625.46 320.084 628.829C319.729 632.197 317.355 634.737 314.782 634.502C314.277 634.455 313.802 634.306 313.367 634.069Z" fill="#D9D9D9"/>
<ellipse rx="4.57881" ry="6.27538" transform="matrix(-1.01634 -0.102149 -0.112192 0.971075 285.138 625.48)" fill="black"/>
<path fill-rule="evenodd" clip-rule="evenodd" d="M283.1 631.131C284.953 630.421 286.44 628.309 286.715 625.698C287.001 622.991 285.896 620.572 284.116 619.605C284.655 619.399 285.224 619.311 285.803 619.364C288.376 619.6 290.173 622.522 289.817 625.89C289.462 629.259 287.088 631.799 284.516 631.563C284.01 631.517 283.535 631.367 283.1 631.131Z" fill="#D9D9D9"/>
<path d="M303.488 532.633C301.62 573.06 295.144 588.661 284.04 588.287C272.936 587.912 269.319 577.649 271.188 537.222C280.083 529.621 274.034 524.706 285.138 525.081C296.241 525.456 288.529 527.251 303.488 532.633Z" fill="white"/>
<path d="M373.278 538.95C354.685 574.605 331.754 598.979 322.059 593.389C312.365 587.799 319.577 554.363 338.17 518.707C356.762 483.051 365.689 482.621 375.384 488.21C385.079 493.8 391.87 503.294 373.278 538.95Z" fill="white"/>
<path d="M366.157 533.756C352.696 560.323 338.353 576.675 332.497 573.441C326.64 570.206 329.928 553.242 343.389 526.675C356.849 500.108 364.07 494.512 369.927 497.747C375.783 500.982 379.618 507.19 366.157 533.756Z" fill="#FFA5A5"/>
<path d="M295.685 532.948C294.883 562.871 292.59 566.137 285.552 566.258C278.515 566.378 277.629 562.653 275.472 546.87C274.517 539.887 277.115 531.973 284.153 531.852C291.191 531.732 290.159 532.423 295.685 532.948Z" fill="#FFA5A5"/>
<path d="M292.746 547.29C264.545 574.631 242.82 590.38 235.004 582.066C227.187 573.752 239.169 552.964 265.384 523.331C278.363 518.23 291.964 518.284 299.78 526.598C305.434 532.612 304.329 536.06 292.746 547.29Z" fill="white"/>
<path d="M358.441 744.015C359.935 748.27 353.599 754.022 346.383 756.555C339.168 759.089 332.108 757.693 330.614 753.438C329.119 749.183 333.757 743.68 340.973 741.146C348.188 738.613 356.947 739.759 358.441 744.015Z" fill="white"/>
<ellipse cx="341.547" cy="758.081" rx="13.8464" ry="8.16582" transform="rotate(-19.3476 341.547 758.081)" fill="white"/>
<path d="M354.485 744.945C355.414 753.719 338.059 772.389 329.284 773.318C320.51 774.247 312.643 767.887 311.714 759.112C310.785 750.338 317.146 742.472 325.92 741.543C334.695 740.614 353.556 736.17 354.485 744.945Z" fill="white"/>
<path d="M96.6762 745.113C95.7297 754.053 113.412 773.075 122.352 774.021C131.292 774.968 139.307 768.488 140.253 759.548C141.2 750.608 134.72 742.593 125.78 741.646C116.84 740.7 97.6227 736.173 96.6762 745.113Z" fill="white"/>
<path d="M92.6451 744.165C91.1228 748.5 97.5791 754.361 104.93 756.942C112.282 759.523 119.475 758.101 120.998 753.766C122.52 749.431 117.794 743.823 110.443 741.242C103.092 738.661 94.1673 739.829 92.6451 744.165Z" fill="white"/>
<ellipse rx="14.1075" ry="8.31981" transform="matrix(-0.943526 -0.331299 -0.331299 0.943526 109.858 758.497)" fill="white"/>
<path d="M283.002 754.485C290.237 755.064 294.053 754.911 300.452 753.75" stroke="#A38B69" stroke-linecap="round"/>
<path d="M289.052 751.568C289.55 755.936 290.084 758.186 291.519 761.854" stroke="#A38B69" stroke-linecap="round"/>
<path d="M293.274 751.221C294.089 755.54 294.786 757.746 296.485 761.3" stroke="#A38B69" stroke-linecap="round"/>
<path d="M284.145 758.15C290.839 758.494 294.359 758.104 300.38 756.744" stroke="#A38B69" stroke-linecap="round"/>
<path d="M189.998 730.593C180.462 731.355 175.434 731.154 167 729.623" stroke="#A38B69" stroke-linecap="round"/>
<path d="M182.025 726.748C181.369 732.505 180.664 735.47 178.773 740.305" stroke="#A38B69" stroke-linecap="round"/>
<path d="M176.461 726.291C175.386 731.984 174.468 734.89 172.229 739.574" stroke="#A38B69" stroke-linecap="round"/>
<path d="M188.491 735.424C179.669 735.876 175.029 735.363 167.094 733.57" stroke="#A38B69" stroke-linecap="round"/>
</svg>
