<svg width="531" height="454" viewBox="0 0 531 454" fill="none" xmlns="http://www.w3.org/2000/svg">
<path d="M351.382 401.737C353.957 393.457 362.698 389.213 371.329 390.043C399.568 392.762 419.808 392.708 446.26 390.358C456.702 389.43 466.58 396.045 468.41 406.366C470.746 419.533 470.718 429.013 468.426 438.443C466.603 445.941 459.664 450.834 451.977 451.506C422.378 454.094 401.099 453.972 370.41 451.484C362.247 450.822 355.13 445.408 352.751 437.571C348.811 424.593 347.498 414.225 351.382 401.737Z" fill="#E7BE84"/>
<path d="M373.891 265.494C368.973 294.997 365.568 308.653 360.124 330.3" stroke="#8F5E3F" stroke-width="3"/>
<path d="M451.51 258.501C458.714 296.977 463.524 314.76 471.209 342.949" stroke="#8F5E3F" stroke-width="3"/>
<path d="M531 146.766C531 222.924 461.148 308.122 407.099 308.122C353.051 308.122 278 203.446 278 127.288C278 51.1299 345.782 0.572266 399.83 0.572266C453.879 0.572266 531 8.37409 531 146.766Z" fill="#FF6464"/>
<path d="M496.632 147.338C496.632 223.496 461.148 308.122 407.1 308.122C353.051 308.122 315.835 209.191 315.835 133.033C315.835 56.8749 345.782 0.572266 399.831 0.572266C453.879 0.572266 496.632 8.94627 496.632 147.338Z" fill="#FFA2A2"/>
<path d="M457.064 145.015C457.064 221.386 434.733 308.408 408.738 308.408C382.742 308.408 367.532 216.217 367.532 139.846C367.532 63.4753 379.246 0 405.241 0C431.237 0 457.064 6.23714 457.064 145.015Z" fill="#FF6969"/>
<path d="M357.146 345.722C349.66 347.392 344.39 340.644 343.487 335.253C342.584 329.863 347.921 324.138 355.408 322.468C362.894 320.798 369.695 323.813 370.598 329.204C371.5 334.595 364.632 344.051 357.146 345.722Z" fill="#FFCB43"/>
<path d="M367.988 340.426C360.501 342.097 355.232 335.349 354.329 329.958C353.426 324.567 358.763 318.843 366.249 317.173C373.736 315.502 380.537 318.518 381.439 323.909C382.342 329.3 375.474 338.756 367.988 340.426Z" fill="#FFCB43"/>
<path d="M385.643 341.034C378.157 342.705 372.887 335.957 371.984 330.566C371.081 325.175 376.418 319.451 383.905 317.78C391.391 316.11 398.192 319.126 399.095 324.517C399.998 329.908 393.129 339.364 385.643 341.034Z" fill="#FFCB43"/>
<path d="M392.877 380.774C399.477 379.645 403.92 386.751 404.573 392.191C405.226 397.631 400.405 402.957 393.805 404.086C387.205 405.215 381.325 401.72 380.672 396.28C380.019 390.84 386.277 381.903 392.877 380.774Z" fill="#FFCB43"/>
<path d="M403.897 369.382C410.498 368.253 414.941 375.359 415.594 380.799C416.247 386.239 411.426 391.564 404.826 392.693C398.225 393.822 392.346 390.328 391.693 384.888C391.04 379.448 397.297 370.511 403.897 369.382Z" fill="#FFCB43"/>
<path d="M409.887 355.809C416.487 354.68 420.93 361.786 421.583 367.226C422.236 372.666 417.415 377.992 410.815 379.121C404.215 380.25 398.335 376.756 397.682 371.315C397.029 365.875 403.286 356.939 409.887 355.809Z" fill="#FFCB43"/>
<path d="M351.318 394.98C343.832 396.65 338.562 389.903 337.659 384.512C336.756 379.121 342.093 373.397 349.579 371.726C357.066 370.056 363.867 373.072 364.769 378.463C365.672 383.853 358.804 393.31 351.318 394.98Z" fill="#FFCB43"/>
<path d="M361.8 406.136C354.314 407.806 349.044 401.058 348.141 395.668C347.239 390.277 352.576 384.552 360.062 382.882C367.548 381.212 374.349 384.228 375.252 389.618C376.155 395.009 369.287 404.465 361.8 406.136Z" fill="#FFCB43"/>
<path d="M379.41 408.842C371.924 410.513 363.17 404.983 362.268 399.592C361.365 394.201 366.702 388.477 374.188 386.807C381.675 385.136 391.775 387.609 392.678 393C393.58 398.391 386.897 407.172 379.41 408.842Z" fill="#FFCB43"/>
<ellipse rx="41.6537" ry="43.3797" transform="matrix(0.986741 -0.162304 0.1133 0.993561 376.181 362.165)" fill="#FFCB43"/>
<ellipse rx="7.9142" ry="4.4238" transform="matrix(0.986741 -0.162304 0.1133 0.993561 374.459 367.865)" fill="black"/>
<ellipse rx="2.61042" ry="3.55836" transform="matrix(-1.01785 0.161862 0.103571 0.961693 382.293 357.99)" fill="black"/>
<path fill-rule="evenodd" clip-rule="evenodd" d="M381.865 361.365C382.811 360.709 383.377 359.341 383.205 357.879C383.026 356.363 382.106 355.206 380.991 354.938C381.266 354.747 381.573 354.617 381.903 354.561C383.369 354.315 384.738 355.645 384.961 357.532C385.183 359.419 384.175 361.148 382.709 361.394C382.421 361.443 382.137 361.43 381.865 361.365Z" fill="white"/>
<ellipse rx="2.61042" ry="3.55836" transform="matrix(-1.01785 0.161862 0.103571 0.961693 365.026 360.795)" fill="black"/>
<path fill-rule="evenodd" clip-rule="evenodd" d="M364.598 364.169C365.544 363.513 366.11 362.145 365.938 360.683C365.759 359.167 364.84 358.01 363.725 357.742C364 357.552 364.306 357.421 364.637 357.366C366.103 357.12 367.471 358.45 367.694 360.336C367.916 362.223 366.908 363.952 365.442 364.198C365.155 364.247 364.871 364.234 364.598 364.169Z" fill="white"/>
<path d="M316.031 368.888C315.529 358.036 335.321 336.805 342.477 336.184C349.633 335.563 341.445 355.787 341.947 366.64C342.448 377.493 337.054 386.794 329.897 387.415C322.741 388.036 316.533 379.741 316.031 368.888Z" fill="#231F20"/>
<path d="M432.021 352.287C431.519 341.434 409.069 323.868 401.614 324.514C394.159 325.161 404.522 343.776 405.024 354.629C405.525 365.482 411.975 373.755 419.43 373.108C426.885 372.462 432.522 363.14 432.021 352.287Z" fill="#231F20"/>
<path d="M436.308 347.263C428.624 346.938 424.899 339.683 425.161 334.685C425.423 329.687 431.865 325.899 439.549 326.224C447.233 326.549 453.25 330.864 452.988 335.862C452.725 340.86 443.992 347.588 436.308 347.263Z" fill="white"/>
<path d="M450.721 343.813C443.037 343.489 439.313 336.235 439.576 331.237C439.839 326.239 446.282 322.449 453.966 322.773C461.65 323.096 467.666 327.411 467.403 332.409C467.14 337.407 458.405 344.136 450.721 343.813Z" fill="white"/>
<path d="M465.202 349.982C457.518 349.657 453.794 342.402 454.056 337.404C454.318 332.406 460.759 328.617 468.443 328.942C476.127 329.267 482.144 333.583 481.882 338.581C481.62 343.579 472.886 350.307 465.202 349.982Z" fill="white"/>
<path d="M463.471 385.532C470.173 386.123 473.012 393.496 472.495 398.478C471.978 403.459 466.126 407.018 459.425 406.427C452.724 405.836 447.71 401.319 448.227 396.337C448.744 391.356 456.77 384.941 463.471 385.532Z" fill="white"/>
<path d="M477.784 377.946C484.485 378.537 487.325 385.91 486.807 390.892C486.29 395.873 480.439 399.432 473.737 398.841C467.036 398.25 462.023 393.733 462.54 388.751C463.057 383.77 471.082 377.355 477.784 377.946Z" fill="white"/>
<path d="M470.642 381.605C477.343 382.196 480.183 389.569 479.666 394.55C479.149 399.532 473.297 403.091 466.596 402.5C459.894 401.909 454.881 397.391 455.398 392.41C455.915 387.428 463.941 381.013 470.642 381.605Z" fill="white"/>
<path d="M482.956 369.23C489.657 369.821 492.496 377.194 491.979 382.175C491.462 387.157 485.611 390.716 478.909 390.125C472.208 389.534 467.195 385.016 467.712 380.035C468.229 375.053 476.254 368.638 482.956 369.23Z" fill="white"/>
<path d="M420.132 389.536C412.448 389.211 408.724 381.956 408.986 376.958C409.248 371.96 415.689 368.172 423.373 368.497C431.057 368.822 437.074 373.137 436.812 378.135C436.55 383.133 427.816 389.861 420.132 389.536Z" fill="white"/>
<path d="M406.226 363.788C406.704 356.386 414.302 352.803 419.486 353.059C424.669 353.316 428.483 359.524 428.005 366.927C427.527 374.329 422.938 380.122 417.755 379.866C412.572 379.61 405.748 371.19 406.226 363.788Z" fill="white"/>
<path d="M410.362 351.725C410.84 344.323 418.439 340.74 423.622 340.996C428.806 341.253 432.62 347.461 432.142 354.864C431.664 362.266 427.075 368.059 421.891 367.803C416.708 367.547 409.884 359.127 410.362 351.725Z" fill="white"/>
<path d="M416.021 341.161C416.499 333.758 424.097 330.175 429.281 330.432C434.464 330.688 438.278 336.897 437.8 344.299C437.322 351.702 432.733 357.495 427.55 357.238C422.366 356.982 415.543 348.563 416.021 341.161Z" fill="white"/>
<path d="M469.652 348.643C470.13 341.241 477.729 337.658 482.912 337.915C488.096 338.171 491.91 344.38 491.432 351.782C490.954 359.185 486.365 364.978 481.181 364.721C475.998 364.465 469.174 356.046 469.652 348.643Z" fill="white"/>
<path d="M470.96 360.827C470.521 354.353 478.366 350.309 484.068 349.89C489.77 349.471 494.749 354.38 495.188 360.854C495.627 367.328 491.361 372.916 485.659 373.335C479.957 373.754 471.399 367.301 470.96 360.827Z" fill="white"/>
<path d="M492.583 365.728C496.535 372.055 492.338 379.134 487.889 381.75C483.439 384.367 476.628 381.359 472.675 375.032C468.723 368.706 469.125 361.456 473.575 358.84C478.024 356.224 488.63 359.402 492.583 365.728Z" fill="white"/>
<path d="M429.751 401.517C422.067 401.192 414.673 394.176 414.935 389.178C415.197 384.18 421.638 380.392 429.322 380.717C437.006 381.042 446.368 385.671 446.106 390.67C445.844 395.668 437.435 401.842 429.751 401.517Z" fill="white"/>
<path d="M439.687 408.135C432.003 407.81 424.609 400.795 424.871 395.797C425.133 390.799 431.575 387.01 439.259 387.335C446.943 387.66 456.305 392.29 456.043 397.288C455.781 402.286 447.371 408.46 439.687 408.135Z" fill="white"/>
<path d="M450.889 408.378C443.205 408.053 435.811 401.037 436.073 396.039C436.335 391.041 442.777 387.252 450.461 387.577C458.145 387.902 467.507 392.532 467.245 397.53C466.983 402.528 458.573 408.702 450.889 408.378Z" fill="white"/>
<ellipse rx="41.8581" ry="39.6443" transform="matrix(0.995602 0.0936831 -0.109718 0.993963 451.448 366.436)" fill="white"/>
<path d="M455.652 366.038C455.487 367.534 453.046 370.308 450.441 370.063C447.835 369.818 446.051 366.646 446.216 365.15C446.381 363.654 448.627 362.641 451.233 362.886C453.839 363.131 455.817 364.542 455.652 366.038Z" fill="black"/>
<ellipse rx="2.63571" ry="3.60516" transform="matrix(-1.01986 -0.101538 -0.112804 0.967174 460.184 359.571)" fill="black"/>
<path fill-rule="evenodd" clip-rule="evenodd" d="M459.008 362.805C460.079 362.399 460.938 361.19 461.097 359.696C461.262 358.147 460.624 356.763 459.595 356.21C459.906 356.092 460.235 356.041 460.57 356.072C462.056 356.207 463.094 357.879 462.888 359.806C462.683 361.734 461.312 363.187 459.826 363.052C459.534 363.026 459.26 362.94 459.008 362.805Z" fill="#D9D9D9"/>
<ellipse rx="2.63571" ry="3.60516" transform="matrix(-1.01986 -0.101538 -0.112804 0.967174 442.702 357.89)" fill="black"/>
<path fill-rule="evenodd" clip-rule="evenodd" d="M441.525 361.123C442.595 360.718 443.454 359.509 443.613 358.015C443.778 356.466 443.14 355.082 442.112 354.528C442.423 354.41 442.752 354.36 443.086 354.391C444.572 354.526 445.61 356.197 445.405 358.125C445.2 360.053 443.828 361.506 442.342 361.371C442.051 361.344 441.776 361.259 441.525 361.123Z" fill="#D9D9D9"/>
<path d="M453.302 304.764C452.223 327.896 448.482 336.823 442.068 336.608C435.654 336.394 433.565 330.522 434.644 307.39C439.783 303.041 436.288 300.229 442.702 300.443C449.116 300.658 444.661 301.685 453.302 304.764Z" fill="white"/>
<path d="M493.614 308.378C482.875 328.78 469.629 342.726 464.03 339.528C458.43 336.329 462.596 317.198 473.335 296.796C484.075 276.394 489.231 276.148 494.831 279.346C500.431 282.545 504.354 287.977 493.614 308.378Z" fill="white"/>
<path d="M489.501 305.408C481.726 320.609 473.441 329.965 470.058 328.114C466.675 326.263 468.574 316.557 476.349 301.356C484.125 286.155 488.295 282.953 491.678 284.804C495.062 286.655 497.277 290.207 489.501 305.408Z" fill="#FFA5A5"/>
<path d="M448.794 304.945C448.331 322.067 447.007 323.935 442.942 324.004C438.876 324.073 438.365 321.942 437.119 312.911C436.567 308.915 438.068 304.387 442.133 304.318C446.198 304.249 445.602 304.644 448.794 304.945Z" fill="#FFA5A5"/>
<path d="M447.097 313.151C430.807 328.795 418.258 337.806 413.743 333.049C409.228 328.292 416.149 316.397 431.292 299.442C438.789 296.523 446.645 296.554 451.16 301.311C454.425 304.752 453.787 306.725 447.097 313.151Z" fill="white"/>
<path d="M485.045 425.714C485.908 428.149 482.248 431.44 478.08 432.889C473.912 434.339 469.834 433.541 468.971 431.106C468.108 428.671 470.787 425.522 474.955 424.072C479.122 422.623 484.182 423.279 485.045 425.714Z" fill="white"/>
<ellipse rx="7.9898" ry="4.67726" transform="matrix(0.944498 -0.328517 0.334099 0.942538 475.287 433.763)" fill="white"/>
<path d="M482.76 426.246C483.297 431.267 473.272 441.949 468.204 442.481C463.135 443.012 458.591 439.373 458.055 434.353C457.518 429.332 461.192 424.831 466.26 424.299C471.329 423.768 482.223 421.225 482.76 426.246Z" fill="white"/>
<path d="M333.843 426.343C333.297 431.458 343.51 442.343 348.674 442.884C353.838 443.426 358.468 439.718 359.014 434.603C359.561 429.487 355.818 424.901 350.654 424.36C345.49 423.818 334.39 421.228 333.843 426.343Z" fill="white"/>
<path d="M331.515 425.801C330.636 428.281 334.365 431.635 338.611 433.112C342.858 434.589 347.013 433.775 347.892 431.294C348.772 428.814 346.042 425.605 341.796 424.128C337.549 422.651 332.394 423.32 331.515 425.801Z" fill="white"/>
<ellipse rx="8.14047" ry="4.76546" transform="matrix(-0.944498 -0.328517 -0.334099 0.942538 341.457 434.001)" fill="white"/>
<path d="M441.469 431.705C445.648 432.036 447.852 431.949 451.549 431.284" stroke="#A38B69" stroke-linecap="round"/>
<path d="M444.963 430.036C445.251 432.535 445.56 433.823 446.389 435.922" stroke="#A38B69" stroke-linecap="round"/>
<path d="M447.403 429.837C447.874 432.309 448.276 433.571 449.258 435.604" stroke="#A38B69" stroke-linecap="round"/>
<path d="M442.129 433.802C445.996 433.999 448.029 433.776 451.507 432.997" stroke="#A38B69" stroke-linecap="round"/>
<path d="M387.747 418.035C382.239 418.471 379.335 418.356 374.463 417.48" stroke="#A38B69" stroke-linecap="round"/>
<path d="M383.143 415.835C382.764 419.129 382.357 420.825 381.264 423.592" stroke="#A38B69" stroke-linecap="round"/>
<path d="M379.929 415.573C379.308 418.83 378.777 420.493 377.484 423.173" stroke="#A38B69" stroke-linecap="round"/>
<path d="M386.877 420.799C381.781 421.058 379.101 420.764 374.517 419.738" stroke="#A38B69" stroke-linecap="round"/>
<mask id="path-66-inside-1_908_226" fill="white">
<path fill-rule="evenodd" clip-rule="evenodd" d="M145.5 336.235C65.1426 336.235 0 291.858 0 237.117C0 182.376 65.1426 138 145.5 138C225.857 138 291 182.376 291 237.117C291 259.568 280.042 280.276 261.572 296.894L278.646 344.298L215.58 324.001C194.793 331.798 170.907 336.235 145.5 336.235Z"/>
</mask>
<path fill-rule="evenodd" clip-rule="evenodd" d="M145.5 336.235C65.1426 336.235 0 291.858 0 237.117C0 182.376 65.1426 138 145.5 138C225.857 138 291 182.376 291 237.117C291 259.568 280.042 280.276 261.572 296.894L278.646 344.298L215.58 324.001C194.793 331.798 170.907 336.235 145.5 336.235Z" fill="white"/>
<path d="M261.572 296.894L259.69 297.571L259.235 296.306L260.234 295.407L261.572 296.894ZM278.646 344.298L280.527 343.621L281.906 347.449L278.033 346.202L278.646 344.298ZM215.58 324.001L214.878 322.128L215.53 321.884L216.193 322.097L215.58 324.001ZM2 237.117C2 263.631 17.7746 287.861 43.742 305.551C69.699 323.233 105.67 334.235 145.5 334.235V338.235C104.973 338.235 68.1936 327.048 41.49 308.857C14.7966 290.673 -2 265.344 -2 237.117H2ZM145.5 140C105.67 140 69.699 151.001 43.742 168.684C17.7746 186.373 2 210.603 2 237.117H-2C-2 208.89 14.7966 183.562 41.49 165.378C68.1936 147.187 104.973 136 145.5 136V140ZM289 237.117C289 210.603 273.225 186.373 247.258 168.684C221.301 151.001 185.33 140 145.5 140V136C186.027 136 222.806 147.187 249.51 165.378C276.203 183.562 293 208.89 293 237.117H289ZM260.234 295.407C278.388 279.074 289 258.874 289 237.117H293C293 260.263 281.697 281.478 262.91 298.38L260.234 295.407ZM276.764 344.976L259.69 297.571L263.454 296.216L280.527 343.621L276.764 344.976ZM216.193 322.097L279.258 342.395L278.033 346.202L214.967 325.905L216.193 322.097ZM145.5 334.235C170.678 334.235 194.325 329.838 214.878 322.128L216.283 325.874C195.261 333.759 171.136 338.235 145.5 338.235V334.235Z" fill="#3B82BF" mask="url(#path-66-inside-1_908_226)"/>
<path d="M58.7938 231.828L58.6858 210.732V210.48C59.7298 213.036 60.8098 215.556 61.9258 218.076C62.8618 220.236 63.7978 222.396 64.7698 224.52C64.8418 224.7 64.9858 224.988 65.1298 225.132C65.4178 225.456 65.7418 225.708 66.2098 225.708C66.7138 225.708 67.0738 225.42 67.3978 225.06C68.0458 224.268 69.1258 221.82 69.6658 220.776C70.9258 218.292 72.2218 215.808 73.5178 213.324C74.2018 211.992 74.8858 210.66 75.6058 209.328C75.8578 214.404 75.8938 219.516 75.8938 224.592L75.8578 229.956C75.8578 230.856 75.8578 231.72 75.8578 232.62C75.8578 233.124 76.2898 233.556 76.7938 233.556C77.2978 233.556 77.7298 233.124 77.7298 232.62C77.7298 228.156 77.7298 223.728 77.7298 219.264C77.7298 217.284 77.6578 207.456 77.1538 206.232C76.9738 205.8 76.6858 205.512 76.1818 205.512C75.8578 205.512 75.6058 205.656 75.4258 205.872C75.2098 206.124 75.0658 206.412 74.9218 206.7C72.8338 210.48 70.8898 214.332 68.9098 218.184C68.0818 219.84 67.1818 221.712 66.2818 223.296L66.0658 222.756C64.1578 217.968 61.8898 213.324 59.9098 208.572C59.6938 208.104 59.4778 207.6 59.1898 207.168C58.9018 206.772 58.5778 206.412 58.0378 206.412C56.8858 206.412 56.7778 207.852 56.7778 208.68V208.824C56.8498 214.008 56.8498 219.228 56.8858 224.412L56.9218 229.596C56.9218 230.316 56.8858 231.108 56.9218 231.828C56.9578 232.332 57.3178 232.764 57.8578 232.764C58.3618 232.764 58.7938 232.332 58.7938 231.828ZM93.9903 223.44C95.3583 223.44 97.1223 223.368 97.1223 221.568C97.1223 218.256 93.8463 214.98 90.5343 214.98C89.2383 214.98 87.9423 215.304 86.7543 215.808C83.1903 217.392 82.0383 220.848 82.0383 224.52C82.0383 225.636 82.1103 227.004 82.5063 228.048C83.7303 231.288 86.8263 233.052 90.2463 233.052C92.6943 233.052 94.8543 231.612 96.4743 229.884C96.7623 229.596 97.0863 229.2 97.0863 228.768C97.0863 228.264 96.6543 227.832 96.1503 227.832C95.8263 227.832 95.6103 227.976 95.3943 228.192C95.3223 228.264 95.2503 228.336 95.1783 228.408L94.8183 228.876C93.5223 230.172 92.0103 231.18 90.1023 231.18C87.6543 231.18 85.0983 229.776 84.2703 227.4C83.9463 226.464 83.9103 225.492 83.9103 224.52C83.9103 224.124 83.9103 223.728 83.9463 223.332C84.7383 223.404 86.2503 223.368 87.0423 223.368C89.1663 223.404 91.2903 223.44 93.4143 223.44H93.9903ZM84.2703 221.46C84.7383 219.732 85.7463 218.292 87.6903 217.464C88.5903 217.068 89.5623 216.852 90.5343 216.852C92.7303 216.852 95.2503 219.228 95.2503 221.46C94.8903 221.532 94.4943 221.568 94.1343 221.568C93.2703 221.568 92.4423 221.568 91.5783 221.568L86.4303 221.46C85.7103 221.46 84.9903 221.46 84.2703 221.46ZM114.17 217.212C114.674 217.212 115.106 216.78 115.106 216.276C115.106 215.772 114.674 215.34 114.17 215.34C112.982 215.34 111.794 215.34 110.606 215.34L107.222 215.304C107.402 213.072 107.618 210.804 107.798 208.572V208.5C107.798 207.996 107.366 207.564 106.862 207.564C106.358 207.564 105.998 207.96 105.926 208.428C105.854 208.968 105.818 209.544 105.782 210.084C105.674 211.38 105.566 212.64 105.458 213.936C105.422 214.404 105.386 214.836 105.35 215.304L103.478 215.268C102.29 215.268 101.102 215.268 99.9143 215.268C99.4103 215.268 98.9783 215.7 98.9783 216.204C98.9783 216.78 99.3743 217.104 99.9143 217.14C100.346 217.176 100.85 217.14 101.282 217.14L104.522 217.176C104.738 217.176 104.99 217.176 105.206 217.176C104.99 219.984 104.81 222.792 104.81 225.6C104.81 226.86 104.882 228.12 105.026 229.344C105.278 231.504 106.07 233.304 108.554 233.304C109.886 233.304 111.182 232.836 112.406 232.368C112.946 232.152 113.666 231.936 113.666 231.216C113.666 230.712 113.234 230.28 112.73 230.28C112.586 230.28 112.478 230.28 112.334 230.352C111.11 230.856 109.886 231.432 108.554 231.432C108.194 231.432 107.834 231.36 107.546 231.144C106.754 230.568 106.682 226.644 106.682 225.6C106.682 222.792 106.862 220.02 107.078 217.212C109.454 217.212 111.83 217.212 114.17 217.212ZM122.816 216.924C125.048 216.924 127.496 217.968 128.18 220.272C128.36 220.884 128.396 221.532 128.432 222.18C127.172 221.568 125.624 221.208 124.4 221.208C121.484 221.208 118.28 222.828 117.236 225.672C117.02 226.284 116.984 226.932 116.984 227.58C116.984 231.864 121.196 233.088 124.724 233.088C125.876 233.088 127.064 232.872 128.216 232.62C130.664 232.08 130.7 231.072 130.7 228.84C130.7 226.644 130.484 224.448 130.304 222.252C130.196 221.244 130.124 220.2 129.8 219.228C128.864 216.492 125.516 215.052 122.816 215.052C121.304 215.052 119.864 215.484 118.388 215.808C117.956 215.916 117.668 216.276 117.668 216.708C117.668 217.284 118.136 217.644 118.676 217.644L118.784 217.608C120.152 217.32 121.448 216.924 122.816 216.924ZM128.72 230.496C127.928 230.892 125.66 231.216 124.724 231.216C122.24 231.216 118.856 230.64 118.856 227.508C118.856 224.7 121.844 223.08 124.364 223.08C125.948 223.08 127.316 223.62 128.612 224.484C128.72 225.852 128.828 227.256 128.828 228.624C128.828 229.092 128.828 230.1 128.72 230.496ZM135.036 231.972C135.036 232.476 135.468 232.908 135.972 232.908C136.512 232.908 136.872 232.476 136.908 231.972C137.016 230.712 136.944 229.344 136.944 228.048C136.944 225.348 136.836 222.612 136.728 219.912C136.728 219.552 136.692 219.192 136.692 218.832C137.412 218.436 138.492 217.68 139.788 217.68C140.724 217.68 141.912 218.184 142.38 219.012C143.028 220.128 143.316 228.192 143.388 229.884C143.424 230.676 143.352 231.54 143.46 232.332C143.532 232.836 143.856 233.232 144.396 233.232C144.9 233.232 145.332 232.8 145.332 232.296C145.332 229.956 145.152 227.436 145.008 225.096C144.9 223.512 144.792 221.928 144.612 220.38C144.576 220.056 144.54 219.696 144.468 219.408C145.548 218.328 146.34 217.572 147.996 217.572C148.932 217.572 149.832 217.824 150.408 218.616C151.272 219.768 151.38 222.036 151.524 223.44C151.74 225.528 151.776 227.58 151.812 229.668C151.812 230.64 151.776 231.684 151.848 232.656C151.884 233.16 152.244 233.592 152.784 233.592C153.288 233.592 153.72 233.16 153.72 232.656C153.72 228.552 153.684 224.34 153 220.272C152.532 217.5 150.948 215.7 147.996 215.7C146.412 215.7 144.756 216.42 143.64 217.536C142.812 216.456 141.12 215.808 139.788 215.808C139.14 215.808 137.736 216.132 136.62 216.672C136.62 216.456 136.584 216.24 136.548 216.06C136.476 215.556 136.152 215.16 135.612 215.16C135.108 215.16 134.676 215.592 134.676 216.096V216.132C134.856 220.596 135.072 225.06 135.072 229.524C135.072 229.74 135.072 229.92 135.072 230.136L135.036 231.36C135.036 231.576 135.036 231.756 135.036 231.972ZM163.527 216.924C165.759 216.924 168.207 217.968 168.891 220.272C169.071 220.884 169.107 221.532 169.143 222.18C167.883 221.568 166.335 221.208 165.111 221.208C162.195 221.208 158.991 222.828 157.947 225.672C157.731 226.284 157.695 226.932 157.695 227.58C157.695 231.864 161.907 233.088 165.435 233.088C166.587 233.088 167.775 232.872 168.927 232.62C171.375 232.08 171.411 231.072 171.411 228.84C171.411 226.644 171.195 224.448 171.015 222.252C170.907 221.244 170.835 220.2 170.511 219.228C169.575 216.492 166.227 215.052 163.527 215.052C162.015 215.052 160.575 215.484 159.099 215.808C158.667 215.916 158.379 216.276 158.379 216.708C158.379 217.284 158.847 217.644 159.387 217.644L159.495 217.608C160.863 217.32 162.159 216.924 163.527 216.924ZM169.431 230.496C168.639 230.892 166.371 231.216 165.435 231.216C162.951 231.216 159.567 230.64 159.567 227.508C159.567 224.7 162.555 223.08 165.075 223.08C166.659 223.08 168.027 223.62 169.323 224.484C169.431 225.852 169.539 227.256 169.539 228.624C169.539 229.092 169.539 230.1 169.431 230.496ZM182.263 214.764C179.203 214.764 175.639 216.204 175.639 219.768C175.639 222.936 179.239 223.836 181.759 224.232C183.415 224.484 186.619 225.096 187.483 226.716C187.699 227.076 187.771 227.58 187.771 228.012C187.771 230.712 184.207 231.252 182.155 231.252C181.255 231.252 180.391 231.108 179.563 230.784C177.475 229.992 176.899 228.66 176.899 226.5C176.899 225.996 176.467 225.564 175.963 225.564C175.171 225.564 175.027 226.212 175.027 226.86C175.027 229.668 176.503 231.828 179.203 232.656C180.103 232.944 181.039 233.124 182.011 233.124C185.287 233.124 189.643 232.044 189.643 228.012C189.643 224.844 186.871 223.512 184.207 222.792C182.515 222.36 177.511 222.216 177.511 219.768C177.511 217.356 180.319 216.636 182.263 216.636C184.243 216.636 186.007 217.32 187.339 218.832C187.627 219.156 187.879 219.552 188.131 219.912C188.347 220.2 188.563 220.344 188.923 220.344C189.427 220.344 189.859 219.912 189.859 219.408C189.859 218.94 189.391 218.4 189.139 218.04C187.555 215.916 184.891 214.764 182.263 214.764ZM196.796 233.016C197.3 233.016 197.732 232.584 197.732 232.08V232.008C197.588 230.028 197.444 228.012 197.3 226.032L207.344 232.188C207.488 232.296 207.668 232.332 207.848 232.332C208.352 232.332 208.784 231.9 208.784 231.396C208.784 231.072 208.604 230.748 208.352 230.604L198.596 224.628C200.072 223.512 207.128 218.364 207.128 216.888C207.128 216.384 206.696 215.952 206.192 215.952C205.868 215.952 205.652 216.096 205.436 216.348C203.456 218.76 200.792 220.632 198.308 222.504C197.912 222.792 197.516 223.08 197.12 223.368C196.94 220.812 196.76 218.292 196.616 215.736L196.364 211.956C196.328 211.308 196.292 210.696 196.256 210.084L196.112 207.42L196.04 206.52C195.932 206.016 195.68 205.62 195.104 205.62C194.6 205.62 194.168 206.052 194.168 206.556V206.592C194.24 207.528 194.276 208.428 194.348 209.364L194.672 214.98C194.744 215.916 194.816 216.816 194.852 217.752C195.032 221.028 195.32 224.268 195.536 227.508L195.752 230.784C195.788 231.216 195.788 231.72 195.86 232.152C195.968 232.62 196.256 233.016 196.796 233.016ZM232.412 213.432C232.412 213.576 232.412 213.756 232.376 213.936C231.98 214.08 231.512 214.08 231.116 214.08C229.82 214.08 228.524 214.08 227.192 214.08L219.308 213.972C218.012 213.972 216.68 213.972 215.348 213.972C214.484 213.972 214.34 214.656 214.304 215.34C214.268 215.88 214.232 216.42 214.232 216.924C214.232 218.508 214.304 220.164 214.448 221.748C214.664 223.62 216.284 224.268 217.976 224.268L219.092 224.232C220.424 224.232 221.756 224.232 223.088 224.196C223.052 224.988 223.124 225.852 223.124 226.68C223.088 228.408 223.052 230.136 223.052 231.864C222.08 231.864 221.108 231.864 220.136 231.864L214.088 231.9C213.08 231.9 212.072 231.9 211.064 231.9C210.524 231.9 210.092 232.332 210.092 232.872C210.092 233.34 210.524 233.7 210.992 233.7C212.108 233.7 213.26 233.7 214.376 233.7L221.108 233.664C222.224 233.664 223.376 233.664 224.492 233.664C228.956 233.664 233.384 233.736 237.812 233.736C238.352 233.736 238.82 233.34 238.82 232.764C238.82 232.26 238.424 232.008 237.956 231.936C237.56 231.864 237.056 231.936 236.66 231.936L233.636 231.9C230.756 231.9 227.876 231.864 224.96 231.864C224.96 231.144 224.924 230.424 224.924 229.704C224.96 227.868 224.996 226.032 224.996 224.16C226.4 224.124 227.768 224.088 229.172 224.016C230.756 223.98 232.376 223.98 233.96 223.872C234.5 223.836 234.932 223.476 234.932 222.9C234.932 222.468 234.5 222.072 234.068 222.072H234.032C228.74 222.216 223.448 222.468 218.156 222.468C217.472 222.468 216.536 222.396 216.32 221.64C216.14 220.884 216.104 217.86 216.104 216.924C216.104 216.564 216.104 216.168 216.14 215.772C221.108 215.808 226.04 215.88 231.008 215.88C232.844 215.88 234.248 215.484 234.248 213.36C234.248 211.812 234.104 207.96 233.168 206.772C232.772 206.268 232.232 206.088 231.656 205.98C231.152 205.872 230.612 205.836 230.108 205.836C226.832 205.764 223.592 205.764 220.352 205.764C218.804 205.728 217.256 205.692 215.708 205.692C215.168 205.692 214.7 206.088 214.7 206.664C214.7 207.168 215.096 207.456 215.564 207.492C216.572 207.6 217.616 207.528 218.624 207.528C220.748 207.564 222.872 207.6 224.996 207.6C225.896 207.6 226.796 207.564 227.66 207.564C228.38 207.564 231.224 207.564 231.692 207.924C232.196 208.32 232.412 212.568 232.412 213.432ZM87.1343 274.316C87.1343 274.748 87.5663 275.144 87.9983 275.144C88.3223 275.144 88.6463 275 88.8263 274.712L90.3743 272.372C91.9943 269.924 94.1903 266.396 94.9102 263.552C96.2423 265.424 97.6823 267.26 99.0503 269.096C99.9143 270.248 100.814 271.4 101.714 272.552L102.902 274.064C103.082 274.244 103.334 274.388 103.586 274.388C104.126 274.388 104.594 273.956 104.594 273.416C104.594 273.236 104.522 273.056 104.414 272.912C103.838 272.156 103.19 271.436 102.614 270.644C101.534 269.276 100.454 267.872 99.4103 266.468C98.5463 265.316 97.6823 264.164 96.8543 262.976C96.4223 262.364 95.9543 261.68 95.4863 261.104C95.7383 259.916 95.9183 258.692 96.0623 257.504L96.9263 250.988C96.9623 250.916 96.9623 250.88 96.9623 250.808C96.9623 250.376 96.5303 249.98 96.0983 249.98C95.5583 249.98 95.2343 250.304 95.1263 250.772C94.9823 251.348 94.9463 251.996 94.8383 252.572C94.3703 256.244 94.1543 260.06 93.0023 263.588C92.1023 266.432 90.3743 269.132 88.7183 271.616C88.2503 272.336 87.7463 273.056 87.3143 273.776C87.2063 273.956 87.1343 274.1 87.1343 274.316ZM109.886 250.016C109.886 252.248 110.03 254.516 110.102 256.748C110.21 261.5 110.318 266.216 110.318 270.932C110.318 271.832 110.318 272.696 110.282 273.596L110.21 275.396C110.174 276.296 110.174 277.16 110.174 278.06C110.174 278.492 110.606 278.888 111.038 278.888C111.65 278.888 111.938 278.492 112.046 277.952C112.118 277.376 112.082 276.548 112.082 275.936C112.118 274.244 112.154 272.552 112.154 270.86C112.154 266.144 112.082 261.392 111.938 256.64C111.902 255.056 111.866 253.508 111.794 251.924C111.794 251.276 111.83 250.52 111.758 249.872C111.686 249.404 111.398 249.044 110.894 249.044C110.354 249.044 109.886 249.44 109.886 250.016ZM139.999 265.568C140.539 265.568 141.007 265.136 141.007 264.596V264.56C140.899 263.084 140.827 261.608 140.791 260.096C140.755 259.304 140.719 258.476 140.683 257.648L146.227 257.684C146.767 257.684 147.235 257.252 147.235 256.712C147.235 256.28 146.803 255.884 146.371 255.884L140.755 255.848C140.719 255.848 140.683 255.848 140.647 255.848C140.611 255.38 140.611 254.876 140.575 254.408C140.539 253.22 140.467 252.032 140.359 250.88C140.359 250.376 140.359 249.836 140.287 249.332C140.215 248.9 139.891 248.54 139.423 248.54C138.883 248.54 138.415 248.972 138.415 249.512V249.548C138.703 253.94 138.883 258.332 139.027 262.76C139.063 263.408 139.063 264.128 139.135 264.776C139.207 265.208 139.531 265.568 139.999 265.568ZM130.387 251.42C130.279 251.636 130.135 251.816 129.991 252.032C129.091 253.436 128.299 254.876 127.291 256.208C125.347 258.836 122.899 261.032 120.199 262.832L118.867 263.66C118.651 263.804 118.435 263.948 118.219 264.092C117.895 264.272 117.715 264.524 117.715 264.92C117.715 265.352 118.147 265.748 118.579 265.748C119.155 265.748 120.775 264.596 121.315 264.236C122.827 263.264 124.231 262.148 125.491 260.924C126.751 261.788 131.359 264.452 131.863 264.452C132.403 264.452 132.871 264.02 132.871 263.48C132.871 263.156 132.655 262.904 132.367 262.76C132.151 262.616 131.899 262.508 131.683 262.364L130.279 261.608C130.063 261.464 129.811 261.356 129.595 261.212C128.659 260.672 127.759 260.096 126.823 259.556C127.723 258.548 128.551 257.504 129.343 256.388C130.207 255.2 130.927 253.868 131.755 252.644C132.007 252.248 132.259 251.744 132.259 251.24C132.259 250.34 131.503 249.764 130.675 249.548C130.171 249.404 129.631 249.404 129.091 249.404C125.599 249.332 122.107 249.296 118.615 249.296C118.075 249.296 117.607 249.692 117.607 250.268C117.607 250.736 118.039 251.06 118.471 251.096C118.903 251.132 119.335 251.132 119.767 251.132H121.063L126.427 251.168C126.967 251.168 127.507 251.168 128.011 251.168C128.695 251.168 129.775 251.096 130.387 251.42ZM137.551 269.744C138.127 269.744 139.243 269.852 139.495 270.464C139.603 270.716 139.567 271.256 139.567 271.544C139.567 272.228 139.495 272.912 139.495 273.632C139.423 275.252 139.387 276.872 139.279 278.456V278.564C139.279 278.996 139.711 279.392 140.143 279.392C140.683 279.392 141.043 279.032 141.151 278.528C141.223 277.88 141.259 277.232 141.259 276.62C141.295 274.892 141.439 273.164 141.439 271.436C141.439 270.968 141.439 270.464 141.295 269.96C140.827 268.412 139.171 267.944 137.695 267.944C137.227 267.944 136.723 267.944 136.255 267.98C133.087 268.16 129.883 268.304 126.715 268.412C124.951 268.484 123.187 268.448 121.459 268.556C120.919 268.592 120.487 268.952 120.487 269.528C120.487 269.96 120.919 270.356 121.351 270.356C124.735 270.356 128.155 270.176 131.539 270.032C133.555 269.924 135.535 269.744 137.551 269.744ZM149.952 266.144C149.952 270.86 151.32 275.756 156.936 275.756C161.94 275.756 163.92 270.824 163.92 266.54C163.92 265.208 163.668 263.804 163.164 262.544C162.984 262.076 162.732 261.644 162.444 261.248C160.788 259.052 158.448 257.828 155.676 257.828C151.572 257.828 149.952 262.76 149.952 266.144ZM155.604 259.628C158.088 259.628 160.428 260.996 161.436 263.3C161.868 264.272 162.084 265.604 162.084 266.648C162.084 269.78 160.824 273.956 157.008 273.956C155.856 273.956 154.56 273.632 153.696 272.84C152.22 271.4 151.824 268.052 151.824 266.072C151.824 263.84 152.76 259.628 155.604 259.628ZM170.58 249.224C170.04 249.224 169.572 249.656 169.572 250.196V250.232C169.824 253.364 170.04 256.532 170.112 259.7C170.292 264.848 170.184 270.032 170.22 275.216V278.132C170.22 278.564 170.652 278.96 171.084 278.96C171.588 278.96 172.092 278.564 172.092 278.024V269.06C172.092 267.116 172.056 265.136 172.02 263.156C173.136 263.156 174.216 263.084 175.296 263.048L177.168 262.976C177.708 262.94 178.14 262.58 178.14 262.004C178.14 261.572 177.708 261.176 177.276 261.176C175.944 261.176 174.648 261.248 173.352 261.284C172.884 261.32 172.416 261.32 171.984 261.32C171.948 259.412 171.84 257.504 171.768 255.56C171.732 254.336 171.66 253.112 171.552 251.852C171.516 251.276 171.552 250.592 171.444 250.016C171.336 249.584 171.084 249.224 170.58 249.224ZM157.008 255.452C159.744 255.452 162.48 255.56 165.18 255.56C165.72 255.56 166.188 255.164 166.188 254.588C166.188 254.084 165.792 253.796 165.324 253.76C164.424 253.652 163.488 253.724 162.588 253.688C161.04 253.652 159.456 253.652 157.908 253.652C157.872 252.608 157.764 251.6 157.692 250.52L157.584 248.972C157.512 248.54 157.188 248.18 156.72 248.18C156.18 248.18 155.712 248.612 155.712 249.152V249.188L155.964 252.68C155.964 253.004 155.964 253.328 156 253.652L155.136 253.616C153.084 253.616 151.068 253.652 149.052 253.652C148.512 253.652 148.08 254.084 148.08 254.624C148.08 255.092 148.512 255.452 148.98 255.452H157.008ZM190.757 252.284C191.081 252.284 191.405 252.284 191.765 252.32C192.629 252.356 192.737 252.572 192.737 253.4C192.737 254.912 192.305 256.388 191.909 257.828C190.505 262.688 187.985 267.368 184.493 271.04C183.881 271.688 183.197 272.3 182.513 272.84C182.261 273.092 181.937 273.308 181.685 273.524C181.469 273.74 181.325 273.956 181.325 274.28C181.325 274.712 181.757 275.108 182.189 275.108C182.909 275.108 184.277 273.704 184.817 273.236C185.501 272.588 186.149 271.94 186.761 271.22C190.325 266.9 192.377 262.76 193.925 257.396C194.285 256.064 194.573 254.66 194.573 253.292C194.573 251.996 194.069 250.988 192.773 250.592C192.269 250.448 191.189 250.484 190.613 250.484H189.821C187.877 250.592 185.897 250.664 183.953 250.7C182.945 250.7 181.649 250.664 180.713 250.736C180.173 250.772 179.741 251.132 179.741 251.708C179.741 252.14 180.173 252.536 180.605 252.536C182.945 252.536 185.249 252.5 187.553 252.428C188.633 252.392 189.677 252.284 190.757 252.284ZM202.241 250.016C202.241 252.248 202.385 254.516 202.457 256.748C202.565 261.5 202.673 266.216 202.673 270.932C202.673 273.308 202.529 275.684 202.529 278.06C202.529 278.492 202.961 278.888 203.393 278.888C204.005 278.888 204.293 278.492 204.401 277.952C204.473 277.376 204.437 276.548 204.437 275.936C204.473 274.244 204.509 272.552 204.509 270.86C204.509 266.144 204.437 261.392 204.293 256.64C204.257 255.056 204.221 253.508 204.149 251.924C204.149 251.276 204.185 250.52 204.113 249.872C204.041 249.404 203.753 249.044 203.249 249.044C202.709 249.044 202.241 249.44 202.241 250.016Z" fill="black"/>
</svg>
