<svg width="242" height="259" viewBox="0 0 242 259" fill="none" xmlns="http://www.w3.org/2000/svg">
<path d="M60.0085 26.5973C61.5278 19.3713 71.0896 17.7192 74.7331 24.0532L94.3305 58.1217C96.7408 62.3117 94.8793 67.7318 90.3836 69.6139L61.0398 81.8982C55.1174 84.3775 48.938 79.2472 50.2621 72.95L60.0085 26.5973Z" fill="#515151"/>
<path d="M67.1005 38.1151C67.6095 35.1522 71.6359 34.6248 72.8019 37.3684L79.1549 52.3161C79.8326 53.9106 79.0162 55.7686 77.3772 56.3615L67.8651 59.8027C65.713 60.5813 63.5529 58.7653 63.9414 56.504L67.1005 38.1151Z" fill="#979797"/>
<path d="M176.268 23.6854C174.702 16.6852 165.384 15.1891 161.623 21.3339L140.157 56.4012C137.563 60.6378 139.402 66.1615 144.009 67.974L176.152 80.6185C182.131 82.9707 188.345 77.6609 186.944 71.3972L176.268 23.6854Z" fill="#515151"/>
<path d="M168.907 35.9193C168.38 33.0316 164.431 32.5702 163.217 35.2545L156.221 50.7206C155.493 52.331 156.305 54.2096 157.974 54.7771L168.448 58.3377C170.62 59.0762 172.798 57.2004 172.386 54.9461L168.907 35.9193Z" fill="#979797"/>
<path d="M82.9568 115.496C64.4065 116.425 53.532 100.326 52.8359 88.6154C52.1397 76.9046 66.6134 66.6586 85.1637 65.7304C103.714 64.8022 119.316 73.5433 120.012 85.2542C120.709 96.965 101.507 114.568 82.9568 115.496Z" fill="#9A9A9A"/>
<path d="M116.675 104.29C98.1251 105.221 87.2539 89.124 86.56 77.413C85.866 65.702 100.341 55.4536 118.891 54.5224C137.442 53.5913 153.042 62.33 153.736 74.041C154.43 85.752 135.225 103.359 116.675 104.29Z" fill="#9A9A9A"/>
<path d="M153.108 115.496C134.558 116.425 123.683 100.326 122.987 88.6154C122.291 76.9046 136.765 66.6586 155.315 65.7304C173.865 64.8022 189.468 73.5433 190.164 85.2542C190.86 96.965 171.658 114.568 153.108 115.496Z" fill="#9A9A9A"/>
<path d="M158.381 198.762C174.641 198.67 183.42 215.238 183.498 226.966C183.577 238.694 170.46 248.276 154.201 248.368C137.941 248.46 124.696 239.027 124.617 227.299C124.538 215.571 142.121 198.854 158.381 198.762Z" fill="#9A9A9A"/>
<path d="M190.757 177.935C207.017 177.843 215.796 194.412 215.874 206.14C215.953 217.868 202.836 227.45 186.576 227.542C170.317 227.634 157.072 218.201 156.993 206.473C156.914 194.745 174.497 178.027 190.757 177.935Z" fill="#9A9A9A"/>
<path d="M174.568 188.031C190.827 187.939 199.606 204.507 199.685 216.235C199.764 227.963 186.647 237.546 170.387 237.638C154.127 237.73 140.882 228.297 140.803 216.569C140.725 204.841 158.308 188.123 174.568 188.031Z" fill="#9A9A9A"/>
<path d="M200.876 156.478C217.136 156.386 225.915 172.954 225.994 184.682C226.072 196.41 212.955 205.992 196.696 206.084C180.436 206.176 167.191 196.744 167.112 185.016C167.033 173.287 184.616 156.57 200.876 156.478Z" fill="#9A9A9A"/>
<path d="M55.3025 217.606C36.7522 218.534 25.8777 202.436 25.1816 190.725C24.4854 179.014 38.9591 168.768 57.5094 167.84C76.0597 166.912 91.662 175.653 92.3581 187.364C93.0543 199.075 73.8528 216.678 55.3025 217.606Z" fill="#9A9A9A"/>
<path d="M15.0518 160.624C14.2369 143.26 31.5461 133.24 44.0688 132.701C56.5916 132.161 67.404 145.8 68.2188 163.164C69.0337 180.528 59.5426 195.042 47.0198 195.581C34.497 196.121 15.8667 177.988 15.0518 160.624Z" fill="#9A9A9A"/>
<path d="M21.7969 131.593C20.982 114.229 38.2912 104.209 50.814 103.669C63.3368 103.13 74.1491 116.769 74.964 134.133C75.7789 151.497 66.2877 166.011 53.7649 166.55C41.2421 167.09 22.6118 148.957 21.7969 131.593Z" fill="#9A9A9A"/>
<path d="M32.5889 105.719C31.774 88.3549 49.0832 78.3348 61.606 77.7953C74.1287 77.2558 84.9411 90.8948 85.756 108.259C86.5708 125.623 77.0797 140.137 64.5569 140.676C52.0341 141.215 33.4038 123.083 32.5889 105.719Z" fill="#9A9A9A"/>
<path d="M163.449 111.398C162.634 94.0341 179.944 84.014 192.466 83.4745C204.989 82.935 215.801 96.574 216.616 113.938C217.431 131.302 207.94 145.816 195.417 146.355C182.894 146.895 164.264 128.762 163.449 111.398Z" fill="#9A9A9A"/>
<path d="M169.822 139.519C167.049 124.521 184.828 113.37 198.418 111.143C212.009 108.916 225.274 119.269 228.047 134.267C230.82 149.265 222.05 163.229 208.459 165.457C194.868 167.684 172.594 154.517 169.822 139.519Z" fill="#9A9A9A"/>
<path d="M223.08 146.202C234.257 160.086 226.048 177.513 216.051 184.589C206.053 191.665 188.889 186.147 177.713 172.263C166.537 158.38 165.581 141.389 175.579 134.312C185.576 127.236 211.904 132.319 223.08 146.202Z" fill="#9A9A9A"/>
<path d="M81.5914 243.429C63.0411 244.357 43.4132 229.623 42.7171 217.912C42.021 206.201 56.4946 195.955 75.0449 195.027C93.5952 194.099 117.32 202.839 118.016 214.55C118.712 226.261 100.142 242.501 81.5914 243.429Z" fill="#9A9A9A"/>
<path d="M107.225 256.682C88.6749 257.61 69.047 242.875 68.3509 231.164C67.6547 219.453 82.1284 209.207 100.679 208.279C119.229 207.351 142.954 216.092 143.65 227.803C144.346 239.513 125.775 255.754 107.225 256.682Z" fill="#9A9A9A"/>
<path d="M134.207 254.789C115.656 255.717 96.0285 240.982 95.3323 229.272C94.6362 217.561 109.11 207.315 127.66 206.387C146.21 205.458 169.935 214.199 170.631 225.91C171.327 237.621 152.757 253.861 134.207 254.789Z" fill="#9A9A9A"/>
<ellipse cx="124.426" cy="156.879" rx="101.18" ry="92.8288" fill="#9A9A9A"/>
<path d="M134.421 155.026C134.421 158.55 129.292 165.554 122.965 165.554C116.639 165.554 111.51 158.55 111.51 155.026C111.51 151.503 116.639 148.646 122.965 148.646C129.292 148.646 134.421 151.503 134.421 155.026Z" fill="black"/>
<path d="M1.00047 176.113C28.1203 154.687 44.8563 150.989 76.9672 156.68" stroke="#DEDEDE" stroke-width="3"/>
<path d="M6.36265 198.403C30.7781 176.678 46.8339 170.315 79.0522 168.234" stroke="#DEDEDE" stroke-width="3"/>
<path d="M239.973 175.193C217.502 152.781 200.651 148.805 162.094 155.342" stroke="#DEDEDE" stroke-width="3"/>
<path d="M239.314 194.69C209.313 170.765 194.344 165.132 163.622 167.1" stroke="#DEDEDE" stroke-width="3"/>
<ellipse rx="6.29957" ry="8.55848" transform="matrix(-1.03661 -0.00543604 -0.00611673 0.960322 143.589 138.955)" fill="black"/>
<path fill-rule="evenodd" clip-rule="evenodd" d="M141.621 146.752C144.085 145.571 145.829 142.564 145.815 139.047C145.801 135.399 143.901 132.312 141.283 131.247C141.999 130.904 142.776 130.714 143.588 130.712C147.194 130.7 150.132 134.371 150.15 138.91C150.168 143.449 147.259 147.138 143.652 147.15C142.944 147.152 142.261 147.012 141.621 146.752Z" fill="white"/>
<ellipse rx="6.29957" ry="8.55848" transform="matrix(-1.03661 -0.00543604 -0.00611673 0.960322 101.138 138.869)" fill="black"/>
<path fill-rule="evenodd" clip-rule="evenodd" d="M99.1703 146.664C101.634 145.483 103.378 142.476 103.364 138.959C103.35 135.311 101.449 132.224 98.832 131.159C99.5478 130.816 100.324 130.627 101.136 130.624C104.743 130.612 107.681 134.283 107.699 138.822C107.717 143.361 104.807 147.05 101.201 147.062C100.493 147.064 99.81 146.924 99.1703 146.664Z" fill="white"/>
</svg>
