<svg width="279" height="331" viewBox="0 0 279 331" fill="none" xmlns="http://www.w3.org/2000/svg">
<path d="M86.9911 25.1844C88.5152 17.9802 98.0533 16.344 101.709 22.6597L123.592 60.4702C126.019 64.665 124.16 70.0951 119.653 71.9703L86.8868 85.6039C80.9589 88.0704 74.7765 82.9224 76.108 76.6285L86.9911 25.1844Z" fill="#515151"/>
<path d="M94.3832 38.11C94.8941 35.1543 98.913 34.6336 100.084 37.3715L107.204 54.0225C107.887 55.6186 107.07 57.4786 105.429 58.069L94.7677 61.9024C92.6136 62.6769 90.4519 60.8551 90.8426 58.5944L94.3832 38.11Z" fill="#979797"/>
<path d="M111.187 120.86C91.3919 121.844 79.7876 104.77 79.0447 92.3491C78.3019 79.9283 93.7469 69.0612 113.542 68.0767C133.338 67.0923 149.987 76.3633 150.73 88.7841C151.473 101.205 130.982 119.875 111.187 120.86Z" fill="#9A9A9A"/>
<path d="M147.169 108.974C127.374 109.962 115.773 92.8889 115.032 80.4679C114.292 68.047 129.739 57.1772 149.534 56.1896C169.329 55.202 185.976 64.4705 186.717 76.8915C187.457 89.3125 166.964 107.986 147.169 108.974Z" fill="#9A9A9A"/>
<path d="M186.048 120.86C166.252 121.844 154.648 104.77 153.905 92.3491C153.162 79.9283 168.607 69.0612 188.403 68.0767C208.198 67.0923 224.847 76.3633 225.59 88.7841C226.333 101.205 205.843 119.875 186.048 120.86Z" fill="#9A9A9A"/>
<path d="M191.673 209.173C209.024 209.075 218.392 226.648 218.476 239.087C218.56 251.526 204.563 261.689 187.212 261.787C169.861 261.884 155.727 251.88 155.643 239.441C155.558 227.002 174.322 209.271 191.673 209.173Z" fill="#9A9A9A"/>
<path d="M226.223 187.085C243.574 186.987 252.942 204.56 253.027 216.999C253.111 229.438 239.113 239.601 221.762 239.698C204.411 239.796 190.277 229.791 190.193 217.352C190.109 204.913 208.873 187.182 226.223 187.085Z" fill="#9A9A9A"/>
<path d="M208.948 197.793C226.299 197.695 235.667 215.268 235.751 227.707C235.835 240.146 221.838 250.309 204.487 250.407C187.136 250.505 173.002 240.5 172.918 228.061C172.834 215.622 191.597 197.891 208.948 197.793Z" fill="#9A9A9A"/>
<path d="M237.02 164.326C254.371 164.228 263.739 181.801 263.824 194.24C263.908 206.679 249.91 216.842 232.559 216.94C215.208 217.038 201.074 207.033 200.99 194.594C200.906 182.155 219.669 164.424 237.02 164.326Z" fill="#9A9A9A"/>
<path d="M81.6764 229.161C61.8812 230.145 50.2768 213.071 49.534 200.65C48.7911 188.229 64.2362 177.362 84.0315 176.378C103.827 175.393 120.476 184.664 121.219 197.085C121.962 209.506 101.472 228.176 81.6764 229.161Z" fill="#9A9A9A"/>
<path d="M38.7253 168.724C37.8557 150.308 56.3266 139.68 69.6898 139.108C83.0531 138.536 94.5911 153.001 95.4606 171.418C96.3302 189.835 86.2021 205.228 72.8388 205.801C59.4756 206.373 39.5949 187.141 38.7253 168.724Z" fill="#9A9A9A"/>
<path d="M45.9226 137.932C45.053 119.515 63.5238 108.888 76.8871 108.316C90.2503 107.743 101.788 122.209 102.658 140.626C103.527 159.043 93.3994 174.436 80.0361 175.008C66.6728 175.581 46.7921 156.349 45.9226 137.932Z" fill="#9A9A9A"/>
<path d="M57.4401 110.49C56.5706 92.0732 75.0414 81.4456 88.4047 80.8734C101.768 80.3012 113.306 94.7671 114.175 113.184C115.045 131.601 104.917 146.994 91.5537 147.566C78.1904 148.138 58.3097 128.907 57.4401 110.49Z" fill="#9A9A9A"/>
<path d="M197.082 116.514C196.212 98.0974 214.683 87.4697 228.046 86.8976C241.41 86.3254 252.948 100.791 253.817 119.208C254.687 137.625 244.559 153.018 231.195 153.59C217.832 154.163 197.951 134.931 197.082 116.514Z" fill="#9A9A9A"/>
<path d="M203.884 146.34C200.925 130.432 219.897 118.606 234.4 116.243C248.903 113.881 263.058 124.862 266.017 140.769C268.975 156.677 259.617 171.488 245.114 173.85C230.611 176.212 206.842 162.247 203.884 146.34Z" fill="#9A9A9A"/>
<path d="M260.716 153.428C272.642 168.153 263.883 186.636 253.214 194.141C242.546 201.647 224.229 195.794 212.303 181.068C200.377 166.343 199.358 148.322 210.026 140.817C220.695 133.311 248.79 138.702 260.716 153.428Z" fill="#9A9A9A"/>
<path d="M109.732 256.549C89.9366 257.533 68.9915 241.905 68.2486 229.484C67.5058 217.064 82.9508 206.197 102.746 205.212C122.541 204.228 147.858 213.498 148.601 225.919C149.344 238.34 129.527 255.565 109.732 256.549Z" fill="#9A9A9A"/>
<path d="M137.084 270.605C117.289 271.59 96.344 255.962 95.6012 243.541C94.8583 231.12 110.303 220.253 130.099 219.268C149.894 218.284 175.211 227.555 175.954 239.976C176.697 252.396 156.88 269.621 137.084 270.605Z" fill="#9A9A9A"/>
<path d="M165.876 268.597C146.081 269.581 125.136 253.953 124.393 241.532C123.65 229.111 139.095 218.244 158.891 217.26C178.686 216.275 204.003 225.546 204.746 237.967C205.489 250.388 185.672 267.612 165.876 268.597Z" fill="#9A9A9A"/>
<ellipse cx="155.439" cy="164.75" rx="107.971" ry="98.4566" fill="#9A9A9A"/>
<path d="M166.106 162.787C166.106 166.524 160.633 173.952 153.881 173.952C147.13 173.952 141.657 166.524 141.657 162.787C141.657 159.049 147.13 156.02 153.881 156.02C160.633 156.02 166.106 159.049 166.106 162.787Z" fill="black"/>
<ellipse rx="6.70818" ry="9.10183" transform="matrix(-1.0388 -0.00541442 -0.00613764 0.957739 175.89 145.741)" fill="black"/>
<path fill-rule="evenodd" clip-rule="evenodd" d="M173.791 154.009C176.42 152.757 178.28 149.567 178.266 145.837C178.25 141.968 176.222 138.694 173.429 137.564C174.193 137.2 175.022 136.999 175.888 136.997C179.737 136.984 182.872 140.877 182.891 145.691C182.91 150.506 179.806 154.419 175.957 154.431C175.202 154.434 174.473 154.285 173.791 154.009Z" fill="white"/>
<ellipse rx="6.70818" ry="9.10183" transform="matrix(-1.0388 -0.00541442 -0.00613764 0.957739 130.587 145.65)" fill="black"/>
<path fill-rule="evenodd" clip-rule="evenodd" d="M128.488 153.918C131.117 152.665 132.978 149.476 132.963 145.746C132.948 141.877 130.92 138.603 128.126 137.473C128.89 137.109 129.719 136.908 130.586 136.905C134.434 136.893 137.57 140.786 137.589 145.6C137.608 150.415 134.503 154.327 130.654 154.34C129.899 154.342 129.171 154.194 128.488 153.918Z" fill="white"/>
<path d="M270.395 91.3874C270.395 119.655 227.704 111.562 196.33 111.562C164.957 111.562 135.905 84.5368 135.905 56.2693C135.905 28.0019 161.339 24.8872 192.712 24.8872C224.086 24.8872 270.395 63.12 270.395 91.3874Z" fill="#FAB049"/>
<path d="M234.974 36.7149C230.131 42.7276 223.939 45.631 221.144 43.1999C218.348 40.7687 220.008 33.9238 224.851 27.9111C229.693 21.8984 232.758 23.9287 235.554 26.3598C238.349 28.7909 239.817 30.7022 234.974 36.7149Z" fill="#E78141"/>
<path d="M213.206 39.0841C181.736 37.2467 164.156 38.0238 146.332 63.3675" stroke="#E78141" stroke-width="3" stroke-linecap="round"/>
<path d="M213.206 48.1204C192.282 54.0691 186.217 65.3244 170.062 84.2889" stroke="#E78141" stroke-width="3" stroke-linecap="round"/>
<path d="M224.093 53.6542C233.576 67.3207 231.355 78.8154 231.183 100.727" stroke="#E78141" stroke-width="3" stroke-linecap="round"/>
<path d="M214.252 59.8774C212.27 74.2689 207.088 81.3061 205.134 96.7458" stroke="#E78141" stroke-width="3" stroke-linecap="round"/>
<path d="M232.536 49.649C252.373 63.5278 262.392 72.6849 258.093 101.094" stroke="#E78141" stroke-width="3" stroke-linecap="round"/>
<path d="M96.9454 227.306C80.2964 197.166 71.9122 176.214 46.5684 191.33C21.2246 206.446 14.1761 243.133 30.825 273.273C47.474 303.412 101.235 306.006 126.578 290.89C151.922 275.774 113.594 257.445 96.9454 227.306Z" fill="#D9D9D9"/>
<path d="M70.2742 207.932C70.3681 214.122 64.9308 221.471 58.9746 221.569C53.0183 221.666 48.1137 216.728 48.0197 210.539C47.9258 204.35 52.6781 199.253 58.6344 199.156C64.5906 199.058 70.1802 201.743 70.2742 207.932Z" fill="#E66161"/>
<path d="M56.3485 238.052C56.4424 244.241 51.6901 249.338 45.7338 249.436C39.7776 249.533 33.3953 242.004 33.3013 235.815C33.2074 229.625 39.4374 227.12 45.3936 227.023C51.3499 226.925 56.2545 231.863 56.3485 238.052Z" fill="#FAB049"/>
<path d="M101.492 274.677C101.586 280.866 96.8339 285.962 90.8776 286.06C84.9214 286.158 77.9051 284.243 77.8112 278.054C77.7172 271.865 84.5811 263.745 90.5374 263.647C96.4937 263.549 101.398 268.488 101.492 274.677Z" fill="#7DD070"/>
<path d="M73.2593 262.435C73.3533 268.625 68.6009 273.721 62.6447 273.819C56.6884 273.916 51.7838 268.978 51.6898 262.789C51.5959 256.6 59.2581 253.697 65.2144 253.6C71.1706 253.502 73.1653 256.246 73.2593 262.435Z" fill="#FFCB43"/>
<path d="M73.2593 262.435C73.3533 268.625 68.6009 273.721 62.6447 273.819C56.6884 273.916 51.7838 268.978 51.6898 262.789C51.5959 256.6 59.2581 253.697 65.2144 253.6C71.1706 253.502 73.1653 256.246 73.2593 262.435Z" fill="#FFCB43"/>
<path d="M73.2593 262.435C73.3533 268.625 68.6009 273.721 62.6447 273.819C56.6884 273.916 51.7838 268.978 51.6898 262.789C51.5959 256.6 59.2581 253.697 65.2144 253.6C71.1706 253.502 73.1653 256.246 73.2593 262.435Z" fill="#FFCB43"/>
<path d="M73.2593 262.435C73.3533 268.625 68.6009 273.721 62.6447 273.819C56.6884 273.916 51.7838 268.978 51.6898 262.789C51.5959 256.6 59.2581 253.697 65.2144 253.6C71.1706 253.502 73.1653 256.246 73.2593 262.435Z" fill="#FFCB43"/>
</svg>
