<svg width="268" height="220" viewBox="0 0 268 220" fill="none" xmlns="http://www.w3.org/2000/svg">
<path d="M99.6439 64.129C82.6785 65.1401 72.7331 47.6044 72.0965 34.8479C71.4598 22.0914 84.6969 10.9306 101.662 9.91956C118.628 8.9085 132.897 18.43 133.534 31.1865C134.17 43.943 116.609 63.118 99.6439 64.129Z" fill="#FFCB43"/>
<path d="M124.936 56.0402C107.971 57.0512 98.0251 39.5155 97.3884 26.759C96.7518 14.0026 109.989 2.84175 126.954 1.83069C143.92 0.819628 158.189 10.3412 158.826 23.0977C159.462 35.8541 141.901 55.0291 124.936 56.0402Z" fill="#FFCB43"/>
<path d="M163.801 64.129C146.836 65.1401 136.89 47.6044 136.254 34.8479C135.617 22.0914 148.854 10.9306 165.819 9.91956C182.785 8.9085 197.054 18.43 197.691 31.1865C198.328 43.943 180.767 63.118 163.801 64.129Z" fill="#FFCB43"/>
<path d="M169.777 158.386C184.648 158.286 192.676 176.334 192.749 189.109C192.821 201.884 180.824 212.322 165.954 212.422C151.083 212.522 138.97 202.247 138.898 189.472C138.826 176.697 154.907 158.487 169.777 158.386Z" fill="#FFCB43"/>
<path d="M197 136.325C211.87 136.225 219.899 154.273 219.971 167.048C220.043 179.823 208.047 190.261 193.176 190.361C178.306 190.461 166.193 180.186 166.12 167.411C166.048 154.636 182.129 136.425 197 136.325Z" fill="#FFCB43"/>
<path d="M213.656 107.339C228.526 107.239 236.555 125.286 236.627 138.062C236.7 150.837 224.703 161.274 209.833 161.375C194.962 161.475 182.849 151.2 182.777 138.425C182.704 125.649 198.786 107.439 213.656 107.339Z" fill="#FFCB43"/>
<path d="M74.3509 175.359C57.3855 176.37 47.4402 158.834 46.8035 146.077C46.1668 133.321 59.4039 122.16 76.3693 121.149C93.3347 120.138 107.604 129.66 108.241 142.416C108.877 155.173 91.3164 174.347 74.3509 175.359Z" fill="#FFCB43"/>
<path d="M94.7084 205.02C77.743 206.031 67.7976 188.495 67.1609 175.739C66.5242 162.982 79.7613 151.821 96.7267 150.81C113.692 149.799 127.961 159.321 128.598 172.077C129.235 184.834 111.674 204.009 94.7084 205.02Z" fill="#FFCB43"/>
<path d="M132.942 217.923C115.977 218.934 98.026 202.884 97.3893 190.127C96.7526 177.371 109.99 166.21 126.955 165.199C143.92 164.188 165.618 173.709 166.255 186.465C166.892 199.222 149.908 216.912 132.942 217.923Z" fill="#FFCB43"/>
<ellipse cx="137.569" cy="109.207" rx="92.5354" ry="101.117" fill="#FFCB43"/>
<ellipse cx="132.325" cy="121.679" rx="17.5817" ry="10.3118" fill="black"/>
<ellipse rx="5.90208" ry="8.12841" transform="matrix(-1.01292 -0.0056619 -0.00589612 0.98669 152.131 101.911)" fill="black"/>
<path fill-rule="evenodd" clip-rule="evenodd" d="M150.33 109.519C152.586 108.366 154.182 105.432 154.169 102C154.156 98.4399 152.416 95.4277 150.02 94.388C150.675 94.0531 151.386 93.8685 152.13 93.866C155.431 93.8546 158.121 97.4362 158.137 101.866C158.154 106.295 155.49 109.895 152.189 109.907C151.54 109.909 150.916 109.773 150.33 109.519Z" fill="white"/>
<ellipse rx="5.90208" ry="8.12841" transform="matrix(-1.01292 -0.0056619 -0.00589612 0.98669 113.268 101.827)" fill="black"/>
<path fill-rule="evenodd" clip-rule="evenodd" d="M111.467 109.433C113.722 108.28 115.318 105.346 115.306 101.914C115.293 98.3544 113.553 95.3423 111.156 94.3026C111.812 93.9676 112.523 93.7831 113.266 93.7805C116.568 93.7692 119.258 97.3507 119.274 101.78C119.291 106.21 116.627 109.81 113.325 109.821C112.677 109.823 112.052 109.687 111.467 109.433Z" fill="white"/>
<path d="M2.94573 101.905C4.57235 76.7217 53.6599 35.3261 69.6317 36.6072C85.6036 37.8884 62.4115 81.361 60.7849 106.544C59.1583 131.727 44.8919 151.103 28.9201 149.822C12.9482 148.541 1.31912 127.088 2.94573 101.905Z" fill="#231F20"/>
<path d="M263.46 107.609C265.087 82.4264 219.899 33.4689 203.261 32.1343C186.623 30.7998 204.835 77.5935 203.208 102.776C201.581 127.959 213.751 149.456 230.389 150.791C247.027 152.125 261.833 132.792 263.46 107.609Z" fill="#231F20"/>
</svg>
