<svg width="185" height="244" viewBox="0 0 185 244" fill="none" xmlns="http://www.w3.org/2000/svg">
<path d="M136.959 199.603C136.959 210.367 125.137 219.094 110.553 219.094C91.5407 223.787 83.0908 199.539 83.0908 188.775C83.0908 178.01 100.546 175.42 115.13 175.42C129.714 175.42 136.959 188.838 136.959 199.603Z" fill="#FAB049"/>
<ellipse rx="9.80512" ry="6.79071" transform="matrix(0.979017 0.203777 -0.19427 0.980948 134.85 8.6594)" fill="#513305"/>
<path d="M51.4032 17.3252L64.7822 75.0767" stroke="#513305" stroke-width="20"/>
<path d="M133.79 12.9937L121.115 71.1061" stroke="#513305" stroke-width="20"/>
<ellipse rx="9.81867" ry="6.78173" transform="matrix(0.949596 -0.313477 0.299661 0.954046 50.4507 14.1685)" fill="#513305"/>
<path d="M172.455 129.975C182.677 191.748 175.389 234.615 92.1728 234.615C8.95668 234.615 -10.2471 189.032 8.95668 129.975C28.1604 70.9183 46.2138 49.8105 92.1728 49.8105C138.132 49.8105 162.048 67.0819 172.455 129.975Z" fill="#8F5E3F"/>
<path fill-rule="evenodd" clip-rule="evenodd" d="M175.131 149.094C180.122 200.016 166.15 233.894 92.1718 233.894C8.95571 233.894 -10.2481 188.31 8.9557 129.253C9.10801 128.785 9.26024 128.319 9.41242 127.855C11.208 128.5 13.2268 128.858 15.4901 128.858C30.0737 128.858 49.2897 113.996 49.2897 103.231C51.5039 79.9632 42.9307 81.2329 32.0772 82.8404L32.077 82.8404C30.797 83.03 29.4853 83.2242 28.1559 83.3835C42.7104 58.7753 61.0381 49.0889 92.1718 49.0889C132.712 49.0889 156.101 62.5276 168.196 108.864C160.972 114.593 154.914 127.974 154.914 136.192C154.914 146.868 159.139 154.092 171.813 149.437C172.948 149.437 174.057 149.319 175.131 149.094Z" fill="#FDDF61"/>
<ellipse rx="12.462" ry="21.9157" transform="matrix(0.723728 -0.690085 0.671921 0.740622 23.7447 57.3165)" fill="#8F5E3F"/>
<path fill-rule="evenodd" clip-rule="evenodd" d="M36.9078 55.479C34.1089 58.9378 26.5037 59.5054 19.3338 59.5054C15.2449 60.4757 12.0002 59.6472 9.50781 57.8853C10.7592 61.9389 13.2583 66.3019 16.8382 70.2479C24.9709 79.2121 35.6018 82.6288 40.5829 77.8793C45.122 73.5511 43.4031 63.935 36.9078 55.479Z" fill="#FDDF61"/>
<ellipse rx="12.462" ry="21.9157" transform="matrix(-0.723728 -0.690085 -0.671921 0.740622 161.255 57.3165)" fill="#8F5E3F"/>
<path fill-rule="evenodd" clip-rule="evenodd" d="M148.092 55.479C150.891 58.9378 158.496 59.5054 165.666 59.5054C169.755 60.4757 173 59.6472 175.492 57.8853C174.241 61.9389 171.742 66.3019 168.162 70.2479C160.029 79.2121 149.398 82.6288 144.417 77.8793C139.878 73.5511 141.597 63.935 148.092 55.479Z" fill="#FDDF61"/>
<path d="M174.835 185.238C171.228 198.264 166.379 211.874 153.927 223.579C139.288 237.339 114.796 244 90.4818 244C68.8185 244 44.1569 238.324 27.3969 226.483C9.34658 213.73 0 192.233 0 178.985C0 153.436 45.4874 149.408 90.4818 149.408C135.476 149.408 180.603 140.643 174.835 185.238Z" fill="#8F5E3F"/>
<ellipse rx="6.53884" ry="8.84674" transform="matrix(-1.0436 -0.00536654 -0.00618363 0.95199 113.091 121.454)" fill="black"/>
<path fill-rule="evenodd" clip-rule="evenodd" d="M111.035 129.443C113.61 128.232 115.432 125.151 115.418 121.547C115.403 117.809 113.417 114.646 110.682 113.554C111.43 113.202 112.241 113.009 113.09 113.006C116.858 112.994 119.929 116.755 119.947 121.406C119.966 126.058 116.926 129.838 113.157 129.85C112.417 129.853 111.704 129.709 111.035 129.443Z" fill="white"/>
<ellipse rx="6.53884" ry="8.84674" transform="matrix(-1.0436 -0.00536654 -0.00618363 0.95199 68.7288 121.367)" fill="black"/>
<path fill-rule="evenodd" clip-rule="evenodd" d="M66.6736 129.355C69.2483 128.145 71.0706 125.063 71.0562 121.459C71.0412 117.721 69.0552 114.558 66.3197 113.466C67.0676 113.114 67.879 112.921 68.7274 112.918C72.4961 112.906 75.5664 116.667 75.5851 121.319C75.6037 125.97 72.5636 129.75 68.7948 129.762C68.0549 129.765 67.3419 129.622 66.6736 129.355Z" fill="white"/>
<path d="M173.101 146.915C179.912 149.793 167.58 153.738 162.66 152.681C157.027 150.876 154.933 142.987 155.696 139.259C156.458 135.53 162.53 135.899 167.45 136.956C172.37 138.014 173.864 143.187 173.101 146.915Z" fill="#8F5E3F"/>
<path fill-rule="evenodd" clip-rule="evenodd" d="M167.093 206.097C170.657 199.227 172.921 192.15 174.835 185.238C179.771 147.081 147.444 147.989 109.822 149.047C103.475 149.225 96.9769 149.408 90.4818 149.408C45.4874 149.408 0 153.436 0 178.985C0 192.233 9.34658 213.73 27.3969 226.483C44.1569 238.324 68.8185 244 90.4818 244C95.7912 244 101.109 243.682 106.331 243.043C93.8047 234.586 88.0194 218.055 88.0194 209.01C88.0194 195.318 115.401 192.023 138.277 192.023C152.035 192.023 161.63 198.197 167.093 206.097Z" fill="#FFEAB6"/>
<path d="M103.512 147.307C103.512 150.918 98.1522 158.095 91.541 158.095C84.9298 158.095 79.5703 150.918 79.5703 147.307C79.5703 143.697 84.9298 140.77 91.541 140.77C98.1522 140.77 103.512 143.697 103.512 147.307Z" fill="#513305"/>
</svg>
