<svg width="355" height="389" viewBox="0 0 355 389" fill="none" xmlns="http://www.w3.org/2000/svg">
<path d="M326.42 268.032C315.295 328.318 304.098 388.99 187.566 367.484C84.8008 348.519 84.1969 285.669 95.3224 225.384C106.448 165.098 177.641 83.4665 237.927 94.592C298.212 105.717 337.546 207.746 326.42 268.032Z" fill="#EED377"/>
<path d="M230.708 144.894C206.526 97.1203 195.243 68.7392 188.827 8.48047C188.827 8.48047 277.45 9.58538 259.673 23.5268C241.896 37.4682 329.212 39.4953 329.212 39.4953C299.573 92.079 276.685 113.457 230.708 144.894Z" fill="#EED377"/>
<path d="M208.119 95.9638C245 92.4494 254.5 106.449 273.119 111.964" stroke="#8F5E3F" stroke-width="5" stroke-linecap="round"/>
<path d="M202.636 115.777C177.531 137.049 170.284 150.338 161.824 174.933" stroke="#F1C644"/>
<path d="M263 115.889C272.242 133.218 273.537 148.742 268.238 187.565" stroke="#F1C644"/>
<path d="M240.729 112.061C220.161 137.256 215.381 152.012 214.729 179.061" stroke="#F1C644"/>
<path d="M134.631 230.873C149.448 191.881 190.322 169.356 231.2 177.655C272.607 186.061 301.593 223.551 299.306 265.741L298.549 279.71C296.143 324.092 256.248 357.436 212.558 349.265C202.021 347.295 191.758 345.223 181.415 342.98C137.354 333.425 113.627 286.143 129.643 243.999L134.631 230.873Z" fill="#593131"/>
<path fill-rule="evenodd" clip-rule="evenodd" d="M134.906 230.444C135.931 227.764 137.08 225.161 138.343 222.642C141.929 224.005 145.179 225.602 148.001 226.988C154.438 230.151 158.645 232.218 159.519 227.915C160.26 224.262 153.905 217.486 144.071 212.894C163.008 185.091 197.207 170.457 231.409 177.4C265.497 184.321 291.167 210.952 297.901 243.689C286.462 243.733 277.214 247.777 276.428 251.649C275.554 255.952 280.102 255.662 287.061 255.219C290.679 254.989 294.947 254.717 299.445 255.027C299.641 257.917 299.692 260.84 299.59 263.788C284.312 260.902 269.963 265.942 268.988 270.747C268.017 275.529 273.644 275.844 281.922 276.308C286.486 276.563 291.855 276.864 297.368 277.983C297.858 278.083 298.342 278.189 298.82 278.301L298.758 279.456C296.352 323.838 256.457 357.182 212.767 349.011C202.229 347.04 191.967 344.968 181.624 342.725C137.702 333.201 113.986 286.186 129.702 244.142C135.132 245.302 140.122 247.08 144.388 248.599C152.434 251.466 157.905 253.414 158.888 248.569C159.827 243.944 149.383 234.308 134.906 230.444Z" fill="#E77F4C"/>
<ellipse rx="17.2688" ry="22.5652" transform="matrix(0.790937 0.611898 -0.637088 0.770791 284.937 206.97)" fill="#E77F4C"/>
<ellipse rx="17.1874" ry="22.6761" transform="matrix(0.923842 -0.382773 0.416983 0.908914 166.39 187.25)" fill="#E77F4C"/>
<path d="M175.367 184.949C174.397 189.727 166.692 194.05 161.81 193.059C156.928 192.068 156.202 188.682 157.172 183.905C158.141 179.127 162.885 176.057 167.767 177.048C172.649 178.04 176.337 180.172 175.367 184.949Z" fill="#ED4578"/>
<path d="M279.293 202.102C278.715 206.819 284.319 213.952 288.54 214.47C292.761 214.988 296.007 211.183 296.585 206.466C297.163 201.749 294.501 197.093 290.28 196.576C286.059 196.058 279.872 197.385 279.293 202.102Z" fill="#ED4578"/>
<path d="M253.488 212.552C251.962 220.068 240.266 208.149 224.278 204.903C208.29 201.657 194.014 210.093 195.889 200.858C196.891 195.923 210.558 190.486 226.546 193.731C242.534 196.977 254.49 207.616 253.488 212.552Z" fill="#59312F"/>
<path d="M221.851 219.685C215.652 218.195 219.056 209.29 221.825 197.766C224.595 186.243 223.893 175.916 231.509 177.746C235.579 178.725 237.119 188.798 234.349 200.321C231.58 211.845 225.921 220.663 221.851 219.685Z" fill="#59312F"/>
<path d="M253.863 196.075C252.6 202.295 242.059 192.257 227.813 189.364C213.566 186.472 200.986 193.298 202.537 185.655C203.366 181.571 215.443 177.227 229.69 180.119C243.936 183.011 254.692 191.991 253.863 196.075Z" fill="#59312F"/>
<path d="M238.211 288.193C236.018 298.995 218.204 296.761 208.7 294.832C199.196 292.902 177.552 287.126 179.745 276.324C181.938 265.522 205.489 250.135 214.993 252.064C224.497 253.994 240.404 277.391 238.211 288.193Z" fill="#FFEAB6"/>
<path d="M226.203 260.881C225.499 264.349 218.821 270.172 212.311 268.85C205.8 267.528 201.921 259.563 202.625 256.094C203.33 252.625 209.178 250.885 215.689 252.207C222.2 253.529 226.908 257.412 226.203 260.881Z" fill="#513305"/>
<path d="M242.766 254.829C244.032 255.019 244.971 254.898 245.584 254.466C246.226 254.017 246.637 253.456 246.817 252.784L246.864 252.61C246.969 252.216 247.031 251.847 247.048 251.504C247.095 251.144 247.04 250.794 246.883 250.453C246.725 250.113 246.458 249.768 246.079 249.418C245.724 249.075 245.204 248.699 244.518 248.292L242.766 254.829ZM244.842 236.788C243.675 236.599 242.806 236.689 242.235 237.058C241.671 237.404 241.308 237.878 241.146 238.481L241.034 238.898C240.898 239.408 240.841 239.852 240.863 240.231C240.892 240.587 240.988 240.923 241.152 241.24C241.345 241.54 241.602 241.833 241.923 242.118C242.274 242.386 242.694 242.672 243.184 242.977L244.842 236.788ZM247.694 231.291C248.019 231.378 248.284 231.548 248.489 231.802C248.724 232.038 248.788 232.354 248.683 232.748L248.403 233.791C250.475 234.496 252.145 235.452 253.411 236.661C253.829 237.047 254.031 237.498 254.017 238.016C254.002 238.534 253.805 238.991 253.426 239.386C253.047 239.781 252.639 240.007 252.201 240.064C251.77 240.097 251.356 239.925 250.961 239.545C250.445 239.059 249.911 238.643 249.358 238.296C248.828 237.955 248.187 237.659 247.434 237.408L245.589 244.293C247.007 245.12 248.141 245.896 248.991 246.62C249.869 247.328 250.509 248.046 250.91 248.775C251.341 249.486 251.564 250.23 251.58 251.004C251.626 251.762 251.53 252.581 251.294 253.462L251.266 253.566C250.925 254.841 250.442 255.855 249.818 256.607C249.2 257.336 248.472 257.874 247.634 258.221C246.819 258.574 245.913 258.753 244.918 258.76C243.922 258.767 242.882 258.662 241.797 258.446L241.396 259.941C241.291 260.335 241.077 260.576 240.755 260.664C240.451 260.781 240.136 260.796 239.812 260.709C239.487 260.622 239.21 260.448 238.982 260.188C238.77 259.958 238.717 259.645 238.823 259.251L239.224 257.756C238.066 257.347 236.928 256.818 235.81 256.17C234.714 255.529 233.798 254.824 233.06 254.055C232.63 253.617 232.438 253.13 232.482 252.595C232.555 252.043 232.804 251.576 233.23 251.193C233.679 250.816 234.139 250.629 234.611 250.631C235.082 250.633 235.524 250.839 235.936 251.247C236.56 251.887 237.22 252.436 237.917 252.896C238.614 253.356 239.375 253.759 240.202 254.105L242.112 246.976C241.333 246.544 240.553 246.074 239.769 245.566C238.992 245.035 238.313 244.418 237.731 243.715C237.178 242.996 236.779 242.168 236.533 241.232C236.316 240.28 236.375 239.178 236.71 237.926L236.832 237.474C237.012 236.802 237.311 236.149 237.729 235.515C238.17 234.888 238.747 234.359 239.459 233.929C240.176 233.475 241.055 233.164 242.094 232.995C243.156 232.833 244.398 232.88 245.82 233.137L246.109 232.059C246.215 231.664 246.417 231.42 246.715 231.326C247.043 231.216 247.37 231.204 247.694 231.291Z" fill="#945E44"/>
<path d="M189.647 243.829C190.913 244.019 191.852 243.898 192.465 243.466C193.107 243.017 193.518 242.456 193.698 241.784L193.745 241.61C193.85 241.216 193.912 240.847 193.929 240.504C193.976 240.144 193.921 239.794 193.764 239.453C193.606 239.113 193.338 238.768 192.96 238.418C192.605 238.075 192.084 237.699 191.398 237.292L189.647 243.829ZM191.723 225.788C190.556 225.599 189.687 225.689 189.116 226.058C188.551 226.404 188.188 226.878 188.027 227.481L187.915 227.898C187.778 228.408 187.721 228.852 187.744 229.231C187.773 229.587 187.869 229.923 188.033 230.24C188.226 230.54 188.483 230.833 188.804 231.118C189.155 231.386 189.575 231.672 190.064 231.977L191.723 225.788ZM194.575 220.291C194.9 220.378 195.164 220.548 195.37 220.802C195.604 221.038 195.669 221.354 195.563 221.748L195.284 222.791C197.356 223.496 199.025 224.452 200.292 225.661C200.71 226.047 200.912 226.498 200.898 227.016C200.883 227.534 200.686 227.991 200.307 228.386C199.928 228.781 199.519 229.007 199.082 229.064C198.65 229.097 198.237 228.925 197.842 228.545C197.326 228.059 196.792 227.643 196.239 227.296C195.709 226.955 195.067 226.659 194.315 226.408L192.47 233.293C193.888 234.12 195.022 234.896 195.871 235.62C196.75 236.328 197.39 237.046 197.791 237.775C198.222 238.486 198.445 239.23 198.461 240.004C198.507 240.762 198.411 241.581 198.175 242.462L198.147 242.566C197.806 243.841 197.323 244.855 196.699 245.607C196.081 246.336 195.353 246.874 194.515 247.221C193.7 247.574 192.794 247.753 191.799 247.76C190.803 247.767 189.763 247.662 188.678 247.446L188.277 248.941C188.172 249.335 187.958 249.576 187.636 249.664C187.332 249.781 187.017 249.796 186.692 249.709C186.368 249.622 186.091 249.448 185.863 249.188C185.651 248.958 185.598 248.645 185.704 248.251L186.105 246.756C184.947 246.347 183.809 245.818 182.691 245.17C181.595 244.529 180.679 243.824 179.941 243.055C179.511 242.617 179.319 242.13 179.363 241.595C179.436 241.043 179.685 240.576 180.111 240.193C180.56 239.816 181.02 239.629 181.491 239.631C181.963 239.633 182.405 239.839 182.817 240.247C183.441 240.887 184.101 241.436 184.798 241.896C185.495 242.356 186.256 242.759 187.083 243.105L188.993 235.976C188.214 235.544 187.433 235.074 186.65 234.566C185.873 234.035 185.194 233.418 184.612 232.715C184.059 231.996 183.66 231.168 183.413 230.232C183.197 229.28 183.256 228.178 183.591 226.926L183.712 226.474C183.893 225.802 184.192 225.149 184.61 224.515C185.051 223.888 185.628 223.359 186.339 222.929C187.057 222.475 187.936 222.164 188.975 221.995C190.037 221.833 191.279 221.88 192.701 222.137L192.99 221.059C193.096 220.664 193.298 220.42 193.596 220.326C193.924 220.216 194.25 220.204 194.575 220.291Z" fill="#945E44"/>
<circle cx="56" cy="125.449" r="50" fill="#FAB049"/>
<circle cx="50" cy="121.449" r="50" fill="#FECA60"/>
<circle cx="51" cy="121.449" r="45" fill="#FFC54E"/>
<path d="M48.314 130.661C46.942 130.549 45.64 130.185 44.408 129.569C43.204 128.953 42.21 128.057 41.426 126.881C41.258 126.629 41.104 126.363 40.964 126.083C40.852 125.775 40.726 125.495 40.586 125.243C40.446 124.991 40.264 124.795 40.04 124.655C39.816 124.487 39.494 124.403 39.074 124.403C38.514 124.403 38.024 124.599 37.604 124.991C37.184 125.383 36.974 125.859 36.974 126.419C36.974 126.811 37.072 127.245 37.268 127.721C37.492 128.169 37.716 128.561 37.94 128.897C39.116 130.717 40.614 132.075 42.434 132.971C44.282 133.839 46.256 134.301 48.356 134.357V136.247C48.356 136.583 48.356 136.947 48.356 137.339C48.384 137.731 48.44 138.095 48.524 138.431C48.636 138.767 48.818 139.033 49.07 139.229C49.322 139.453 49.7 139.565 50.204 139.565C50.764 139.565 51.254 139.369 51.674 138.977C52.094 138.585 52.304 138.109 52.304 137.549V134.693L52.262 134.063C53.466 133.867 54.656 133.559 55.832 133.139C57.008 132.719 58.058 132.159 58.982 131.459C59.906 130.731 60.648 129.849 61.208 128.813C61.768 127.777 62.048 126.545 62.048 125.117C62.048 124.053 61.866 123.073 61.502 122.177C61.166 121.253 60.676 120.469 60.032 119.825C59.388 119.153 58.618 118.635 57.722 118.271C56.854 117.907 55.874 117.725 54.782 117.725H53.48L52.304 117.767C52.332 116.815 52.36 115.877 52.388 114.953C52.416 114.001 52.43 113.049 52.43 112.097C52.43 111.789 52.416 111.341 52.388 110.753C52.388 110.165 52.36 109.493 52.304 108.737C53.032 108.961 53.634 109.227 54.11 109.535C54.586 109.843 55.048 110.361 55.496 111.089C55.636 111.285 55.706 111.509 55.706 111.761C55.706 111.985 55.734 112.167 55.79 112.307C55.93 112.783 56.154 113.105 56.462 113.273C56.77 113.441 57.12 113.525 57.512 113.525C58.072 113.525 58.562 113.329 58.982 112.937C59.402 112.545 59.612 112.069 59.612 111.509C59.612 111.117 59.556 110.711 59.444 110.291C59.36 109.843 59.22 109.465 59.024 109.157C58.212 107.785 57.218 106.777 56.042 106.133C54.866 105.489 53.522 105.055 52.01 104.831C51.926 103.935 51.828 103.137 51.716 102.437C51.604 101.737 51.478 101.275 51.338 101.051C51.002 100.491 50.484 100.211 49.784 100.211C49.224 100.211 48.734 100.407 48.314 100.799C47.894 101.191 47.684 101.667 47.684 102.227C47.684 102.451 47.698 102.675 47.726 102.899C47.754 103.095 47.796 103.305 47.852 103.529C47.908 103.753 47.936 103.977 47.936 104.201C47.964 104.425 48.006 104.649 48.062 104.873C46.83 105.069 45.668 105.433 44.576 105.965C43.512 106.497 42.574 107.183 41.762 108.023C40.95 108.863 40.306 109.843 39.83 110.963C39.354 112.055 39.116 113.287 39.116 114.659C39.116 116.087 39.382 117.249 39.914 118.145C40.446 119.013 41.146 119.699 42.014 120.203C42.882 120.679 43.862 121.015 44.954 121.211C46.046 121.379 47.166 121.477 48.314 121.505V126.503V128.939V130.661ZM48.566 112.433C48.566 113.329 48.552 114.239 48.524 115.163C48.496 116.059 48.454 116.955 48.398 117.851C47.978 117.851 47.516 117.823 47.012 117.767C46.536 117.711 46.074 117.627 45.626 117.515C45.178 117.403 44.758 117.263 44.366 117.095C44.002 116.899 43.722 116.647 43.526 116.339C43.302 116.031 43.148 115.709 43.064 115.373C43.008 115.009 42.98 114.645 42.98 114.281C42.98 112.545 43.512 111.201 44.576 110.249C45.64 109.297 46.928 108.709 48.44 108.485C48.524 109.801 48.566 111.117 48.566 112.433ZM52.22 130.367L52.178 128.981V126.125C52.178 125.341 52.178 124.571 52.178 123.815C52.178 123.031 52.192 122.247 52.22 121.463L53.312 121.421H54.404C55.608 121.421 56.532 121.813 57.176 122.597C57.848 123.381 58.184 124.347 58.184 125.495C58.184 126.307 58.016 126.993 57.68 127.553C57.344 128.113 56.896 128.575 56.336 128.939C55.804 129.303 55.202 129.597 54.53 129.821C53.858 130.045 53.186 130.213 52.514 130.325C52.458 130.325 52.402 130.339 52.346 130.367C52.318 130.367 52.276 130.367 52.22 130.367Z" fill="#F4A120"/>
<circle cx="94.2946" cy="176.431" r="37.626" transform="rotate(14.6661 94.2946 176.431)" fill="#FAB049"/>
<circle cx="90.6881" cy="172.376" r="37.626" transform="rotate(14.6661 90.6881 172.376)" fill="#FECA60"/>
<circle cx="91.4168" cy="172.566" r="33.8634" transform="rotate(14.6661 91.4168 172.566)" fill="#FFDA8F"/>
<path d="M88.7414 181.261C87.6281 180.87 86.6274 180.286 85.7395 179.507C84.8748 178.735 84.245 177.777 83.8501 176.631C83.7655 176.386 83.6955 176.132 83.6402 175.869C83.6142 175.59 83.5705 175.33 83.5091 175.091C83.4477 174.851 83.3393 174.649 83.1839 174.485C83.0346 174.297 82.7858 174.157 82.4376 174.066C81.9732 173.945 81.5244 174.001 81.091 174.235C80.6577 174.469 80.3802 174.818 80.2587 175.282C80.1736 175.607 80.1607 175.988 80.22 176.426C80.3085 176.846 80.4091 177.219 80.522 177.547C81.1022 179.311 82.0496 180.762 83.3643 181.9C84.7084 183.021 86.245 183.832 87.9742 184.335L87.564 185.902C87.4911 186.18 87.4121 186.482 87.327 186.807C87.2652 187.138 87.2326 187.452 87.2294 187.749C87.2493 188.052 87.3425 188.312 87.5089 188.529C87.6693 188.77 87.9584 188.945 88.3763 189.054C88.8407 189.176 89.2896 189.119 89.7229 188.886C90.1562 188.652 90.4337 188.303 90.5552 187.838L91.175 185.47L91.2769 184.938C92.3178 185.037 93.3714 185.04 94.4377 184.947C95.504 184.854 96.4962 184.617 97.4143 184.237C98.3385 183.834 99.1452 183.264 99.8344 182.526C100.524 181.789 101.023 180.828 101.333 179.644C101.564 178.762 101.626 177.91 101.518 177.088C101.44 176.248 101.204 175.492 100.81 174.818C100.422 174.121 99.8955 173.525 99.2315 173.028C98.5908 172.538 97.8176 172.175 96.9121 171.938L95.8325 171.655L94.8482 171.435C95.078 170.651 95.3048 169.88 95.5286 169.119C95.7584 168.336 95.9766 167.55 96.1832 166.76C96.25 166.505 96.3356 166.13 96.44 165.637C96.5676 165.149 96.6902 164.586 96.8079 163.947C97.3629 164.291 97.8044 164.642 98.1323 165C98.4601 165.359 98.7308 165.889 98.9443 166.59C99.0179 166.783 99.0273 166.984 98.9726 167.193C98.924 167.378 98.9077 167.535 98.9238 167.664C98.9366 168.089 99.0524 168.404 99.2714 168.61C99.4903 168.817 99.7623 168.962 100.087 169.047C100.552 169.169 101.001 169.113 101.434 168.879C101.867 168.645 102.145 168.296 102.266 167.831C102.351 167.506 102.393 167.157 102.391 166.785C102.419 166.395 102.385 166.051 102.289 165.753C101.913 164.44 101.308 163.388 100.473 162.599C99.6372 161.81 98.6169 161.158 97.4117 160.644C97.5365 159.883 97.6285 159.2 97.6875 158.595C97.7465 157.99 97.7423 157.58 97.6748 157.364C97.5178 156.827 97.149 156.482 96.5685 156.33C96.1042 156.208 95.6553 156.265 95.222 156.499C94.7886 156.732 94.5112 157.082 94.3897 157.546C94.3411 157.732 94.3041 157.921 94.2787 158.112C94.2593 158.281 94.2486 158.464 94.2464 158.662C94.2443 158.86 94.2189 159.052 94.1702 159.238C94.1449 159.429 94.1311 159.624 94.1289 159.822C93.0648 159.717 92.0222 159.767 91.0013 159.971C90.0035 160.181 89.0769 160.547 88.2212 161.067C87.3656 161.587 86.6189 162.26 85.9812 163.086C85.3495 163.888 84.8848 164.858 84.587 165.995C84.2771 167.18 84.2455 168.201 84.4922 169.059C84.745 169.894 85.1766 170.615 85.7869 171.221C86.4034 171.805 87.1431 172.296 88.0061 172.695C88.8751 173.072 89.7826 173.396 90.7284 173.668L89.6438 177.813L89.1151 179.833L88.7414 181.261ZM92.9062 166.2C92.7117 166.943 92.5026 167.695 92.2789 168.455C92.0612 169.192 91.832 169.926 91.5911 170.657C91.2428 170.565 90.8658 170.442 90.46 170.286C90.0775 170.136 89.7126 169.967 89.3654 169.776C89.0182 169.586 88.7003 169.379 88.4117 169.155C88.1524 168.913 87.9749 168.643 87.8793 168.346C87.7604 168.042 87.7025 167.741 87.7058 167.444C87.7384 167.13 87.7941 166.822 87.8731 166.521C88.2499 165.081 88.9827 164.082 90.0716 163.523C91.1605 162.965 92.3561 162.757 93.6585 162.899C93.4425 164.009 93.1918 165.109 92.9062 166.2ZM92.0442 181.864L92.3101 180.706L92.9299 178.338C93.1001 177.688 93.2672 177.049 93.4312 176.422C93.6014 175.772 93.7831 175.125 93.9765 174.481L94.8911 174.683L95.7966 174.92C96.795 175.182 97.4761 175.707 97.84 176.497C98.2271 177.293 98.296 178.167 98.0469 179.119C97.8707 179.792 97.5825 180.325 97.1824 180.716C96.7822 181.107 96.3105 181.393 95.7671 181.574C95.247 181.76 94.684 181.873 94.0781 181.913C93.4723 181.953 92.8786 181.946 92.2971 181.893C92.2506 181.881 92.2011 181.881 92.1486 181.892C92.1254 181.886 92.0906 181.877 92.0442 181.864Z" fill="#F4A120"/>
</svg>
