<svg width="342" height="328" viewBox="0 0 342 328" fill="none" xmlns="http://www.w3.org/2000/svg">
<ellipse rx="19.8629" ry="25.1044" transform="matrix(0.90652 0.422163 -0.492198 0.870483 240.373 86.1383)" fill="#FECA60"/>
<ellipse cx="166.893" cy="40.7269" rx="25.518" ry="40.7269" fill="#E78141"/>
<ellipse rx="25.3437" ry="41.0622" transform="matrix(0.967231 0.253898 -0.303667 0.952778 213.556 45.5578)" fill="#E78141"/>
<ellipse rx="24.9947" ry="41.7184" transform="matrix(0.895789 0.44448 -0.51604 0.856565 254.033 64.7233)" fill="#E78141"/>
<ellipse rx="24.1646" ry="43.2047" transform="matrix(0.679922 0.733284 -0.794752 0.606934 280.136 99.3091)" fill="#E78141"/>
<ellipse rx="23.252" ry="44.7266" transform="matrix(-0.213454 0.976953 -0.984192 -0.177106 293.017 180.235)" fill="#E78141"/>
<ellipse rx="23.5343" ry="44.2677" transform="matrix(-0.423837 0.905738 -0.933098 -0.359622 283.044 222.293)" fill="#E78141"/>
<ellipse rx="24.3128" ry="42.9467" transform="matrix(-0.724974 0.688777 -0.755603 -0.655029 260.087 256.231)" fill="#E78141"/>
<ellipse rx="25.1696" ry="41.392" transform="matrix(-0.93265 0.360782 -0.425124 -0.905135 219.404 270.145)" fill="#E78141"/>
<ellipse rx="25.5154" ry="40.7319" transform="matrix(-0.999526 -0.0307968 0.0373839 -0.999301 176.614 272.54)" fill="#E78141"/>
<ellipse rx="24.7973" ry="42.0813" transform="matrix(-0.851248 -0.524763 0.599225 -0.800581 131.972 270.301)" fill="#E78141"/>
<ellipse rx="23.8602" ry="43.7248" transform="matrix(-0.573217 -0.819404 0.866471 -0.499227 91.4544 252.201)" fill="#E78141"/>
<ellipse rx="23.1721" ry="44.8547" transform="matrix(0.0818745 -0.996643 0.997719 0.0675057 58.382 214.052)" fill="#E78141"/>
<ellipse rx="23.3729" ry="44.5312" transform="matrix(0.321854 -0.946789 0.962969 0.269613 56.2711 170.423)" fill="#E78141"/>
<ellipse rx="23.9004" ry="43.6567" transform="matrix(0.588695 -0.808355 0.857566 0.514374 51.5086 123.229)" fill="#E78141"/>
<ellipse rx="24.8115" ry="42.0554" transform="matrix(0.854567 -0.51934 0.593738 0.804659 81.9571 86.1222)" fill="#E78141"/>
<ellipse rx="25.1553" ry="41.4188" transform="matrix(0.929722 -0.368262 0.433411 0.901196 118.187 52.9782)" fill="#E78141"/>
<ellipse rx="23.2256" ry="44.769" transform="matrix(0.180986 0.983486 -0.988708 0.149854 290.742 141.35)" fill="#E78141"/>
<path d="M74.0534 148.813C82.3817 100.952 123.924 66.015 172.504 66.015C221.751 66.015 263.657 101.895 271.241 150.555L272.297 157.33C279.948 206.417 241.989 250.75 192.31 250.75H152.817C102.431 250.75 64.2212 205.317 72.8591 155.677L74.0534 148.813Z" fill="#FECA60"/>
<ellipse rx="19.6411" ry="25.4146" transform="matrix(0.843614 -0.53695 0.611483 0.791257 100.745 90.8137)" fill="#FECA60"/>
<path d="M114.667 219.546C95.3569 188.403 85.5824 166.731 56.7188 182.595C27.8553 198.46 20.1104 236.566 39.4202 267.708C58.73 298.851 120.259 301.15 149.122 285.286C177.986 269.421 133.977 250.688 114.667 219.546Z" fill="#D9D9D9"/>
<path d="M83.986 199.644C84.1473 206.064 77.9906 213.727 71.1771 213.871C64.3636 214.016 58.7093 208.929 58.548 202.51C58.3866 196.091 63.7793 190.77 70.5929 190.625C77.4064 190.48 83.8247 193.225 83.986 199.644Z" fill="#E66161"/>
<path d="M68.3142 230.99C68.4755 237.41 63.0828 242.731 56.2693 242.875C49.4558 243.02 42.0884 235.256 41.9271 228.837C41.7658 222.418 48.8715 219.774 55.685 219.629C62.4986 219.484 68.1528 224.571 68.3142 230.99Z" fill="#FAB049"/>
<path d="M120.281 268.651C120.442 275.071 115.05 280.392 108.236 280.536C101.423 280.681 93.379 278.746 93.2177 272.327C93.0563 265.908 100.839 257.435 107.652 257.29C114.466 257.145 120.12 262.232 120.281 268.651Z" fill="#7DD070"/>
<path d="M87.8745 256.159C88.0358 262.578 82.6431 267.899 75.8296 268.044C69.0161 268.188 63.3618 263.102 63.2005 256.682C63.0392 250.263 71.7801 247.197 78.5937 247.052C85.4072 246.908 87.7131 249.739 87.8745 256.159Z" fill="#FFCB43"/>
<path d="M87.8745 256.159C88.0358 262.578 82.6431 267.899 75.8296 268.044C69.0161 268.188 63.3618 263.102 63.2005 256.682C63.0392 250.263 71.7801 247.197 78.5937 247.052C85.4072 246.908 87.7131 249.739 87.8745 256.159Z" fill="#FFCB43"/>
<path d="M87.8745 256.159C88.0358 262.578 82.6431 267.899 75.8296 268.044C69.0161 268.188 63.3618 263.102 63.2005 256.682C63.0392 250.263 71.7801 247.197 78.5937 247.052C85.4072 246.908 87.7131 249.739 87.8745 256.159Z" fill="#FFCB43"/>
<path d="M87.8745 256.159C88.0358 262.578 82.6431 267.899 75.8296 268.044C69.0161 268.188 63.3618 263.102 63.2005 256.682C63.0392 250.263 71.7801 247.197 78.5937 247.052C85.4072 246.908 87.7131 249.739 87.8745 256.159Z" fill="#FFCB43"/>
<path d="M312.052 99.4908C307.985 128.244 260.643 114.652 224.995 110.713C189.348 106.773 160.226 75.6365 164.293 46.8831C168.36 18.1298 197.706 18.1548 233.353 22.094C269.001 26.0331 316.119 70.7374 312.052 99.4908Z" fill="#FFA5A5"/>
<path d="M279.908 39.4284C273.543 45.1239 266.113 47.3928 263.313 44.4962C260.514 41.5994 263.404 34.6343 269.77 28.9388C276.135 23.2433 279.298 25.7536 282.098 28.6502C284.898 31.5468 286.273 33.7329 279.908 39.4284Z" fill="#E66161"/>
<path d="M254.95 39.1928C219.649 33.3366 199.663 31.9551 175.758 56.285" stroke="#E56161" stroke-width="3" stroke-linecap="round"/>
<path d="M253.611 48.661C229.078 52.2809 220.555 63.3171 199.482 81.1711" stroke="#E56161" stroke-width="3" stroke-linecap="round"/>
<path d="M265.097 55.8183C273.791 71.3231 269.577 83.0905 266.136 106.029" stroke="#E56161" stroke-width="3" stroke-linecap="round"/>
<path d="M253.051 61.111C248.677 75.9436 241.778 82.6703 237.28 98.6045" stroke="#E56161" stroke-width="3" stroke-linecap="round"/>
<path d="M275.237 52.6767C295.603 69.6974 305.571 80.5442 296.501 109.775" stroke="#E56161" stroke-width="3" stroke-linecap="round"/>
<path d="M205.923 183.731C205.923 195.832 185.111 197.319 173.836 197.319C162.561 197.319 136.564 195.832 136.564 183.731C136.564 171.63 159.838 149.931 171.113 149.931C182.388 149.931 205.923 171.63 205.923 183.731Z" fill="#FFEAB6"/>
<ellipse rx="7.44067" ry="9.89527" transform="matrix(-1.07147 -0.00507509 -0.00645891 0.915904 197.117 139.244)" fill="black"/>
<path fill-rule="evenodd" clip-rule="evenodd" d="M194.715 147.841C197.723 146.539 199.852 143.223 199.835 139.344C199.817 135.322 197.497 131.918 194.301 130.743C195.175 130.365 196.123 130.156 197.115 130.153C201.518 130.14 205.105 134.188 205.127 139.193C205.148 144.199 201.597 148.267 197.194 148.28C196.329 148.282 195.496 148.128 194.715 147.841Z" fill="white"/>
<ellipse rx="7.44067" ry="9.89527" transform="matrix(-1.07147 -0.00507509 -0.00645891 0.915904 145.289 139.15)" fill="black"/>
<path fill-rule="evenodd" clip-rule="evenodd" d="M142.887 147.746C145.895 146.444 148.023 143.128 148.007 139.25C147.989 135.227 145.669 131.823 142.473 130.648C143.347 130.27 144.295 130.061 145.287 130.058C149.69 130.046 153.277 134.093 153.298 139.098C153.32 144.104 149.768 148.172 145.365 148.185C144.501 148.187 143.668 148.033 142.887 147.746Z" fill="white"/>
<path d="M185.924 156.967C185.924 160.852 179.663 168.575 171.939 168.575C164.215 168.575 157.953 160.852 157.953 156.967C157.953 153.081 164.215 149.931 171.939 149.931C179.663 149.931 185.924 153.081 185.924 156.967Z" fill="#513305"/>
</svg>
