<svg width="240" height="235" viewBox="0 0 240 235" fill="none" xmlns="http://www.w3.org/2000/svg">
<ellipse cx="117.118" cy="30.1326" rx="17.9074" ry="30.1326" fill="#E78141"/>
<ellipse rx="17.8489" ry="30.2398" transform="matrix(0.963771 0.266731 -0.289365 0.957219 149.863 33.707)" fill="#E78141"/>
<ellipse rx="17.7325" ry="30.4509" transform="matrix(0.886076 0.46354 -0.496131 0.868248 178.269 47.8872)" fill="#E78141"/>
<ellipse rx="17.4589" ry="30.9359" transform="matrix(0.660399 0.750915 -0.778906 0.627141 196.587 73.4757)" fill="#E78141"/>
<ellipse rx="17.1641" ry="31.442" transform="matrix(-0.202922 0.979195 -0.982474 -0.1864 205.626 133.351)" fill="#E78141"/>
<ellipse rx="17.2546" ry="31.2884" transform="matrix(-0.405677 0.914017 -0.926437 -0.376449 198.628 164.468)" fill="#E78141"/>
<ellipse rx="17.5074" ry="30.8511" transform="matrix(-0.706515 0.707698 -0.73814 -0.674647 182.518 189.577)" fill="#E78141"/>
<ellipse rx="17.7907" ry="30.3457" transform="matrix(-0.92595 0.377645 -0.406931 -0.913459 153.967 199.873)" fill="#E78141"/>
<ellipse rx="17.9065" ry="30.1342" transform="matrix(-0.999473 -0.0324678 0.0354605 -0.999371 123.94 201.644)" fill="#E78141"/>
<ellipse rx="17.667" ry="30.5685" transform="matrix(-0.838464 -0.544957 0.578882 -0.815411 92.6119 199.988)" fill="#E78141"/>
<ellipse rx="17.3599" ry="31.1078" transform="matrix(-0.55288 -0.833261 0.854669 -0.519173 64.1794 186.596)" fill="#E78141"/>
<ellipse rx="17.1386" ry="31.485" transform="matrix(0.0776826 -0.996978 0.997465 0.0711542 40.97 158.371)" fill="#E78141"/>
<ellipse rx="17.2028" ry="31.3765" transform="matrix(0.306873 -0.951751 0.959087 0.283111 39.4891 126.091)" fill="#E78141"/>
<ellipse rx="17.3729" ry="31.0853" transform="matrix(0.568341 -0.822793 0.845181 0.53448 36.1464 91.1741)" fill="#E78141"/>
<ellipse rx="17.6717" ry="30.5601" transform="matrix(0.841991 -0.539491 0.573386 0.819285 57.5134 63.7195)" fill="#E78141"/>
<ellipse rx="17.786" ry="30.3543" transform="matrix(0.922766 -0.38536 0.415014 0.909815 82.9385 39.1974)" fill="#E78141"/>
<ellipse rx="17.1557" ry="31.4562" transform="matrix(0.171945 0.985107 -0.987472 0.157796 204.029 104.581)" fill="#E78141"/>
<path d="M52.4706 107.059C58.013 73.4779 87.0473 48.8428 121.083 48.8428V48.8428C155.561 48.8428 184.834 74.106 189.876 108.214L191.167 116.946C196.509 153.079 168.508 185.523 131.983 185.523H110.202C73.1814 185.523 45.0019 152.311 51.0305 115.784L52.4706 107.059Z" fill="#FECA60"/>
<ellipse rx="14.0768" ry="18.3468" transform="matrix(0.897639 0.440732 -0.472623 0.881265 168.684 63.7309)" fill="#FECA60"/>
<ellipse rx="14.0032" ry="18.4473" transform="matrix(0.830363 -0.557222 0.591182 0.806538 70.6975 67.1912)" fill="#FECA60"/>
<path d="M144.506 135.937C144.506 144.89 129.901 145.99 121.988 145.99C114.076 145.99 95.833 144.89 95.833 135.937C95.833 126.984 112.165 110.929 120.078 110.929C127.99 110.929 144.506 126.984 144.506 135.937Z" fill="#FFEAB6"/>
<ellipse rx="5.30905" ry="7.13866" transform="matrix(-1.0538 -0.00526256 -0.00628283 0.939328 138.329 103.021)" fill="black"/>
<path fill-rule="evenodd" clip-rule="evenodd" d="M136.643 109.383C138.754 108.419 140.248 105.966 140.236 103.096C140.224 100.12 138.597 97.6023 136.355 96.7324C136.968 96.4527 137.633 96.2986 138.328 96.2965C141.418 96.287 143.936 99.2815 143.951 102.985C143.966 106.688 141.474 109.698 138.384 109.708C137.776 109.71 137.191 109.595 136.643 109.383Z" fill="white"/>
<ellipse rx="5.30905" ry="7.13866" transform="matrix(-1.0538 -0.00526256 -0.00628283 0.939328 101.957 102.954)" fill="black"/>
<path fill-rule="evenodd" clip-rule="evenodd" d="M100.269 109.313C102.379 108.35 103.873 105.896 103.861 103.027C103.849 100.051 102.222 97.5335 99.98 96.6636C100.593 96.3836 101.259 96.2293 101.954 96.2272C105.044 96.2177 107.562 99.2122 107.577 102.916C107.592 106.619 105.1 109.629 102.01 109.638C101.402 109.64 100.817 109.526 100.269 109.313Z" fill="white"/>
<path d="M130.473 116.136C130.473 119.01 126.079 124.725 120.659 124.725C115.239 124.725 110.845 119.01 110.845 116.136C110.845 113.261 115.239 110.93 120.659 110.93C126.079 110.93 130.473 113.261 130.473 116.136Z" fill="#513305"/>
</svg>
