<svg width="200" height="260" viewBox="0 0 200 260" fill="none" xmlns="http://www.w3.org/2000/svg">
<path d="M64.7103 145.478C48.7516 146.221 39.3963 133.333 38.7974 123.958C38.1985 114.582 50.6501 106.38 66.6089 105.636C82.5677 104.893 95.9904 111.891 96.5893 121.267C97.1881 130.642 80.6691 144.735 64.7103 145.478Z" fill="white"/>
<path d="M93.7182 136.507C77.7595 137.252 68.407 124.365 67.81 114.99C67.213 105.614 79.6661 97.4097 95.6248 96.6642C111.583 95.9188 125.004 102.915 125.601 112.29C126.198 121.666 109.677 135.761 93.7182 136.507Z" fill="white"/>
<path d="M125.062 145.478C109.103 146.221 99.7478 133.333 99.1489 123.958C98.5501 114.582 111.002 106.38 126.961 105.636C142.919 104.893 156.342 111.891 156.941 121.267C157.54 130.642 141.021 144.735 125.062 145.478Z" fill="white"/>
<path d="M129.597 212.138C143.585 212.065 151.138 225.329 151.206 234.718C151.273 244.107 139.989 251.778 126.001 251.852C112.013 251.926 100.618 244.374 100.55 234.985C100.482 225.596 115.609 212.212 129.597 212.138Z" fill="white"/>
<path d="M157.451 195.465C171.439 195.392 178.991 208.656 179.059 218.045C179.127 227.434 167.842 235.105 153.854 235.179C139.866 235.253 128.471 227.701 128.404 218.312C128.336 208.923 143.463 195.539 157.451 195.465Z" fill="white"/>
<path d="M143.524 203.548C157.512 203.474 165.065 216.738 165.132 226.128C165.2 235.517 153.916 243.188 139.927 243.262C125.939 243.335 114.545 235.784 114.477 226.394C114.409 217.005 129.536 203.622 143.524 203.548Z" fill="white"/>
<path d="M166.156 178.287C180.144 178.213 187.696 191.477 187.764 200.866C187.832 210.256 176.547 217.927 162.559 218C148.571 218.074 137.176 210.522 137.109 201.133C137.041 191.744 152.168 178.36 166.156 178.287Z" fill="white"/>
<path d="M40.9184 227.225C24.9596 227.968 15.6043 215.081 15.0054 205.705C14.4065 196.33 26.8582 188.127 42.8169 187.384C58.7757 186.641 72.1984 193.639 72.7973 203.014C73.3962 212.39 56.8771 226.482 40.9184 227.225Z" fill="white"/>
<path d="M6.29189 181.607C5.59085 167.706 20.4819 159.684 31.2552 159.252C42.0285 158.82 51.3304 169.739 52.0314 183.64C52.7325 197.541 44.5673 209.161 33.7939 209.593C23.0206 210.024 6.99294 195.508 6.29189 181.607Z" fill="white"/>
<path d="M12.0946 158.365C11.3936 144.463 26.2846 136.442 37.0579 136.01C47.8313 135.578 57.1331 146.497 57.8342 160.398C58.5352 174.299 50.37 185.918 39.5967 186.35C28.8233 186.782 12.7957 172.266 12.0946 158.365Z" fill="white"/>
<path d="M21.3788 137.651C20.6778 123.75 35.5688 115.728 46.3421 115.296C57.1155 114.864 66.4173 125.783 67.1183 139.684C67.8194 153.585 59.6542 165.205 48.8808 165.636C38.1075 166.068 22.0799 151.552 21.3788 137.651Z" fill="white"/>
<path d="M133.957 142.198C133.256 128.297 148.147 120.275 158.92 119.843C169.694 119.411 178.995 130.33 179.696 144.232C180.398 158.133 172.232 169.752 161.459 170.184C150.686 170.616 134.658 156.099 133.957 142.198Z" fill="white"/>
<path d="M139.441 164.71C137.056 152.703 152.351 143.776 164.043 141.993C175.735 140.21 187.147 148.498 189.533 160.506C191.918 172.513 184.373 183.692 172.681 185.475C160.989 187.258 141.827 176.718 139.441 164.71Z" fill="white"/>
<path d="M185.259 170.061C194.874 181.176 187.813 195.127 179.212 200.792C170.611 206.457 155.844 202.039 146.229 190.924C136.615 179.81 135.793 166.207 144.394 160.542C152.994 154.877 175.645 158.946 185.259 170.061Z" fill="white"/>
<path d="M63.5366 247.898C47.5778 248.641 30.692 236.844 30.0931 227.469C29.4942 218.094 41.9459 209.891 57.9047 209.148C73.8635 208.405 94.2738 215.402 94.8727 224.778C95.4716 234.153 79.4954 247.155 63.5366 247.898Z" fill="white"/>
<path d="M85.5884 258.508C69.6296 259.251 52.7438 247.455 52.1449 238.079C51.546 228.704 63.9977 220.501 79.9564 219.758C95.9152 219.015 116.326 226.013 116.924 235.388C117.523 244.764 101.547 257.765 85.5884 258.508Z" fill="white"/>
<path d="M108.8 256.992C92.8415 257.735 75.9557 245.939 75.3568 236.564C74.7579 227.188 87.2096 218.986 103.168 218.243C119.127 217.5 139.537 224.497 140.136 233.873C140.735 243.248 124.759 256.249 108.8 256.992Z" fill="white"/>
<ellipse cx="100.386" cy="178.607" rx="87.0449" ry="74.3163" fill="white"/>
<path d="M108.985 177.125C108.985 179.946 104.572 185.553 99.1295 185.553C93.6867 185.553 89.2744 179.946 89.2744 177.125C89.2744 174.304 93.6867 172.018 99.1295 172.018C104.572 172.018 108.985 174.304 108.985 177.125Z" fill="black"/>
<ellipse rx="5.29178" ry="7.08118" transform="matrix(-1.06163 -0.00518073 -0.00636003 0.929201 116.871 164.258)" fill="black"/>
<path fill-rule="evenodd" clip-rule="evenodd" d="M115.179 170.499C117.298 169.554 118.799 167.146 118.787 164.33C118.774 161.41 117.139 158.939 114.887 158.086C115.503 157.811 116.171 157.66 116.87 157.658C119.972 157.648 122.5 160.587 122.515 164.221C122.531 167.855 120.028 170.808 116.925 170.817C116.316 170.819 115.729 170.708 115.179 170.499Z" fill="#D9D9D9"/>
<ellipse rx="5.29178" ry="7.08118" transform="matrix(-1.06163 -0.00518073 -0.00636003 0.929201 80.3498 164.189)" fill="black"/>
<path fill-rule="evenodd" clip-rule="evenodd" d="M78.6571 170.431C80.7769 169.485 82.2771 167.078 82.2652 164.262C82.2529 161.341 80.618 158.87 78.366 158.017C78.9817 157.743 79.6497 157.591 80.348 157.589C83.4507 157.58 85.9784 160.518 85.9937 164.152C86.0091 167.786 83.5063 170.74 80.4036 170.749C79.7944 170.751 79.2073 170.639 78.6571 170.431Z" fill="#D9D9D9"/>
<path d="M90.1447 63.1667C93.1924 106.534 87.4963 123.853 74.1883 124.58C60.8804 125.306 55.2216 114.712 52.1739 71.3447C61.8033 62.325 53.9381 57.6893 67.2461 56.963C80.5541 56.2367 71.5794 58.9364 90.1447 63.1667Z" fill="white"/>
<path d="M174.304 62.8325C156.759 102.8 132.559 131.158 120.253 126.171C107.947 121.185 112.194 84.7423 129.739 44.7746C147.284 4.80693 157.888 3.44154 170.194 8.42809C182.5 13.4146 191.849 22.8648 174.304 62.8325Z" fill="white"/>
<path d="M165.124 58.0092C152.519 87.7489 137.527 106.669 130.111 103.808C122.695 100.947 124.407 82.4959 137.011 52.7562C149.616 23.0164 157.507 16.3072 164.923 19.168C172.339 22.0288 177.729 28.2694 165.124 58.0092Z" fill="#FFA5A5"/>
<path d="M80.8695 64.2947C83.8186 96.3354 81.5077 100.056 73.1198 100.899C64.7319 101.741 63.1884 97.8526 58.5508 81.2145C56.4992 73.8537 58.5687 65.1376 66.9566 64.2947C75.3446 63.4519 74.2026 64.2947 80.8695 64.2947Z" fill="#FFA5A5"/>
<path d="M79.2301 79.9101C49.1245 111.973 25.2401 130.997 14.8207 122.91C4.40125 114.824 15.9944 91.4063 43.4291 57.0973C58.2612 50.333 74.5084 49.0104 84.9279 57.0974C92.464 62.9465 91.5945 66.7418 79.2301 79.9101Z" fill="white"/>
</svg>
