<svg width="259" height="335" viewBox="0 0 259 335" fill="none" xmlns="http://www.w3.org/2000/svg">
<path d="M103.217 162.455C84.8411 163.263 74.0687 149.251 73.3791 139.058C72.6894 128.865 87.0273 119.947 105.404 119.14C123.78 118.332 139.236 125.94 139.925 136.133C140.615 146.326 121.594 161.647 103.217 162.455Z" fill="white"/>
<path d="M136.62 152.701C118.243 153.512 107.474 139.501 106.787 129.308C106.099 119.115 120.439 110.195 138.815 109.385C157.191 108.574 172.645 116.181 173.333 126.374C174.02 136.567 154.996 151.891 136.62 152.701Z" fill="white"/>
<path d="M172.712 162.455C154.335 163.263 143.563 149.251 142.873 139.058C142.184 128.865 156.521 119.947 174.898 119.14C193.274 118.332 208.73 125.94 209.42 136.133C210.109 146.326 191.088 161.647 172.712 162.455Z" fill="white"/>
<path d="M177.934 234.927C194.041 234.847 202.737 249.268 202.816 259.476C202.894 269.684 189.9 278.024 173.792 278.104C157.685 278.184 144.565 269.974 144.486 259.766C144.408 249.558 161.827 235.008 177.934 234.927Z" fill="white"/>
<path d="M210.007 216.801C226.114 216.721 234.811 231.142 234.889 241.35C234.967 251.558 221.973 259.898 205.866 259.978C189.759 260.058 176.638 251.848 176.56 241.64C176.482 231.432 193.9 216.882 210.007 216.801Z" fill="white"/>
<path d="M193.97 225.589C210.077 225.509 218.774 239.93 218.852 250.138C218.93 260.345 205.936 268.685 189.829 268.766C173.721 268.846 160.601 260.636 160.523 250.428C160.444 240.22 177.863 225.669 193.97 225.589Z" fill="white"/>
<path d="M220.03 198.125C236.138 198.045 244.834 212.465 244.912 222.673C244.99 232.881 231.996 241.221 215.889 241.301C199.782 241.381 186.661 233.171 186.583 222.963C186.505 212.755 203.923 198.205 220.03 198.125Z" fill="white"/>
<path d="M75.8219 251.33C57.4456 252.138 46.6732 238.127 45.9835 227.934C45.2939 217.741 59.6318 208.823 78.0081 208.015C96.3843 207.207 111.84 214.815 112.53 225.008C113.22 235.201 94.1981 250.522 75.8219 251.33Z" fill="white"/>
<path d="M35.9492 201.734C35.1419 186.621 52.2887 177.9 64.694 177.43C77.0993 176.961 87.8102 188.832 88.6175 203.945C89.4247 219.058 80.0226 231.691 67.6173 232.16C55.212 232.63 36.7564 216.848 35.9492 201.734Z" fill="white"/>
<path d="M42.6308 176.465C41.8236 161.352 58.9703 152.631 71.3757 152.161C83.781 151.691 94.4919 163.563 95.2991 178.676C96.1063 193.789 86.7043 206.422 74.2989 206.891C61.8936 207.361 43.4381 191.579 42.6308 176.465Z" fill="white"/>
<path d="M53.3232 153.945C52.516 138.832 69.6627 130.111 82.068 129.641C94.4733 129.171 105.184 141.043 105.991 156.156C106.799 171.269 97.3966 183.902 84.9913 184.371C72.586 184.841 54.1305 169.059 53.3232 153.945Z" fill="white"/>
<path d="M182.954 158.889C182.147 143.776 199.294 135.054 211.699 134.585C224.104 134.115 234.815 145.986 235.622 161.1C236.43 176.213 227.027 188.845 214.622 189.315C202.217 189.785 183.761 174.002 182.954 158.889Z" fill="white"/>
<path d="M189.268 183.365C186.522 170.311 204.134 160.605 217.597 158.667C231.06 156.728 244.201 165.739 246.948 178.793C249.694 191.848 241.007 204.002 227.544 205.94C214.08 207.879 192.015 196.419 189.268 183.365Z" fill="white"/>
<path d="M242.028 189.181C253.099 201.265 244.968 216.433 235.064 222.592C225.16 228.751 208.156 223.948 197.085 211.864C186.014 199.78 185.068 184.992 194.971 178.832C204.875 172.673 230.956 177.097 242.028 189.181Z" fill="white"/>
<path d="M101.866 273.806C83.4901 274.614 64.0464 261.789 63.3567 251.596C62.6671 241.403 77.005 232.485 95.3813 231.677C113.758 230.869 137.26 238.477 137.949 248.67C138.639 258.863 120.243 272.998 101.866 273.806Z" fill="white"/>
<path d="M127.258 285.341C108.882 286.148 89.438 273.324 88.7483 263.131C88.0587 252.938 102.397 244.02 120.773 243.212C139.149 242.404 162.651 250.012 163.341 260.205C164.03 270.398 145.634 284.533 127.258 285.341Z" fill="white"/>
<path d="M153.986 283.693C135.61 284.5 116.166 271.676 115.477 261.483C114.787 251.29 129.125 242.372 147.501 241.564C165.878 240.756 189.38 248.364 190.069 258.557C190.759 268.75 172.363 282.885 153.986 283.693Z" fill="white"/>
<ellipse cx="144.297" cy="198.473" rx="100.231" ry="80.7964" fill="white"/>
<path d="M154.199 196.862C154.199 199.929 149.118 206.025 142.851 206.025C136.584 206.025 131.503 199.929 131.503 196.862C131.503 193.795 136.584 191.309 142.851 191.309C149.118 191.309 154.199 193.795 154.199 196.862Z" fill="black"/>
<ellipse rx="5.98809" ry="7.91847" transform="matrix(-1.0803 -0.00497754 -0.00654913 0.903404 163.28 182.873)" fill="black"/>
<path fill-rule="evenodd" clip-rule="evenodd" d="M161.331 189.659C163.772 188.631 165.499 186.013 165.485 182.952C165.471 179.777 163.588 177.09 160.995 176.163C161.704 175.864 162.474 175.7 163.278 175.697C166.851 175.687 169.762 178.882 169.779 182.833C169.797 186.784 166.915 189.995 163.342 190.005C162.641 190.007 161.965 189.885 161.331 189.659Z" fill="#D9D9D9"/>
<ellipse rx="5.98809" ry="7.91847" transform="matrix(-1.0803 -0.00497754 -0.00654913 0.903404 121.226 182.799)" fill="black"/>
<path fill-rule="evenodd" clip-rule="evenodd" d="M119.278 189.584C121.718 188.556 123.445 185.939 123.432 182.878C123.417 179.703 121.535 177.016 118.942 176.089C119.651 175.79 120.42 175.626 121.225 175.623C124.797 175.613 127.708 178.808 127.726 182.758C127.743 186.709 124.861 189.92 121.289 189.931C120.587 189.933 119.911 189.811 119.278 189.584Z" fill="#D9D9D9"/>
<path d="M135.523 52.9344C139.032 100.083 129.455 138.945 114.131 139.735C98.8069 140.524 83.5395 102.943 80.0301 55.7939C76.5207 8.64521 86.6747 2.42962 101.999 1.63998C117.322 0.850332 132.013 5.78565 135.523 52.9344Z" fill="white"/>
<path d="M204.395 54.9664C201.817 102.157 187.294 139.942 171.957 139.362C156.619 138.782 146.276 100.056 148.853 52.866C151.431 5.67561 162.327 0.400312 177.664 0.980335C193.001 1.56036 206.973 7.77606 204.395 54.9664Z" fill="white"/>
<path d="M192.502 53.4086C191.071 88.3578 182.628 113.145 173.444 112.942C164.261 112.74 158.549 93.2936 159.981 58.3445C161.412 23.3954 167.187 13.6628 176.371 13.8653C185.555 14.0677 193.934 18.4595 192.502 53.4086Z" fill="#FFA5A5"/>
<path d="M124.544 52.6287C127.94 87.4632 122.559 113.072 112.9 113.989C103.242 114.905 94.5281 96.3142 91.1323 61.4797C87.7365 26.6453 92.4292 16.2906 102.088 15.3743C111.746 14.458 121.148 17.7943 124.544 52.6287Z" fill="#FFA5A5"/>
<path d="M251.012 138.269C251.012 161.466 211.381 154.825 182.256 154.825C153.132 154.825 126.163 132.647 126.163 109.45C126.163 86.2533 149.773 83.6973 178.898 83.6973C208.022 83.6973 251.012 115.072 251.012 138.269Z" fill="#E31D2E"/>
<path d="M218.13 93.4034C213.634 98.3375 207.886 100.72 205.291 98.7252C202.696 96.73 204.236 91.1129 208.732 86.1787C213.228 81.2445 216.073 82.9106 218.668 84.9056C221.263 86.9007 222.625 88.4692 218.13 93.4034Z" fill="#FFBAA4"/>
<path d="M197.922 95.3475C168.707 93.8397 152.388 94.4774 135.842 115.275" stroke="#FFBAA4" stroke-width="3" stroke-linecap="round"/>
<path d="M197.922 102.763C178.498 107.645 172.868 116.881 157.87 132.444" stroke="#FFBAA4" stroke-width="3" stroke-linecap="round"/>
<path d="M208.028 107.304C216.831 118.519 214.77 127.952 214.61 145.934" stroke="#FFBAA4" stroke-width="3" stroke-linecap="round"/>
<path d="M198.893 112.411C197.053 124.221 192.243 129.996 190.428 142.666" stroke="#FFBAA4" stroke-width="3" stroke-linecap="round"/>
<path d="M215.867 104.018C234.282 115.407 243.583 122.922 239.592 146.235" stroke="#FFBAA4" stroke-width="3" stroke-linecap="round"/>
<path d="M89.9958 249.808C74.5403 225.075 66.7571 207.881 43.2301 220.285C19.7031 232.69 13.1598 262.797 28.6153 287.53C44.0708 312.263 93.9776 314.392 117.505 301.987C141.032 289.583 105.451 274.542 89.9958 249.808Z" fill="#D9D9D9"/>
<path d="M65.237 233.91C65.3242 238.989 60.2767 245.02 54.7474 245.1C49.2181 245.18 44.6651 241.128 44.5778 236.049C44.4906 230.97 48.9023 226.788 54.4316 226.707C59.9608 226.627 65.1498 228.831 65.237 233.91Z" fill="#E66161"/>
<path d="M52.3091 258.627C52.3963 263.706 47.9846 267.888 42.4553 267.969C36.9261 268.049 31.0013 261.87 30.914 256.791C30.8268 251.712 36.6102 249.656 42.1395 249.576C47.6688 249.496 52.2218 253.548 52.3091 258.627Z" fill="#FAB049"/>
<path d="M94.2167 288.682C94.304 293.761 89.8923 297.943 84.363 298.023C78.8337 298.104 72.3205 296.532 72.2332 291.453C72.146 286.374 78.5179 279.711 84.0472 279.631C89.5765 279.55 94.1295 283.603 94.2167 288.682Z" fill="#7DD070"/>
<path d="M68.007 278.637C68.0943 283.716 63.6826 287.898 58.1533 287.978C52.624 288.058 48.071 284.006 47.9838 278.927C47.8965 273.848 55.0096 271.466 60.5388 271.386C66.0681 271.306 67.9198 273.558 68.007 278.637Z" fill="#FFCB43"/>
<path d="M68.007 278.637C68.0943 283.716 63.6826 287.898 58.1533 287.978C52.624 288.058 48.071 284.006 47.9838 278.927C47.8965 273.848 55.0096 271.466 60.5388 271.386C66.0681 271.306 67.9198 273.558 68.007 278.637Z" fill="#FFCB43"/>
<path d="M68.007 278.637C68.0943 283.716 63.6826 287.898 58.1533 287.978C52.624 288.058 48.071 284.006 47.9838 278.927C47.8965 273.848 55.0096 271.466 60.5388 271.386C66.0681 271.306 67.9198 273.558 68.007 278.637Z" fill="#FFCB43"/>
<path d="M68.007 278.637C68.0943 283.716 63.6826 287.898 58.1533 287.978C52.624 288.058 48.071 284.006 47.9838 278.927C47.8965 273.848 55.0096 271.466 60.5388 271.386C66.0681 271.306 67.9198 273.558 68.007 278.637Z" fill="#FFCB43"/>
</svg>
