<svg width="240" height="240" viewBox="0 0 240 240" fill="none" xmlns="http://www.w3.org/2000/svg">
<ellipse cx="178.497" cy="62.4738" rx="18.6719" ry="20.2438" fill="white"/>
<ellipse cx="137.243" cy="95.3422" rx="32.5673" ry="32.6513" fill="white"/>
<ellipse cx="143.474" cy="36.7465" rx="32.5673" ry="32.6513" fill="white"/>
<ellipse cx="97.7285" cy="32.6513" rx="32.5673" ry="32.6513" fill="white"/>
<ellipse cx="207.433" cy="137.06" rx="32.5673" ry="32.6513" fill="white"/>
<ellipse cx="202.67" cy="86.5619" rx="32.5673" ry="32.6513" fill="white"/>
<ellipse cx="157.081" cy="203.936" rx="32.5673" ry="32.6513" fill="white"/>
<ellipse cx="115.577" cy="207.348" rx="32.5673" ry="32.6513" fill="white"/>
<ellipse cx="76.1133" cy="201.206" rx="32.5673" ry="32.6513" fill="white"/>
<ellipse cx="32.5673" cy="135.694" rx="32.5673" ry="32.6513" fill="white"/>
<ellipse cx="37.331" cy="87.2436" rx="32.5673" ry="32.6513" fill="white"/>
<ellipse cx="184.576" cy="182.411" rx="32.5673" ry="32.6513" fill="white"/>
<ellipse cx="137.243" cy="182.411" rx="32.5673" ry="32.6513" fill="white"/>
<ellipse cx="97.7285" cy="182.411" rx="32.5673" ry="32.6513" fill="white"/>
<ellipse cx="48.2168" cy="177.322" rx="32.5673" ry="32.6513" fill="white"/>
<ellipse cx="184.576" cy="141.49" rx="32.5673" ry="32.6513" fill="white"/>
<ellipse cx="184.576" cy="97.9535" rx="32.5673" ry="32.6513" fill="white"/>
<ellipse cx="178.174" cy="51.7582" rx="32.5673" ry="32.6513" fill="white"/>
<ellipse cx="137.243" cy="141.49" rx="32.5673" ry="32.6513" fill="white"/>
<ellipse cx="95.125" cy="140.619" rx="32.5673" ry="32.6513" fill="white"/>
<ellipse cx="46.4902" cy="138.443" rx="32.5673" ry="32.6513" fill="white"/>
<ellipse cx="95.125" cy="95.3422" rx="32.5673" ry="32.6513" fill="white"/>
<ellipse cx="46.4902" cy="95.3422" rx="32.5673" ry="32.6513" fill="white"/>
<ellipse cx="54.3418" cy="53.8066" rx="32.5673" ry="32.6513" fill="white"/>
<ellipse cx="95.125" cy="54.4184" rx="32.5673" ry="32.6513" fill="white"/>
<ellipse cx="137.243" cy="53.5488" rx="32.5673" ry="32.6513" fill="white"/>
<ellipse rx="13.2544" ry="21.3155" transform="matrix(0.83349 0.552534 -0.550558 0.834797 50.6021 117.413)" fill="#F5E8C4"/>
<ellipse rx="13.2581" ry="21.3096" transform="matrix(-0.766105 0.642715 -0.640772 -0.767731 181.466 117.611)" fill="#F5E8C4"/>
<ellipse cx="118.139" cy="134.524" rx="55.5816" ry="69.2207" fill="#F5E8C4"/>
<path d="M125.671 164.993C125.671 167.17 122.366 171.498 118.289 171.498C114.212 171.498 110.907 167.17 110.907 164.993C110.907 162.815 114.212 161.05 118.289 161.05C122.366 161.05 125.671 162.815 125.671 164.993Z" fill="black"/>
<ellipse rx="4.00239" ry="5.38962" transform="matrix(-1.05139 -0.00528734 -0.00625922 0.942374 104.64 142.759)" fill="black"/>
<path fill-rule="evenodd" clip-rule="evenodd" d="M103.372 147.578C104.96 146.849 106.084 144.99 106.076 142.816C106.066 140.562 104.842 138.655 103.156 137.996C103.617 137.784 104.117 137.668 104.64 137.666C106.964 137.659 108.857 139.927 108.868 142.732C108.88 145.537 107.005 147.817 104.681 147.824C104.224 147.826 103.784 147.739 103.372 147.578Z" fill="white"/>
<ellipse rx="4.00239" ry="5.38962" transform="matrix(-1.05139 -0.00528734 -0.00625922 0.942374 131.996 142.812)" fill="black"/>
<path fill-rule="evenodd" clip-rule="evenodd" d="M130.728 147.628C132.316 146.899 133.44 145.04 133.431 142.866C133.422 140.612 132.198 138.705 130.511 138.046C130.972 137.834 131.472 137.718 131.995 137.716C134.319 137.709 136.212 139.977 136.224 142.782C136.235 145.587 134.361 147.867 132.037 147.874C131.58 147.876 131.14 147.789 130.728 147.628Z" fill="white"/>
<ellipse cx="59.1334" cy="89.9379" rx="21.7116" ry="21.7675" fill="white"/>
<ellipse cx="102.556" cy="89.9379" rx="21.7116" ry="21.7675" fill="white"/>
<ellipse cx="158.572" cy="89.9379" rx="21.7116" ry="21.7675" fill="white"/>
<ellipse cx="158.572" cy="111.707" rx="21.7116" ry="21.7675" fill="white"/>
<ellipse cx="158.572" cy="68.1718" rx="21.7116" ry="21.7675" fill="white"/>
<ellipse cx="180.285" cy="89.9379" rx="21.7116" ry="21.7675" fill="white"/>
<ellipse cx="73.8971" cy="111.707" rx="21.7116" ry="21.7675" fill="white"/>
<ellipse cx="124.269" cy="89.9379" rx="21.7116" ry="21.7675" fill="white"/>
<ellipse cx="80.8444" cy="89.9379" rx="21.7116" ry="21.7675" fill="white"/>
<ellipse cx="102.556" cy="68.1718" rx="21.7116" ry="21.7675" fill="white"/>
<ellipse cx="136.861" cy="68.1718" rx="21.7116" ry="21.7675" fill="white"/>
<ellipse cx="136.861" cy="111.707" rx="21.7116" ry="21.7675" fill="white"/>
<ellipse cx="102.556" cy="111.707" rx="21.7116" ry="21.7675" fill="white"/>
<ellipse cx="73.8971" cy="68.1718" rx="21.7116" ry="21.7675" fill="white"/>
<rect x="54.3564" y="59.4644" width="122.453" height="55.2895" fill="white"/>
</svg>
