<svg id="레이어_1" data-name="레이어 1" xmlns="http://www.w3.org/2000/svg" viewBox="0 0 268.39 234.34"><defs><style>.cls-1{fill:#feca43;}.cls-2{fill:#3b82be;}.cls-3{fill:#d8d8d8;}.cls-4{fill:#242020;}.cls-5{fill:#236690;}.cls-6{fill:#030301;}.cls-7{fill:#090806;}.cls-8{fill:#f7f5f0;}.cls-9{fill:#faf8f3;}.cls-10{fill:#236793;}.cls-11{fill:#7fcf72;}.cls-12{fill:#f8b04c;}.cls-13{fill:#e46363;}.cls-14{fill:#fdcb46;}</style></defs><path class="cls-1" d="M77.19,77c-.88-9,3.78-15,11-19.47a39.92,39.92,0,0,1,19.24-5.65,15.46,15.46,0,0,0,8.23-2.62,28,28,0,0,1,4.91-2.12,41.77,41.77,0,0,0,.16,13.25c4.38,20.71,25.93,39,47.79,40.11,13,.68,26,.9,39,1.33,2.56,13.36,5.57,26.64,4.54,40.43a39.15,39.15,0,0,0,2.56,16.18c4.58,12.62,11.89,22.37,26.6,23.71-2.12,4.17-6.19,5.72-10.13,7.35-1.62.67-2.37,1.43-2,3.27,2.83,15-10.43,23.57-21,25.19-4,.61-6.7,1.08-8.31,6.06-2.82,8.72-10.68,12.39-19.19,14.29A32.82,32.82,0,0,1,162.1,237a3.52,3.52,0,0,0-3.51.42c-17.25,11.45-34.86,6.93-47.76-5.25-1.3-1.22-2.39-1.76-4.19-1.12a34.09,34.09,0,0,1-5.27,1c-3.28-3.43-6.52-6.9-9.85-10.27-8.85-9-16.81-18.59-22.7-29.87-4-7.66-8.35-15.16-14-21.76a48.31,48.31,0,0,0,10.16-24.89c1-10.94,4-21.29,7.46-31.61,2.9-8.7,6.32-17.25,7.67-26.38C80.64,83.47,80.84,79.65,77.19,77ZM158,143.82c2.59,1.18,4.48-.09,6-1.9a8.54,8.54,0,0,0,.73-9.16,6.14,6.14,0,0,0-5.56-3.45c-.47,0-.94.42-1.41.64-3.36,1.06-4.37,3.74-4.36,6.84S154.5,142.76,158,143.82Zm-40.31-14.06c-3.25,1.69-4.67,4.18-4.26,7.86.33,3,1.49,5.41,4.8,6.09,2.79,1.2,4.64-.27,6.09-2.35a8.16,8.16,0,0,0-.11-9.42C122.54,129.78,120.5,128.55,117.69,129.76Zm21.46,34.89c4.85-.09,9.84-.78,14.23-3.7,5.16-3.44,5.16-8.22.08-11.69-7.21-4.91-21.16-5-28.42-.14-5.41,3.61-5.35,8.62.2,12C129.4,163.73,134,164.57,139.15,164.65Z" transform="translate(-5.64 -26.25)"/><path class="cls-2" d="M207.49,101.78c-13-.43-26-.65-39-1.33-21.86-1.15-43.41-19.4-47.79-40.11a41.77,41.77,0,0,1-.16-13.25c2.64-9.92,9.67-15.12,19.17-17.24,13.83-3.09,27.81-4,41.82-1.19a50.19,50.19,0,0,1,13.88,5.24c-.33,1.22-.62,2.44-1,3.64-.59,1.84-.57,3.7.83,5s3.13.72,4.79.29c2.24-.57,3.73-2.31,5.6-3.44,9.45,6.44,18.15,13.71,24.91,23,5.3,7.31,9.24,15.1,8.11,24.56,0,.38.23.79.36,1.19-.26.17-.67.29-.75.53-2.33,7-7.95,9.69-14.48,11.26C218.44,101.29,213,101.51,207.49,101.78ZM175.84,37.54c-4.6,0-8.37.26-12.16.56C149.1,39.23,138,46.2,129.59,57.82c-.52.72-1.58,1.59-.37,2.37,1,.64,1.37-.62,1.87-1.22a74.83,74.83,0,0,1,9.64-10c8.69-7.17,19.06-8.92,29.84-9.5,5.51-.3,11,.7,16.43.62.77,0,1.94.25,1.82-1.08-.1-1-1.11-.77-1.8-.81C183,38,179.06,37.16,175.84,37.54Zm53.9,43.76a27.86,27.86,0,0,0-4.56-17.19C220.56,57,213.54,52.62,206.89,47.8c-.48-.35-1.35-1.13-1.83,0-.41,1,.45,1.58,1.13,2a115.75,115.75,0,0,1,11.49,8.88c6.24,5.51,9.91,12.18,10.08,20.57.07,3.78.36,7.59-.56,11.34-.18.74-.31,1.92.89,2,1,.08.81-1,1-1.65C229.94,88.19,229.64,85.33,229.74,81.3Zm-79-3a9.68,9.68,0,0,0,1.46-1.14c1.51-1.76,2.92-3.6,4.45-5.34C162.08,65.6,167.07,59,174,54.32a46.78,46.78,0,0,1,13.18-6.1c.82-.24,2.18-.5,1.64-1.81-.46-1.09-1.47-.33-2.21-.07-2.28.82-4.58,1.61-6.82,2.53C169.66,53,163.05,61.17,156.15,69c-1.94,2.22-3.79,4.51-5.7,6.76-.48.58-1,1.14-.58,2C150,78,150.38,78.05,150.76,78.25Zm54.77,1.34h0c0-3.06.12-6.13,0-9.19a33.79,33.79,0,0,0-5.63-17.81c-.48-.7-.9-2.15-2-1.46s0,1.6.37,2.38c1.6,3.09,3.45,6.06,4.18,9.53,1.79,8.55,1.53,17.15.79,25.77-.11,1.2-.67,3,1.11,3,1.56.08,1.2-1.67,1.22-2.75C205.55,85.93,205.53,82.76,205.53,79.59Zm-24.36,9.32c1.2-.45,1.38-1.51,1.47-2.55A43.18,43.18,0,0,1,184.17,79c1.78-6.81,4.85-13.24,5.77-20.29.12-.9.88-2.11-.34-2.45-1.6-.45-1.52,1.37-1.61,2.12a42.12,42.12,0,0,1-2.26,9.17,122.92,122.92,0,0,0-5.34,19.09C180.23,87.53,179.76,88.51,181.17,88.91Z" transform="translate(-5.64 -26.25)"/><path class="cls-3" d="M54.78,170.18c5.69,6.6,10,14.1,14,21.76,5.89,11.28,13.85,20.89,22.7,29.87,3.33,3.37,6.57,6.84,9.85,10.27.55,1.88,2.09,3.12,3,4.75,3.26,5.58,2.2,10.61-3.2,14.24-6.79,4.57-14.49,6.72-22.43,8.21a70.22,70.22,0,0,1-18.93,1.08c-9.84-.88-19.59-2.73-28.59-7.41-6.14-3.19-11.62-7.07-15.41-12.84A58.72,58.72,0,0,1,6.6,214.44a52.62,52.62,0,0,1,3.85-26.57A39.21,39.21,0,0,1,17,177.47c.67-.8,1.68-1.36,1.73-2.56,3.17-2.26,5.92-5,9.37-7C37.07,163,45.58,160.87,54.78,170.18ZM65.7,248.52c1.94-.08,3.29,0,4.63-.5a9.42,9.42,0,0,0,6.25-8.38c.16-4.22-1.84-7.77-5.31-9.3a8.89,8.89,0,0,0-10.5,1.9c-3.16,3.07-6.34,6.53-4.62,11.29C57.77,248,62.22,248.19,65.7,248.52ZM27,198.29c-6.23,0-10.78,3.14-10.7,7.48.11,5.49,5.86,11.52,11.07,11.58A9.53,9.53,0,0,0,27,198.29Zm12.46-23.58c-5.72,0-9.88,3.81-10,9.21a9.47,9.47,0,0,0,9.46,9.84c4.71,0,10.14-6,10.22-11.3C49.23,177.83,45.36,174.75,39.45,174.71Zm4.63,46.35a14.34,14.34,0,0,0-8.3,2.3,6.33,6.33,0,0,0-3,7.07,9.56,9.56,0,0,0,13.73,6.64,10.07,10.07,0,0,0,5-11.32C50.57,222,49.17,221,44.08,221.06Z" transform="translate(-5.64 -26.25)"/><path class="cls-4" d="M54.78,170.18c-9.2-9.31-17.71-7.21-26.7-2.23-3.45,1.91-6.2,4.7-9.37,7C10.65,167.33,7.39,157.62,6,147c-1.42-10.83,1.64-20.21,8.34-28.65A135.14,135.14,0,0,1,63.13,79.26c4.39-2.05,9-3.76,14.06-2.31,3.65,2.7,3.45,6.52,2.88,10.35C78.72,96.43,75.3,105,72.4,113.68,69,124,66,134.35,64.94,145.29A48.31,48.31,0,0,1,54.78,170.18Z" transform="translate(-5.64 -26.25)"/><path class="cls-4" d="M207.49,101.78c5.47-.27,10.95-.49,16.31-1.78,6.53-1.57,12.15-4.28,14.48-11.26.08-.24.49-.36.75-.53a152,152,0,0,1,29.13,34.05c11.13,17.67,4.6,36.21-4.51,48.06-5.62,7.3-13,11.67-22.46,11.78-14.71-1.34-22-11.09-26.6-23.71A39.15,39.15,0,0,1,212,142.21C213.06,128.42,210.05,115.14,207.49,101.78Z" transform="translate(-5.64 -26.25)"/><path class="cls-5" d="M205.65,39.42c-1.87,1.13-3.36,2.87-5.6,3.44-1.66.43-3.43,1-4.79-.29s-1.42-3.19-.83-5c.38-1.2.67-2.42,1-3.64A65.31,65.31,0,0,1,200,28.27c2.77-2.79,5.1-2.65,8.27.16,2.8,2.47,2.91,4,.44,7.34C207.74,37,206.66,38.21,205.65,39.42Z" transform="translate(-5.64 -26.25)"/><path class="cls-6" d="M139.15,164.65c-5.11-.08-9.75-.92-13.91-3.49-5.55-3.42-5.61-8.43-.2-12,7.26-4.84,21.21-4.77,28.42.14,5.08,3.47,5.08,8.25-.08,11.69C149,163.87,144,164.56,139.15,164.65Z" transform="translate(-5.64 -26.25)"/><path class="cls-7" d="M118.23,143.71c-3.31-.68-4.47-3.13-4.8-6.09-.41-3.68,1-6.17,4.26-7.86C122.85,133.9,123,138.75,118.23,143.71Z" transform="translate(-5.64 -26.25)"/><path class="cls-7" d="M158,143.82c-3.5-1.06-4.55-3.82-4.56-7s1-5.78,4.36-6.84C163,134,163.05,139.37,158,143.82Z" transform="translate(-5.64 -26.25)"/><path class="cls-8" d="M158,143.82c5.05-4.45,5-9.86-.2-13.87.47-.22.94-.64,1.41-.64a6.14,6.14,0,0,1,5.56,3.45,8.54,8.54,0,0,1-.73,9.16C162.48,143.73,160.59,145,158,143.82Z" transform="translate(-5.64 -26.25)"/><path class="cls-9" d="M118.23,143.71c4.81-5,4.62-9.81-.54-14,2.81-1.21,4.85,0,6.52,2.18a8.16,8.16,0,0,1,.11,9.42C122.87,143.44,121,144.91,118.23,143.71Z" transform="translate(-5.64 -26.25)"/><path class="cls-10" d="M175.84,37.54c3.22-.38,7.19.41,11.18.64.69,0,1.7-.2,1.8.81.12,1.33-1,1.07-1.82,1.08-5.48.08-10.92-.92-16.43-.62-10.78.58-21.15,2.33-29.84,9.5a74.83,74.83,0,0,0-9.64,10c-.5.6-.88,1.86-1.87,1.22-1.21-.78-.15-1.65.37-2.37C138,46.2,149.1,39.23,163.68,38.1,167.47,37.8,171.24,37.56,175.84,37.54Z" transform="translate(-5.64 -26.25)"/><path class="cls-10" d="M229.74,81.3c-.1,4,.2,6.89-.64,9.68-.2.68,0,1.73-1,1.65-1.2-.09-1.07-1.27-.89-2,.92-3.75.63-7.56.56-11.34-.17-8.39-3.84-15.06-10.08-20.57a115.75,115.75,0,0,0-11.49-8.88c-.68-.46-1.54-1.08-1.13-2,.48-1.12,1.35-.34,1.83,0,6.65,4.82,13.67,9.22,18.29,16.31A27.86,27.86,0,0,1,229.74,81.3Z" transform="translate(-5.64 -26.25)"/><path class="cls-10" d="M150.76,78.25c-.38-.2-.77-.28-.89-.5-.45-.81.1-1.37.58-2,1.91-2.25,3.76-4.54,5.7-6.76,6.9-7.87,13.51-16.07,23.61-20.17,2.24-.92,4.54-1.71,6.82-2.53.74-.26,1.75-1,2.21.07.54,1.31-.82,1.57-1.64,1.81A46.78,46.78,0,0,0,174,54.32c-6.9,4.69-11.89,11.28-17.3,17.45-1.53,1.74-2.94,3.58-4.45,5.34A9.68,9.68,0,0,1,150.76,78.25Z" transform="translate(-5.64 -26.25)"/><path class="cls-10" d="M205.53,79.59c0,3.17,0,6.34,0,9.51,0,1.08.34,2.83-1.22,2.75-1.78-.08-1.22-1.84-1.11-3,.74-8.62,1-17.22-.79-25.77-.73-3.47-2.58-6.44-4.18-9.53-.4-.78-1.58-1.66-.37-2.38s1.56.76,2,1.46a33.79,33.79,0,0,1,5.63,17.81c.15,3.06,0,6.13,0,9.19Z" transform="translate(-5.64 -26.25)"/><path class="cls-10" d="M181.17,88.91c-1.41-.4-.94-1.38-.78-2.29a122.92,122.92,0,0,1,5.34-19.09A42.12,42.12,0,0,0,188,58.36c.09-.75,0-2.57,1.61-2.12,1.22.34.46,1.55.34,2.45-.92,7-4,13.48-5.77,20.29a43.18,43.18,0,0,0-1.53,7.38C182.55,87.4,182.37,88.46,181.17,88.91Z" transform="translate(-5.64 -26.25)"/><path class="cls-11" d="M65.7,248.52c-3.48-.33-7.93-.52-9.55-5-1.72-4.76,1.46-8.22,4.62-11.29a8.89,8.89,0,0,1,10.5-1.9c3.47,1.53,5.47,5.08,5.31,9.3A9.42,9.42,0,0,1,70.33,248C69,248.55,67.64,248.44,65.7,248.52Z" transform="translate(-5.64 -26.25)"/><path class="cls-12" d="M27,198.29a9.53,9.53,0,0,1,.37,19.06c-5.21-.06-11-6.09-11.07-11.58C16.21,201.43,20.76,198.25,27,198.29Z" transform="translate(-5.64 -26.25)"/><path class="cls-13" d="M39.45,174.71c5.91,0,9.78,3.12,9.71,7.75-.08,5.3-5.51,11.3-10.22,11.3a9.47,9.47,0,0,1-9.46-9.84C29.57,178.52,33.73,174.67,39.45,174.71Z" transform="translate(-5.64 -26.25)"/><path class="cls-14" d="M44.08,221.06c5.09,0,6.49.92,7.41,4.69a10.07,10.07,0,0,1-5,11.32,9.56,9.56,0,0,1-13.73-6.64,6.33,6.33,0,0,1,3-7.07A14.34,14.34,0,0,1,44.08,221.06Z" transform="translate(-5.64 -26.25)"/></svg>