<svg width="1285" height="862" viewBox="0 0 1285 862" fill="none" xmlns="http://www.w3.org/2000/svg">
<path d="M2 94.9833C247.867 -31.3206 388.291 -32.0011 643 94.9833V855C397.254 756.141 256.579 758.622 2 855V94.9833Z" fill="white"/>
<path d="M1284 94.9833C1038.13 -31.3206 897.709 -32.0011 643 94.9833V855C888.746 756.141 1029.42 758.622 1284 855V94.9833Z" fill="white"/>
<line x1="643.5" y1="108" x2="643.5" y2="852" stroke="#9A9A9A"/>
<path d="M2 855C258.06 755.779 398.171 758.869 643 855V861H2V855Z" fill="#F5F5F5"/>
<path d="M1284 854.262C1027.94 755.041 887.829 758.13 643 854.262V860.262H1284V854.262Z" fill="#F5F5F5"/>
<path d="M1.99725 855.556C258.904 758.502 399.43 757.723 642.999 855.556" stroke="#D9D9D9"/>
<path d="M1.22128 861.381C245.798 823.099 386.448 825.189 641.906 859.378" stroke="#D9D9D9"/>
<path d="M1.19303 859.974C248.658 833.085 389.21 834.792 641.878 857.971" stroke="#D9D9D9"/>
<line x1="4" y1="860.5" x2="643" y2="860.5" stroke="#D9D9D9"/>
<path d="M1.30029 860.892C257.666 790.894 397.643 793.645 641.985 858.889" stroke="#D9D9D9"/>
<path d="M1.1268 859.683C251.354 806.923 391.576 808.063 641.812 857.646" stroke="#D9D9D9"/>
<path d="M1.315 859.937C258.963 772.702 398.79 777.337 642 857.934" stroke="#D9D9D9"/>
<path d="M1284 855.589C1027.1 758.535 886.57 757.756 643.001 855.589" stroke="#D9D9D9"/>
<path d="M1284.78 861.415C1040.2 823.132 899.552 825.223 644.094 859.412" stroke="#D9D9D9"/>
<path d="M1284.81 860.008C1037.34 833.118 896.79 834.825 644.122 858.004" stroke="#D9D9D9"/>
<line y1="-0.5" x2="639" y2="-0.5" transform="matrix(-1 0 0 1 1282 861.033)" stroke="#D9D9D9"/>
<path d="M1284.7 860.925C1028.33 790.928 888.357 793.678 644.015 858.922" stroke="#D9D9D9"/>
<path d="M1284.87 859.717C1034.65 806.956 894.424 808.097 644.188 857.679" stroke="#D9D9D9"/>
<path d="M1284.68 859.971C1027.04 772.735 887.21 777.37 644 857.967" stroke="#D9D9D9"/>
<path d="M1 860.166C251.688 846.473 392.311 846.75 643 860.166" stroke="#D9D9D9"/>
</svg>
