<svg width="52" height="53" viewBox="0 0 52 53" fill="none" xmlns="http://www.w3.org/2000/svg">
<path d="M39.5 12.1844C39.5 17.7073 33.5228 22.1844 28 22.1844C22.4772 22.1844 18 17.7073 18 12.1844C18 6.6616 26 -1.31543 32.5 0.184448C38.0228 0.184448 39.5 6.6616 39.5 12.1844Z" fill="#FDDF61"/>
<path d="M22 17.1846C22 22.7074 21.5228 28.6846 16 28.6846C10.4772 28.6846 0 22.7074 0 17.1846C0 11.6617 4.47715 7.18457 10 7.18457C15.5228 7.18457 22 11.6617 22 17.1846Z" fill="#FDDF61"/>
<path d="M51.9998 25.1846C51.9998 30.7074 47.5226 35.1846 41.9998 35.1846C36.4769 35.1846 30.5 30.7074 30.5 25.1846C30.5 19.6617 34.9772 15.1846 40.5 15.1846C46.0228 15.1846 51.9998 19.6617 51.9998 25.1846Z" fill="#FDDF61"/>
<path d="M22 35.1846C22 40.7074 17.5228 47.1846 12 47.1846C6.47715 47.1846 1 40.7074 1 35.1846C1 29.6617 6.47715 25.1846 12 25.1846C17.5228 25.1846 22 29.6617 22 35.1846Z" fill="#FDDF61"/>
<path d="M39.8945 40.6845C39.8945 46.2074 34.9174 52.1846 29.3945 52.1846C23.8717 52.1846 19.3945 46.2074 19.3945 40.6846C19.3945 35.1617 23.8717 30.6846 29.3945 30.6846C34.9174 30.6846 39.8945 35.1617 39.8945 40.6845Z" fill="#FDDF61"/>
<circle cx="26" cy="27.1846" r="8" fill="#3B82BF"/>
</svg>
