<svg width="79" height="87" viewBox="0 0 79 87" fill="none" xmlns="http://www.w3.org/2000/svg">
<path d="M39.8609 12.4573C42.9786 14.5381 40.8579 29.3827 38.6595 32.5261C36.4611 35.6695 32.0864 38.9919 28.9687 36.9112C25.851 34.8304 25.1708 28.1344 27.3692 24.991C29.5676 21.8476 36.7431 10.3766 39.8609 12.4573Z" fill="#7DD070"/>
<path d="M4.2717 24.961C6.97236 21.9333 22.3809 25.565 25.3666 28.1457C28.3523 30.7264 31.1833 35.5782 28.4826 38.6059C25.782 41.6335 18.5724 41.6904 15.5866 39.1097C12.6009 36.5291 1.57104 27.9886 4.2717 24.961Z" fill="#7DD070"/>
<path d="M27.8451 35.0099C27.5588 34.2763 27.82 33.4375 28.4731 32.9974C29.3855 32.3824 30.6335 32.7913 31.0184 33.8221C37.7443 51.8352 43.9683 61.0858 57.7078 73.46C58.5242 74.1954 58.4421 75.5068 57.5309 76.1209C56.8811 76.5589 56.0103 76.4855 55.4421 75.9459C41.5249 62.7275 35.0713 53.523 27.8451 35.0099Z" fill="#7DD070"/>
</svg>
